<svg width="18" height="19" viewBox="0 0 18 19">
  <path
    fill="currentColor"
    d="M17.8874 8.92919C17.816 8.74522 17.7089 8.57714 17.5723 8.4346L10.0692 0.940774C9.92927 0.801032 9.76316 0.690182 9.58036 0.614554C9.39755 0.538926 9.20161 0.5 9.00374 0.5C8.60412 0.5 8.22087 0.658551 7.9383 0.940774C7.79838 1.08052 7.6874 1.24642 7.61167 1.429C7.53595 1.61158 7.49698 1.80727 7.49698 2.0049C7.49698 2.40402 7.65573 2.7868 7.9383 3.06902L12.8904 7.99996H1.50062C1.10263 7.99996 0.720944 8.15786 0.439523 8.43894C0.158101 8.72001 0 9.10122 0 9.49872C0 9.89622 0.158101 10.2774 0.439523 10.5585C0.720944 10.8396 1.10263 10.9975 1.50062 10.9975H12.8904L7.9383 15.9284C7.79765 16.0678 7.68601 16.2335 7.60983 16.4162C7.53364 16.5988 7.49442 16.7947 7.49442 16.9925C7.49442 17.1904 7.53364 17.3863 7.60983 17.5689C7.68601 17.7516 7.79765 17.9173 7.9383 18.0567C8.0778 18.1971 8.24377 18.3086 8.42664 18.3847C8.6095 18.4608 8.80564 18.5 9.00374 18.5C9.20184 18.5 9.39798 18.4608 9.58085 18.3847C9.76371 18.3086 9.92968 18.1971 10.0692 18.0567L17.5723 10.5628C17.7089 10.4203 17.816 10.2522 17.8874 10.0683C18.0375 9.70336 18.0375 9.29408 17.8874 8.92919Z"
  />
</svg>