<svg width="40" height="40" viewBox="0 0 40 40">
  <path d="M22.9219 2.95032H14.1856C13.9501 2.95032 13.7601 3.14409 13.7601 3.38427V7.65829C13.7601 7.77291 13.8056 7.88481 13.8859 7.96669L18.2527 12.4208C18.4186 12.5901 18.6889 12.5901 18.8547 12.4208L23.2216 7.96669C23.3018 7.88481 23.3473 7.77564 23.3473 7.65829V3.38427C23.3473 3.14409 23.1573 2.95032 22.9219 2.95032Z" />
  <path d="M22.9219 40H14.1856C13.9501 40 13.7601 39.8062 13.7601 39.5661V35.2921C13.7601 35.1774 13.8056 35.0655 13.8859 34.9836L18.2527 30.5295C18.4186 30.3603 18.6889 30.3603 18.8547 30.5295L23.2216 34.9836C23.3018 35.0655 23.3473 35.1747 23.3473 35.2921V39.5661C23.3473 39.8062 23.1573 40 22.9219 40Z" />
  <path d="M0.392151 17.0196V25.9307C0.392151 26.1708 0.582129 26.3646 0.817594 26.3646H5.00781C5.12019 26.3646 5.22989 26.3182 5.31017 26.2363L9.67698 21.7822C9.84287 21.613 9.84287 21.3373 9.67698 21.1681L5.31017 16.714C5.22989 16.6321 5.12286 16.5857 5.00781 16.5857H0.817594C0.582129 16.5857 0.392151 16.7795 0.392151 17.0196Z" />
  <path d="M36.7154 17.0196V25.9307C36.7154 26.1708 36.5254 26.3646 36.2899 26.3646H32.0997C31.9873 26.3646 31.8776 26.3182 31.7974 26.2363L27.4305 21.7822C27.2646 21.613 27.2646 21.3373 27.4305 21.1681L31.7974 16.714C31.8776 16.6321 31.9847 16.5857 32.0997 16.5857H36.2899C36.5254 16.5857 36.7154 16.7795 36.7154 17.0196Z" />
  <path d="M8.79936 5.22377L2.62107 11.5256C2.45517 11.6948 2.45517 11.9705 2.62107 12.1397L5.58579 15.1637C5.66606 15.2456 5.77309 15.292 5.88815 15.292H12.0664C12.3019 15.292 12.4919 15.0982 12.4919 14.8581V8.5562C12.4919 8.44157 12.4464 8.32967 12.3661 8.24779L9.4014 5.22377C9.2355 5.05456 8.96525 5.05456 8.79936 5.22377Z" />
  <path d="M34.4865 31.4247L28.3082 37.7266C28.1423 37.8958 27.872 37.8958 27.7061 37.7266L24.7414 34.7025C24.6611 34.6207 24.6157 34.5115 24.6157 34.3941V28.0923C24.6157 27.8521 24.8056 27.6583 25.0411 27.6583H31.2194C31.3318 27.6583 31.4415 27.7047 31.5218 27.7866L34.4865 30.8106C34.6524 30.9798 34.6524 31.2555 34.4865 31.4247Z" />
  <path d="M2.62375 31.4247L8.80204 37.7266C8.96794 37.8958 9.23819 37.8958 9.40408 37.7266L12.3688 34.7025C12.4491 34.6207 12.4946 34.5115 12.4946 34.3941V28.0923C12.4946 27.8521 12.3046 27.6583 12.0691 27.6583H5.89083C5.77845 27.6583 5.66875 27.7047 5.58847 27.7866L2.62375 30.8106C2.45785 30.9798 2.45785 31.2555 2.62375 31.4247Z" />
  <path d="M33.3064 0.128253L39.4847 6.43011C39.6506 6.59932 39.6506 6.87498 39.4847 7.04419L36.52 10.0682C36.4397 10.1501 36.3327 10.1965 36.2177 10.1965H30.0394C29.8039 10.1965 29.6139 10.0027 29.6139 9.76253V3.45795C29.6139 3.34332 29.6594 3.23142 29.7397 3.14954L32.7017 0.128253C32.8676 -0.0409607 33.1379 -0.0409607 33.3038 0.128253H33.3064Z" />
</svg>
