<svg width="122" height="122" viewBox="0 0 122 122">
  <path d="M76.9088 80.1372H39.3393C38.4993 80.1372 37.8181 80.8143 37.8181 81.6491V94.1721C37.8181 95.0069 38.4993 95.684 39.3393 95.684H44.1181C44.9581 95.684 45.6393 95.0069 45.6393 94.1721V87.9106H76.9139V94.1721C76.9139 95.0069 77.5951 95.684 78.4351 95.684H83.2139C84.0539 95.684 84.7351 95.0069 84.7351 94.1721V81.6491C84.7351 80.8143 84.0539 80.1372 83.2139 80.1372H76.9139H76.9088Z"/>
  <path d="M63.4227 27.882C62.2396 26.706 60.3035 26.706 59.1254 27.882L39.9693 46.9209C38.7862 48.0968 37.8181 50.4182 37.8181 52.0777V69.3451C37.8181 71.0047 39.1857 72.369 40.8606 72.369H81.6876C83.3573 72.369 84.73 71.0098 84.73 69.3451V52.0777C84.73 50.4182 83.762 48.0968 82.5788 46.9209L63.4227 27.882Z" />
</svg>
