<svg width="19" height="19" viewBox="0 0 19 19">
  <path    
    fill="currentColor" 
    d="M4.12421 19H0.304339V6.31467H4.12421V19ZM2.21222 4.58428C0.990747 4.58428 0 3.54095 0 2.28132C8.74275e-09 1.67628 0.233072 1.09602 0.647943 0.668184C1.06281 0.240353 1.6255 0 2.21222 0C2.79893 0 3.36162 0.240353 3.77649 0.668184C4.19136 1.09602 4.42443 1.67628 4.42443 2.28132C4.42443 3.54095 3.43327 4.58428 2.21222 4.58428ZM18.4207 19H14.6091V12.8249C14.6091 11.3532 14.5803 9.46586 12.6231 9.46586C10.6371 9.46586 10.3327 11.0648 10.3327 12.7188V19H6.51697V6.31467H10.1806V8.04507H10.234C10.744 7.04839 11.9897 5.99658 13.8483 5.99658C17.7142 5.99658 18.4249 8.62187 18.4249 12.0318V19H18.4207Z"
  />
</svg>