<svg width="25" height="24" viewBox="0 0 25 24">
  <path
    fill="currentColor"
    d="M4.66668 19.5833C4.12814 19.5833 3.66711 19.3916 3.2836 19.0081C2.9001 18.6245 2.70834 18.1635 2.70834 17.625V5.87498C2.70834 5.33644 2.9001 4.87541 3.2836 4.49191C3.66711 4.1084 4.12814 3.91665 4.66668 3.91665H14.5563C14.491 4.24304 14.4583 4.56942 14.4583 4.89581C14.4583 5.2222 14.491 5.54859 14.5563 5.87498H4.66668L12.5 10.7708L16.074 8.54321C16.3024 8.75536 16.5513 8.93896 16.8206 9.09399C17.0899 9.24902 17.3714 9.38366 17.6651 9.4979L12.5 12.7291L4.66668 7.83331V17.625H20.3333V9.69373C20.7087 9.61213 21.0596 9.4979 21.3859 9.35102C21.7123 9.20415 22.0142 9.02463 22.2917 8.81248V17.625C22.2917 18.1635 22.0999 18.6245 21.7164 19.0081C21.3329 19.3916 20.8719 19.5833 20.3333 19.5833H4.66668ZM19.3542 7.83331C18.5382 7.83331 17.8446 7.54772 17.2734 6.97654C16.7023 6.40536 16.4167 5.71179 16.4167 4.89581C16.4167 4.07984 16.7023 3.38626 17.2734 2.81508C17.8446 2.2439 18.5382 1.95831 19.3542 1.95831C20.1701 1.95831 20.8637 2.2439 21.4349 2.81508C22.0061 3.38626 22.2917 4.07984 22.2917 4.89581C22.2917 5.71179 22.0061 6.40536 21.4349 6.97654C20.8637 7.54772 20.1701 7.83331 19.3542 7.83331Z"
  />
</svg>