<?xml version="1.0" encoding="UTF-8"?>
<svg id="Layer_1" data-name="Layer 1" xmlns="http://www.w3.org/2000/svg" viewBox="0 0 145 32.32">
  <defs>
    <style>
      .cls-1 {
        fill: currentColor;
        stroke-width: 0px;
      }
    </style>
  </defs>
  <path class="cls-1" d="M18.28,25.01H.71c-.39,0-.71.32-.71.71v5.89c0,.39.32.71.71.71h2.24c.39,0,.71-.32.71-.71v-2.95h14.63v2.95c0,.39.32.71.71.71h2.24c.39,0,.71-.32.71-.71v-5.89c0-.39-.32-.71-.71-.71h-2.95Z"/>
  <path class="cls-1" d="M11.98.41c-.55-.55-1.46-.55-2.01,0L1.01,9.37c-.55.55-1.01,1.65-1.01,2.43v8.13c0,.78.64,1.42,1.42,1.42h19.1c.78,0,1.42-.64,1.42-1.42v-8.13c0-.78-.45-1.87-1.01-2.43L11.98.41Z"/>
  <g>
    <path class="cls-1" d="M36.14,3.07c1.01,0,1.95.18,2.81.55.86.37,1.59.87,2.19,1.51.6.64,1.07,1.42,1.4,2.32.33.9.5,1.88.5,2.93.01,1.04-.15,2.01-.49,2.92-.34.91-.81,1.69-1.41,2.34s-1.34,1.15-2.21,1.52c-.87.37-1.81.55-2.81.53-1.33.02-2.53-.29-3.58-.92-1.06-.63-1.88-1.51-2.45-2.62s-.85-2.37-.83-3.76c-.01-1.04.15-2.01.49-2.92.34-.91.81-1.69,1.41-2.34.6-.65,1.34-1.16,2.2-1.53s1.79-.55,2.79-.53ZM36.16,14.89c1.19,0,2.14-.4,2.83-1.21.7-.81,1.04-1.91,1.04-3.3s-.35-2.51-1.04-3.32-1.64-1.21-2.84-1.21-2.15.4-2.84,1.21-1.04,1.91-1.04,3.32.35,2.51,1.04,3.31c.69.8,1.64,1.2,2.84,1.2Z"/>
    <path class="cls-1" d="M55.61,8c0,1.42-.43,2.56-1.28,3.42-.86.87-2.02,1.3-3.49,1.3h-2.8v4.74h-2.86V3.32h5.7c1.48,0,2.64.42,3.48,1.25.84.83,1.26,1.98,1.26,3.42ZM52.6,7.94c0-.6-.2-1.09-.59-1.49-.39-.39-.95-.59-1.69-.59h-2.29v4.36h2.29c.74,0,1.31-.21,1.7-.63.39-.42.58-.97.58-1.65Z"/>
    <path class="cls-1" d="M66.53,14.77v2.69h-8.9V3.32h8.9v2.72h-6.04v3.02h5.37v2.53h-5.37v3.19h6.04Z"/>
    <path class="cls-1" d="M81.37,3.32v14.14h-2.84l-6.19-9.58v9.58h-2.84V3.32h2.84l6.19,9.59V3.32h2.84Z"/>
    <path class="cls-1" d="M89.47,3.32h2.86v5.72l5.6.02V3.32h2.88v14.14h-2.88v-5.86l-5.6-.04v5.89h-2.86V3.32Z"/>
    <path class="cls-1" d="M109.8,3.07c1.01,0,1.95.18,2.81.55.86.37,1.59.87,2.19,1.51.6.64,1.07,1.42,1.4,2.32.33.9.5,1.88.5,2.93.01,1.04-.15,2.01-.49,2.92-.34.91-.81,1.69-1.41,2.34s-1.34,1.15-2.21,1.52c-.87.37-1.81.55-2.81.53-1.33.02-2.53-.29-3.58-.92-1.06-.63-1.88-1.51-2.45-2.62s-.85-2.37-.83-3.76c-.01-1.04.15-2.01.49-2.92.34-.91.81-1.69,1.41-2.34.6-.65,1.34-1.16,2.2-1.53s1.79-.55,2.79-.53ZM109.82,14.89c1.19,0,2.14-.4,2.83-1.21.7-.81,1.04-1.91,1.04-3.3s-.35-2.51-1.04-3.32-1.64-1.21-2.84-1.21-2.15.4-2.84,1.21-1.04,1.91-1.04,3.32.35,2.51,1.04,3.31c.69.8,1.64,1.2,2.84,1.2Z"/>
    <path class="cls-1" d="M133.1,3.32v14.14h-2.82v-7.73l-3.03,7.73h-2.71l-2.99-7.67v7.67h-2.73V3.32h2.73l4.35,10.8,4.38-10.8h2.82Z"/>
    <path class="cls-1" d="M145,14.77v2.69h-8.9V3.32h8.9v2.72h-6.04v3.02h5.37v2.53h-5.37v3.19h6.04Z"/>
  </g>
  <g>
    <path class="cls-1" d="M30.87,23.05v3.18h4.08v1.45h-4.08v4.44h-1.62v-10.61h6.46v1.53h-4.84Z"/>
    <path class="cls-1" d="M41.89,21.35c.74,0,1.43.12,2.07.4s1.19.66,1.64,1.14c.45.49.8,1.07,1.05,1.75.25.68.38,1.41.37,2.18,0,.78-.11,1.51-.37,2.19-.25.68-.61,1.27-1.05,1.75-.45.48-.99.86-1.64,1.14s-1.33.41-2.07.4c-.74,0-1.42-.12-2.06-.4-.64-.28-1.18-.66-1.63-1.14-.45-.49-.8-1.07-1.05-1.75-.25-.68-.37-1.41-.36-2.18,0-.77.11-1.5.36-2.18.25-.68.6-1.27,1.05-1.75.45-.49.99-.87,1.63-1.15.64-.28,1.33-.41,2.06-.4ZM39.42,29.65c.62.71,1.45,1.07,2.48,1.07s1.86-.35,2.48-1.07c.62-.71.93-1.65.93-2.83s-.31-2.12-.93-2.83c-.62-.71-1.45-1.07-2.48-1.07s-1.86.36-2.48,1.07c-.62.71-.94,1.66-.94,2.83s.31,2.11.94,2.83Z"/>
    <path class="cls-1" d="M48.71,21.52h1.62v6.78c0,.81.24,1.42.71,1.83.47.41,1.09.62,1.85.62s1.35-.22,1.84-.65c.49-.43.73-1.03.73-1.8v-6.78h1.62v6.85c0,.62-.11,1.19-.33,1.69-.22.51-.53.92-.91,1.25-.38.33-.83.58-1.33.75s-1.04.26-1.62.26-1.09-.09-1.59-.26c-.5-.17-.94-.42-1.33-.74-.39-.32-.7-.74-.92-1.25-.23-.51-.34-1.08-.34-1.71v-6.85Z"/>
    <path class="cls-1" d="M67.89,21.52v10.61h-1.62l-5.23-7.99v7.99h-1.62v-10.61h1.62l5.23,8.01v-8.01h1.62Z"/>
    <path class="cls-1" d="M79.19,26.84c0,.76-.13,1.47-.4,2.14-.27.67-.64,1.23-1.11,1.7-.47.47-1.04.83-1.7,1.09-.66.26-1.37.38-2.13.37h-3.53v-10.61h3.53c1-.01,1.91.21,2.73.66.82.46,1.46,1.09,1.93,1.91.47.82.69,1.73.68,2.74ZM77.47,26.84c0-1.12-.33-2.03-1-2.73s-1.55-1.05-2.63-1.05h-1.89v7.57h1.89c1.1,0,1.98-.35,2.64-1.04.66-.7.99-1.61.99-2.75Z"/>
    <path class="cls-1" d="M86.29,29.58h-4.23l-.92,2.55h-1.66l3.83-10.61h1.74l3.85,10.61h-1.71l-.9-2.55ZM85.82,28.2l-1.63-4.62-1.65,4.62h3.28Z"/>
    <path class="cls-1" d="M96.17,23.05h-3.08v9.08h-1.63v-9.08h-3.08v-1.53h7.79v1.53Z"/>
    <path class="cls-1" d="M97.63,32.13v-10.61h1.63v10.61h-1.63Z"/>
    <path class="cls-1" d="M106.17,21.35c.74,0,1.43.12,2.07.4s1.19.66,1.64,1.14c.45.49.8,1.07,1.05,1.75.25.68.38,1.41.37,2.18,0,.78-.11,1.51-.37,2.19-.25.68-.61,1.27-1.05,1.75-.45.48-.99.86-1.64,1.14s-1.33.41-2.07.4c-.74,0-1.42-.12-2.06-.4-.64-.28-1.18-.66-1.63-1.14-.45-.49-.8-1.07-1.05-1.75-.25-.68-.37-1.41-.36-2.18,0-.77.11-1.5.36-2.18.25-.68.6-1.27,1.05-1.75.45-.49.99-.87,1.63-1.15.64-.28,1.33-.41,2.06-.4ZM103.7,29.65c.62.71,1.45,1.07,2.48,1.07s1.86-.35,2.48-1.07c.62-.71.93-1.65.93-2.83s-.31-2.12-.93-2.83c-.62-.71-1.45-1.07-2.48-1.07s-1.86.36-2.48,1.07c-.62.71-.94,1.66-.94,2.83s.31,2.11.94,2.83Z"/>
    <path class="cls-1" d="M121.55,21.52v10.61h-1.62l-5.23-7.99v7.99h-1.62v-10.61h1.62l5.23,8.01v-8.01h1.62Z"/>
  </g>
</svg>