<svg width="446" height="464" viewBox="0 0 446 464" fill="none" xmlns="http://www.w3.org/2000/svg">
<path fill-rule="evenodd" clip-rule="evenodd" d="M244.153 53.8851C253.685 49.3254 260.268 39.5924 260.268 28.3218C260.268 12.6801 247.588 0 231.946 0C216.304 0 203.624 12.6801 203.624 28.3218C203.624 39.5922 210.207 49.325 219.738 53.8847V195.866H206.324L137.699 127.24C141.022 117.366 138.751 106.022 130.884 98.1557C119.824 87.0954 101.891 87.0954 90.8311 98.1557C79.7707 109.216 79.7707 127.148 90.8311 138.209C98.9024 146.28 110.633 148.461 120.683 144.753L171.796 195.866H144.449C139.992 186.072 130.12 179.263 118.659 179.263C103.017 179.263 90.3368 191.943 90.3368 207.585C90.3368 223.227 103.017 235.907 118.659 235.907C129.736 235.907 139.327 229.548 143.982 220.281L219.738 220.281L219.738 426.311L190.928 397.502V340.8C200.722 336.343 207.531 326.471 207.531 315.009C207.531 299.368 194.851 286.687 179.209 286.687C163.567 286.687 150.887 299.368 150.887 315.009C150.887 326.086 157.246 335.678 166.513 340.333V373.086L73.474 280.047C77.2476 269.97 75.0819 258.175 66.9769 250.07C55.9166 239.01 37.9842 239.01 26.9238 250.07C15.8635 261.131 15.8635 279.063 26.9238 290.123C34.7563 297.956 46.035 300.242 55.879 296.981L123.623 364.725H54.1128C49.6555 354.932 39.7838 348.123 28.3218 348.123C12.6801 348.123 0 360.803 0 376.445C0 392.086 12.6801 404.766 28.3218 404.766C39.3988 404.766 48.9905 398.407 53.6455 389.141H148.039L219.738 460.84V460.962H219.86L222.898 464L225.936 460.962H244.153V363.389L282.101 325.441H373.166C377.821 334.708 387.413 341.067 398.49 341.067C414.132 341.067 426.812 328.387 426.812 312.745C426.812 297.104 414.132 284.423 398.49 284.423C387.028 284.423 377.156 291.232 372.699 301.026H306.517L408.201 199.341C418.045 202.602 429.324 200.316 437.157 192.484C448.217 181.423 448.217 163.491 437.157 152.431C426.097 141.37 408.164 141.37 397.104 152.431C388.999 160.535 386.833 172.33 390.607 182.407L335.671 237.343V208.094C345.464 203.636 352.273 193.765 352.273 182.303C352.273 166.661 339.593 153.981 323.951 153.981C308.31 153.981 295.629 166.661 295.629 182.303C295.629 193.38 301.989 202.972 311.255 207.627V261.758L244.153 328.86L244.153 162.018L310.912 95.2591C320.756 98.52 332.035 96.2341 339.868 88.4016C350.928 77.3412 350.928 59.4089 339.868 48.3485C328.807 37.2881 310.875 37.2881 299.815 48.3485C291.71 56.4534 289.544 68.2484 293.317 78.3254L244.153 127.489V53.8851Z" fill="#EDECED"/>
</svg>
