<svg xmlns="http://www.w3.org/2000/svg" width="87" height="20" viewBox="0 0 87 20" fill="none">
  <path d="M10.9706 14.9128H0.426923C0.191181 14.9128 0 15.1028 0 15.3371V18.8516C0 19.0859 0.191181 19.2759 0.426923 19.2759H1.76806C2.0038 19.2759 2.19499 19.0859 2.19499 18.8516V17.0944H10.9721V18.8516C10.9721 19.0859 11.1632 19.2759 11.399 19.2759H12.7401C12.9759 19.2759 13.167 19.0859 13.167 18.8516V15.3371C13.167 15.1028 12.9759 14.9128 12.7401 14.9128H10.9721H10.9706Z" fill="#18BCF2"/>
  <path d="M7.18581 0.247515C6.85376 -0.0825052 6.3104 -0.0825052 5.97979 0.247515L0.603729 5.59071C0.271678 5.92073 0 6.5722 0 7.03794V11.884C0 12.3497 0.383799 12.7326 0.853845 12.7326H12.3118C12.7804 12.7326 13.1656 12.3511 13.1656 11.884V7.03794C13.1656 6.5722 12.8939 5.92073 12.5619 5.59071L7.18581 0.247515Z" fill="#18BCF2"/>
  <path d="M21.6852 1.82916C22.2918 1.82916 22.8539 1.93774 23.3714 2.15633C23.8888 2.37348 24.3273 2.67493 24.6866 3.05924C25.046 3.44355 25.3263 3.90358 25.5275 4.44218C25.7273 4.98079 25.828 5.56225 25.828 6.18801C25.8351 6.80662 25.7374 7.38665 25.5362 7.93097C25.3335 8.47529 25.0503 8.93961 24.6866 9.32535C24.3229 9.71109 23.8802 10.014 23.3599 10.2325C22.8395 10.4526 22.2775 10.5583 21.6737 10.5511C20.8759 10.5626 20.1587 10.3797 19.5233 10.004C18.888 9.62822 18.3978 9.10676 18.0528 8.43958C17.7078 7.77239 17.5411 7.0252 17.5526 6.19944C17.5454 5.58083 17.6431 5.00079 17.8444 4.45647C18.047 3.91215 18.3288 3.44784 18.691 3.05924C19.0533 2.67207 19.4931 2.36777 20.012 2.14918C20.531 1.9306 21.0887 1.82345 21.6852 1.83059V1.82916ZM21.6967 8.88103C22.4126 8.88103 22.9789 8.63959 23.3972 8.15813C23.8155 7.67524 24.024 7.01949 24.024 6.18801C24.024 5.35653 23.8155 4.69077 23.4001 4.20931C22.9847 3.72928 22.4169 3.48927 21.6967 3.48927C20.9766 3.48927 20.4088 3.72928 19.9933 4.20931C19.5779 4.68934 19.3695 5.34938 19.3695 6.18801C19.3695 7.02663 19.5779 7.68524 19.9933 8.16385C20.4088 8.64245 20.9766 8.88246 21.6967 8.88246V8.88103Z" fill="#18BCF2"/>
  <path d="M33.3675 4.76788C33.3675 5.61364 33.1102 6.29369 32.597 6.80943C32.0838 7.32518 31.3852 7.58377 30.4997 7.58377H28.8194V10.4111H27.1045V1.98056H30.5227C31.4111 1.98056 32.1068 2.22915 32.6114 2.72632C33.1159 3.2235 33.3675 3.90497 33.3675 4.76788ZM31.5577 4.73502C31.5577 4.37785 31.4413 4.08212 31.207 3.84925C30.9727 3.61638 30.6349 3.50066 30.1921 3.50066H28.8208V6.09939H30.1921C30.6377 6.09939 30.977 5.97367 31.2098 5.72222C31.4427 5.47078 31.5577 5.14219 31.5577 4.73645V4.73502Z" fill="#18BCF2"/>
  <path d="M39.9163 8.80813V10.4111H34.5762V1.98056H39.9163V3.60066H36.2896V5.39935H39.5109V6.90801H36.2896V8.80813H39.9163Z" fill="#18BCF2"/>
  <path d="M48.8215 1.98056V10.4125H47.1182L43.4024 4.70216V10.4125H41.699V1.98056H43.4024L47.1182 7.70235V1.98056H48.8215Z" fill="#18BCF2"/>
  <path d="M53.6785 1.98056H55.3933V5.38935L58.7555 5.40077V1.98056H60.4819V10.4125H58.7555V6.92087L55.3933 6.89801V10.4125H53.6785V1.98056Z" fill="#18BCF2"/>
  <path d="M65.8783 1.82919C66.4849 1.82919 67.047 1.93777 67.5645 2.15636C68.082 2.37351 68.5204 2.67496 68.8797 3.05927C69.2391 3.44358 69.5194 3.90361 69.7206 4.44221C69.9205 4.98082 70.0211 5.56228 70.0211 6.18804C70.0283 6.80665 69.9305 7.38668 69.7293 7.931C69.5266 8.47532 69.2434 8.93964 68.8797 9.32538C68.5161 9.71112 68.0733 10.014 67.553 10.2326C67.0326 10.4526 66.4706 10.5583 65.8668 10.5512C65.0691 10.5626 64.3518 10.3797 63.7164 10.004C63.0811 9.62825 62.5909 9.10679 62.2459 8.43961C61.9009 7.77242 61.7342 7.02523 61.7457 6.19947C61.7385 5.58086 61.8362 5.00082 62.0375 4.4565C62.2402 3.91218 62.5219 3.44787 62.8841 3.05927C63.2464 2.6721 63.6862 2.3678 64.2052 2.14921C64.7241 1.93063 65.2818 1.82348 65.8783 1.83062V1.82919ZM65.8898 8.88106C66.6057 8.88106 67.172 8.63962 67.5903 8.15816C68.0086 7.67527 68.2171 7.01952 68.2171 6.18804C68.2171 5.35656 68.0086 4.6908 67.5932 4.20934C67.1778 3.72931 66.61 3.4893 65.8898 3.4893C65.1697 3.4893 64.6019 3.72931 64.1865 4.20934C63.771 4.68937 63.5626 5.34941 63.5626 6.18804C63.5626 7.02666 63.771 7.68527 64.1865 8.16388C64.6019 8.64248 65.1697 8.88249 65.8898 8.88249V8.88106Z" fill="#18BCF2"/>
  <path d="M79.8603 1.98056V10.4125H78.1684V5.80223L76.3529 10.4125H74.7286L72.9346 5.83652V10.4125H71.2988V1.98056H72.9346L75.5436 8.42239L78.1684 1.98056H79.8603Z" fill="#18BCF2"/>
  <path d="M86.9998 8.80813V10.4111H81.6597V1.98056H86.9998V3.60066H83.3731V5.39935H86.5944V6.90801H83.3731V8.80813H86.9998Z" fill="#18BCF2"/>
  <path d="M18.523 13.7486V15.6473H20.9681V16.5145H18.523V19.1618H17.5527V12.8357H21.4295V13.7486H18.523Z" fill="#18BCF2"/>
  <path d="M25.1323 12.7328C25.5736 12.7271 25.9876 12.8071 26.3714 12.9714C26.7566 13.1357 27.0829 13.3628 27.3532 13.6528C27.622 13.9428 27.8333 14.2914 27.9857 14.6957C28.138 15.1015 28.2113 15.5344 28.2056 15.9958C28.2113 16.4601 28.138 16.8973 27.9857 17.3045C27.8333 17.7131 27.622 18.0602 27.3532 18.3503C27.0844 18.6389 26.7566 18.866 26.3714 19.0303C25.9862 19.1946 25.5736 19.2746 25.1323 19.2689C24.691 19.2746 24.2785 19.1946 23.8947 19.0303C23.5109 18.866 23.1846 18.6389 22.9158 18.3488C22.647 18.0588 22.4357 17.7102 22.2847 17.3059C22.1338 16.9016 22.0605 16.4673 22.0662 16.0058C22.0605 15.5444 22.1338 15.1101 22.2847 14.7043C22.4357 14.2986 22.6455 13.95 22.9158 13.6585C23.1846 13.3685 23.5109 13.1399 23.8947 12.9742C24.2785 12.8085 24.691 12.7285 25.1323 12.7342V12.7328ZM23.6503 17.6802C24.0255 18.1031 24.5214 18.316 25.1395 18.316C25.7576 18.316 26.2535 18.1045 26.6273 17.6802C27.001 17.2573 27.1879 16.6959 27.1879 15.9958C27.1879 15.2958 27.001 14.73 26.6273 14.3072C26.2535 13.8843 25.7576 13.6714 25.1395 13.6714C24.5214 13.6714 24.024 13.8843 23.6503 14.3086C23.2751 14.7329 23.0883 15.2958 23.0883 15.9958C23.0883 16.6959 23.2751 17.2573 23.6503 17.6802Z" fill="#18BCF2"/>
  <path d="M29.2278 12.8343H30.198V16.8788C30.2009 17.3603 30.3432 17.7246 30.625 17.9703C30.9067 18.2175 31.2776 18.3403 31.7361 18.3403C32.1947 18.3403 32.5454 18.2103 32.8386 17.9517C33.1319 17.6931 33.2785 17.3345 33.2785 16.8788V12.8343H34.2488V16.9174C34.2488 17.2888 34.1812 17.6246 34.0475 17.926C33.9138 18.2275 33.7313 18.476 33.5027 18.6689C33.2727 18.8632 33.0082 19.0118 32.7049 19.1175C32.4031 19.2218 32.0797 19.2747 31.7347 19.2747C31.3897 19.2747 31.0806 19.2232 30.7816 19.1218C30.4826 19.0204 30.2153 18.8732 29.9824 18.6818C29.7481 18.4903 29.5641 18.2432 29.429 17.9389C29.2939 17.6346 29.2263 17.2931 29.2263 16.9174V12.8343H29.2278Z" fill="#18BCF2"/>
  <path d="M40.7345 12.8343V19.1604H39.7642L36.6263 14.3929V19.1604H35.656V12.8343H36.6263L39.7642 17.6103V12.8343H40.7345Z" fill="#18BCF2"/>
  <path d="M47.515 16.0044C47.5179 16.4573 47.4388 16.883 47.2778 17.2788C47.1168 17.6759 46.894 18.0131 46.6109 18.2903C46.3277 18.5674 45.987 18.7846 45.5888 18.9403C45.1907 19.096 44.7666 19.1703 44.3124 19.1617H42.1921V12.8356H44.3124C44.9104 12.8271 45.4566 12.9585 45.9482 13.2314C46.4398 13.5028 46.825 13.8828 47.1039 14.37C47.3828 14.8572 47.5193 15.4029 47.515 16.0058V16.0044ZM46.4844 16.0044C46.4844 15.3358 46.2846 14.7929 45.8835 14.3757C45.4825 13.9586 44.9564 13.7485 44.3038 13.7485H43.171V18.2645H44.3038C44.9621 18.2645 45.4897 18.0574 45.8878 17.6416C46.286 17.2273 46.4844 16.6802 46.4844 16.0044Z" fill="#18BCF2"/>
  <path d="M51.7771 17.6403H49.2371L48.6851 19.1618H47.689L49.9889 12.8357H51.0325L53.3453 19.1618H52.319L51.7756 17.6403H51.7771ZM51.4953 16.8202L50.5164 14.0629L49.5289 16.8202H51.4953Z" fill="#18BCF2"/>
  <path d="M57.7022 13.7486H55.8551V19.1618H54.8762V13.7486H53.0291V12.8357H57.7008V13.7486H57.7022Z" fill="#18BCF2"/>
  <path d="M58.5774 19.1604V12.8343H59.5563V19.1604H58.5774Z" fill="#18BCF2"/>
  <path d="M63.6992 12.7328C64.1405 12.7271 64.5545 12.8071 64.9383 12.9714C65.3235 13.1357 65.6498 13.3628 65.9201 13.6528C66.1889 13.9428 66.4002 14.2914 66.5525 14.6957C66.7049 15.1015 66.7782 15.5344 66.7725 15.9958C66.7782 16.4601 66.7049 16.8973 66.5525 17.3045C66.4002 17.7131 66.1889 18.0602 65.9201 18.3503C65.6513 18.6389 65.3235 18.866 64.9383 19.0303C64.5531 19.1946 64.1405 19.2746 63.6992 19.2689C63.2579 19.2746 62.8454 19.1946 62.4616 19.0303C62.0778 18.866 61.7515 18.6389 61.4827 18.3488C61.2139 18.0588 61.0025 17.7102 60.8516 17.3059C60.7007 16.9016 60.6274 16.4673 60.6331 16.0058C60.6274 15.5444 60.7007 15.1101 60.8516 14.7043C61.0025 14.2986 61.2124 13.95 61.4827 13.6585C61.7515 13.3685 62.0778 13.1399 62.4616 12.9742C62.8454 12.8085 63.2579 12.7285 63.6992 12.7342V12.7328ZM62.2172 17.6802C62.5924 18.1031 63.0883 18.316 63.7064 18.316C64.3245 18.316 64.8204 18.1045 65.1942 17.6802C65.5679 17.2573 65.7548 16.6959 65.7548 15.9958C65.7548 15.2958 65.5679 14.73 65.1942 14.3072C64.8204 13.8843 64.3245 13.6714 63.7064 13.6714C63.0883 13.6714 62.5909 13.8843 62.2172 14.3086C61.842 14.7329 61.6552 15.2958 61.6552 15.9958C61.6552 16.6959 61.842 17.2573 62.2172 17.6802Z" fill="#18BCF2"/>
  <path d="M72.932 12.8343V19.1604H71.9617L68.8238 14.3929V19.1604H67.8535V12.8343H68.8238L71.9617 17.6103V12.8343H72.932Z" fill="#18BCF2"/>
</svg>