<svg width="36" height="52" viewBox="0 0 36 52" fill="none" xmlns="http://www.w3.org/2000/svg">
<path id="Subtract" fill-rule="evenodd" clip-rule="evenodd" d="M19.5974 0.656458C18.7167 -0.218819 17.2756 -0.218819 16.3988 0.656458L2.14045 14.8276C1.25979 15.7029 0.539246 17.4307 0.539246 18.666V31.5185C0.539246 32.7538 1.55715 33.7692 2.80381 33.7692H33.1924C34.4352 33.7692 35.4569 32.7575 35.4569 31.5185V18.666C35.4569 17.4307 34.7364 15.7029 33.8557 14.8276L19.5974 0.656458ZM29.6354 39.5516H1.67153C1.04629 39.5516 0.539246 40.0555 0.539246 40.6769V49.9981C0.539246 50.6195 1.04629 51.1234 1.67153 51.1234H5.22849C5.85372 51.1234 6.36077 50.6195 6.36077 49.9981V45.3375H29.6392V49.9981C29.6392 50.6195 30.1463 51.1234 30.7715 51.1234H34.3285C34.9537 51.1234 35.4607 50.6195 35.4607 49.9981V40.6769C35.4607 40.0555 34.9537 39.5516 34.3285 39.5516H29.6392H29.6354ZM13.0335 16.2053C13.6338 15.5963 14.4287 15.2072 15.3211 15.2072C16.2296 15.2072 17.0246 15.5963 17.6086 16.2053C18.1927 16.8312 18.5659 17.6601 18.5659 18.5905C18.5659 17.6432 18.939 16.8143 19.5231 16.2053C20.1234 15.5963 20.9183 15.2072 21.8106 15.2072C22.7192 15.2072 23.5142 15.5963 24.0982 16.2053C24.6823 16.8312 25.0554 17.6601 25.0554 18.5905C25.0554 19.5378 24.6823 20.3667 24.0982 20.9757L18.5659 26.7442L13.0335 20.9757C12.4494 20.3498 12.0763 19.5209 12.0763 18.5905C12.0763 17.6432 12.4494 16.8143 13.0335 16.2053Z" fill="#18BCF2"/>
</svg>
