<svg width="149" height="43" viewBox="0 0 149 43" fill="none" xmlns="http://www.w3.org/2000/svg">
<g id="Frame 117">
<g id="Group 31">
<path id="Vector" d="M18.2844 30.0608H0.711538C0.318635 30.0608 0 30.3775 0 30.768V36.6255C0 37.016 0.318635 37.3327 0.711538 37.3327H2.94677C3.33968 37.3327 3.65831 37.016 3.65831 36.6255V33.6967H18.2868V36.6255C18.2868 37.016 18.6054 37.3327 18.9983 37.3327H21.2335C21.6264 37.3327 21.9451 37.016 21.9451 36.6255V30.768C21.9451 30.3775 21.6264 30.0608 21.2335 30.0608H18.2868H18.2844Z" fill="#09293B"/>
<path id="Vector_2" d="M11.9764 5.61907C11.4229 5.06903 10.5173 5.06903 9.96632 5.61907L1.00621 14.5244C0.452797 15.0744 0 16.1602 0 16.9364V25.0131C0 25.7894 0.639665 26.4275 1.42308 26.4275H20.5196C21.3006 26.4275 21.9427 25.7918 21.9427 25.0131V16.9364C21.9427 16.1602 21.4899 15.0744 20.9365 14.5244L11.9764 5.61907Z" fill="#09293B"/>
<g id="Group">
<path id="Vector_3" d="M36.1421 8.25537C37.1531 8.25537 38.0899 8.43633 38.9523 8.80064C39.8148 9.16257 40.5455 9.66498 41.1445 10.3055C41.7434 10.946 42.2106 11.7127 42.546 12.6104C42.879 13.5081 43.0467 14.4772 43.0467 15.5201C43.0587 16.5511 42.8957 17.5179 42.5603 18.4251C42.2225 19.3323 41.7506 20.1061 41.1445 20.749C40.5383 21.3919 39.8004 21.8967 38.9332 22.261C38.0659 22.6277 37.1292 22.8039 36.123 22.792C34.7933 22.811 33.5978 22.5063 32.5389 21.88C31.48 21.2538 30.663 20.3847 30.0881 19.2727C29.5131 18.1608 29.2352 16.9154 29.2543 15.5392C29.2424 14.5081 29.4053 13.5414 29.7407 12.6342C30.0785 11.727 30.548 10.9532 31.1518 10.3055C31.7555 9.66022 32.4886 9.15305 33.3535 8.78874C34.2183 8.42443 35.1479 8.24585 36.1421 8.25775V8.25537ZM36.1613 20.0085C37.3544 20.0085 38.2983 19.6061 38.9955 18.8037C39.6926 17.9988 40.04 16.9059 40.04 15.5201C40.04 14.1343 39.6926 13.0247 39.0003 12.2223C38.3079 11.4222 37.3616 11.0222 36.1613 11.0222C34.961 11.0222 34.0147 11.4222 33.3223 12.2223C32.63 13.0223 32.2826 14.1224 32.2826 15.5201C32.2826 16.9178 32.63 18.0155 33.3223 18.8132C34.0147 19.6108 34.961 20.0109 36.1613 20.0109V20.0085Z" fill="#09293B"/>
<path id="Vector_4" d="M55.6126 13.1531C55.6126 14.5627 55.1838 15.6961 54.3285 16.5557C53.4732 17.4153 52.3089 17.8463 50.8331 17.8463H48.0324V22.5585H45.1743V8.50757H50.8714C52.352 8.50757 53.5115 8.92188 54.3524 9.7505C55.1933 10.5791 55.6126 11.7149 55.6126 13.1531ZM52.5963 13.0983C52.5963 12.5031 52.4023 12.0102 52.0118 11.622C51.6213 11.2339 51.0583 11.0411 50.3204 11.0411H48.0348V15.3723H50.3204C51.0631 15.3723 51.6285 15.1627 52.0166 14.7437C52.4047 14.3246 52.5963 13.7769 52.5963 13.1007V13.0983Z" fill="#09293B"/>
<path id="Vector_5" d="M66.5277 19.8869V22.5585H57.6274V8.50757H66.5277V11.2077H60.4832V14.2055H65.8521V16.72H60.4832V19.8869H66.5277Z" fill="#09293B"/>
<path id="Vector_6" d="M81.3695 8.50757V22.5608H78.5305L72.3375 13.0436V22.5608H69.4985V8.50757H72.3375L78.5305 18.0439V8.50757H81.3695Z" fill="#09293B"/>
<path id="Vector_7" d="M89.4644 8.50757H92.3225V14.1889L97.9261 14.2079V8.50757H100.803V22.5608H97.9261V16.7414L92.3225 16.7033V22.5608H89.4644V8.50757Z" fill="#09293B"/>
<path id="Vector_8" d="M109.797 8.25537C110.808 8.25537 111.745 8.43633 112.608 8.80064C113.47 9.16257 114.201 9.66498 114.8 10.3055C115.399 10.946 115.866 11.7127 116.201 12.6104C116.534 13.5081 116.702 14.4772 116.702 15.5201C116.714 16.5511 116.551 17.5179 116.216 18.4251C115.878 19.3323 115.406 20.1061 114.8 20.749C114.194 21.3919 113.456 21.8967 112.588 22.261C111.721 22.6277 110.784 22.8039 109.778 22.792C108.449 22.811 107.253 22.5063 106.194 21.88C105.135 21.2538 104.318 20.3847 103.743 19.2727C103.168 18.1608 102.89 16.9154 102.91 15.5392C102.898 14.5081 103.061 13.5414 103.396 12.6342C103.734 11.727 104.203 10.9532 104.807 10.3055C105.411 9.66022 106.144 9.15305 107.009 8.78874C107.874 8.42443 108.803 8.24585 109.797 8.25775V8.25537ZM109.817 20.0085C111.01 20.0085 111.954 19.6061 112.651 18.8037C113.348 17.9988 113.695 16.9059 113.695 15.5201C113.695 14.1343 113.348 13.0247 112.656 12.2223C111.963 11.4222 111.017 11.0222 109.817 11.0222C108.616 11.0222 107.67 11.4222 106.978 12.2223C106.285 13.0223 105.938 14.1224 105.938 15.5201C105.938 16.9178 106.285 18.0155 106.978 18.8132C107.67 19.6108 108.616 20.0109 109.817 20.0109V20.0085Z" fill="#09293B"/>
<path id="Vector_9" d="M133.101 8.50757V22.5608H130.281V14.877L127.255 22.5608H124.548L121.558 14.9342V22.5608H118.832V8.50757H121.558L125.906 19.244L130.281 8.50757H133.101Z" fill="#09293B"/>
<path id="Vector_10" d="M145 19.8869V22.5585H136.1V8.50757H145V11.2077H138.955V14.2055H144.324V16.72H138.955V19.8869H145Z" fill="#09293B"/>
</g>
<g id="Group_2">
<path id="Vector_11" d="M30.872 28.1206V31.2851H34.9472V32.7305H30.872V37.1426H29.2549V26.5991H35.7162V28.1206H30.872Z" fill="#09293B"/>
<path id="Vector_12" d="M41.8875 26.428C42.623 26.4184 43.313 26.5518 43.9527 26.8256C44.5947 27.0994 45.1385 27.478 45.5889 27.9614C46.037 28.4448 46.3891 29.0257 46.6431 29.6996C46.897 30.3758 47.0192 31.0973 47.0096 31.8664C47.0192 32.6403 46.897 33.3689 46.6431 34.0475C46.3891 34.7285 46.037 35.3071 45.5889 35.7905C45.1409 36.2714 44.5947 36.65 43.9527 36.9239C43.3106 37.1977 42.623 37.331 41.8875 37.3215C41.152 37.331 40.4644 37.1977 39.8248 36.9239C39.1851 36.65 38.6413 36.2714 38.1933 35.7881C37.7453 35.3047 37.3931 34.7237 37.1415 34.0499C36.89 33.376 36.7678 32.6522 36.7774 31.8831C36.7678 31.114 36.89 30.3901 37.1415 29.7139C37.3931 29.0377 37.7429 28.4567 38.1933 27.9709C38.6413 27.4876 39.1851 27.1066 39.8248 26.8304C40.4644 26.5542 41.152 26.4208 41.8875 26.4303V26.428ZM39.4175 34.6737C40.0428 35.3785 40.8693 35.7333 41.8995 35.7333C42.9297 35.7333 43.7562 35.3809 44.3791 34.6737C45.002 33.9689 45.3134 33.0331 45.3134 31.8664C45.3134 30.6997 45.002 29.7567 44.3791 29.0519C43.7562 28.3471 42.9297 27.9924 41.8995 27.9924C40.8693 27.9924 40.0404 28.3471 39.4175 29.0543C38.7922 29.7615 38.4808 30.6997 38.4808 31.8664C38.4808 33.0331 38.7922 33.9689 39.4175 34.6737Z" fill="#09293B"/>
<path id="Vector_13" d="M48.7133 26.5969H50.3305V33.3378C50.3353 34.1403 50.5724 34.7474 51.042 35.157C51.5116 35.5689 52.1297 35.7737 52.8939 35.7737C53.6582 35.7737 54.2427 35.557 54.7315 35.126C55.2202 34.6951 55.4646 34.0974 55.4646 33.3378V26.5969H57.0817V33.4021C57.0817 34.0212 56.9691 34.5808 56.7463 35.0832C56.5235 35.5856 56.2192 35.9999 55.8383 36.3213C55.455 36.6452 55.0142 36.8928 54.5087 37.069C54.0055 37.2428 53.4665 37.3309 52.8915 37.3309C52.3165 37.3309 51.8015 37.2452 51.3031 37.0762C50.8048 36.9071 50.3592 36.6618 49.9711 36.3428C49.5806 36.0237 49.2739 35.6118 49.0487 35.1046C48.8235 34.5974 48.7109 34.0283 48.7109 33.4021V26.5969H48.7133Z" fill="#09293B"/>
<path id="Vector_14" d="M67.8909 26.5969V37.1404H66.2738L61.0439 29.1947V37.1404H59.4268V26.5969H61.0439L66.2738 34.5569V26.5969H67.8909Z" fill="#09293B"/>
<path id="Vector_15" d="M79.1923 31.8806C79.1971 32.6354 79.0653 33.345 78.797 34.0045C78.5286 34.6665 78.1573 35.2284 77.6853 35.6903C77.2134 36.1523 76.6456 36.5142 75.982 36.7737C75.3183 37.0333 74.6116 37.1571 73.8545 37.1428H70.3208V26.5993H73.8545C74.8512 26.585 75.7615 26.8041 76.5809 27.2589C77.4002 27.7113 78.0423 28.3446 78.5071 29.1566C78.9719 29.9685 79.1994 30.8781 79.1923 31.883V31.8806ZM77.4745 31.8806C77.4745 30.7662 77.1415 29.8614 76.4731 29.1661C75.8047 28.4708 74.9278 28.1208 73.8402 28.1208H71.9523V35.6475H73.8402C74.9374 35.6475 75.8167 35.3022 76.4803 34.6093C77.1439 33.9188 77.4745 33.0068 77.4745 31.8806Z" fill="#09293B"/>
<path id="Vector_16" d="M86.2954 34.6068H82.0622L81.1422 37.1426H79.4819L83.3151 26.5991H85.0544L88.9092 37.1426H87.1986L86.293 34.6068H86.2954ZM85.8259 33.24L84.1944 28.6445L82.5485 33.24H85.8259Z" fill="#09293B"/>
<path id="Vector_17" d="M96.1704 28.1206H93.0919V37.1426H91.4604V28.1206H88.3818V26.5991H96.168V28.1206H96.1704Z" fill="#09293B"/>
<path id="Vector_18" d="M97.6294 37.1404V26.5969H99.2609V37.1404H97.6294Z" fill="#09293B"/>
<path id="Vector_19" d="M106.165 26.428C106.901 26.4184 107.591 26.5518 108.23 26.8256C108.873 27.0994 109.416 27.478 109.867 27.9614C110.315 28.4448 110.667 29.0257 110.921 29.6996C111.175 30.3758 111.297 31.0973 111.287 31.8664C111.297 32.6403 111.175 33.3689 110.921 34.0475C110.667 34.7285 110.315 35.3071 109.867 35.7905C109.419 36.2714 108.873 36.65 108.23 36.9239C107.588 37.1977 106.901 37.331 106.165 37.3215C105.43 37.331 104.742 37.1977 104.103 36.9239C103.463 36.65 102.919 36.2714 102.471 35.7881C102.023 35.3047 101.671 34.7237 101.419 34.0499C101.168 33.376 101.046 32.6522 101.055 31.8831C101.046 31.114 101.168 30.3901 101.419 29.7139C101.671 29.0377 102.021 28.4567 102.471 27.9709C102.919 27.4876 103.463 27.1066 104.103 26.8304C104.742 26.5542 105.43 26.4208 106.165 26.4303V26.428ZM103.695 34.6737C104.321 35.3785 105.147 35.7333 106.177 35.7333C107.207 35.7333 108.034 35.3809 108.657 34.6737C109.28 33.9689 109.591 33.0331 109.591 31.8664C109.591 30.6997 109.28 29.7567 108.657 29.0519C108.034 28.3471 107.207 27.9924 106.177 27.9924C105.147 27.9924 104.318 28.3471 103.695 29.0543C103.07 29.7615 102.759 30.6997 102.759 31.8664C102.759 33.0331 103.07 33.9689 103.695 34.6737Z" fill="#09293B"/>
<path id="Vector_20" d="M121.554 26.5969V37.1404H119.936L114.706 29.1947V37.1404H113.089V26.5969H114.706L119.936 34.5569V26.5969H121.554Z" fill="#09293B"/>
</g>
</g>
</g>
</svg>
