<?xml version="1.0" encoding="UTF-8"?>
<svg id="Layer_1" data-name="Layer 1" xmlns="http://www.w3.org/2000/svg" xmlns:xlink="http://www.w3.org/1999/xlink" viewBox="0 0 230.18 46.29">
  <defs>
    <style>
      .cls-1 {
        fill: none;
      }

      .cls-1, .cls-2, .cls-3 {
        stroke-width: 0px;
      }

      .cls-2 {
        fill: #f2f4f9;
      }

      .cls-3 {
        fill: #18bcf2;
      }

      .cls-4 {
        clip-path: url(#clippath);
      }
    </style>
    <clipPath id="clippath">
      <polygon class="cls-1" points="46.29 46.29 0 46.29 0 23.15 23.15 0 46.29 23.15 46.29 46.29"/>
    </clipPath>
  </defs>
  <g>
    <path class="cls-2" d="M81.55,33.88v4.34h-16.78V11.18h16.78v4.38h-12.19v7h10.89v4.07h-10.89v7.25h12.19Z"/>
    <path class="cls-2" d="M94.68,10.69c2.47,0,4.53.6,6.17,1.81,1.64,1.21,2.65,2.81,3.02,4.83l-4.32,1.18c-.24-1.16-.8-2.05-1.69-2.68-.89-.63-1.98-.94-3.28-.94-1.4,0-2.51.33-3.33,1-.82.67-1.23,1.56-1.23,2.67,0,1.75,1.08,2.88,3.25,3.4l4.41,1.1c2.28.59,3.98,1.53,5.12,2.81,1.13,1.28,1.7,2.87,1.7,4.75,0,2.41-.87,4.36-2.62,5.85s-4.09,2.23-7.02,2.23c-2.64,0-4.87-.62-6.69-1.86-1.8-1.29-2.86-2.99-3.18-5.1l4.32-1.12c.16,1.19.75,2.13,1.78,2.8,1.03.67,2.34,1.01,3.93,1.01s2.73-.32,3.61-.97c.87-.64,1.31-1.52,1.31-2.63,0-1.74-1.09-2.88-3.26-3.44l-4.41-1.07c-2.27-.52-3.97-1.44-5.11-2.76-1.14-1.32-1.71-2.93-1.71-4.84,0-2.39.85-4.32,2.54-5.81,1.69-1.49,3.92-2.23,6.68-2.23Z"/>
    <path class="cls-2" d="M128.44,19.99c0,2.65-.8,4.8-2.41,6.44-1.61,1.64-3.78,2.46-6.5,2.46h-6.08v9.33h-4.59V11.18h10.71c2.75,0,4.92.79,6.5,2.38,1.58,1.58,2.38,3.73,2.38,6.43ZM123.63,19.88c0-1.36-.42-2.47-1.27-3.32-.85-.85-2.05-1.28-3.61-1.28h-5.3v9.57h5.23c1.59,0,2.82-.45,3.67-1.36.86-.9,1.28-2.11,1.28-3.62Z"/>
    <path class="cls-2" d="M132.54,11.18h4.59v11.3l11.92.04v-11.34h4.63v27.04h-4.63v-11.63l-11.92-.04v11.66h-4.59V11.18Z"/>
    <path class="cls-2" d="M167.5,19.45c2.8,0,5.08.9,6.83,2.69,1.76,1.8,2.64,4.1,2.64,6.93s-.88,5.11-2.64,6.91c-1.76,1.8-4.04,2.69-6.83,2.69s-5.11-.9-6.87-2.69c-1.76-1.8-2.64-4.1-2.64-6.91s.88-5.14,2.64-6.94c1.76-1.79,4.05-2.68,6.87-2.68ZM167.5,34.73c1.49,0,2.71-.53,3.64-1.58s1.4-2.43,1.4-4.11-.47-3.05-1.4-4.1-2.15-1.56-3.64-1.56-2.77.52-3.71,1.56c-.94,1.04-1.41,2.41-1.41,4.1s.47,3.06,1.41,4.11c.94,1.05,2.18,1.58,3.71,1.58Z"/>
    <path class="cls-2" d="M208.58,26.59v11.63h-4.25v-10.96c0-1.27-.33-2.25-.98-2.97-.65-.71-1.54-1.07-2.66-1.07-1.19,0-2.15.39-2.86,1.17-.71.78-1.07,1.87-1.07,3.26v10.56h-4.3v-10.96c0-1.27-.32-2.25-.95-2.97-.63-.71-1.51-1.07-2.63-1.07-1.19,0-2.15.39-2.88,1.17s-1.08,1.87-1.08,3.26v10.56h-4.38v-18.26h4.07l.14,1.75c1.06-1.55,2.79-2.33,5.19-2.33,1.4,0,2.61.29,3.63.87,1.02.58,1.8,1.42,2.33,2.53.45-1.06,1.18-1.89,2.21-2.5,1.03-.6,2.26-.9,3.68-.9,2.07,0,3.72.64,4.94,1.92,1.22,1.28,1.83,3.04,1.83,5.3Z"/>
    <path class="cls-2" d="M230.18,30.69h-14c.14,1.37.66,2.42,1.55,3.15.89.72,2.03,1.08,3.4,1.08,2.23,0,3.79-.93,4.68-2.79l3.65,1.45c-.69,1.6-1.77,2.86-3.25,3.76-1.48.9-3.17,1.36-5.09,1.36-2.7,0-4.89-.88-6.57-2.65-1.68-1.77-2.52-4.08-2.52-6.95s.85-5.2,2.54-7c1.69-1.8,3.91-2.7,6.65-2.7s4.85.89,6.49,2.66c1.64,1.77,2.46,4.1,2.46,7v1.63ZM216.25,27.62h9.48c-.08-1.48-.53-2.61-1.35-3.39-.81-.78-1.91-1.17-3.28-1.17s-2.47.4-3.33,1.18c-.86.79-1.36,1.91-1.52,3.37Z"/>
  </g>
  <g class="cls-4">
    <path class="cls-3" d="M46.29,43.4c0,1.59-1.3,2.89-2.89,2.89H2.89c-1.59,0-2.89-1.3-2.89-2.89v-17.36c0-1.59.92-3.81,2.05-4.94L21.1,2.05c1.13-1.13,2.97-1.13,4.09,0l19.06,19.06c1.13,1.13,2.05,3.35,2.05,4.94v17.36Z"/>
    <path class="cls-2" d="M15.43,48.61c-.64,0-1.16-.52-1.16-1.16v-29.96c0-.64.52-1.16,1.16-1.16h15.43c.64,0,1.16.52,1.16,1.16v4.63c0,.64-.52,1.16-1.16,1.16h-9.65v2.32h9.65c.64,0,1.16.52,1.16,1.16v4.63c0,.64-.52,1.16-1.16,1.16h-9.65v2.32h9.65c.64,0,1.16.52,1.16,1.16v4.63c0,.64-.52,1.16-1.16,1.16h-10.8c-.64,0-1.16-.52-1.16-1.16s.52-1.16,1.16-1.16h9.65v-2.32h-9.65c-.64,0-1.16-.52-1.16-1.16v-4.63c0-.64.52-1.16,1.16-1.16h9.65v-2.31h-9.65c-.64,0-1.16-.52-1.16-1.16v-4.63c0-.64.52-1.16,1.16-1.16h9.65v-2.31h-13.12v28.81c0,.64-.52,1.16-1.16,1.16Z"/>
  </g>
</svg>