<?xml version="1.0" encoding="UTF-8"?>
<svg id="Layer_1" data-name="Layer 1" xmlns="http://www.w3.org/2000/svg" viewBox="0 0 242.69 36.02">
  <defs>
    <style>
      .cls-1 {
        fill: #f2f4f9;
        stroke-width: 0px;
      }
    </style>
  </defs>
  <path class="cls-1" d="M45.37,4.3h-.16v-1.9C45.21,1.08,44.13,0,42.81,0s-2.4,1.08-2.4,2.4v1.9h-.93v-1.92c0-.64-.25-1.24-.71-1.69C38.32.25,37.72,0,37.09,0h-.01c-1.32,0-2.4,1.08-2.4,2.4v1.9h-.94v-1.9C33.74,1.08,32.66,0,31.34,0s-2.4,1.08-2.4,2.4v1.9h-.94v-1.9C28,1.08,26.92,0,25.6,0s-2.4,1.08-2.4,2.4v1.9h-.94v-1.9C22.26,1.08,21.19,0,19.86,0s-2.4,1.08-2.4,2.4v1.9h-.93v-1.9C16.53,1.08,15.46,0,14.13,0s-2.4,1.08-2.4,2.4v1.9h-.16c-.77,0-1.4.63-1.4,1.4v22.76H1.38v-1.11h6.9c.38,0,.69-.31.69-.69v-2.49c0-.38-.31-.69-.69-.69H1.38v-1.1h6.9c.38,0,.69-.31.69-.69v-2.49c0-.38-.31-.69-.69-.69H1.38v-1.11h6.9c.38,0,.69-.31.69-.69v-2.48c0-.38-.31-.69-.69-.69H1.38v-6.98c0-.38-.31-.69-.69-.69S0,6.16,0,6.54v7.67c0,.38.31.69.69.69h6.9v1.1H.69C.31,16.01,0,16.32,0,16.7v2.49c0,.38.31.69.69.69h6.9v1.11H.69C.31,20.99,0,21.3,0,21.68v2.48c0,.38.31.69.69.69h6.9v1.11H.69C.31,25.97,0,26.27,0,26.66v2.49c0,.38.31.69.69.69h9.48v.17c0,.77.63,1.4,1.4,1.4h.16v2.22c0,1.32,1.08,2.4,2.4,2.4s2.4-1.08,2.4-2.4v-2.22h.93v2.22c0,1.32,1.08,2.4,2.4,2.4s2.4-1.08,2.4-2.4v-2.22h.94v2.22c0,1.32,1.08,2.4,2.4,2.4s2.4-1.08,2.4-2.4v-2.22h.94v2.22c0,1.32,1.08,2.4,2.4,2.4s2.4-1.08,2.4-2.4v-2.22h.94v2.22c0,1.32,1.08,2.4,2.4,2.4s2.4-1.08,2.4-2.4v-2.22h.93v2.22c0,1.32,1.08,2.4,2.4,2.4s2.4-1.08,2.4-2.4v-2.22h.15c.77,0,1.4-.63,1.4-1.4V5.7c0-.77-.62-1.4-1.39-1.4ZM41.8,2.4c0-.55.45-1.01,1.01-1.01s1.01.45,1.01,1.01v1.9h-2.01v-1.9ZM36.07,2.4c0-.55.45-1.01,1.01-1.01h0c.27,0,.51.1.7.29.19.19.29.44.3.71v1.91h-2.01v-1.9ZM30.33,2.4c0-.55.45-1.01,1.01-1.01s1.01.45,1.01,1.01v1.9h-2.01v-1.9ZM24.59,2.4c0-.55.45-1.01,1.01-1.01s1.01.45,1.01,1.01v1.9h-2.01v-1.9ZM18.86,2.4c0-.55.45-1.01,1.01-1.01s1.01.45,1.01,1.01v1.9h-2.01v-1.9ZM13.13,2.4c0-.55.45-1.01,1.01-1.01s1.01.45,1.01,1.01v1.9h-2.01v-1.9ZM15.14,33.62c0,.55-.45,1.01-1.01,1.01s-1.01-.45-1.01-1.01v-2.22h2.01v2.22ZM20.87,33.62c0,.55-.45,1.01-1.01,1.01s-1.01-.45-1.01-1.01v-2.22h2.01v2.22ZM26.61,33.62c0,.55-.45,1.01-1.01,1.01s-1.01-.45-1.01-1.01v-2.22h2.01v2.22ZM32.34,33.62c0,.55-.45,1.01-1.01,1.01s-1.01-.45-1.01-1.01v-2.22h2.01v2.22ZM38.08,33.62c0,.55-.45,1.01-1.01,1.01s-1.01-.45-1.01-1.01v-2.22h2.01v2.22ZM43.81,33.62c0,.55-.45,1.01-1.01,1.01s-1.01-.45-1.01-1.01v-2.22h2.01v2.22ZM45.21,29.85H11.72V5.85h33.48v24Z"/>
  <path class="cls-1" d="M21.17,19.88h1.21v4.33c0,.35.28.63.63.63h11.05c.35,0,.63-.28.63-.63v-4.33h1.21c.25,0,.48-.15.58-.39.1-.23.04-.5-.13-.68l-1.67-1.67v-2.99c0-.35-.28-.63-.63-.63h-1.15c-.35,0-.63.28-.63.63v.58l-3.29-3.29c-.24-.23-.65-.24-.89,0l-7.36,7.36c-.18.18-.23.45-.14.68s.33.39.58.39Z"/>
  <path class="cls-1" d="M237.8,28.76c-.95.28-1.93.41-2.95.41-1.29,0-2.44-.31-3.47-.94-1.01-.64-1.75-1.58-2.21-2.83-.15-.41-.27-.84-.36-1.29-.08-.46-.11-.97-.11-1.52h13.99c0-.46-.01-.94-.04-1.43-.01-.49-.05-.97-.11-1.44-.12-.98-.35-1.93-.68-2.87-.31-.94-.78-1.77-1.41-2.5-.61-.74-1.41-1.33-2.4-1.76-.98-.45-2.19-.68-3.66-.68s-2.84.27-3.98.81c-1.14.54-2.09,1.27-2.87,2.19-.76.91-1.34,1.99-1.73,3.23-.39,1.23-.58,2.53-.58,3.92,0,1.71.22,3.21.67,4.5.46,1.29,1.09,2.36,1.9,3.23.81.86,1.78,1.51,2.89,1.95,1.13.44,2.34.66,3.66.66,1.39,0,2.73-.21,4.01-.64,1.29-.43,2.57-1.08,3.85-1.95l-1.41-2.38c-1.05.6-2.06,1.04-3.02,1.33ZM229.45,17.77c.26-.63.61-1.15,1.03-1.58.43-.44.94-.77,1.54-.99.61-.24,1.33-.36,2.14-.36.86,0,1.59.13,2.18.38.59.25,1.07.6,1.44,1.05.38.45.65.98.83,1.59.19.61.31,1.28.36,2.01h-10.07c.13-.78.31-1.48.56-2.1Z"/>
  <path class="cls-1" d="M218.9,19.32c0-1.25-.16-2.33-.47-3.25-.3-.93-.74-1.68-1.33-2.27s-1.3-1.03-2.14-1.31c-.84-.29-1.78-.43-2.83-.43-.68,0-1.33.09-1.95.26-.63.18-1.23.41-1.8.69-.56.29-1.11.63-1.63,1.03-.53.39-1.03.79-1.5,1.22-.55-1.1-1.33-1.91-2.34-2.42-1.01-.53-2.22-.79-3.62-.79-.6,0-1.18.07-1.74.21-.55.14-1.08.33-1.59.56-.51.24-1.01.52-1.48.84-.46.31-.91.65-1.33,1.01h-.04v-2.27h-6.19v3.23s2.7,0,2.7,0v12.98h-2.7v3.23h9.08v-3.23h-2.74v-11.39c.74-.58,1.52-1.06,2.34-1.44.83-.39,1.64-.58,2.46-.58,1.41,0,2.49.39,3.25,1.16.76.76,1.14,1.89,1.14,3.38v8.87h-2.74v3.23h9.06v-3.23h-2.68v-11.29c.63-.61,1.38-1.12,2.25-1.52.88-.4,1.73-.6,2.57-.6,1.41,0,2.5.39,3.25,1.16.75.76,1.13,1.89,1.13,3.38v8.87h-2.74v3.23h9.08v-3.23h-2.7v-9.3Z"/>
  <path class="cls-1" d="M180.45,14.67c-.85-.9-1.88-1.59-3.08-2.08-1.19-.49-2.5-.73-3.94-.73s-2.73.24-3.92.73c-1.19.49-2.21,1.19-3.08,2.1-.86.9-1.54,1.98-2.03,3.25-.47,1.26-.72,2.66-.73,4.2.01,1.53.26,2.92.73,4.18.48,1.26,1.14,2.35,1.99,3.27.85.9,1.87,1.6,3.06,2.1,1.19.5,2.51.75,3.98.75s2.75-.25,3.94-.75c1.2-.51,2.23-1.23,3.08-2.14.85-.91,1.51-2,1.99-3.26.48-1.28.71-2.67.71-4.18s-.24-2.94-.71-4.2c-.48-1.26-1.14-2.34-1.99-3.23ZM179.08,25.18c-.31.9-.74,1.67-1.29,2.31-.55.63-1.2,1.11-1.95,1.44-.74.34-1.54.51-2.4.51s-1.61-.17-2.34-.51c-.73-.35-1.37-.84-1.93-1.46-.55-.64-.99-1.41-1.31-2.31-.31-.9-.47-1.91-.47-3.02,0-1.18.16-2.22.47-3.13.32-.91.76-1.68,1.31-2.29.56-.61,1.21-1.08,1.93-1.39.74-.31,1.52-.47,2.34-.47s1.67.16,2.42.47c.75.31,1.39.78,1.93,1.39.55.61.98,1.38,1.29,2.29.31.91.47,1.96.47,3.13s-.16,2.14-.47,3.04Z"/>
  <path class="cls-1" d="M99.97,5.93c-.53-.61-1.14-1.13-1.84-1.56-.69-.44-1.46-.78-2.33-1.01-.85-.24-1.78-.36-2.8-.36-1.54,0-2.91.21-4.11.62-1.19.4-2.19.96-3.02,1.67-.83.71-1.45,1.54-1.88,2.49-.43.95-.64,1.97-.64,3.06s.14,2.03.43,2.85c.29.81.69,1.53,1.22,2.14.54.61,1.18,1.13,1.91,1.56.75.42,1.58.77,2.48,1.05l4.11,1.16c.55.17,1.12.38,1.71.62.6.24,1.15.54,1.65.92.5.38.91.83,1.22,1.37.33.53.49,1.17.49,1.93,0,.69-.13,1.31-.39,1.86-.25.54-.62,1-1.11,1.39-.48.38-1.06.66-1.74.86-.68.2-1.44.3-2.29.3s-1.68-.09-2.4-.28c-.73-.2-1.35-.49-1.88-.86-.53-.39-.94-.87-1.24-1.44-.29-.58-.43-1.56-.43-2.95h-4.73v3.23h1.43c.24.75.57,1.48.99,2.2.43.71.99,1.35,1.69,1.91.71.55,1.59.99,2.63,1.31,1.04.34,2.29.51,3.75.51s2.73-.21,3.92-.62c1.2-.43,2.23-1.01,3.1-1.74.86-.74,1.53-1.61,2.01-2.61.49-1,.73-2.09.73-3.26,0-1.09-.16-2.04-.47-2.87-.3-.83-.74-1.55-1.33-2.18-.59-.64-1.32-1.19-2.2-1.65-.86-.46-1.86-.87-3-1.24l-3.79-1.24c-.5-.17-1.02-.35-1.58-.53-.54-.17-1.03-.41-1.48-.71-.45-.31-.82-.72-1.13-1.22-.29-.51-.43-1.18-.43-2.01,0-.55.12-1.08.36-1.58.24-.5.59-.94,1.05-1.31.48-.38,1.07-.67,1.78-.88.71-.22,1.54-.34,2.5-.34.58,0,1.15.08,1.73.24.58.15,1.1.38,1.58.68.49.29.93.71,1.33,1.26.4.55.6,1.38.6,2.48h4.6s0-3.23,0-3.23h-1.41c-.36-.73-.81-1.39-1.35-1.99Z"/>
  <polygon class="cls-1" points="156.66 6.64 159.36 6.64 159.36 3.42 150.13 3.42 150.13 6.64 152.98 6.64 152.98 15.25 136.53 15.25 136.53 6.64 139.38 6.64 139.38 3.42 130.15 3.42 130.15 6.64 132.85 6.64 132.85 28.63 130.15 28.63 130.15 31.86 139.38 31.86 139.38 28.63 136.53 28.63 136.53 18.41 152.98 18.41 152.98 28.63 150.13 28.63 150.13 31.86 159.36 31.86 159.36 28.63 156.66 28.63 156.66 6.64"/>
  <path class="cls-1" d="M124.07,5.39c-.78-.65-1.7-1.14-2.78-1.46-1.06-.34-2.23-.51-3.51-.51h-11.5v3.25s2.7,0,2.7,0v21.97h-2.7v3.23h9.23v-3.23h-2.85v-9.94h5.05c1.33,0,2.53-.2,3.6-.6,1.09-.4,2.02-.94,2.8-1.63.78-.69,1.38-1.49,1.8-2.4.43-.93.64-1.91.64-2.95,0-1.25-.22-2.36-.66-3.32-.43-.96-1.03-1.76-1.82-2.4ZM122.29,13.06c-.24.56-.58,1.03-1.01,1.41-.43.38-.94.66-1.54.86-.59.19-1.24.28-1.95.28h-5.12V6.66h4.65c1.86,0,3.22.39,4.07,1.18.85.78,1.28,1.86,1.28,3.26,0,.74-.13,1.39-.38,1.95Z"/>
  <polygon class="cls-1" points="59.39 6.66 62.09 6.66 62.09 28.63 59.39 28.63 59.39 31.86 79.76 31.86 79.76 23.83 75.92 23.83 75.92 28.63 65.77 28.63 65.77 18.99 74.3 18.99 74.3 15.76 65.77 15.76 65.77 6.66 75.92 6.66 75.92 11.46 79.76 11.46 79.76 3.42 59.39 3.42 59.39 6.66"/>
</svg>