<?xml version="1.0" encoding="UTF-8"?>
<svg id="Layer_1" data-name="Layer 1" xmlns="http://www.w3.org/2000/svg" viewBox="0 0 346 47.44">
  <defs>
    <style>
      .cls-1 {
        fill: #f2f4f9;
      }

      .cls-1, .cls-2 {
        stroke-width: 0px;
      }

      .cls-2 {
        fill: #18bcf2;
      }
    </style>
  </defs>
  <path class="cls-1" d="M48.7,44.39c0,1.67-1.37,3.04-3.04,3.04H3.04C1.37,47.44,0,46.07,0,44.39v-18.26C0,24.46.97,22.12,2.15,20.93L22.2.89c1.18-1.18,3.12-1.18,4.3,0l20.05,20.05c1.18,1.18,2.15,3.52,2.15,5.2v18.26h0Z"/>
  <path class="cls-2" d="M46.55,20.93L26.51.89c-1.18-1.18-3.12-1.18-4.3,0L2.15,20.93C.97,22.12,0,24.46,0,26.13v18.26C0,46.07,1.37,47.44,3.04,47.44h18.72l-8.25-8.25c-.42.15-.88.23-1.35.23-2.29,0-4.16-1.87-4.16-4.16s1.87-4.16,4.16-4.16,4.16,1.87,4.16,4.16c0,.47-.08.93-.23,1.35l6.42,6.42v-23.52c-1.38-.68-2.33-2.09-2.33-3.73,0-2.29,1.87-4.16,4.16-4.16s4.16,1.87,4.16,4.16c0,1.64-.95,3.05-2.33,3.73v16.49l6.38-6.38c-.13-.4-.19-.82-.19-1.26,0-2.29,1.87-4.16,4.16-4.16s4.16,1.87,4.16,4.16-1.87,4.16-4.16,4.16c-.51,0-.99-.1-1.44-.26l-8.91,8.91v6.27h19.48c1.67,0,3.04-1.37,3.04-3.04v-18.26c0-1.67-.97-4.01-2.15-5.2h0Z"/>
  <path class="cls-1" d="M64.95,8.23h5.02v12.38l13.06.04v-12.42h5.07v29.63h-5.07v-12.74l-13.06-.04v12.78h-5.03V8.23Z"/>
  <path class="cls-1" d="M102.85,17.29c3.06,0,5.56.98,7.49,2.95,1.93,1.97,2.89,4.5,2.89,7.59s-.96,5.6-2.89,7.57c-1.93,1.97-4.43,2.95-7.49,2.95s-5.6-.98-7.53-2.95-2.89-4.49-2.89-7.57c0-3.11.96-5.64,2.89-7.6,1.93-1.95,4.44-2.94,7.53-2.94ZM102.85,34.03c1.64,0,2.97-.58,3.99-1.73,1.02-1.16,1.54-2.66,1.53-4.51,0-1.85-.51-3.34-1.53-4.49-1.02-1.14-2.35-1.72-3.99-1.71-1.68,0-3.03.57-4.06,1.71-1.03,1.14-1.54,2.64-1.55,4.49,0,1.85.52,3.35,1.55,4.51,1.03,1.16,2.38,1.73,4.06,1.73Z"/>
  <path class="cls-1" d="M147.47,25.12v12.74h-4.67v-12.01c0-1.39-.36-2.47-1.07-3.25-.71-.78-1.68-1.17-2.91-1.17-1.31,0-2.35.43-3.13,1.28-.78.85-1.17,2.04-1.17,3.58v11.57h-4.71v-12.01c0-1.39-.35-2.47-1.04-3.25-.69-.78-1.66-1.17-2.88-1.17-1.31,0-2.36.43-3.15,1.28-.79.85-1.19,2.04-1.19,3.58v11.57h-4.8v-20.01h4.46l.16,1.92c1.16-1.7,3.06-2.56,5.68-2.56,1.53,0,2.86.32,3.98.95,1.12.63,2.02,1.6,2.55,2.77.48-1.16,1.34-2.12,2.44-2.73,1.13-.66,2.47-.99,4.03-.99,2.27,0,4.08.7,5.41,2.1,1.33,1.4,2,3.34,1.99,5.81Z"/>
  <path class="cls-1" d="M170.73,29.62h-15.34c.16,1.51.73,2.66,1.7,3.45.98.79,2.22,1.19,3.73,1.19,2.44,0,4.15-1.01,5.13-3.04l4,1.58c-.72,1.72-1.96,3.16-3.56,4.12-1.62.99-3.48,1.49-5.58,1.49-2.96,0-5.36-.97-7.2-2.9-1.84-1.94-2.76-4.48-2.77-7.62,0-3.14.93-5.7,2.79-7.67,1.86-1.97,4.28-2.95,7.28-2.95s5.32.97,7.11,2.91c1.8,1.94,2.69,4.5,2.69,7.67v1.78ZM155.47,26.24h10.38c-.09-1.62-.59-2.86-1.48-3.72-.89-.85-2.09-1.28-3.6-1.27-1.49,0-2.71.43-3.65,1.3-.95.86-1.5,2.09-1.66,3.69Z"/>
  <path class="cls-1" d="M201.62,30.96h-11.28l-2.44,6.9h-5.19l10.7-29.63h5.19l10.72,29.63h-5.31l-2.4-6.9ZM200.16,26.7l-4.14-11.85-4.18,11.85h8.32Z"/>
  <path class="cls-1" d="M218.74,34.53c.99,0,1.77-.19,2.35-.58.28-.19.51-.45.66-.75.15-.3.22-.64.2-.98,0-1.07-.72-1.78-2.16-2.14l-2.76-.73c-3.79-1.03-5.68-2.98-5.68-5.85,0-1.84.67-3.34,2-4.5,1.33-1.16,3.13-1.74,5.39-1.74,2.02,0,3.71.46,5.07,1.39.66.43,1.22.99,1.65,1.64.43.65.72,1.39.86,2.16l-4.3,1.01c-.04-.34-.14-.67-.32-.97-.17-.3-.41-.55-.68-.75-.62-.44-1.37-.66-2.13-.64-.86,0-1.55.22-2.08.65-.25.2-.46.45-.6.74-.14.29-.2.61-.2.93,0,.26.04.52.15.76.1.24.26.45.45.63.4.37,1.01.67,1.84.89l2.72.67c1.81.49,3.19,1.23,4.14,2.22.47.49.83,1.06,1.08,1.69.24.63.36,1.3.34,1.98,0,1.88-.71,3.37-2.12,4.48-1.41,1.11-3.36,1.66-5.85,1.67-2.3,0-4.14-.51-5.53-1.52-.67-.48-1.24-1.08-1.66-1.79-.42-.7-.7-1.49-.8-2.3l4.38-.77c.03.37.14.73.32,1.05.18.32.44.6.74.81.64.44,1.48.66,2.52.66Z"/>
  <path class="cls-1" d="M236.92,34.53c.99,0,1.77-.2,2.35-.58.28-.19.51-.45.66-.75.15-.3.22-.64.2-.98,0-1.07-.72-1.78-2.16-2.14l-2.75-.73c-3.79-1.03-5.68-2.98-5.68-5.85,0-1.84.67-3.34,2-4.5,1.33-1.16,3.13-1.74,5.39-1.74,2.02,0,3.71.46,5.07,1.39.66.43,1.22.99,1.65,1.64.43.65.72,1.39.86,2.16l-4.3,1.01c-.04-.34-.14-.67-.32-.97-.17-.3-.41-.55-.68-.75-.62-.44-1.37-.66-2.13-.64-.86,0-1.55.22-2.08.65-.25.2-.46.45-.6.74-.14.29-.2.61-.2.93,0,.26.04.52.15.76.1.24.25.45.45.63.41.37,1.01.67,1.84.89l2.72.67c1.81.49,3.19,1.23,4.14,2.22.47.49.83,1.06,1.08,1.69.24.63.36,1.3.34,1.97,0,1.88-.71,3.37-2.12,4.48-1.41,1.11-3.36,1.66-5.85,1.67-2.3,0-4.14-.51-5.53-1.52-.67-.48-1.24-1.08-1.66-1.79-.42-.7-.7-1.49-.8-2.3l4.38-.77c.03.37.13.73.32,1.05.18.32.44.6.74.81.64.44,1.47.66,2.52.66Z"/>
  <path class="cls-1" d="M247.97,10.91c0-.4.07-.8.22-1.17.15-.37.37-.71.66-.99.28-.28.62-.51.99-.66.37-.15.77-.23,1.17-.22.4,0,.79.07,1.16.22.37.15.7.38.97.67.57.57.88,1.34.88,2.15s-.32,1.57-.88,2.15c-.27.29-.6.52-.97.68-.37.16-.76.23-1.16.23-.4,0-.8-.07-1.16-.23-.37-.16-.7-.39-.98-.68-.28-.28-.51-.61-.66-.98-.15-.37-.23-.76-.23-1.16ZM253.4,17.85v20.02h-4.8v-20.02h4.8Z"/>
  <path class="cls-1" d="M265,34.53c.99,0,1.77-.19,2.35-.58.28-.19.51-.45.66-.75.15-.3.22-.64.2-.98,0-1.07-.72-1.78-2.16-2.14l-2.75-.73c-3.79-1.03-5.68-2.98-5.68-5.85,0-1.84.67-3.34,2-4.5,1.33-1.16,3.13-1.74,5.39-1.74,2.02,0,3.71.46,5.07,1.39.66.43,1.22.99,1.65,1.64.43.65.72,1.39.86,2.16l-4.3,1.01c-.04-.34-.14-.67-.32-.97-.17-.3-.41-.55-.68-.75-.62-.44-1.37-.66-2.13-.64-.86,0-1.55.22-2.08.65-.25.2-.46.45-.59.74-.14.29-.2.61-.2.93,0,.26.04.52.15.76.1.24.26.45.45.63.4.37,1.01.67,1.84.89l2.72.67c1.81.49,3.19,1.23,4.14,2.22.47.49.83,1.06,1.08,1.69.24.63.36,1.3.34,1.98,0,1.88-.71,3.37-2.12,4.48-1.41,1.11-3.36,1.66-5.85,1.67-2.3,0-4.14-.51-5.53-1.52-.67-.47-1.24-1.08-1.66-1.79-.42-.7-.69-1.49-.8-2.31l4.38-.77c.03.37.13.73.32,1.05.18.32.44.6.74.81.64.44,1.47.66,2.52.66Z"/>
  <path class="cls-1" d="M287.33,37.86c-1.14.28-2.31.43-3.49.46-2.02,0-3.6-.56-4.73-1.67-1.13-1.11-1.69-2.76-1.69-4.95v-9.79h-3.07v-4.06h3.07v-6.25h4.76v6.24h4.62v4.06h-4.62v8.93c0,2.16.84,3.25,2.52,3.25.69-.03,1.38-.17,2.03-.42l.61,4.2Z"/>
  <path class="cls-1" d="M303.39,37.86c-.17-.75-.29-1.51-.34-2.28-.62.89-1.48,1.6-2.47,2.05-1.16.53-2.42.79-3.7.76-2.19,0-3.95-.58-5.28-1.75-1.32-1.17-1.98-2.75-1.98-4.75,0-1.96.65-3.49,1.95-4.59,1.3-1.1,3.08-1.65,5.34-1.66h6.02v-.77c0-1.26-.37-2.19-1.1-2.81s-1.76-.93-3.08-.93c-2.34,0-4.02.98-5.03,2.93l-3.49-2.04c1.69-3.18,4.62-4.77,8.78-4.77,2.52,0,4.59.65,6.2,1.94,1.61,1.29,2.43,3.4,2.44,6.32v7.97c0,2.26.12,3.72.36,4.38h-4.62ZM302.98,28.96h-4.94c-1.12,0-1.99.26-2.62.77-.31.26-.55.58-.71.95-.16.37-.24.77-.22,1.17,0,.94.32,1.65.95,2.14.64.49,1.54.73,2.72.73,1.41,0,2.57-.45,3.47-1.34.9-.89,1.35-2.22,1.35-3.97v-.46Z"/>
  <path class="cls-1" d="M330.69,25.51v12.35h-4.78v-11.32c0-1.9-.45-3.2-1.35-3.9-.85-.7-1.92-1.07-3.01-1.05-.64-.02-1.27.09-1.87.32-.59.23-1.14.57-1.6,1.01-.92.88-1.38,2.15-1.39,3.78v11.16h-4.8v-20.02h4.5l.16,2.16c.62-.89,1.48-1.59,2.48-2.01,1.11-.5,2.33-.76,3.55-.74,2.59,0,4.59.72,5.99,2.15,1.41,1.43,2.11,3.47,2.11,6.11Z"/>
  <path class="cls-1" d="M346,37.86c-1.14.27-2.31.42-3.49.45-2.02,0-3.6-.56-4.73-1.67-1.13-1.11-1.69-2.76-1.69-4.95v-9.78h-3.07v-4.06h3.07v-6.25h4.75v6.24h4.62v4.06h-4.62v8.93c0,2.16.84,3.25,2.52,3.25.69-.03,1.38-.17,2.03-.42l.6,4.2Z"/>
</svg>