<?xml version="1.0" encoding="UTF-8"?>
<svg id="Layer_1" xmlns="http://www.w3.org/2000/svg" xmlns:xlink="http://www.w3.org/1999/xlink" viewBox="0 0 148 45.96">
  <defs>
    <style>
      .cls-1 {
        fill: none;
      }

      .cls-2 {
        fill: #e6e7d6;
      }

      .cls-3 {
        clip-path: url(#clippath);
      }
    </style>
    <clipPath id="clippath">
      <rect class="cls-1" width="148" height="45.96"/>
    </clipPath>
  </defs>
  <g class="cls-3">
    <g>
      <g>
        <path class="cls-2" d="M64.1,25.32h-1.53v-6.49c0-1.32-.92-2.25-2.23-2.25s-2.19.93-2.19,2.25v6.49h-1.53v-6.49c0-1.32-.92-2.25-2.21-2.25s-2.23.93-2.23,2.25v6.49h-1.53v-6.49c0-2.12,1.6-3.61,3.74-3.61,1.37,0,2.42.61,3.01,1.62.61-1.01,1.66-1.62,3-1.62,2.19,0,3.7,1.49,3.7,3.61v6.49Z"/>
        <path class="cls-2" d="M66.79,12.71c0-.53.42-.95.97-.95s.97.42.97.95c0,.57-.44.99-.97.99s-.97-.42-.97-.99ZM67,25.32v-9.79h1.53v9.79h-1.53Z"/>
        <path class="cls-2" d="M79.07,18.19c-.65-.95-1.7-1.6-3.05-1.6-2.12,0-3.64,1.6-3.64,3.83s1.53,3.83,3.64,3.83c1.41,0,2.48-.72,3.13-1.72l.93.92c-.82,1.28-2.29,2.17-4.06,2.17-3.07,0-5.21-2.23-5.21-5.21s2.23-5.19,5.21-5.19c1.68,0,3.09.74,4.01,2l-.95.95Z"/>
        <path class="cls-2" d="M86.44,15.54v1.35h-2.86v8.43h-1.53v-9.79h4.39Z"/>
        <path class="cls-2" d="M87.2,20.42c0-2.98,2.21-5.19,5.17-5.19s5.17,2.21,5.17,5.19-2.19,5.21-5.17,5.21-5.17-2.23-5.17-5.21ZM95.99,20.42c0-2.21-1.53-3.83-3.62-3.83s-3.61,1.62-3.61,3.83,1.51,3.83,3.61,3.83,3.62-1.64,3.62-3.83Z"/>
      </g>
      <g>
        <path class="cls-2" d="M59.4,36.25h-.08l-2.58,9.33h-2.71l-3.4-14.31h2.9l2.02,9.71h.08l2.54-9.71h2.37l2.58,9.71h.08l2.02-9.71h2.88l-3.4,14.31h-2.69l-2.61-9.33Z"/>
        <path class="cls-2" d="M73.27,35.39c1.51,0,2.67.65,3.19,1.56h.08c-.02-.15-.04-.34-.04-.88v-.38h2.44v9.88h-2.44v-.46c0-.44.02-.71.04-.92h-.08c-.57,1.03-1.79,1.68-3.3,1.68-2.82,0-4.81-2.16-4.81-5.25s2.1-5.25,4.92-5.25ZM76.4,40.6c0-1.7-1.13-2.88-2.69-2.88s-2.67,1.18-2.67,2.88,1.13,2.92,2.67,2.92,2.69-1.2,2.69-2.92Z"/>
        <path class="cls-2" d="M81.53,31.27h2.67v8.24c.15.02.31.02.46.02,1.53,0,2.67-1.01,2.67-2.75,0-.31,0-.57-.04-1.09h2.56c.04.36.06.65.06,1.13,0,1.6-.57,3.26-2.1,4.2l2.67,4.56h-3l-2.12-3.82c-.19.02-.4.02-.61.02-.17,0-.36,0-.55-.02v3.82h-2.67v-14.31Z"/>
        <path class="cls-2" d="M96.61,45.89c-3.13,0-5.3-2.21-5.3-5.25s2.19-5.25,5.27-5.25c2.9,0,4.85,2.19,4.85,5.25,0,.27-.02.59-.08.84h-7.27c.29,1.3,1.18,2.04,2.56,2.04,1.11,0,1.83-.34,2.48-1.16l1.55,1.62c-1.01,1.32-2.37,1.91-4.04,1.91ZM94.07,39.78h4.73c-.19-1.24-1.05-2.06-2.29-2.06s-2.17.78-2.44,2.06Z"/>
        <path class="cls-2" d="M110.27,36.25h-.08l-2.58,9.33h-2.71l-3.4-14.31h2.9l2.02,9.71h.08l2.54-9.71h2.37l2.58,9.71h.08l2.02-9.71h2.88l-3.4,14.31h-2.69l-2.61-9.33Z"/>
        <path class="cls-2" d="M119.17,40.64c0-3.05,2.21-5.25,5.28-5.25s5.3,2.19,5.3,5.25-2.23,5.25-5.3,5.25-5.28-2.21-5.28-5.25ZM127.07,40.6c0-1.7-1.05-2.88-2.61-2.88s-2.61,1.18-2.61,2.88,1.07,2.92,2.61,2.92,2.61-1.2,2.61-2.92Z"/>
        <path class="cls-2" d="M136.48,35.7v2.35h-2.1v7.54h-2.67v-9.88h4.77Z"/>
        <path class="cls-2" d="M142.32,35.39c1.32,0,2.52.52,3.01,1.35h.08c-.02-.13-.04-.32-.04-.86v-4.62h2.63v14.31h-2.44v-.44c0-.42.02-.71.04-.9h-.08c-.63,1.05-1.87,1.64-3.32,1.64-2.8,0-4.79-2.16-4.79-5.25s2.06-5.25,4.9-5.25ZM145.46,40.6c0-1.7-1.13-2.88-2.69-2.88s-2.67,1.18-2.67,2.88,1.13,2.9,2.67,2.9,2.69-1.18,2.69-2.9Z"/>
      </g>
    </g>
    <path class="cls-2" d="M45.58,5.06h0c0-2.8-2.27-5.06-5.06-5.06H5.06C2.27,0,0,2.27,0,5.06v20.05c0,4.59,1.82,8.98,5.06,12.23h0s8.24,8.24,8.24,8.24h7.16l-10.33-10.33c-3.24-3.24-5.06-7.64-5.06-12.23V5.06h35.45v21.95h-8.44c-2.8,0-5.06,2.27-5.06,5.06h0v6.72l-6.75-6.72h-6.75l13.51,13.51h5.06v-13.51h8.44c2.8,0,5.06-2.27,5.06-5.06h0s0,0,0,0V5.06h0Z"/>
  </g>
</svg>