<svg width="376" height="51" viewBox="0 0 376 51" fill="none" xmlns="http://www.w3.org/2000/svg">
<path d="M51.7773 46.5347C51.7773 48.2906 50.3414 49.725 48.5898 49.725H3.96484C2.21333 49.725 0.777344 48.2842 0.777344 46.5347V27.3863C0.777344 25.6303 1.79477 23.1797 3.03113 21.9383L24.0236 0.931047C25.2664 -0.310349 27.2948 -0.310349 28.5311 0.931047L49.5236 21.9447C50.7664 23.1861 51.7773 25.6368 51.7773 27.3927V46.5411V46.5347Z" fill="#F2F4F9"/>
<path d="M48.5898 49.725C50.3414 49.725 51.7773 48.2906 51.7773 46.5347V27.3927C51.7773 25.6368 50.7664 23.1861 49.5236 21.9447L28.5311 0.931047C27.2948 -0.310349 25.2664 -0.310349 24.0236 0.931047L3.03113 21.9383C1.79477 23.1797 0.777344 25.6303 0.777344 27.3863V46.5347C0.777344 48.2842 2.21333 49.725 3.96484 49.725L8.85234 49.725V27.4125C8.85234 27.1778 9.04262 26.9875 9.27734 26.9875H11.4023C11.6371 26.9875 11.8273 27.1778 11.8273 27.4125V49.725H13.7398V27.4125C13.7398 27.1778 13.9301 26.9875 14.1648 26.9875H16.2898C16.5246 26.9875 16.7148 27.1778 16.7148 27.4125V49.725H18.6273V27.4125C18.6273 27.1778 18.8176 26.9875 19.0523 26.9875H21.1773C21.4121 26.9875 21.6023 27.1778 21.6023 27.4125V49.725H23.5148L30.4349 27.2873C30.4899 27.1091 30.6545 26.9875 30.841 26.9875H32.9265C33.2126 26.9875 33.4169 27.2644 33.3326 27.5378L26.4898 49.725H42.4273L35.5845 27.5378C35.5002 27.2644 35.7046 26.9875 35.9907 26.9875H38.0762C38.2626 26.9875 38.4273 27.1091 38.4823 27.2873L45.4023 49.725L48.5898 49.725Z" fill="#18BCF2"/>
<path d="M103.279 10.0003V41.2144H97.561V22.9755L90.3658 41.2123H84.8344L77.722 23.12V41.2123H72.1481V10.0003H77.722L87.599 34.4356L97.561 10.0003H103.279Z" fill="#F2F4F9"/>
<path d="M124.302 41.2123C124.121 40.63 123.99 39.9224 123.907 39.0915C122.644 40.8808 120.621 41.7733 117.833 41.7733C115.504 41.7733 113.445 41.1017 111.658 39.7566C109.954 38.3839 109.1 36.1186 109.1 32.9566V20.0834H114.674V31.8325C114.674 33.7323 115.118 35.0413 116.004 35.7638C116.877 36.4714 117.882 36.8241 119.019 36.8241C120.239 36.8241 121.333 36.4438 122.304 35.6809C123.288 34.9053 123.781 33.609 123.781 31.7921V20.0855H129.374V37.3044C129.374 38.7175 129.512 40.0223 129.791 41.2144H124.302V41.2123Z" fill="#F2F4F9"/>
<path d="M141.75 37.3448C142.694 37.3448 143.436 37.162 143.975 36.7944C144.515 36.4268 144.787 35.8976 144.787 35.2028C144.787 34.1764 144.101 33.4964 142.728 33.1649L139.921 32.3956C137.785 31.841 136.23 31.0441 135.252 30.005C134.275 28.9659 133.786 27.6909 133.786 26.1779C133.786 24.1825 134.506 22.559 135.949 21.3116C137.39 20.0642 139.339 19.4395 141.793 19.4395C143.956 19.4395 145.765 19.9346 147.22 20.927C148.676 21.9194 149.562 23.2879 149.883 25.0346L144.912 26.1779C144.83 25.4851 144.517 24.9369 143.977 24.5352C143.438 24.1336 142.764 23.9317 141.961 23.9317C141.115 23.9317 140.45 24.123 139.965 24.5034C139.481 24.8838 139.239 25.415 139.239 26.095C139.239 26.6071 139.426 27.03 139.8 27.3636C140.174 27.6972 140.784 27.9799 141.629 28.2157L144.396 28.9446C146.351 29.4567 147.834 30.2472 148.846 31.3161C149.857 32.3829 150.363 33.6791 150.363 35.2049C150.363 37.2003 149.6 38.7961 148.077 39.9883C146.551 41.1804 144.473 41.7775 141.838 41.7775C139.203 41.7775 137.328 41.2399 135.839 40.1668C134.349 39.0936 133.471 37.6274 133.208 35.768L138.304 34.9159C138.374 35.6639 138.712 36.2567 139.324 36.6945C139.934 37.1301 140.745 37.349 141.757 37.349L141.75 37.3448Z" fill="#F2F4F9"/>
<path d="M153.791 12.8903C153.791 11.9616 154.116 11.1754 154.768 10.5294C155.42 9.8855 156.217 9.5625 157.159 9.5625C158.1 9.5625 158.899 9.8855 159.549 10.5294C160.202 11.1733 160.527 11.9616 160.527 12.8903C160.527 13.8189 160.202 14.6476 159.549 15.2915C158.897 15.9354 158.1 16.2584 157.159 16.2584C156.217 16.2584 155.418 15.9354 154.768 15.2915C154.116 14.6476 153.791 13.8465 153.791 12.8903ZM159.966 20.0855V41.2144H154.392V20.0855H159.966Z" fill="#F2F4F9"/>
<path d="M174.711 19.4395C177.138 19.4395 179.233 20.043 181.001 21.2479C182.769 22.4528 183.951 24.055 184.548 26.0525L179.786 27.965C179.439 26.911 178.813 26.0653 177.903 25.4278C176.996 24.7903 175.959 24.4715 174.794 24.4715C173.115 24.4715 171.796 25.0304 170.833 26.146C169.868 27.2616 169.388 28.7619 169.388 30.6489C169.388 32.5359 169.877 34.0213 170.854 35.1093C171.832 36.1973 173.145 36.7412 174.794 36.7412C175.986 36.7412 177.04 36.4374 177.954 35.8254C178.87 35.2155 179.507 34.3974 179.867 33.371L184.546 35.1178C183.866 37.1556 182.633 38.7749 180.844 39.9734C179.055 41.1719 176.998 41.7711 174.669 41.7711C171.439 41.7711 168.821 40.7448 166.819 38.6941C164.815 36.6414 163.814 33.9596 163.814 30.6468C163.814 27.3339 164.819 24.6203 166.83 22.5462C168.84 20.4744 171.466 19.4374 174.711 19.4374V19.4395Z" fill="#F2F4F9"/>
<path d="M217.611 34.1424H206.318L203.843 41.2123H197.791L209.043 10.0003H214.927L226.155 41.2144H219.98L217.609 34.1445L217.611 34.1424ZM215.906 29.2974L211.975 17.8819L208.025 29.2974H215.906Z" fill="#F2F4F9"/>
<path d="M236.536 37.3448C237.48 37.3448 238.221 37.162 238.761 36.7944C239.301 36.4268 239.573 35.8976 239.573 35.2028C239.573 34.1764 238.886 33.4964 237.514 33.1649L234.706 32.3956C232.571 31.841 231.015 31.0441 230.038 30.005C229.06 28.9659 228.572 27.6909 228.572 26.1779C228.572 24.1825 229.292 22.559 230.735 21.3116C232.175 20.0642 234.124 19.4395 236.578 19.4395C238.742 19.4395 240.55 19.9346 242.006 20.927C243.461 21.9194 244.348 23.2879 244.668 25.0346L239.698 26.1779C239.615 25.4851 239.303 24.9369 238.763 24.5352C238.223 24.1336 237.55 23.9317 236.746 23.9317C235.901 23.9317 235.236 24.123 234.751 24.5034C234.267 24.8838 234.024 25.415 234.024 26.095C234.024 26.6071 234.211 27.03 234.585 27.3636C234.959 27.6972 235.569 27.9799 236.415 28.2157L239.182 28.9446C241.137 29.4567 242.62 30.2472 243.631 31.3161C244.643 32.3829 245.149 33.6791 245.149 35.2049C245.149 37.2003 244.386 38.7961 242.862 39.9883C241.336 41.1804 239.258 41.7775 236.623 41.7775C233.988 41.7775 232.114 41.2399 230.624 40.1668C229.135 39.0936 228.257 37.6274 227.994 35.768L233.089 34.9159C233.159 35.6639 233.497 36.2567 234.109 36.6945C234.719 37.1301 235.531 37.349 236.542 37.349L236.536 37.3448Z" fill="#F2F4F9"/>
<path d="M256.29 37.3448C257.233 37.3448 257.975 37.162 258.515 36.7944C259.055 36.4268 259.327 35.8976 259.327 35.2028C259.327 34.1764 258.64 33.4964 257.268 33.1649L254.46 32.3956C252.325 31.841 250.769 31.0441 249.792 30.005C248.814 28.9659 248.326 27.6909 248.326 26.1779C248.326 24.1825 249.046 22.559 250.489 21.3116C251.93 20.0642 253.878 19.4395 256.333 19.4395C258.496 19.4395 260.304 19.9346 261.76 20.927C263.215 21.9194 264.102 23.2879 264.422 25.0346L259.452 26.1779C259.369 25.4851 259.057 24.9369 258.517 24.5352C257.977 24.1336 257.304 23.9317 256.5 23.9317C255.655 23.9317 254.99 24.123 254.505 24.5034C254.021 24.8838 253.778 25.415 253.778 26.095C253.778 26.6071 253.965 27.03 254.339 27.3636C254.713 27.6972 255.323 27.9799 256.169 28.2157L258.936 28.9446C260.891 29.4567 262.374 30.2472 263.385 31.3161C264.397 32.3829 264.903 33.6791 264.903 35.2049C264.903 37.2003 264.14 38.7961 262.616 39.9883C261.09 41.1804 259.012 41.7775 256.377 41.7775C253.742 41.7775 251.868 41.2399 250.378 40.1668C248.889 39.0936 248.011 37.6274 247.747 35.768L252.843 34.9159C252.913 35.6639 253.251 36.2567 253.863 36.6945C254.473 37.1301 255.285 37.349 256.296 37.349L256.29 37.3448Z" fill="#F2F4F9"/>
<path d="M268.33 12.8903C268.33 11.9616 268.655 11.1754 269.308 10.5294C269.96 9.8855 270.757 9.5625 271.698 9.5625C272.64 9.5625 273.439 9.8855 274.089 10.5294C274.741 11.1733 275.066 11.9616 275.066 12.8903C275.066 13.8189 274.741 14.6476 274.089 15.2915C273.437 15.9354 272.64 16.2584 271.698 16.2584C270.757 16.2584 269.958 15.9354 269.308 15.2915C268.655 14.6476 268.33 13.8465 268.33 12.8903ZM274.508 20.0855V41.2144H268.934V20.0855H274.508Z" fill="#F2F4F9"/>
<path d="M287.068 37.3448C288.012 37.3448 288.754 37.162 289.293 36.7944C289.833 36.4268 290.105 35.8976 290.105 35.2028C290.105 34.1764 289.419 33.4964 288.046 33.1649L285.239 32.3956C283.103 31.841 281.548 31.0441 280.57 30.005C279.593 28.9659 279.104 27.6909 279.104 26.1779C279.104 24.1825 279.824 22.559 281.267 21.3116C282.708 20.0642 284.657 19.4395 287.111 19.4395C289.274 19.4395 291.083 19.9346 292.538 20.927C293.994 21.9194 294.88 23.2879 295.201 25.0346L290.23 26.1779C290.148 25.4851 289.835 24.9369 289.295 24.5352C288.756 24.1336 288.082 23.9317 287.279 23.9317C286.433 23.9317 285.768 24.123 285.283 24.5034C284.799 24.8838 284.557 25.415 284.557 26.095C284.557 26.6071 284.744 27.03 285.118 27.3636C285.492 27.6972 286.102 27.9799 286.947 28.2157L289.714 28.9446C291.669 29.4567 293.152 30.2472 294.164 31.3161C295.175 32.3829 295.681 33.6791 295.681 35.2049C295.681 37.2003 294.918 38.7961 293.395 39.9883C291.869 41.1804 289.791 41.7775 287.156 41.7775C284.521 41.7775 282.646 41.2399 281.157 40.1668C279.667 39.0936 278.789 37.6274 278.526 35.768L283.622 34.9159C283.692 35.6639 284.03 36.2567 284.642 36.6945C285.252 37.1301 286.063 37.349 287.075 37.349L287.068 37.3448Z" fill="#F2F4F9"/>
<path d="M311.566 41.2123C310.208 41.5586 308.924 41.7329 307.719 41.7329C305.46 41.7329 303.709 41.1273 302.468 39.9139C301.227 38.7005 300.607 36.8603 300.607 34.3931V24.8689H297.383V20.0855H300.607V13.5341H306.096V20.0855H310.962V24.8689H306.096V33.3731C306.053 35.6469 306.948 36.7838 308.778 36.7838C309.43 36.7838 310.144 36.6584 310.919 36.4098L311.563 41.2144L311.566 41.2123Z" fill="#F2F4F9"/>
<path d="M328.595 41.2123C328.47 40.5471 328.366 39.8268 328.283 39.049C327.686 39.8671 326.844 40.5259 325.756 41.0252C324.668 41.5246 323.423 41.7733 322.023 41.7733C319.721 41.7733 317.866 41.157 316.459 39.9224C315.053 38.6878 314.349 37.0175 314.349 34.9116C314.349 32.8058 315.031 31.1865 316.398 30.0135C317.762 28.8426 319.638 28.2561 322.023 28.2561H328.157V27.5485C328.157 26.3288 327.79 25.4214 327.055 24.8243C326.319 24.2292 325.293 23.9296 323.978 23.9296C321.649 23.9296 319.978 24.922 318.967 26.9025L314.912 24.5947C316.729 21.1565 319.868 19.4374 324.332 19.4374C327.023 19.4374 329.233 20.1386 330.967 21.5369C332.699 22.9373 333.566 25.211 333.566 28.3581V36.448C333.566 38.7494 333.697 40.3368 333.961 41.2101H328.595V41.2123ZM328.2 32.062H323.355C322.288 32.062 321.459 32.3085 320.871 32.7994C320.282 33.2924 319.987 33.9681 319.987 34.8266C319.987 35.6851 320.295 36.38 320.911 36.8645C321.527 37.3511 322.399 37.5934 323.521 37.5934C324.893 37.5934 326.015 37.1769 326.889 36.346C327.762 35.5151 328.2 34.2253 328.2 32.4785V32.062Z" fill="#F2F4F9"/>
<path d="M358.354 28.2157V41.2123H352.801V29.4206C352.801 27.4932 352.365 26.197 351.49 25.5319C350.602 24.8519 349.618 24.514 348.536 24.514C347.274 24.514 346.158 24.8944 345.189 25.6573C344.191 26.4478 343.691 27.744 343.691 29.546V41.2123H338.16V20.0855H343.4L343.566 22.185C344.161 21.3541 345.017 20.6869 346.135 20.1896C347.251 19.6903 348.453 19.4416 349.743 19.4416C352.474 19.4416 354.592 20.2088 356.097 21.7388C357.601 23.2709 358.354 25.4299 358.354 28.2157Z" fill="#F2F4F9"/>
<path d="M375.22 41.2123C373.862 41.5586 372.578 41.7329 371.374 41.7329C369.115 41.7329 367.364 41.1273 366.123 39.9139C364.882 38.7005 364.261 36.8603 364.261 34.3931V24.8689H361.038V20.0855H364.261V13.5341H369.75V20.0855H374.616V24.8689H369.75V33.3731C369.708 35.6469 370.602 36.7838 372.432 36.7838C373.084 36.7838 373.798 36.6584 374.574 36.4098L375.218 41.2144L375.22 41.2123Z" fill="#F2F4F9"/>
</svg>
