<?xml version="1.0" encoding="UTF-8"?>
<svg id="Layer_1" data-name="Layer 1" xmlns="http://www.w3.org/2000/svg" viewBox="0 0 148 61.48">
  <defs>
    <style>
      .cls-1 {
        fill: #000;
      }

      .cls-1, .cls-2, .cls-3, .cls-4 {
        stroke-width: 0px;
      }

      .cls-2 {
        fill: #010101;
      }

      .cls-3 {
        fill: #7f7f7f;
      }

      .cls-4 {
        fill: #fefefe;
      }
    </style>
  </defs>
  <g>
    <polygon class="cls-1" points="69.27 61.1 68.11 51.95 59.4 53.96 58.57 60.7 56.41 42.21 60.27 41.2 59.81 50.75 67.76 51.21 67.31 42.26 70.99 40.88 70.35 51.04 69.27 61.1"/>
    <path class="cls-1" d="M92.11,60.57c1.72-1.06,3.64-1.83,4.92-3.53,1.19-1.58,2.25-3.2,1.97-5.58h-9.85c.05-5.82,7.36-11.41,13.58-10.55-.33,1.53-1.4,4.66-1.4,4.66l-1.85-3.5s-5.21,2.35-6.47,6.69c3.4.79,6.57,1.52,9.77,2.26.38,2.32-.65,4-2.03,5.4-2.37,2.41-5.18,4.07-8.71,4.09l.06.07Z"/>
    <path class="cls-1" d="M106.75,60.57c1.72-1.06,3.64-1.83,4.92-3.53,1.19-1.58,2.25-3.2,1.97-5.58h-9.85c.05-5.82,7.36-11.41,13.58-10.55-.33,1.53-1.4,4.66-1.4,4.66l-1.85-3.5s-5.21,2.35-6.47,6.69c3.4.79,6.57,1.52,9.77,2.26.38,2.32-.65,4-2.03,5.4-2.37,2.41-5.18,4.07-8.71,4.09l.06.07Z"/>
    <g>
      <path class="cls-1" d="M135.65,60s.01-.04.02-.07c-.03,0-.05.01-.08.02l.06.05Z"/>
      <path class="cls-1" d="M144.08,41.08s-2.44,5.68-4.07,8.66c-1.57-2.99-4.49-8.54-4.49-8.54l-2.89,1.49s-9.94-3.16-14.88-1.3c.65,6.49,2.43,19.18,2.43,19.18l1.1-7.76s9.61-2.65,11.44-8.98c2.2,2.66,6.14,7.43,6.14,7.43,0,0-.52,1.96-.83,2.79-.74,1.98-2.37,5.88-2.37,5.88l1.54-1.56,6.64-9.77,4.16-6.04-3.92-1.49ZM121.15,52.09c.29-3.36.54-6.25.8-9.29,2.3.23,4.22,1.08,6.34,1.93-.44,4.19-3.49,5.72-7.13,7.36Z"/>
    </g>
    <path class="cls-1" d="M78.42,44.27c-5.31,4.2-6.58,10.04-6.68,16.79.67-2.09.96-4.77,2.42-6.65,3.49-.7,6.97-1.4,10.66-2.15.35,3.1.64,5.74.94,8.39.89-6.45,2.09-19.46,2.09-19.46,0,0-6.78.99-9.43,3.09ZM75.6,51.37c2.79-6.22,9.27-6.9,9.27-6.9v6.91s-5.9.03-9.27-.02Z"/>
  </g>
  <g>
    <path class="cls-2" d="M15.74,44.48c-.27-1.84-.54-3.63-.82-5.52h-6.36c.1-1.64.19-3.19.29-4.81-2.94-1.03-5.87-2.06-8.85-3.1.12-2.41.23-4.78.37-7.16.07-1.29,0-2.59.51-3.85.68-1.69,1.71-3.13,2.91-4.46.69-.76,1.38-1.51,2.09-2.24,1.22-1.28,2.22-2.72,3.04-4.29.84-1.61,1.78-3.16,2.91-4.59C14.13,1.59,17.17.24,20.79.1c2.98-.12,5.88.36,8.74,1.13,1.42.38,2.78.35,4.18-.07,1.41-.42,2.79-.94,4.27-1.11.75-.09,1.47-.04,2.27.13.54,1.62.79,3.32.9,5.05.39,6.2-1.15,12.03-3.47,17.7-1.24,3.04-2.69,5.98-4.33,8.83.66,0,15.86-8.12,18.59-9.93-.3-.85-.6-1.72-.93-2.64.43-.32.92-.5,1.46-.73.27.9.54,1.75.82,2.68,1.11-.59,2.17-1.17,3.26-1.75,5.72,6.03,11.43,12.04,17.13,18.04,0,.3-.19.4-.42.5-2.53-1.65-5.07-3.31-7.6-4.96-.78.75-1.53,1.48-2.31,2.23-.25-.32-.51-.65-.8-1.02.57-.69,1.13-1.36,1.74-2.1-2.76-1.81-5.47-3.58-8.25-5.39-8.28,3.56-16.58,7.14-24.95,10.74,6.47,7.85,12.87,15.62,19.27,23.39-.14.33-.37.53-.65.68-4.89-1.97-9.66-4.17-14.35-6.57-2.16-1.11-3.85-2.78-5.73-4.23-1.39-1.08-2.73-2.22-4.08-3.34-.34-.28-.7-.45-1.12-.56-2.87-.75-5.75-1.51-8.7-2.29ZM27.35,15.38c-1.18,1.87-2.88,2.62-5.06,2.34-1.01-.13-1.99-.4-2.97-.68-1.76-.51-3.46-1.22-5.26-1.6-.03-.05-.05-.1-.09-.14-.27-.23-.54-.62-.93-.27-.4.36-.04.67.19.95,5.37,6.53,10.74,13.06,16.12,19.58.15.18.26.44.61.49,2.2-3.32,3.47-6.96,3.69-10.96.16-2.94-.24-5.82-.98-8.67-.68-2.61-1.62-5.13-2.63-7.62-.13-.33-.26-.78-.76-.58-.5.2-.23.59-.12.94.31,1.01-.79,4.63-1.8,6.23ZM16.59,13.5c.58.95,1.66,1.39,3.12,1.32.6-.03,1.28.02,1.69-.71-1.62-.21-3.16-.4-4.81-.61ZM27.1,9.69c-1.09,1.37-2.05,2.59-3.07,3.87,1.6.02,3.3-2.07,3.07-3.87Z"/>
    <path class="cls-3" d="M14.05,15.43c2.93,3.58,5.85,7.15,8.78,10.73,2.01,2.46,4.03,4.91,6.05,7.36.26.32.54.64.85,1.02,1.13-1.86,1.89-3.76,2.37-5.78,1.07-4.56.59-9.04-.74-13.48-.47-1.57-1-3.13-1.64-4.64-.09-.21-.42-1.17-.59-1.5-.16-.33-.38-.74.12-.94.49-.2.62.25.76.58,1.01,2.49,1.96,5.01,2.63,7.62.74,2.85,1.14,5.73.98,8.67-.22,3.99-1.49,7.64-3.69,10.96-.35-.05-.46-.31-.61-.49-5.38-6.52-10.75-13.05-16.12-19.58-.22-.27-.59-.59-.19-.95.39-.35.66.05.93.27.04.03.06.09.09.14Z"/>
    <path class="cls-4" d="M16.59,13.5c1.65.21,3.19.41,4.81.61-.4.73-1.09.68-1.69.71-1.46.07-2.54-.38-3.12-1.32Z"/>
    <path class="cls-4" d="M27.1,9.69c.22,1.8-1.47,3.89-3.07,3.87,1.02-1.28,1.99-2.5,3.07-3.87Z"/>
    <path class="cls-2" d="M29.18,21.03c-.89-.78-.9-2.67-.02-3.51.86.75.87,2.71.02,3.51Z"/>
    <path class="cls-2" d="M25.26,22.07c-1.24-.11-2.44-1.32-2.5-2.48,1.11-.19,2.55,1.2,2.5,2.48Z"/>
  </g>
</svg>