<?xml version="1.0" encoding="UTF-8"?>
<svg id="Layer_1" data-name="Layer 1" xmlns="http://www.w3.org/2000/svg" viewBox="0 0 204 57.93">
  <defs>
    <style>
      .cls-1 {
        fill: #007cd6;
      }

      .cls-1, .cls-2, .cls-3, .cls-4, .cls-5, .cls-6, .cls-7, .cls-8, .cls-9, .cls-10, .cls-11, .cls-12, .cls-13, .cls-14, .cls-15, .cls-16, .cls-17, .cls-18, .cls-19, .cls-20, .cls-21, .cls-22, .cls-23, .cls-24, .cls-25, .cls-26, .cls-27, .cls-28, .cls-29, .cls-30, .cls-31, .cls-32, .cls-33, .cls-34, .cls-35, .cls-36, .cls-37, .cls-38, .cls-39, .cls-40, .cls-41, .cls-42 {
        stroke-width: 0px;
      }

      .cls-2 {
        fill: #eaeaea;
      }

      .cls-3 {
        fill: #42aa35;
      }

      .cls-4 {
        fill: #df1c3c;
      }

      .cls-5 {
        fill: #0094ff;
      }

      .cls-6 {
        fill: #017cd6;
      }

      .cls-7 {
        fill: #bb1630;
      }

      .cls-8 {
        fill: #d65b01;
      }

      .cls-9 {
        fill: #7f8080;
      }

      .cls-10 {
        fill: #d65a00;
      }

      .cls-11 {
        fill: #df1b3b;
      }

      .cls-12 {
        fill: #e9cc4b;
      }

      .cls-13 {
        fill: #ff8732;
      }

      .cls-14 {
        fill: #676868;
      }

      .cls-15 {
        fill: #e9cc4c;
      }

      .cls-16 {
        fill: #73d465;
      }

      .cls-17 {
        fill: #bb1731;
      }

      .cls-18 {
        fill: #4c4c4c;
      }

      .cls-19 {
        fill: #e64862;
      }

      .cls-20 {
        fill: #32aaff;
      }

      .cls-21 {
        fill: #bebfbf;
      }

      .cls-22 {
        fill: #ff8733;
      }

      .cls-23 {
        fill: gray;
      }

      .cls-24 {
        fill: #43aa35;
      }

      .cls-25 {
        fill: #ff6b00;
      }

      .cls-26 {
        fill: #027cd6;
      }

      .cls-27 {
        fill: #686868;
      }

      .cls-28 {
        fill: #c0a21b;
      }

      .cls-29 {
        fill: #72d464;
      }

      .cls-30 {
        fill: #818080;
      }

      .cls-31 {
        fill: #fefffe;
      }

      .cls-32 {
        fill: #e9eaea;
      }

      .cls-33 {
        fill: #fff;
      }

      .cls-34 {
        fill: #bb1730;
      }

      .cls-35 {
        fill: #d65a01;
      }

      .cls-36 {
        fill: #4eca3e;
      }

      .cls-37 {
        fill: #a0a0a0;
      }

      .cls-38 {
        fill: #ffe6a3;
      }

      .cls-39 {
        fill: #696868;
      }

      .cls-40 {
        fill: #e4c020;
      }

      .cls-41 {
        fill: #3af;
      }

      .cls-42 {
        fill: #4d4d4d;
      }
    </style>
  </defs>
  <path class="cls-5" d="M28.05,41.11c-1.86,0-3.73.01-5.59.02-.06-.03-.11-.07-.14-.13-.13-.57-.15-1.15.01-1.72.03-.06.08-.1.13-.13.48-.21,1.01-.02,1.55-.19.16-.51.02-1.07.11-1.6-.09-.5.04-1.02-.11-1.57-.51-.18-1.07-.03-1.59-.12-.52.09-1.05-.05-1.58.12-.16.55-.03,1.1-.11,1.63,0,.62.18,1.26-.17,1.85-.64.26-1.29.28-1.93-.02-.18-.24-.17-.52-.17-.79,0-11.31,0-22.62,0-33.93,0-.29-.01-.59.22-.82h0c.62-.35,1.25-.3,1.88-.04.24.28.2.62.2.94,0,1.85,0,3.7,0,5.54,0,.23-.04.48.11.77,2.27.05,4.55.05,6.79.04.31-.59-.01-1.2.35-1.67.26-.22.58-.19.89-.19,4.39,0,8.79,0,13.18,0,1,0,1.12.13,1.15,1.15,0,.2-.02.4.18.68.95.07,1.97.05,3.01,0,.22-.58.03-1.13.2-1.63.18-1.23.04-2.47.08-3.71.02-.62-.05-1.23.07-1.89.63-.3,1.25-.35,1.87-.01h0c.26.29.21.65.21.99,0,5.73,0,11.46,0,17.19,0,5.44,0,10.88,0,16.31,0,.34.05.7-.14,1.02-.57.39-1.19.23-1.81.16-.07-.03-.13-.07-.18-.12-.29-.6-.15-1.22-.14-1.84-.08-.53.05-1.09-.11-1.63-.53-.17-1.06-.03-1.58-.12-.52.09-1.06-.05-1.59.12-.18.53-.03,1.06-.12,1.58.09.52-.05,1.05.11,1.55.54.26,1.17-.09,1.65.33.22.62.27,1.23-.03,1.84-2.5,0-4.99.01-7.49.02-.03-.02-.06-.04-.09-.06-.11-.13-.15-.3-.15-.46,0-1.06-.05-2.11.02-3.17-.09-.53.09-1.08-.14-1.6-.28-.25-.62-.18-.95-.17-1.77.07-3.54.03-5.31.05-.2,0-.4-.03-.61.11-.22.45.02,1-.2,1.47-.03.06-.08.11-.13.15-.48.25-1.02.02-1.49.2-.19.19-.14.42-.14.64-.01.7,0,1.39,0,2.09,0,.26,0,.52-.2.72Z"/>
  <path class="cls-25" d="M101.07,7.45c.03-.61.07-1.22.1-1.84.25.23.19.53.2.82.01.23-.03.47.1.72.37.15.76.12,1.15.03.29-.5-.08-1.12.31-1.58h1.87c.25.23.2.53.22.82.02.23-.04.48.09.69.19.16.42.12.63.12.68.01,1.35,0,2.03,0,.27,0,.55,0,.77.21h0c.24.25.2.57.21.87.01.22-.03.44.08.64.17.18.4.13.62.14.69.01,1.38,0,2.07,0,.27,0,.55,0,.77.21h0c.22.22.19.49.21.76.02.27-.05.54.1.8.49.25,1.1-.1,1.56.3h0c.22.22.21.49.21.76,0,.67,0,1.34,0,2.01,0,.21-.04.44.11.65.47.25,1.09-.1,1.54.31h0c.22.22.22.49.22.77,0,5.72,0,11.43,0,17.15,0,.82-.18,1-1.01,1-6.97,0-13.94,0-20.91,0-.27,0-.55,0-.79-.17-.2-.23-.19-.51-.19-.78,0-5.73,0-11.47,0-17.2,0-.28,0-.55.22-.77.03-1.24.07-2.47.1-3.71.22.19.21.46.21.71.01.68,0,1.36,0,2.03,0,.22-.02.44.1.65.37.17.74.1,1.08.05.2-.23.16-.46.16-.68.01-.68,0-1.36,0-2.03,0-.27,0-.55.21-.77.03-.61.07-1.22.1-1.84.25.23.19.54.21.82.02.23-.03.48.1.72.37.16.76.1,1.14.04.28-.54-.07-1.15.33-1.62.03-.61.07-1.22.1-1.84.25.23.19.53.21.82.02.23-.03.48.14.78.96.07,1.97.05,2.95.01.29-.56-.06-1.18.34-1.64Z"/>
  <path class="cls-40" d="M136.63,5.61h1.88c.25.23.2.53.22.82.01.23-.03.48.08.68.21.18.43.13.65.13.68.01,1.35,0,2.03,0,.27,0,.55,0,.77.21h0c.24.25.2.57.21.87.01.22-.03.44.08.64.17.18.4.13.62.14.69.01,1.38,0,2.07,0,.27,0,.55,0,.77.21h0c.22.22.19.49.21.76.02.27-.05.54.1.8.49.25,1.1-.1,1.56.3h0c.22.22.21.49.21.76,0,.67,0,1.34,0,2.01,0,.21-.04.44.11.65.47.25,1.09-.1,1.54.31h0c.22.22.22.49.22.77,0,5.72,0,11.43,0,17.15,0,.82-.18,1-1.01,1-6.97,0-13.94,0-20.91,0-.27,0-.55,0-.79-.17-.2-.23-.19-.51-.19-.78,0-5.74,0-11.47,0-17.21,0-.28.01-.55.21-.78h-.01c.46-.35,1.04-.07,1.53-.26.19-.18.15-.41.15-.62.01-.69,0-1.39,0-2.08,0-.27,0-.55.2-.78h-.01c.26-.21.58-.17.89-.19.23-.01.48.04.71-.11.23-.49-.09-1.1.29-1.57h-.01c.23-.19.5-.19.78-.19.68,0,1.35,0,2.03,0,.21,0,.44.04.66-.12.23-.48-.09-1.09.29-1.55h-.01c.26-.21.58-.17.88-.18.23-.01.47.04.7-.1.27-.48-.09-1.09.3-1.55Z"/>
  <path class="cls-11" d="M61.74,11.19c.04-.61.07-1.23.11-1.84.25.23.18.54.2.83.02.23-.03.48.1.72.37.16.76.1,1.14.04.28-.54-.07-1.15.32-1.62.04-.61.07-1.23.11-1.84.25.23.18.54.21.82.02.23-.03.48.14.77.96.07,1.97.05,2.95.01.29-.56-.06-1.18.34-1.64.04-.61.07-1.23.11-1.84.24.23.18.54.2.82.02.23-.03.47.1.72.37.17.76.09,1.13.05.3-.53-.07-1.14.33-1.6.62,0,1.25,0,1.87,0,.24.23.2.54.22.82.02.23-.04.48.1.69.19.16.42.12.63.12.68.01,1.36,0,2.04,0,.28,0,.55,0,.78.2h0c.37.46.08,1.03.27,1.52.18.19.41.14.62.15.69.01,1.39,0,2.08,0,.27,0,.55,0,.78.2h0c.23.26.18.58.19.88.01.23-.03.47.09.69.51.24,1.12-.08,1.59.29h0c.2.22.2.5.2.77,0,.67,0,1.35,0,2.02,0,.21-.03.44.1.65.5.24,1.11-.08,1.57.3h0c.2.22.21.5.21.77,0,5.72,0,11.43,0,17.15,0,.83-.17,1-1,1-6.97,0-13.94,0-20.92,0-.27,0-.55,0-.79-.17-.2-.23-.19-.51-.19-.78,0-5.73,0-11.46,0-17.2,0-.28,0-.55.22-.77.04-1.24.07-2.47.11-3.71.22.2.2.46.21.71.01.68,0,1.36,0,2.03,0,.22-.04.44.12.66.35.14.72.12,1.08.02.18-.21.14-.44.14-.65.01-.68,0-1.36,0-2.03,0-.27,0-.55.21-.77Z"/>
  <path class="cls-36" d="M160.88,14.96s.04-.03.07-.02c.26-.23.58-.19.89-.2.23-.01.48.04.71-.11.16-.35.06-.74.09-1.12.06-.76-.13-1.53.11-2.28.02-.02.04-.03.07-.02.26-.23.58-.18.89-.19.23-.01.48.03.71-.11.24-.49-.05-1.05.2-1.55.02-.02.04-.03.07-.02.23-.2.5-.2.78-.2.69,0,1.39,0,2.08,0,.2,0,.4.03.61-.12.23-.47-.06-1.04.2-1.52.02-.02.04-.03.07-.02.26-.22.57-.19.88-.2.23,0,.47.02.7-.08.27-.46-.09-1.07.34-1.49.6-.06,1.21-.02,1.8-.03.43.43.13,1.01.34,1.46.2.18.43.13.64.14.68,0,1.36,0,2.04,0,.27,0,.56,0,.77.22h0c.24.24.2.54.21.83.01.23-.03.48.07.68.2.18.43.14.65.14.68.01,1.36,0,2.03,0,.27,0,.56,0,.77.21h0c.22.22.19.5.21.76.02.27-.05.54.1.8.49.25,1.1-.1,1.56.3h0c.22.22.21.5.21.77,0,.68,0,1.35,0,2.03,0,.2-.03.4.1.61.46.28,1.09-.1,1.55.32h0c.22.22.22.5.22.77,0,5.73,0,11.46,0,17.2,0,.76-.19.94-.95.94-7,0-14.01,0-21.01,0-.26,0-.52,0-.74-.17-.2-.22-.2-.5-.2-.78,0-5.79,0-11.58,0-17.37,0-.2,0-.4.12-.58Z"/>
  <path class="cls-13" d="M93.58,33.63h22.47V14.94h1.84v18.67h1.85v3.74h-1.82c-.23-.21-.2-.5-.21-.77-.01-.25.04-.51-.11-.74-.29-.19-.61-.12-.92-.12-7.97,0-15.95,0-23.92,0-.36,0-.74.06-1.07-.17-.28-.64-.32-1.29.02-1.92,0-6.02,0-12.04,0-18.07,0-.2.07-.4.1-.6.28.28.21.65.21.99,0,5.51,0,11.01,0,16.52,0,.29-.06.59.12.85.45.24,1.02-.06,1.43.32Z"/>
  <path class="cls-19" d="M59.87,33.63h22.48V14.92c.6,0,1.2,0,1.87,0v18.7h1.84v3.74h-1.85c-.22-.21-.2-.5-.22-.77-.01-.25.05-.52-.12-.75-.28-.18-.6-.11-.9-.11-7.98,0-15.95,0-23.93,0-.36,0-.74.06-1.07-.17-.29-.64-.32-1.29.02-1.92,0-6.02,0-12.05,0-18.07,0-.2.07-.4.11-.6.28.28.21.65.21.99,0,5.51,0,11.01,0,16.52,0,.29-.06.59.12.85.45.24,1.02-.06,1.43.32Z"/>
  <path class="cls-12" d="M127.27,33.63h22.47V14.94c.59,0,1.17,0,1.83,0v18.68h1.85v3.74h-1.82c-.23-.21-.2-.5-.21-.77-.01-.25.04-.51-.11-.74-.29-.19-.61-.12-.92-.12-7.98,0-15.95,0-23.93,0-.36,0-.74.06-1.06-.17-.28-.65-.31-1.29.02-1.93h-.01c.63-.3,1.26-.31,1.88,0Z"/>
  <path class="cls-29" d="M160.98,33.63h22.47c0-6.27,0-12.48,0-18.68.59,0,1.17,0,1.83,0v18.68h1.85v3.74h-1.81c-.22-.21-.2-.5-.22-.77-.01-.25.05-.52-.12-.75-.28-.18-.6-.11-.9-.11-7.98,0-15.95,0-23.93,0-.36,0-.74.06-1.06-.17-.28-.65-.31-1.29.02-1.93h-.01c.63-.3,1.26-.31,1.89.01Z"/>
  <path class="cls-27" d="M28.15,52.32c-.04-.86-.1-1.72-.1-2.58-.01-2.23,0-4.46,0-6.76h1.85c.17-.6,0-1.23.1-1.84.16-.22.4-.23.64-.23,1.42-.01,2.85-.01,4.27,0,.2,0,.4.02.58.13.26.21.23.51.25.8.02.28-.04.58.1.85.51.24,1.11-.08,1.58.29h0c.2.22.21.5.21.77,0,2.61,0,5.23,0,7.84,0,.28-.02.55-.2.78v1.82h-1.86v3.75h-1.91c-.22-.22-.2-.5-.2-.77,0-.68,0-1.35,0-2.03,0-.2.03-.41-.11-.61-.35-.16-.72-.11-1.07-.04-.2.2-.15.43-.15.64-.01.7,0,1.39,0,2.09,0,.25,0,.52-.2.72-.04-1.24-.08-2.47-.12-3.71-.33-.6-.29-1.21-.05-1.83.21-.26.5-.24.79-.26.27-.01.54.04.82-.09.27-.48-.08-1.08.29-1.55.21-.24.49-.21.76-.23.27-.02.55.04.84-.1.15-.41.12-.83.02-1.25-.53-.29-1.18.1-1.64-.37-.26-.58-.24-1.17-.02-1.75.19-.25.46-.26.74-.27.29-.01.59.04.89-.1.17-.41.12-.83.03-1.28-.44-.15-.86-.12-1.28-.02-.28.51.08,1.13-.32,1.59-.22.22-.5.19-.77.2-.27.02-.55-.05-.82.11-.13.4-.08.8-.03,1.21.53.34,1.21-.09,1.67.4.25.59.26,1.18,0,1.78-.19.24-.47.23-.74.25-.28.02-.58-.05-.86.1-.26.49.09,1.09-.3,1.55-.23.24-.53.2-.82.22-.21.01-.44-.02-.65.09-.27.49.09,1.1-.31,1.56l-.12-1.84c-.25-.27-.21-.61-.21-.94,0-2.42,0-4.83,0-7.25,0-.25.05-.52-.13-.76-.34-.14-.69-.12-1.04-.02-.21.23-.15.5-.15.75,0,2.42,0,4.83,0,7.25,0,.32.06.67-.21.93Z"/>
  <path class="cls-20" d="M48.64,39.26c0-11.85,0-23.7,0-35.55.6,0,1.2,0,1.79,0,.05.12.09.17.09.22,0,12.4,0,24.8,0,37.19-.63.34-1.26.3-1.89.03-.28-.63-.32-1.26.02-1.89Z"/>
  <path class="cls-1" d="M18.68,3.72c0,11.85,0,23.7,0,35.54.32.59.24,1.19.07,1.8-.03.02-.05.05-.08.07h-1.82V3.72h1.83Z"/>
  <path class="cls-23" d="M192.82,41.12c-.04,1.24-.08,2.48-.12,3.71-.24-.24-.18-.54-.2-.83-.01-.23.03-.48-.1-.72-.37-.17-.76-.1-1.14-.04-.28.54.07,1.15-.32,1.62-.04.61-.08,1.23-.12,1.84-.24-.23-.19-.54-.21-.83-.02-.23.05-.48-.1-.69-.21-.16-.46-.11-.69-.11-1.23,0-2.46,0-3.69,0-.29,0-.59,0-.84-.2h.01c-.31-.59-.25-1.2-.06-1.82.03-.02.05-.05.08-.07h3.72v-1.84h1.86v-3.74h1.88v-3.74h1.88v-1.89h7.53,0v1.86h-3.68c-.06.67-.12,1.26-.17,1.86-.24-.24-.18-.54-.2-.83-.01-.24.02-.48-.09-.72-.39-.15-.77-.13-1.16-.02-.26.52.08,1.13-.31,1.6-.04.61-.08,1.23-.12,1.84-.24-.24-.18-.54-.2-.83-.01-.23.03-.48-.1-.72-.37-.17-.76-.09-1.14-.04-.28.54.07,1.15-.32,1.62-.04,1.24-.08,2.48-.12,3.71-.24-.24-.18-.54-.2-.83-.01-.23.03-.48-.1-.73-.37-.15-.76-.13-1.15-.02-.27.51.08,1.13-.31,1.6Z"/>
  <path class="cls-23" d="M9.43,41.1c-.04-1.24-.08-2.48-.12-3.71-.21-.22-.18-.5-.2-.78-.02-.27.05-.55-.11-.82-.37-.12-.74-.1-1.12-.01-.3.5.08,1.12-.32,1.58-.04-.61-.08-1.23-.12-1.84-.21-.22-.18-.5-.2-.78-.01-.27.05-.55-.11-.82-.37-.13-.74-.1-1.12-.01-.3.5.08,1.12-.32,1.58-.05-.59-.11-1.19-.17-1.86h-1.82c-.32-.61-.33-1.22,0-1.83h5.62v1.83h1.88v3.74h1.87v3.74h1.88v1.88h3.74s.05.05.08.07c.19.62.25,1.23-.06,1.83h.01c-.25.19-.54.19-.84.19-1.23,0-2.46,0-3.69,0-.23,0-.48-.05-.7.12-.25.47.1,1.07-.3,1.51-.04-.61-.08-1.23-.12-1.84-.21-.22-.18-.5-.2-.78-.01-.27.05-.55-.11-.82-.37-.14-.74-.08-1.11-.04-.31.52.07,1.14-.34,1.6-.04-1.24-.08-2.48-.12-3.71-.21-.22-.18-.5-.2-.78-.02-.27.05-.55-.11-.82-.37-.12-.74-.1-1.12-.01-.3.5.08,1.12-.32,1.58Z"/>
  <path class="cls-40" d="M125.41,35.5h26.21v1.85l-1.88.04c-.05.05-.11.08-.18.12-1.07.16-2.15.08-3.23.05-.13,0-.24-.09-.34-.16-.62,0-1.25,0-1.87,0-.05.05-.11.08-.18.12-1.07.16-2.15.08-3.23.05-.13,0-.24-.09-.34-.16-1.25,0-2.49,0-3.74,0-.05.05-.11.08-.18.12-1.07.16-2.15.08-3.23.05-.13,0-.24-.09-.34-.16h-1.87c-.05.05-.11.08-.18.11-1.07.16-2.15.08-3.23.05-.13,0-.24-.09-.34-.16-.62-.01-1.24-.03-1.86-.04-.32-.62-.33-1.24,0-1.85Z"/>
  <path class="cls-11" d="M58.01,35.5h26.2v1.86c-.62.01-1.24.03-1.86.04-.55.28-3.21.28-3.73,0-.63,0-1.26,0-1.88,0-.55.28-3.21.28-3.73,0-1.25,0-2.5,0-3.76,0-.55.28-3.21.28-3.73,0-.63,0-1.26,0-1.88,0-.1.07-.21.16-.34.16-1.08.03-2.15.11-3.22-.05-.06-.03-.12-.07-.18-.12-.63-.01-1.25-.02-1.88-.04-.33-.62-.35-1.24,0-1.86Z"/>
  <path class="cls-36" d="M159.11,35.51h26.21v1.85c-.62.01-1.24.02-1.87.04-.06.04-.12.08-.18.11-1.08.16-2.16.08-3.25.05-.13,0-.23-.09-.34-.16-.62,0-1.23,0-1.85,0-.06.04-.12.08-.18.11-1.08.16-2.16.08-3.25.05-.13,0-.23-.09-.34-.16-1.24,0-2.48,0-3.72,0-.06.04-.12.08-.18.11-1.08.16-2.16.08-3.25.05-.13,0-.23-.09-.34-.16-.62,0-1.23,0-1.85,0-.06.04-.12.08-.18.11-1.08.16-2.16.08-3.25.05-.13,0-.23-.09-.34-.16-.62-.01-1.23-.02-1.85-.04-.32-.62-.33-1.24,0-1.86Z"/>
  <path class="cls-25" d="M91.72,35.5h26.2v1.86c-.63.01-1.26.03-1.88.04-1.25.23-2.5.23-3.75,0-.62,0-1.25,0-1.87,0-1.25.23-2.5.23-3.75,0-1.25,0-2.49,0-3.74,0-.06.05-.12.1-.19.11-1.11.06-2.22.06-3.34,0-.07,0-.13-.06-.19-.11-.62,0-1.25,0-1.87,0-.12.09-.26.13-.41.13-.98,0-1.96,0-2.94,0-.15,0-.29-.03-.4-.13-.63-.01-1.26-.03-1.88-.04-.33-.62-.35-1.24,0-1.86Z"/>
  <path class="cls-27" d="M65.51,37.4c1.24,0,2.49,0,3.73,0,0,.62-.01,1.23-.02,1.85-.23.23-.53.21-.82.22-.23.01-.48-.04-.7.11-.18.26-.12.56-.12.84,0,5.51,0,11.02,0,16.52,0,.34.06.7-.22.99h-1.85v-20.53Z"/>
  <path class="cls-27" d="M166.58,37.4c1.22,0,2.44,0,3.66,0,.12.61.03,1.23.05,1.82-.44.41-1,.12-1.45.33-.21.26-.14.56-.14.85,0,5.51,0,11.03,0,16.54,0,.34.07.71-.22.99h-1.89v-20.53Z"/>
  <path class="cls-27" d="M132.88,37.4c1.21,0,2.42,0,3.64,0,.14.61.04,1.23.06,1.82-.45.4-1,.13-1.44.32-.22.28-.14.58-.14.86,0,5.51,0,11.02,0,16.54,0,.34.07.71-.22.99h-1.88v-20.53Z"/>
  <path class="cls-27" d="M101.06,57.93h-1.76c-.1-.16-.06-.33-.06-.49,0-6.48,0-12.96,0-19.45,0-.16-.03-.33.08-.57,1.14,0,2.32,0,3.54,0,.02.64.02,1.22,0,1.77-.44.42-1.01.13-1.45.35-.2.26-.13.57-.13.85,0,5.51,0,11.02,0,16.53,0,.34.06.7-.22.99Z"/>
  <path class="cls-23" d="M101.06,57.93v-18.66h1.71v-1.74h-3.47v20.39c-.04-.13-.1-.26-.1-.39,0-6.71,0-13.43,0-20.14,1.24,0,2.48,0,3.71,0,0,6.83,0,13.66,0,20.53h-1.86Z"/>
  <path class="cls-23" d="M168.47,57.93v-18.67h1.76c0-.67,0-1.27,0-1.87.04,0,.08,0,.11,0,0,6.83,0,13.66,0,20.53h-1.88Z"/>
  <path class="cls-23" d="M134.76,57.93v-18.66h1.75c0-.67,0-1.27,0-1.87.04,0,.07,0,.11,0,0,6.83,0,13.66,0,20.53h-1.87Z"/>
  <path class="cls-27" d="M73,37.4c1.24,0,2.49,0,3.73,0,0,.62-.01,1.23-.02,1.85-.23.23-.53.21-.82.22-.23.01-.48-.04-.7.11-.18.24-.12.52-.12.79,0,4.28,0,8.56,0,12.84,0,.34.06.7-.22.99h-1.85v-16.8Z"/>
  <path class="cls-28" d="M127.27,33.63c-.63,0-1.26,0-1.88,0,0-6.2,0-12.41,0-18.71.65,0,1.26,0,1.88,0,0,6.24,0,12.47,0,18.71Z"/>
  <path class="cls-23" d="M67.36,57.93v-18.69h1.87v18.69h-1.87Z"/>
  <path class="cls-3" d="M160.98,33.63c-.63,0-1.26,0-1.89,0,0-6.21,0-12.41,0-18.67.63,0,1.21,0,1.79,0,.03.2.1.39.1.59,0,6.03,0,12.06,0,18.09Z"/>
  <path class="cls-27" d="M174.06,37.4c1.22,0,2.44,0,3.66,0,.12.61.03,1.23.05,1.82-.44.41-1,.12-1.44.33-.21.24-.14.53-.14.8,0,4.29,0,8.57,0,12.86,0,.34.07.71-.22.99h-1.89v-16.79Z"/>
  <path class="cls-27" d="M140.37,37.4h3.64c.14.62.04,1.23.06,1.82-.45.4-1.01.12-1.45.33-.21.25-.14.53-.14.8,0,4.28,0,8.57,0,12.85,0,.34.07.71-.22.99h-1.88v-16.79Z"/>
  <path class="cls-27" d="M108.55,54.19h-1.87v-16.7c1.2-.12,2.41-.02,3.67-.06.04.62.02,1.2.01,1.77-.42.44-1.01.14-1.45.34-.21.26-.14.55-.14.82,0,4.28,0,8.56,0,12.84,0,.34.07.7-.22.99Z"/>
  <path class="cls-10" d="M93.58,33.63h-1.76c0-6.27,0-12.47,0-18.67.59,0,1.17-.02,1.76-.02,0,6.23,0,12.46,0,18.7Z"/>
  <path class="cls-7" d="M59.87,33.63h-1.76V14.96c.59,0,1.17-.02,1.76-.02,0,6.23,0,12.46,0,18.7Z"/>
  <path class="cls-23" d="M108.55,54.19v-14.94h1.72v-1.76h-3.59s-.03-.05-.02-.09c1.25,0,2.5,0,3.75,0,0,5.58,0,11.17,0,16.79h-1.86Z"/>
  <path class="cls-23" d="M175.96,54.19v-14.93h1.76c0-.67,0-1.27,0-1.87.04,0,.08,0,.11,0,0,5.58,0,11.17,0,16.79h-1.88Z"/>
  <path class="cls-23" d="M142.25,54.19v-14.92h1.75c0-.67,0-1.27,0-1.87.04,0,.07,0,.11,0,0,5.58,0,11.17,0,16.79h-1.87Z"/>
  <path class="cls-23" d="M74.85,54.19v-14.95h1.87v14.95h-1.87Z"/>
  <path class="cls-23" d="M35.52,41.12h-5.42c-.07.66-.14,1.26-.21,1.86,0-.61,0-1.23.01-1.84-.31-.55-.31-3.21,0-3.76h.05c.19-.22.45-.22.7-.22,1.4,0,2.8,0,4.2,0,.24,0,.47.02.68.17.14.13.19.31.2.49.03.96.04,1.92,0,2.87,0,.13-.05.25-.12.36-.03.02-.06.05-.08.07Z"/>
  <path class="cls-23" d="M157.21,46.73h-3.66c-.06.65-.12,1.25-.17,1.84-.24-.23-.18-.54-.19-.82-.01-.23.01-.47-.08-.71-.43-.24-.94-.01-1.38-.21-.06-.03-.1-.07-.13-.13v-1.82c-.31-.6-.24-1.21-.06-1.83.03-.02.05-.05.08-.07h1.84v1.84h3.74v-1.85h1.89s.06.04.08.06c.21.62.27,1.23-.06,1.83,0,.62,0,1.24,0,1.86-.02.03-.05.05-.07.08-.62.19-1.24.26-1.84-.07Z"/>
  <path class="cls-23" d="M58.01,44.88c0,.61,0,1.21.01,1.82-.02.03-.04.05-.05.08-.44.28-.97.02-1.42.24-.26.49.09,1.1-.3,1.56-.05-.58-.11-1.17-.17-1.84h-3.66c-.6.32-1.22.25-1.84.07-.02-.03-.05-.05-.07-.08,0-.62,0-1.24,0-1.86-.34-.56-.21-1.16-.12-1.75.03-.06.08-.11.14-.14h1.85v1.85h3.76v-1.83h1.86s.05.05.08.07c.19.62.26,1.23-.07,1.83Z"/>
  <path class="cls-23" d="M91.71,44.88c0,.61,0,1.21.01,1.82-.02.03-.04.05-.05.08-.44.28-.97.02-1.42.24-.26.49.09,1.1-.3,1.56-.05-.58-.11-1.17-.17-1.84h-3.66c-.6.32-1.22.25-1.84.07-.02-.03-.05-.05-.07-.08,0-.62,0-1.24,0-1.86-.34-.56-.21-1.16-.12-1.75.03-.06.08-.11.14-.14h1.85v1.85h3.76v-1.83h1.86s.05.05.08.07c.19.62.26,1.23-.07,1.83Z"/>
  <path class="cls-23" d="M117.9,46.7v-1.82c-.31-.6-.24-1.21-.06-1.83.03-.02.05-.05.08-.07h1.84v1.84h3.74v-1.85h1.89s.06.04.08.06c.21.62.27,1.23-.06,1.83v1.87c-.64.34-1.27.31-1.91,0h-3.66c-.06.65-.12,1.25-.17,1.84-.24-.23-.18-.54-.19-.82-.01-.23.01-.47-.08-.71-.43-.24-.94-.01-1.38-.21-.06-.03-.1-.07-.13-.13Z"/>
  <path class="cls-11" d="M1.82,24.29v-1.83h1.89v1.83h1.85c.24.21.19.49.21.76.02.27-.05.54.1.81.49.28,1.14-.13,1.59.34v1.86h-1.87c-.44.35-1,.07-1.47.28-.28.48.1,1.1-.32,1.55-.03-.61-.07-1.22-.1-1.84-.22-.22-.19-.5-.2-.77-.02-.27.05-.55-.11-.82-.37-.13-.74-.1-1.12-.01-.31.49.09,1.12-.34,1.57-.03-.61-.07-1.22-.1-1.84-.33-.62-.33-1.25,0-1.88Z"/>
  <path class="cls-11" d="M202.06,28.01h-1.72c-.05.67-.1,1.26-.14,1.86-.25-.22-.19-.53-.21-.81-.01-.23.03-.47-.09-.72-.45-.27-1.05.07-1.49-.3h.01c-.22-.25-.18-.57-.2-.88,0-.23.03-.47-.09-.7-.51-.23-1.12.08-1.59-.29h.01c-.31-.6-.24-1.23-.1-1.87.05-.61.09-1.21.14-1.85h1.81v1.82h1.88c.26.19.21.48.23.74.02.27-.03.54.08.81.46.26,1.03-.04,1.52.35-.02.58.07,1.2-.05,1.83Z"/>
  <path class="cls-23" d="M37.42,52.37c0-3.13,0-6.26,0-9.4.6,0,1.2,0,1.84,0v9.4h-1.83Z"/>
  <path class="cls-18" d="M28.15,52.32v-9.17h1.75c0,3.06,0,6.13,0,9.2-.58,0-1.17-.02-1.75-.03Z"/>
  <path class="cls-23" d="M93.59,37.4c1.25,0,2.5,0,3.75,0,0,.03,0,.06-.02.09-.22.22-.5.2-.77.21-.64,0-1.28,0-1.92,0-.21,0-.44-.04-.66.13-.11.35-.11.71,0,1.08.33.19.66.11.98.12.57.01,1.13,0,1.7,0,.24,0,.48.02.66.2v1.86h-1.83v1.89h-1.88c-.62.31-1.24.31-1.87.02l-.03-.03v-1.84h1.89v-3.74Z"/>
  <path class="cls-23" d="M164.61,37.39s.08,0,.11,0c0,1.22,0,2.44,0,3.71h-1.88v1.88h-1.81c-.06.65-.12,1.25-.17,1.85-.24-.23-.18-.54-.2-.82-.01-.23.03-.47-.09-.72-.44-.26-1.02.08-1.45-.29-.01-.01-.03-.03-.04-.04v-1.84h1.9v-1.88c.25-.25.57-.2.88-.21.8-.02,1.6.04,2.39-.04.33-.52-.05-1.15.36-1.6Z"/>
  <path class="cls-23" d="M130.9,37.41s.07,0,.11,0c0,1.22,0,2.44,0,3.71h-1.87v1.88h-1.81c-.06.65-.12,1.25-.17,1.85-.24-.23-.18-.54-.2-.82-.01-.23.03-.47-.09-.72-.44-.26-1.02.08-1.45-.29-.01-.01-.03-.03-.04-.04v-1.84h1.9v-1.88c.25-.24.57-.2.88-.21.8-.02,1.6.04,2.38-.04.34-.51-.05-1.14.36-1.59Z"/>
  <path class="cls-23" d="M59.88,37.4h.11c.24.24.18.55.2.83.02.23-.04.48.12.71.37.16.77.08,1.16.09.51.02,1.02,0,1.53,0,.22,0,.44.03.61.2v1.86h-1.83v1.89h-1.88c-.62.31-1.24.31-1.87.02l-.03-.03v-1.84h1.88v-3.74Z"/>
  <path class="cls-27" d="M78.62,37.4c1.24,0,2.49,0,3.73,0,0,.62-.01,1.23-.02,1.85-.25.25-.57.19-.88.21-.22.01-.44-.02-.67.08-.3.48.11,1.13-.33,1.59h-1.85v-3.73Z"/>
  <path class="cls-27" d="M179.68,37.4c1.22,0,2.44,0,3.66,0,.12.61.03,1.22.05,1.82-.45.39-1.02.13-1.48.32-.31.5.12,1.15-.36,1.6h-1.87v-3.74Z"/>
  <path class="cls-27" d="M145.99,37.4c1.21,0,2.42,0,3.64,0,.14.61.04,1.23.06,1.82-.46.39-1.01.12-1.47.32-.2.26-.1.56-.13.85-.03.27.03.56-.24.75h-1.86v-3.74Z"/>
  <path class="cls-27" d="M13.17,46.71v-1.84c1.88,0,3.7,0,5.53,0,0,.6,0,1.2,0,1.84h-5.53Z"/>
  <path class="cls-27" d="M185.3,44.87h5.53v1.84h-5.53v-1.84Z"/>
  <path class="cls-27" d="M114.14,41.14h-1.84v-3.65c1.2-.12,2.4-.02,3.65-.06.06.63.03,1.22.02,1.78-.45.41-1,.13-1.45.33-.21.24-.12.53-.14.79-.03.28.04.59-.24.8Z"/>
  <path class="cls-29" d="M175.95,7.46h-3.74v-1.76h-1.87s-.03-.03-.04-.04c.01-.02.02-.03.03-.05h5.61v1.86Z"/>
  <path class="cls-13" d="M116.04,14.94h-1.87v-3.74h1.87v3.74Z"/>
  <path class="cls-1" d="M29.9,37.38c0,1.25,0,2.5,0,3.76-.62,0-1.24-.02-1.86-.03,0-1.22,0-2.43,0-3.73h1.86Z"/>
  <path class="cls-34" d="M58.01,35.5c0,.62,0,1.24,0,1.86-.6,0-1.2,0-1.83,0v-3.73c.62,0,1.22,0,1.82,0,0,.62,0,1.25.01,1.87Z"/>
  <path class="cls-28" d="M129.14,11.18v3.75c-.66,0-1.27,0-1.88,0,0-1.22,0-2.44,0-3.75h1.88Z"/>
  <path class="cls-35" d="M91.72,35.5c0,.62,0,1.24,0,1.86h-1.83v-3.73c.63,0,1.23,0,1.82,0,0,.62,0,1.25.01,1.87Z"/>
  <path class="cls-13" d="M108.55,7.46h-3.75v-1.85h3.75v1.85Z"/>
  <path class="cls-28" d="M125.41,35.5c0,.62,0,1.23,0,1.85h-1.85v-3.74c.61,0,1.23,0,1.84,0,0,.63,0,1.26,0,1.88Z"/>
  <path class="cls-3" d="M159.11,35.51c0,.62,0,1.24,0,1.86h-1.85v-3.74c.61,0,1.23,0,1.84,0,0,.63,0,1.26,0,1.89Z"/>
  <path class="cls-19" d="M74.87,7.45h-3.76v-1.84h3.76v1.84Z"/>
  <path class="cls-29" d="M179.7,9.33h-3.74c0-.67,0-1.27,0-1.87,1.22,0,2.43,0,3.74,0v1.87Z"/>
  <path class="cls-12" d="M149.75,14.94h-1.87v-3.74h1.87v3.74Z"/>
  <path class="cls-29" d="M183.44,14.94h-1.87c0-1.3,0-2.52,0-3.74.6,0,1.19,0,1.87,0v3.74Z"/>
  <path class="cls-12" d="M142.26,7.46h-3.75v-1.85c1.22,0,2.43,0,3.75,0v1.85Z"/>
  <path class="cls-19" d="M82.36,14.92h-1.88v-3.74c.6,0,1.2,0,1.88,0v3.74Z"/>
  <path class="cls-12" d="M146,9.33h-3.74v-1.87c1.22,0,2.43,0,3.74,0v1.87Z"/>
  <path class="cls-19" d="M78.61,9.32h-3.75v-1.87c1.22,0,2.44,0,3.75,0v1.87Z"/>
  <path class="cls-13" d="M112.3,9.33h-3.74v-1.87h3.74v1.87Z"/>
  <path class="cls-28" d="M134.76,7.44v1.88c-1.28,0-2.52,0-3.76,0,0-.6,0-1.2,0-1.88h3.76Z"/>
  <path class="cls-3" d="M162.75,11.22v3.71c-.57,0-1.19,0-1.8,0,0-1.22,0-2.44,0-3.71h1.8Z"/>
  <path class="cls-3" d="M168.37,7.48c.04.59.09,1.18.14,1.84-1.34,0-2.58,0-3.81,0,0-.6,0-1.2,0-1.84h3.67Z"/>
  <path class="cls-27" d="M164.61,37.39v1.85h-3.63c0-.62-.02-1.23-.03-1.85,1.22,0,2.44,0,3.66,0Z"/>
  <path class="cls-27" d="M63.61,39.24h-3.62c0-.66,0-1.25,0-1.84,1.21,0,2.42,0,3.63,0,0,.62-.01,1.23-.02,1.85Z"/>
  <path class="cls-10" d="M101.07,7.45v1.83h-3.64c0-.61,0-1.21,0-1.8,1.21-.01,2.43-.02,3.64-.03Z"/>
  <path class="cls-7" d="M67.36,7.45v1.83h-3.63c0-.61,0-1.21,0-1.8,1.21-.01,2.42-.02,3.63-.03Z"/>
  <path class="cls-27" d="M130.9,37.41v1.84h-3.62c0-.62-.01-1.23-.02-1.85,1.21,0,2.42,0,3.64,0Z"/>
  <path class="cls-34" d="M61.74,11.19v3.7h-1.76v-3.67c.59-.01,1.17-.02,1.76-.03Z"/>
  <path class="cls-35" d="M95.45,11.19v3.7h-1.77c0-1.24,0-2.45,0-3.67.59-.01,1.18-.02,1.77-.03Z"/>
  <path class="cls-18" d="M31.9,57.93v-3.66h1.76v3.67c-.59,0-1.17,0-1.76,0Z"/>
  <path class="cls-27" d="M97.31,39.24h-3.59v-1.76h3.59c0,.59,0,1.17,0,1.76Z"/>
  <path class="cls-20" d="M22.43,0C30.48,0,38.52,0,46.57,0c.05,0,.1.03.19.06v1.79s-.05.05-.07.08c-.63.18-1.26.26-1.86-.08-.28-.42-.04-.94-.24-1.38-.26-.23-.56-.15-.85-.15-6.75,0-13.5,0-20.25,0-.33,0-.66.05-.97-.12-.07-.04-.1-.1-.09-.18Z"/>
  <path class="cls-41" d="M48.65,3.71h-1.87v5.66c-.06-.04-.11-.1-.14-.16-.1-.22-.09-.46-.09-.7,0-1.93,0-3.86,0-5.79,0-.31-.02-.63.22-.87,0,0,0,0,0,0,.6,0,1.19,0,1.88,0v1.86Z"/>
  <path class="cls-23" d="M114.14,41.14v-1.88h1.74v-1.77h-3.59s-.03-.05-.02-.09c1.25,0,2.5,0,3.75,0,0,1.24,0,2.48.01,3.72-.63.35-1.26.3-1.89.01h0Z"/>
  <path class="cls-19" d="M202.06,28.01v-1.83h-1.78v-1.91s0,0,0,0c.44-.35,1-.08,1.47-.27.28-.49-.09-1.11.31-1.56.04.61.08,1.23.12,1.84.33.63.33,1.26,0,1.89-.04.61-.08,1.23-.12,1.84Z"/>
  <path class="cls-19" d="M7.46,26.18h-1.89v-1.9c.04-.61.08-1.23.12-1.84.25.25.18.57.2.87.01.21-.02.44.09.66.45.26,1.05-.07,1.49.3h-.01c.31.63.31,1.27,0,1.91h0Z"/>
  <path class="cls-23" d="M181.55,41.14v-1.88h1.79c0-.67,0-1.27,0-1.87.04,0,.08,0,.11,0,0,1.24,0,2.48,0,3.72-.63.35-1.26.3-1.89.01h0Z"/>
  <path class="cls-23" d="M82.45,44.84c-.04-.61-.08-1.23-.12-1.84-.34-.57-.21-1.16-.11-1.76.03-.06.08-.11.14-.14h1.87v1.87s-.03.03-.04.04c-.42.35-.97.06-1.43.27-.28.49.09,1.1-.31,1.56Z"/>
  <path class="cls-23" d="M48.66,41.1c.62,0,1.23.01,1.85.02,0,.62.02,1.23.02,1.85-.01.01-.03.03-.04.04-.42.35-.97.06-1.43.27-.27.48.1,1.1-.31,1.56-.04-.61-.08-1.23-.12-1.84-.34-.57-.21-1.16-.11-1.75.03-.06.08-.11.14-.14Z"/>
  <path class="cls-23" d="M147.85,41.14v-1.87h1.78c0-.67,0-1.26,0-1.86.04,0,.07,0,.11,0,0,1.24,0,2.48,0,3.72-.63.35-1.26.3-1.89.01h0Z"/>
  <path class="cls-23" d="M80.46,41.13v-1.88h1.87c0,.62.02,1.23.03,1.85-.01.01-.03.03-.04.04-.42.35-.97.06-1.43.27-.27.48.1,1.1-.31,1.56-.04-.61-.08-1.23-.12-1.84Z"/>
  <path class="cls-23" d="M48.64,39.26c0,.61.01,1.23.02,1.84,0,0-.03.03-.03.03-.42.36-.97.07-1.44.28-.28.48.1,1.1-.31,1.56-.04-.61-.08-1.23-.12-1.84-.34-.62-.29-1.46.11-1.86.59,0,1.18,0,1.77-.01Z"/>
  <path class="cls-27" d="M46.87,39.27c-.04.62-.07,1.24-.11,1.86-.61,0-1.23-.02-1.84-.02-.01-.62-.02-1.24-.03-1.85.02-.03.05-.05.07-.08.62-.19,1.23-.26,1.83.07.03,0,.06.01.08.03Z"/>
  <path class="cls-26" d="M20.55,3.72c-.62,0-1.25,0-1.87,0,0-.59,0-1.19,0-1.87h1.87s.05.05.07.07c.18.58.19,1.15,0,1.73-.02.02-.05.04-.07.07Z"/>
  <path class="cls-30" d="M159.11,46.72h1.82v1.86h-1.83c-.33-.6-.29-1.21-.03-1.82l.03-.03Z"/>
  <path class="cls-28" d="M136.63,5.61v1.84c-.66,0-1.27,0-1.89,0,0-.6,0-1.19,0-1.84h1.89Z"/>
  <path class="cls-39" d="M3.69,31.79c0,.61,0,1.22,0,1.83h-1.87v-1.86h0c.63.01,1.25.02,1.88.03Z"/>
  <path class="cls-30" d="M202.18,31.77v-1.83h1.81v1.83c-.62,0-1.22,0-1.82,0,0,0,0,0,0,0Z"/>
  <path class="cls-30" d="M1.82,31.76H0v-1.82h1.82c0,.61,0,1.22,0,1.83,0,0,0,0,0,0Z"/>
  <path class="cls-7" d="M196.53,26.17h1.88c0,.66,0,1.27,0,1.88-.6,0-1.2,0-1.88,0v-1.88Z"/>
  <path class="cls-4" d="M202.18,26.17c0-.63,0-1.26,0-1.89h1.82v1.89h-1.82Z"/>
  <path class="cls-11" d="M7.46,26.18c0-.64,0-1.28,0-1.92.6,0,1.2,0,1.84,0v1.92h-1.84Z"/>
  <path class="cls-17" d="M1.82,24.29c0,.63,0,1.25,0,1.88-.6,0-1.2,0-1.83,0v-1.88h1.82Z"/>
  <path class="cls-26" d="M22.43,0s0,.06,0,.09c.32.55.22,1.12.09,1.7-.04.06-.08.11-.14.15-.61.15-1.23.24-1.82-.08,0,0,0,0,0,0V0h1.87Z"/>
  <path class="cls-16" d="M181.57,11.2h-1.87c0-.67,0-1.27,0-1.87.59,0,1.19,0,1.87,0v1.87Z"/>
  <path class="cls-23" d="M18.68,42.98c0-.62,0-1.23,0-1.85,0-.02,0-.04.03-.04.63-.3,1.25-.29,1.88.01.26.64.29,1.27-.02,1.91h.01c-.62.29-1.24.29-1.87,0l-.03-.03Z"/>
  <path class="cls-27" d="M20.56,43.01c0-.63,0-1.26-.01-1.9.02-.03.05-.05.07-.08.61-.18,1.21-.26,1.8.07,0,0,.03.02.03.02,0,.6,0,1.19,0,1.88h-1.89Z"/>
  <path class="cls-15" d="M147.87,11.2h-1.87v-1.87c.59,0,1.19,0,1.87,0v1.87Z"/>
  <path class="cls-23" d="M37.42,42.97h-1.89c0-.64,0-1.25,0-1.85,0,0,.02-.02.02-.02.62-.31,1.25-.31,1.87,0,0,0,.03.01.03.01,0,.62-.01,1.23-.02,1.85Z"/>
  <path class="cls-27" d="M114.15,41.13c.63,0,1.26,0,1.89-.01,0,0,0,0,0,0,.32.63.36,1.26-.03,1.89h-1.87v-1.88Z"/>
  <path class="cls-30" d="M116.02,43.01c0-.63.02-1.26.03-1.89.59,0,1.17,0,1.88,0v1.86l-.03.04c-.63.29-1.25.28-1.87-.02h0Z"/>
  <path class="cls-27" d="M147.85,41.13c.63,0,1.26,0,1.89-.01,0,0,0,0,0,0,.32.63.36,1.26-.03,1.89h-1.87v-1.88Z"/>
  <path class="cls-30" d="M149.72,43.01c0-.63.02-1.26.03-1.89.59,0,1.17,0,1.88,0v1.86l-.03.04c-.63.29-1.25.28-1.87-.02h0Z"/>
  <path class="cls-27" d="M181.55,41.13c.63,0,1.26,0,1.89-.01,0,0,0,0,0,0,.32.63.36,1.26-.03,1.89h-1.87v-1.88Z"/>
  <path class="cls-30" d="M183.42,43.01c0-.63.02-1.26.03-1.89.59,0,1.17,0,1.88,0v1.86l-.03.04c-.63.29-1.25.28-1.87-.02h0Z"/>
  <path class="cls-27" d="M18.71,43.02c.62,0,1.24-.01,1.87-.02,0,.6,0,1.19,0,1.88-.66,0-1.27,0-1.88,0,0-.62.01-1.24.02-1.86Z"/>
  <path class="cls-28" d="M131.01,9.31v1.88c-.66,0-1.27,0-1.88,0,0-.6,0-1.19,0-1.88h1.88Z"/>
  <path class="cls-22" d="M114.17,11.2h-1.87v-1.87h1.87v1.87Z"/>
  <path class="cls-27" d="M58.03,43.02c.62,0,1.25-.02,1.87-.02v1.89c-.67,0-1.28,0-1.9,0,0-.62.02-1.24.02-1.87Z"/>
  <path class="cls-27" d="M91.73,43.02c.62,0,1.25-.02,1.87-.02v1.89c-.67,0-1.28,0-1.9,0,0-.62.02-1.24.02-1.87Z"/>
  <path class="cls-27" d="M116.02,43c.62,0,1.25.01,1.87.02,0,.62.02,1.24.02,1.87h-1.89v-1.88Z"/>
  <path class="cls-19" d="M80.48,11.19h-1.88v-1.87c.6,0,1.2,0,1.88,0v1.87Z"/>
  <path class="cls-27" d="M149.72,43c.62,0,1.25.01,1.87.02,0,.62.02,1.24.02,1.87h-1.89v-1.88Z"/>
  <path class="cls-27" d="M183.42,43c.62,0,1.25.01,1.87.02,0,.62.01,1.24.02,1.86-.6,0-1.2,0-1.88,0v-1.88Z"/>
  <path class="cls-30" d="M50.51,48.58h-1.82v-1.86h1.82l.04.03c.27.61.3,1.22-.03,1.82Z"/>
  <path class="cls-27" d="M50.51,48.58c0-.61.02-1.21.03-1.82.62,0,1.25-.02,1.87-.02v1.85h-1.9Z"/>
  <path class="cls-23" d="M58.02,46.7h1.83v1.88h-1.85c-.33-.61-.31-1.22-.02-1.84.01-.01.03-.03.04-.04Z"/>
  <path class="cls-30" d="M84.22,48.58h-1.82v-1.86h1.82l.04.03c.27.61.3,1.22-.03,1.82Z"/>
  <path class="cls-27" d="M84.22,48.58c0-.61.02-1.21.03-1.82.62,0,1.25-.02,1.87-.02v1.85h-1.9Z"/>
  <path class="cls-23" d="M91.72,46.7h1.83v1.88h-1.85c-.33-.61-.31-1.22-.02-1.84.01-.01.03-.03.04-.04Z"/>
  <path class="cls-23" d="M117.92,48.58h-1.84v-1.88c.6,0,1.21,0,1.82,0,.01.01.03.03.04.04.29.62.31,1.23-.02,1.84Z"/>
  <path class="cls-27" d="M123.5,46.73c.63,0,1.27,0,1.9,0,0,0,0,0,0,0,.33.62.34,1.23,0,1.85h-1.9v-1.85Z"/>
  <path class="cls-30" d="M125.4,48.58c0-.62,0-1.23,0-1.85.6,0,1.19,0,1.82,0v1.85h-1.82Z"/>
  <path class="cls-23" d="M151.62,48.58h-1.84v-1.88c.6,0,1.21,0,1.82,0,.01.01.03.03.04.04.29.62.31,1.23-.02,1.84Z"/>
  <path class="cls-27" d="M159.08,46.76c0,.61.02,1.21.03,1.82h-1.9v-1.85c.62,0,1.25.02,1.87.02Z"/>
  <path class="cls-24" d="M164.62,9.35c.05.59.09,1.17.14,1.84-.72,0-1.33,0-1.94,0,0-.6,0-1.2,0-1.84h1.8Z"/>
  <path class="cls-7" d="M196.45,24.3c.03.63.06,1.25.1,1.88-.6,0-1.2,0-1.84,0v-1.88h1.74Z"/>
  <path class="cls-24" d="M170.35,5.7v1.75c-.68,0-1.3,0-1.91,0,0-.6,0-1.2,0-1.84h1.8s.07.05.1.08h0Z"/>
  <path class="cls-17" d="M69.23,5.61v1.8h-1.76c0-.6,0-1.2,0-1.79.59,0,1.17,0,1.76,0Z"/>
  <path class="cls-8" d="M102.93,5.61v1.8h-1.76c0-.6,0-1.2,0-1.79.59,0,1.18,0,1.76,0Z"/>
  <path class="cls-39" d="M7.56,37.36v-1.8h1.76c0,.6,0,1.21,0,1.82-.59,0-1.17-.02-1.76-.02Z"/>
  <path class="cls-17" d="M198.41,28.04h1.79c0,.64,0,1.23,0,1.83-.57,0-1.15,0-1.79,0v-1.83Z"/>
  <path class="cls-17" d="M63.62,9.32v1.83h-1.76c0-.61,0-1.21,0-1.8.59-.01,1.17-.02,1.76-.03Z"/>
  <path class="cls-39" d="M159.13,43h1.74v1.83c-.59,0-1.17.02-1.76.02,0-.62.01-1.24.02-1.86Z"/>
  <path class="cls-17" d="M1.93,28v-1.79h1.77c0,.61,0,1.21,0,1.82-.59-.01-1.18-.02-1.77-.03Z"/>
  <path class="cls-39" d="M190.94,44.87v-1.84h1.75v1.81c-.58,0-1.17.02-1.75.03Z"/>
  <path class="cls-39" d="M196.56,35.52v-1.84h1.75v1.81c-.58,0-1.17.02-1.75.03Z"/>
  <path class="cls-39" d="M5.68,35.49v-1.8h1.75c0,.61,0,1.22,0,1.83-.58-.01-1.17-.02-1.75-.03Z"/>
  <path class="cls-17" d="M3.8,29.87v-1.83c.64,0,1.22,0,1.8,0,0,.6,0,1.19,0,1.83h-1.8Z"/>
  <path class="cls-4" d="M202.06,22.44v1.84c-.64,0-1.21,0-1.78,0,0-.6,0-1.2,0-1.84h1.78Z"/>
  <path class="cls-39" d="M57.98,46.74c0,.61.01,1.22.02,1.84-.59,0-1.17,0-1.76,0v-1.83h1.74Z"/>
  <path class="cls-39" d="M192.82,41.12v-1.83h1.76v1.81c-.59,0-1.17.02-1.76.02Z"/>
  <path class="cls-39" d="M11.3,44.84v-1.8h1.75c0,.61,0,1.22,0,1.83-.58-.01-1.17-.02-1.75-.03Z"/>
  <path class="cls-39" d="M91.68,46.74c0,.61.01,1.22.02,1.84-.59,0-1.17,0-1.76,0v-1.83h1.74Z"/>
  <path class="cls-39" d="M9.43,41.1v-1.8h1.76c0,.6,0,1.21,0,1.82-.59,0-1.17-.02-1.76-.02Z"/>
  <path class="cls-39" d="M48.75,44.84v-1.83c.63,0,1.18,0,1.74,0,0,.62.01,1.24.02,1.86-.59,0-1.17-.02-1.76-.03Z"/>
  <path class="cls-39" d="M117.92,48.58c0-.61.01-1.23.02-1.84.56,0,1.11,0,1.74,0v1.83c-.59,0-1.17,0-1.76,0Z"/>
  <path class="cls-4" d="M7.47,24.27h-1.78c0-.63,0-1.23,0-1.84h1.78v1.84Z"/>
  <path class="cls-39" d="M82.45,44.84v-1.83c.63,0,1.18,0,1.74,0,0,.62.01,1.24.02,1.86-.59,0-1.17-.02-1.76-.02Z"/>
  <path class="cls-39" d="M151.62,48.58c0-.61.01-1.23.02-1.84.56,0,1.11,0,1.74,0v1.83c-.59,0-1.17,0-1.76,0Z"/>
  <path class="cls-8" d="M97.32,9.32v1.83h-1.77c0-.61,0-1.21,0-1.8.59-.01,1.18-.02,1.77-.03Z"/>
  <path class="cls-39" d="M46.88,42.97v-1.84c.61,0,1.18,0,1.75,0,0,.62,0,1.25,0,1.87-.58,0-1.17-.02-1.75-.03Z"/>
  <path class="cls-39" d="M194.69,37.38v-1.83h1.76v1.81c-.59,0-1.17.02-1.76.02Z"/>
  <path class="cls-39" d="M80.58,42.97v-1.83c.63,0,1.18,0,1.74,0,0,.62.01,1.24.02,1.86-.58-.01-1.17-.02-1.75-.03Z"/>
  <path class="cls-42" d="M30.03,54.19v-1.86h1.77,0c0,.63,0,1.26-.01,1.89-.58,0-1.17-.02-1.75-.03Z"/>
  <path class="cls-39" d="M125.43,43h1.74v1.83c-.59,0-1.17.02-1.76.02,0-.62.01-1.24.02-1.86Z"/>
  <path class="cls-36" d="M170.34,5.69s-.07-.05-.1-.08c.03-.02.06-.02.1,0,0,.03,0,.06,0,.09Z"/>
  <path class="cls-1" d="M46.78,9.37v1.78h-3.75v-1.81h-14.97s-.06-.04-.08-.06c-.15-.21-.15-.45-.15-.69,0-1.36-.01-2.71,0-4.07,0-.85.19-1.01,1.05-1.02.17,0,.33,0,.49.01.54.05.71.22.74.76.04.73,0,1.47.02,2.2,0,.22-.02.44.16.73,1.6.06,3.25.05,4.83,0,.23-.28.19-.5.19-.72.01-.73-.02-1.47.01-2.2.02-.58.2-.74.77-.79.07,0-.02,0,.05,0,1.3-.08,1.46.07,1.47,1.37,0,.68-.03,1.36.02,2.03,0,.07.04.14.09.27,1.65.06,3.3.06,4.88.05.23-.28.19-.51.19-.73.01-.73-.02-1.47.01-2.2.03-.59.2-.75.76-.8,1.36-.11,1.53.05,1.54,1.41,0,1.14,0,2.27,0,3.41,0,.22-.03.44.11.67.46.29,1.09-.09,1.55.33v.05Z"/>
  <path class="cls-1" d="M28.06,9.34v1.8h-7.51c0-2.47,0-4.95,0-7.43,0,0,0,0,0,0,.62-.35,1.25-.29,1.89-.05.23.26.2.58.2.89,0,1.25,0,2.49,0,3.74,0,.23-.04.48.11.72.39.16.79.1,1.16.03.2-.25.16-.5.16-.73,0-1.21,0-2.42,0-3.63,0-1.06.15-1.19,1.22-1.18.11,0,.22,0,.33,0,.54.05.71.2.74.75.04.82,0,1.65.02,2.47.01.75-.05,1.5.04,2.22.53.32,1.17-.05,1.62.37h.02Z"/>
  <path class="cls-33" d="M33.68,24.33c0,.61-.02,1.22-.02,1.83-.54.37-1.12.24-1.69.13-.29-.06-.37-.34-.38-.61-.03-1.52-.03-3.03,0-4.55,0-.17.05-.32.19-.48.61-.14,1.25.04,1.88-.09h.01c.23-.24.53-.21.82-.22.23-.01.48.04.75-.13.24-1.05-.12-2.2.23-3.33.67,0,1.3-.06,1.93.04,0,1.83,0,3.67,0,5.5-.22.22-.5.21-.77.21-.68,0-1.35,0-2.03,0-.21,0-.44-.04-.65.13-.2.48.09,1.08-.27,1.56Z"/>
  <path class="cls-2" d="M44.89,14.94v1.86h-7.5,0v-3.62h7.48c-.23.24-.53.21-.82.22-1.25,0-2.49,0-3.74,0-.23,0-.48-.03-.72.1-.17.36-.13.73-.04,1.08.22.2.47.14.7.14,1.26,0,2.53,0,3.79,0,.29,0,.59-.02.83.21Z"/>
  <path class="cls-2" d="M29.91,29.9v1.84h-7.43v-3.72h7.43,0s0,.07,0,.11c-.23.24-.53.21-.83.22-1.25,0-2.49,0-3.74,0-.23,0-.48-.04-.73.11-.18.35-.09.72-.06,1.05.25.22.49.17.73.17,1.26,0,2.53,0,3.79,0,.29,0,.59-.02.83.21Z"/>
  <path class="cls-2" d="M33.65,20.56c-.59.05-1.18.11-1.82.16v5.44h1.82v1.86c-1.25,0-2.5,0-3.75,0,0,0,0,0,0,0,0-2.47,0-4.93,0-7.47h3.75Z"/>
  <path class="cls-37" d="M35.52,37.38c-1.86,0-3.71,0-5.57,0,0-.6,0-1.19,0-1.77h7.44c-.21.23-.49.19-.76.21-.27.02-.54-.04-.8.1-.22.44.04.97-.23,1.41-.02.02-.05.04-.07.06Z"/>
  <path class="cls-33" d="M44.89,14.94h-5.57v-1.76c1.88,0,3.72,0,5.56,0,0,.59,0,1.18,0,1.76Z"/>
  <path class="cls-33" d="M29.91,29.9h-5.57v-1.76c1.88,0,3.72,0,5.57,0,0,.59,0,1.18,0,1.76Z"/>
  <path class="cls-32" d="M37.39,16.91h-1.84v3.63c-.69,0-1.29,0-1.88,0,0-1.22,0-2.44,0-3.74,1.29,0,2.51,0,3.73,0,0,0,0,0,0,0,0,.04,0,.08,0,.12Z"/>
  <path class="cls-2" d="M33.68,24.33v-1.91h3.72v1.91h-3.72Z"/>
  <path class="cls-37" d="M37.41,41.11c-.62,0-1.24,0-1.87,0,0-1.24-.01-2.48-.02-3.72,0,0,.02-.02.02-.02.62-.31,1.24-.32,1.85.01,0,1.25,0,2.49.01,3.74Z"/>
  <path class="cls-9" d="M20.59,37.38v-1.84h1.86c.29.62.27,1.24,0,1.86-.62.27-1.24.32-1.86-.02Z"/>
  <path class="cls-21" d="M22.43,37.37c0-.61.01-1.22.02-1.83h1.84v1.84c-.59.33-1.19.25-1.79.07-.02-.03-.04-.05-.07-.08Z"/>
  <path class="cls-9" d="M43.06,37.38v-1.84h1.86c.29.62.27,1.24,0,1.86-.62.27-1.24.32-1.86-.02Z"/>
  <path class="cls-21" d="M44.9,37.37c0-.61.01-1.22.02-1.83h1.84v1.84c-.59.33-1.19.25-1.79.07-.02-.03-.04-.05-.07-.08Z"/>
  <path class="cls-27" d="M20.59,37.38c.61,0,1.23,0,1.84-.01,0,0,0,0,0,0,.32.63.31,1.26,0,1.9h0c-.59.31-1.2.24-1.82.06-.02-.03-.05-.05-.07-.08.01-.62.03-1.25.04-1.87Z"/>
  <path class="cls-23" d="M22.43,39.26c0-.63,0-1.26,0-1.9.62,0,1.24,0,1.86.01,0,.6,0,1.19,0,1.88h-1.86Z"/>
  <path class="cls-27" d="M43.06,37.38c.61,0,1.23,0,1.84-.01,0,0,0,0,0,0,.31.62.32,1.25,0,1.87,0,0-.01.01-.01.01-.59,0-1.17,0-1.83,0v-1.87Z"/>
  <path class="cls-23" d="M44.9,39.24c0-.62,0-1.25,0-1.87.62,0,1.24,0,1.86.01,0,.62.02,1.24.03,1.86-.63,0-1.26,0-1.89,0Z"/>
  <path class="cls-14" d="M20.55,41.11c-.61,0-1.23-.02-1.84-.02,0-.61-.01-1.22-.02-1.82.62,0,1.24-.01,1.86-.02,0,0,0,0,0,0,.32.62.32,1.24-.01,1.86h0Z"/>
  <path class="cls-23" d="M20.55,41.12c0-.62,0-1.24.01-1.86.63,0,1.25,0,1.88,0,0,.62-.01,1.24-.02,1.86-.63,0-1.25,0-1.88,0Z"/>
  <path class="cls-21" d="M37.4,37.38c-.62,0-1.24,0-1.85-.01,0-.56,0-1.11,0-1.76.66,0,1.25,0,1.84,0,0,.59,0,1.18,0,1.77Z"/>
  <path class="cls-2" d="M101.05,28.04c.63,0,1.26,0,1.89,0,.24.23.19.53.21.82.02.23-.04.48.17.81,2.8.01,5.68.01,8.5,0,.31-.58-.04-1.18.37-1.62v3.67h-11.13v-3.7h0Z"/>
  <path class="cls-2" d="M104.7,13.09v7.44h-3.64.01v-7.44h1.87c.24.23.21.53.21.82,0,1.24,0,2.48,0,3.73,0,.23-.04.48.11.72.35.19.72.09,1.05.06.22-.24.17-.49.17-.72,0-1.26,0-2.52,0-3.78,0-.29-.03-.59.21-.82Z"/>
  <path class="cls-2" d="M101.06,28.03h-3.69v-7.46h1.83c.24.23.21.53.21.82,0,1.24,0,2.48,0,3.72,0,.23-.04.48.1.72.47.28,1.09-.09,1.55.32,0,.63,0,1.25,0,1.88,0,0,0,0,0,0Z"/>
  <path class="cls-33" d="M112.19,28.05v1.8h-9.25c0-.61,0-1.21,0-1.8,3.08,0,6.17,0,9.25,0Z"/>
  <path class="cls-33" d="M101.06,26.16h-1.86v-5.59c.62,0,1.25-.02,1.87-.03,0,0-.01-.01-.01-.01,0,1.88,0,3.75,0,5.63Z"/>
  <path class="cls-33" d="M104.7,13.09v5.54h-1.76c0-1.86,0-3.7,0-5.54.59,0,1.18,0,1.76,0Z"/>
  <path class="cls-33" d="M132.9,16.82c.63,0,1.25-.01,1.88-.02h0v3.76h7.38c.12.62.03,1.23.05,1.81-.31.29-.66.25-.98.25-1.8,0-3.6,0-5.39,0-.24,0-.48-.03-.72.1-.29.47.08,1.1-.33,1.56h0c-.15.61.01,1.23-.1,1.9-.51.28-1.07.23-1.62.1-.19-.05-.28-.22-.33-.41-.05-.2-.05-.4-.05-.6,0-2.53,0-5.05,0-7.58,0-.31-.04-.63.22-.88Z"/>
  <path class="cls-2" d="M145.89,13.09v3.71c-3.67,0-7.4,0-11.12,0,0,0,0,0,0,0,0-1.22,0-2.44,0-3.72h1.87c.24.23.19.54.21.82.02.23-.04.48.17.81,2.8,0,5.68.01,8.5,0,.3-.58-.04-1.18.37-1.62Z"/>
  <path class="cls-2" d="M134.76,28.03c.63,0,1.25,0,1.88.01.24.23.19.54.21.82.01.23-.03.48.16.81,2.82.01,5.69,0,8.51,0,.31-.58-.04-1.18.37-1.63v3.67h-11.12v-3.7h0Z"/>
  <path class="cls-2" d="M132.9,16.82v9.29h1.69c.06-.62.13-1.22.19-1.82,0,1.25,0,2.5,0,3.74,0,0,0,0,0,0-1.23,0-2.45,0-3.72,0v-11.2h1.85Z"/>
  <path class="cls-33" d="M145.89,28.05v1.79h-9.25v-1.8c3.08,0,6.17,0,9.25,0Z"/>
  <path class="cls-33" d="M145.89,13.09v1.79h-9.25v-1.8c3.08,0,6.17,0,9.25,0Z"/>
  <path class="cls-2" d="M134.77,24.29v-1.86h7.38c0-.67,0-1.26,0-1.86,0,1.21,0,2.41,0,3.72h-7.38Z"/>
  <path class="cls-2" d="M65.48,26.16c0,.63,0,1.25,0,1.88h0c-1.22,0-2.44,0-3.7,0v-11.2h1.83c.27.27.21.61.21.93,0,2.43,0,4.86,0,7.29,0,.25-.04.51.1.78.46.29,1.1-.09,1.54.33Z"/>
  <path class="cls-2" d="M76.73,28.02c0-3.74,0-7.47,0-11.21,0,0,0,0,0,0,.63,0,1.26,0,1.89,0,.27.27.21.61.21.93,0,2.43,0,4.86,0,7.29,0,.25-.04.51.09.77.47.3,1.11-.08,1.56.34v1.85h-3.75.01Z"/>
  <path class="cls-33" d="M65.48,26.16h-1.86c0-3.14,0-6.23,0-9.33.62-.01,1.24-.02,1.87-.03h0c0,3.11,0,6.24,0,9.36Z"/>
  <path class="cls-33" d="M80.46,26.16h-1.86c0-3.14,0-6.23,0-9.33.6,0,1.2,0,1.86,0v9.33Z"/>
  <path class="cls-2" d="M72.97,28.03c-1.25,0-2.5-.01-3.75-.02h.01v-7.44h1.87c.24.23.21.53.21.82,0,1.24,0,2.48,0,3.72,0,.23-.03.47.09.71.48.29,1.11-.08,1.56.33,0,.63,0,1.25,0,1.88h0Z"/>
  <path class="cls-2" d="M76.72,16.81h-3.69v-3.72h1.83c.24.23.18.54.2.83.01.23-.02.48.08.71.5.27,1.12-.09,1.58.32,0,.63,0,1.25,0,1.88,0,0,0,0,0,0Z"/>
  <path class="cls-33" d="M72.97,26.16h-1.86c0-1.92,0-3.75,0-5.59.61,0,1.23,0,1.86,0v5.59Z"/>
  <path class="cls-2" d="M65.48,28.04c.63,0,1.26,0,1.89,0,.24.23.18.54.2.83.02.23-.03.48.1.71.48.27,1.1-.1,1.57.31v1.83h-3.74c0-1.24,0-2.47,0-3.7,0,0,0,0,0,0Z"/>
  <path class="cls-2" d="M72.97,28.04c.63,0,1.26,0,1.89,0,.24.23.18.54.2.83.02.23-.03.48.1.71.48.27,1.1-.1,1.57.31v1.83h-3.74c0-1.24,0-2.47,0-3.7,0,0,0,0,0,0Z"/>
  <path class="cls-2" d="M69.23,14.94v1.85c-1.25,0-2.5,0-3.75,0,0,0,0,0,0,0,0-1.22,0-2.43,0-3.71h1.88c.24.23.18.54.2.83.02.23-.03.48.1.71.48.27,1.1-.1,1.57.31Z"/>
  <path class="cls-33" d="M76.72,29.9h-1.86c0-.66,0-1.26,0-1.85.62,0,1.25-.02,1.87-.03,0,0-.01-.01-.01-.01,0,.63,0,1.26,0,1.89Z"/>
  <path class="cls-33" d="M69.23,29.9h-1.86c0-.66,0-1.26,0-1.85.62,0,1.25-.02,1.87-.03,0,0-.01-.01-.01-.01,0,.63,0,1.26,0,1.89Z"/>
  <path class="cls-33" d="M76.72,14.94h-1.86c0-.66,0-1.26,0-1.85.61,0,1.22,0,1.86,0v1.85Z"/>
  <path class="cls-33" d="M69.23,14.94h-1.86c0-.66,0-1.26,0-1.85.61,0,1.22,0,1.86,0v1.85Z"/>
  <path class="cls-2" d="M170.33,28v-11.2h-3.73,0v-3.71h11.12c0,.08-.03.14-.09.18-.27.15-.57.12-.86.12-2.4,0-4.8,0-7.2,0-.25,0-.51-.04-.77.1-.18.37-.12.73-.04,1.06.24.2.46.16.68.17.73.01,1.47-.02,2.2.02.57.03.74.21.79.78.02.22.01.44.01.66,0,3.55,0,7.1,0,10.65,0,.24,0,.48-.01.71-.03.43-.25.68-.69.7-.42.01-.84.07-1.25-.08-.07-.03-.12-.08-.15-.15Z"/>
  <path class="cls-2" d="M177.83,16.81h3.7v11.21h-3.7s-.05-.05-.08-.07c-.16-.25-.13-.53-.13-.8,0-3.15,0-6.31,0-9.46,0-.27-.02-.55.13-.8.03-.02.05-.05.08-.07Z"/>
  <path class="cls-2" d="M177.83,28.02v3.71h-11.22v-3.73c1.23,0,2.47,0,3.71,0l.03.04c-.1.33-.4.26-.63.3-.3.04-.62-.05-.94.11-.15.36-.12.73.02,1.23,2.86.02,5.73,0,8.57,0,.18-.56.18-.75.03-1.22-.24-.17-.53-.1-.79-.11-.66-.01-1.32.02-1.98-.02-.21-.02-.54.05-.51-.36.17-.13.36-.16.56-.16.83-.01,1.67,0,2.5,0,.24,0,.47.04.65.22h0Z"/>
  <path class="cls-2" d="M166.6,16.8v3.71h-3.71v-3.7c1.24,0,2.48,0,3.72,0,0,0,0,0,0,0Z"/>
  <path class="cls-2" d="M177.71,13.19s0-.06,0-.09c.04,1.24.07,2.48.11,3.71,0,0,0,0,0,0-.15.15-.34.21-.55.21-.91.02-1.82.02-2.74,0-.17,0-.33-.04-.46-.14-.36-.56-.25-1.16-.13-1.75.07-.35.42-.38.71-.39.68-.03,1.36,0,2.03-.01.22,0,.44.02.66-.08.31-.43-.06-1.03.34-1.45Z"/>
  <path class="cls-21" d="M33.66,50.47v-1.88s0,0,0,0h1.85v1.86h-1.85,0Z"/>
  <path class="cls-21" d="M33.65,50.46v1.86c-.64,0-1.25,0-1.86,0,0,0,0,0,0,0,0-.6,0-1.19,0-1.86h1.86s0,0,0,0Z"/>
  <path class="cls-21" d="M33.66,46.73v-1.83h1.84v1.83h-1.85,0Z"/>
  <path class="cls-21" d="M33.66,48.59h-1.82v-1.86c.61,0,1.22,0,1.82,0,0,0,0,0,0,0,0,.63,0,1.25,0,1.88,0,0,0,0,0,0Z"/>
  <path class="cls-38" d="M28.04,9.33h-1.84V3.77h-1.87v5.53h-1.92V3.72c-.3-.62-.36-1.24.04-1.85h-.01c.18-.22.44-.24.7-.24,2.65,0,5.3-.01,7.95,0,.72,0,.9.2.91.92,0,.35.03.69-.03,1.04.04.56-.04,1.12.08,1.69.45.15.87.14,1.33.01.13-.56.04-1.13.09-1.69-.06-.42-.04-.84-.02-1.26.02-.43.23-.7.68-.7,1.56-.03,3.11-.03,4.67,0,.44,0,.67.26.69.7.02.42.04.84-.02,1.26.04.56-.04,1.12.08,1.68.45.18.87.11,1.32.04.14-.59.04-1.15.1-1.71-.06-.44-.04-.87-.02-1.31.02-.34.18-.61.55-.64,1-.07,2-.05,3.01,0,.15,0,.28.08.39.18.62,0,1.25,0,1.87,0,0,2.49,0,4.99,0,7.48-.6,0-1.2,0-1.85,0V3.77h-1.85v3.67h-5.64v-3.67h-1.85v3.67h-5.64v-3.67h-1.9v5.56Z"/>
  <path class="cls-5" d="M44.89,1.84h-3.75v1.88c-.61.32-1.22.33-1.82,0v-1.82h-5.67v1.83c-.61.32-1.22.33-1.82,0v-1.84c-3.18,0-6.28,0-9.38,0,0-.59,0-1.19,0-1.78,7.46,0,14.92,0,22.46,0v1.75Z"/>
  <path class="cls-5" d="M22.45,1.87c-.01.62-.02,1.23-.04,1.85-.62,0-1.25,0-1.87,0,0-.62,0-1.24.01-1.86.63,0,1.26,0,1.89.01Z"/>
  <path class="cls-33" d="M177.71,13.19v1.72h-3.62v1.91c.22.22.21.5.21.77,0,3.22,0,6.44,0,9.67,0,.28,0,.55-.21.77,1.18.06,2.35.11,3.58.17v1.65h-9.15v-1.65c.62-.05,1.22-.1,1.83-.16.58,0,1.17,0,1.81,0v-13.1h-3.65v-1.75h9.2Z"/>
  <path class="cls-36" d="M174.09,28.02c0-3.74,0-7.47,0-11.21,1.25,0,2.5,0,3.74-.01,0,3.74,0,7.48,0,11.23-1.25,0-2.5,0-3.75,0Z"/>
  <path class="cls-33" d="M179.74,16.96h1.68v9.16h-1.68v-9.16Z"/>
  <path class="cls-31" d="M164.76,18.62v-1.65h1.67v1.65h-1.67Z"/>
  <path class="cls-6" d="M31.83,3.72c.61,0,1.22,0,1.82,0v1.84h-1.82v-1.84Z"/>
  <path class="cls-6" d="M39.32,3.72c.61,0,1.22,0,1.82,0v1.84h-1.82v-1.84Z"/>
</svg>