<?xml version="1.0" encoding="UTF-8"?>
<svg id="Layer_1" data-name="Layer 1" xmlns="http://www.w3.org/2000/svg" viewBox="0 0 64 64.23">
  <defs>
    <style>
      .cls-1 {
        fill: #000;
      }

      .cls-1, .cls-2, .cls-3, .cls-4, .cls-5 {
        stroke-width: 0px;
      }

      .cls-2 {
        fill: #b0b0b0;
      }

      .cls-3 {
        fill: #febf38;
      }

      .cls-4 {
        fill: #fbbc37;
      }

      .cls-5 {
        fill: #fefefe;
      }
    </style>
  </defs>
  <path class="cls-2" d="M45.27,0s0,.02,0,.03c-.04.05-.1.05-.16.05-.06,0-.13,0-.19,0-8.61,0-17.23,0-25.84,0-.12,0-.24.03-.35-.05,0-.01,0-.02,0-.03,8.85,0,17.7,0,26.54,0Z"/>
  <path class="cls-1" d="M18.73.03c.06,0,.13,0,.19,0,8.72,0,17.44,0,26.16,0,.06,0,.13,0,.19,0,2.71,2.72,5.42,5.44,8.12,8.16,3.5,3.51,7,7.02,10.5,10.53.08.08.11.15.11.26,0,8.76,0,17.53,0,26.29,0,.11-.03.18-.11.26-6.18,6.19-12.35,12.39-18.53,18.59-.08.08-.15.11-.26.11-8.74,0-17.48,0-26.21,0-.11,0-.18-.03-.26-.11C12.46,57.93,6.29,51.73.11,45.54c-.08-.08-.11-.16-.11-.27C0,36.51,0,27.76,0,19c0-.13.04-.21.13-.3C6.31,12.5,12.5,6.29,18.69.08c.02-.02.03-.03.04-.05Z"/>
  <path class="cls-4" d="M.75,32.12c0-4.25,0-8.49,0-12.74,0-.1,0-.17.09-.25,4.12-4.12,8.25-8.24,12.37-12.37,1.89-1.89,3.79-3.79,5.68-5.68.08-.08.15-.11.26-.11,8.5,0,16.99,0,25.49,0,.11,0,.18.03.26.11,6.01,6.01,12.01,12.02,18.02,18.03.08.08.11.15.11.26,0,8.5,0,16.99,0,25.49,0,.13-.06.21-.14.29-5.09,5.09-10.17,10.18-15.26,15.26-.91.91-1.83,1.83-2.74,2.74-.08.08-.15.11-.26.11-8.5,0-16.99,0-25.49,0-.1,0-.17-.03-.25-.1-5.99-5.99-11.97-11.98-17.97-17.97-.13-.13-.18-.26-.18-.44,0-4.21,0-8.43,0-12.64Z"/>
  <path class="cls-1" d="M29.72,5.11c.34,0,.69,0,1.03,0,.14,0,.21.06.26.17.38.78.76,1.56,1.14,2.34.05.11.11.15.23.13.03,0,.08-.01.11,0,.34.09.46-.11.59-.38.32-.71.68-1.4,1.02-2.1.05-.11.12-.15.24-.16.69-.02,1.38-.05,2.07-.07.1,0,.22-.01.23.13,0,.14-.1.14-.21.15-.65.02-1.3.05-1.94.07-.1,0-.14.04-.17.14-.22.77-.44,1.55-.67,2.32-.02.08-.04.13.06.19,1.28.7,1.84,2.22,1.34,3.62-.04.1-.02.16.05.24.2.23.33.51.45.78.05.11.12.17.23.2,1.93.51,3.89.9,5.82,1.38,1.76.44,3.51.9,5.19,1.6.81.33,1.59.72,2.24,1.32.33.3.59.65.66,1.11.1.6-.18,1.09-.51,1.55-.48.67-1.16,1.07-1.92,1.35-1.36.48-2.76.54-4.18.44-.95-.07-1.88-.25-2.79-.54-.68-.21-1.18-.69-1.7-1.13-1.11-.94-2.2-1.9-3.17-2.99-.07-.08-.11-.08-.13.03-.05.23-.21.3-.43.35-1.57.28-3.15.28-4.73.07-.26-.04-.32-.2-.39-.38-.06-.15-.1-.14-.2-.03-1.23,1.37-2.62,2.57-4.04,3.73-.42.34-.95.48-1.47.61-1.88.47-3.78.58-5.68.14-.96-.22-1.84-.63-2.5-1.41-.33-.39-.58-.83-.64-1.36-.06-.55.2-.97.56-1.34.63-.64,1.43-1.03,2.24-1.38,1.91-.8,3.92-1.31,5.93-1.79,1.78-.43,3.58-.81,5.35-1.28.13-.04.21-.09.27-.22.14-.3.26-.62.51-.86.06-.06,0-.12-.02-.17-.37-1.2-.16-2.27.73-3.18.17-.18.37-.32.6-.43.09-.04.11-.08.08-.18-.23-.78-.45-1.55-.67-2.33-.03-.11-.08-.13-.19-.14-.64-.02-1.27-.05-1.91-.07-.11,0-.23,0-.22-.15,0-.15.14-.12.24-.12.33,0,.67,0,1,0v.07Z"/>
  <path class="cls-1" d="M22.98,52.3c-.2.36-.4.72-.59,1.09-.14.27-.35.36-.65.4-.57.06-.92-.15-1.13-.68-.11-.28-.29-.54-.46-.86,0,.11,0,.16,0,.21,0,1.18,0,2.36,0,3.54,0,.38-.08.46-.46.47-.51,0-1.01,0-1.52,0-.32,0-.42-.09-.42-.41,0-2.34,0-4.67,0-7.01,0-.3.1-.4.41-.4.56,0,1.12,0,1.68,0,.28,0,.45.14.58.38.31.56.62,1.13.93,1.69.06.11.1.23.27.22.16,0,.2-.13.26-.23.31-.55.61-1.11.91-1.67.15-.27.35-.4.67-.39.53.01,1.07,0,1.6,0,.32,0,.42.1.42.43,0,2.33,0,4.65,0,6.98,0,.32-.1.42-.41.42-.54,0-1.09,0-1.63,0-.32,0-.41-.1-.41-.42,0-1.19,0-2.38,0-3.58,0-.05,0-.1,0-.15-.01,0-.02,0-.03,0Z"/>
  <path class="cls-1" d="M33.6,52.49c0,.61,0,1.21,0,1.82-.01,1.15-.53,1.78-1.66,2.03-.06.01-.12.04-.18.04-.26,0-.33.11-.32.37.02.67,0,.68-.68.68-.45,0-.91,0-1.36,0-.31,0-.4-.11-.41-.41,0-.19.06-.42-.03-.55-.08-.11-.33-.1-.51-.14-1.07-.27-1.57-.86-1.59-1.96-.03-1.29-.02-2.58,0-3.87.02-1.04.65-1.69,1.76-1.9,1.06-.19,2.12-.21,3.18,0,.57.11,1.1.33,1.46.83.23.33.32.71.32,1.1.01.65,0,1.31,0,1.96,0,0,0,0,0,0Z"/>
  <path class="cls-1" d="M37.74,48.62c.93,0,1.86,0,2.79,0,.39,0,.47.09.47.47,0,.41,0,.82,0,1.22,0,.3-.11.41-.41.41-.47,0-.94,0-1.41,0-.14,0-.17.03-.17.17,0,1.67,0,3.33,0,5,0,.09,0,.18,0,.27-.02.17-.12.28-.3.28-.64,0-1.29,0-1.93,0-.19,0-.28-.11-.3-.3,0-.09,0-.18,0-.27,0-1.66,0-3.32,0-4.99,0-.13-.03-.18-.17-.18-.46.01-.93,0-1.4,0-.33,0-.43-.1-.43-.43,0-.41,0-.83,0-1.24,0-.32.1-.43.42-.43.95,0,1.89,0,2.84,0Z"/>
  <path class="cls-1" d="M44.87,48.62c.93,0,1.86,0,2.79,0,.39,0,.47.08.47.47,0,.4,0,.79,0,1.19,0,.34-.09.43-.43.43-.46,0-.92,0-1.38,0-.14,0-.18.03-.18.18,0,1.68,0,3.37,0,5.05,0,.43-.08.5-.5.5-.51,0-1.01,0-1.52,0-.45,0-.52-.07-.52-.51,0-1.68,0-3.36,0-5.04,0-.14-.04-.18-.18-.18-.48,0-.95,0-1.43,0-.27,0-.37-.1-.38-.37,0-.44,0-.88,0-1.32,0-.32.1-.41.42-.41.95,0,1.89,0,2.84,0Z"/>
  <path class="cls-1" d="M30.73,37.84c.03,1.61.05,3.22.08,4.83,0,.45-.08.55-.53.55-.53.01-1.06.02-1.58.02-.36,0-.48-.11-.49-.48-.06-3.28-.11-6.55-.17-9.83,0-.36.1-.47.46-.48.56-.01,1.13-.02,1.69-.03.33,0,.44.11.45.46.03,1.65.06,3.3.08,4.95,0,0,0,0,0,0Z"/>
  <path class="cls-1" d="M37.59,37.7c.03,1.61.06,3.23.09,4.84,0,.45-.08.54-.53.55-.53.01-1.06.02-1.58.02-.38,0-.48-.09-.49-.48-.04-2.49-.09-4.98-.13-7.46-.01-.76-.03-1.52-.04-2.27,0-.48.07-.57.56-.57.52,0,1.03-.02,1.55-.02.38,0,.48.09.48.47.03,1.64.06,3.28.09,4.92,0,0,0,0,0,0Z"/>
  <path class="cls-1" d="M32.82,23.04c-1.34-.02-2.66-.16-3.94-.59-.11-.04-.16-.08-.14-.21.05-.48.13-.95.24-1.42.02-.09.05-.1.14-.08,1.72.45,3.46.56,5.23.39.56-.05,1.12-.16,1.66-.3.11-.03.14,0,.17.1.1.48.17.97.22,1.46.01.12-.05.13-.13.15-1.11.37-2.27.48-3.44.49Z"/>
  <path class="cls-5" d="M33.03,25.93c-1.4,0-2.63-.15-3.83-.51-.14-.04-.21-.11-.25-.26-.12-.48-.2-.96-.22-1.45,0-.11,0-.16.14-.12,1.51.46,3.06.59,4.63.54.94-.03,1.87-.15,2.78-.42.12-.04.15-.02.14.11-.04.52-.12,1.04-.27,1.54-.03.1-.09.15-.19.18-1.01.32-2.05.39-2.95.39Z"/>
  <path class="cls-5" d="M32.91,20.31c-1.24,0-2.37-.12-3.49-.41-.14-.04-.16-.08-.11-.21.14-.39.3-.77.45-1.15.05-.13.12-.17.26-.15.84.14,1.69.2,2.54.18.85-.02,1.69-.08,2.52-.26.09-.02.14,0,.19.08.22.48.4.96.57,1.46.03.09,0,.12-.08.14-.57.14-1.16.23-1.74.29-.39.04-.78.05-1.09.04Z"/>
  <path class="cls-1" d="M32.56,28.9c-.44,0-.79-.1-1.11-.3-.77-.48-1.44-1.08-1.92-1.86-.03-.04-.08-.08-.05-.13,0-.02.09,0,.13.01,1.9.41,3.81.5,5.73.12.03,0,.08-.02.11,0,.03.02,0,.05-.02.08-.57.86-1.31,1.52-2.25,1.96-.11.05-.23.07-.35.1-.1.02-.21.02-.26.02Z"/>
  <path class="cls-3" d="M31.15,52.57c0,.49,0,.97,0,1.46,0,.27-.12.43-.38.49-.36.08-.73.08-1.09,0-.23-.05-.36-.2-.36-.43,0-1,0-2,0-2.99,0-.23.15-.39.37-.44.35-.08.71-.08,1.06,0,.26.05.39.23.39.49,0,.48,0,.96,0,1.44Z"/>
</svg>