<?xml version="1.0" encoding="UTF-8"?>
<svg id="Layer_1" data-name="Layer 1" xmlns="http://www.w3.org/2000/svg" viewBox="0 0 128 37.87">
  <defs>
    <style>
      .cls-1 {
        fill: #0071bc;
      }

      .cls-1, .cls-2 {
        stroke-width: 0px;
      }

      .cls-2 {
        fill: #1a1a1a;
      }
    </style>
  </defs>
  <path class="cls-1" d="M21.95,17.66c-.2-.12-.41-.06-.61-.06-2.4,0-4.8-.01-7.21,0-.42,0-.58-.1-.55-.54.04-.49.02-.99,0-1.49,0-.27.1-.36.37-.36,3.39,0,6.79,0,10.18.02.97,0,1.43.98.92,1.88-1.42,2.48-2.85,4.95-4.28,7.42-1.03,1.78-2.05,3.55-3.08,5.33.15.2.34.12.49.12,3.87,0,7.74,0,11.61.01.34,0,.55-.09.72-.4,1.11-1.95,2.23-3.9,3.37-5.84.17-.29.16-.48,0-.77-2.19-3.77-4.37-7.54-6.54-11.32-.19-.33-.39-.44-.76-.44-4.33.01-8.66.01-12.98,0-.37,0-.58.1-.77.43-2.17,3.78-4.35,7.55-6.54,11.32-.16.28-.17.49,0,.78,2.19,3.77,4.37,7.54,6.54,11.32.17.3.35.43.71.42,4.37-.01,8.73-.01,13.1,0,.36,0,.54-.12.71-.42.27-.45.4-1.19.86-1.27.39-.07.89.42,1.34.67.65.37.65.37.27,1.03-.32.56-.65,1.12-.97,1.68-.26.46-.64.68-1.17.68-5.05,0-10.1,0-15.16,0-.55,0-.93-.24-1.21-.71-2.51-4.35-5.02-8.71-7.54-13.05-.29-.5-.29-.95,0-1.45,2.51-4.33,5.02-8.66,7.51-13,.3-.52.69-.76,1.29-.76,5.01,0,10.03,0,15.04,0,.61,0,1,.25,1.29.77,2.49,4.32,4.98,8.64,7.48,12.96.31.54.3,1.02-.01,1.55-1.44,2.47-2.86,4.94-4.28,7.42-.31.54-.74.77-1.35.77-4.98,0-9.95-.02-14.93.01-1.1,0-1.76-.99-1.14-2.04,2.37-4,4.66-8.03,6.98-12.06.11-.19.28-.36.29-.61Z"/>
  <path class="cls-2" d="M115.89,28.26c2.05,1.72,4.36,2.43,6.98,2.18.48-.05.94-.16,1.38-.35.86-.37,1.37-1.01,1.44-1.96.07-.94-.3-1.66-1.1-2.17-.97-.61-2.07-.85-3.16-1.14-.99-.26-2-.49-2.96-.85-1.55-.58-2.77-1.47-2.92-3.29-.16-2.02.51-3.68,2.34-4.66,2.27-1.22,4.65-1.14,7.03-.3.72.26,1.37.65,2,1.1.24.17.32.3.14.58-.29.44-.53.91-.81,1.38-1.77-1.48-3.78-1.98-6-1.62-1.79.29-2.75,1.58-2.43,3.22.17.85.76,1.29,1.48,1.6,1.02.44,2.11.64,3.18.9,1,.24,1.99.5,2.94.92,1.74.79,2.66,2.1,2.59,4.04-.07,1.91-1,3.25-2.75,3.98-2.05.84-4.17.77-6.29.27-1.37-.32-2.61-.94-3.74-1.77-.26-.19-.35-.33-.15-.63.3-.46.55-.95.82-1.43Z"/>
  <path class="cls-1" d="M13.52.01c2.02,0,4.04.01,6.06-.01.43,0,.58.1.54.54-.04.43-.04.88,0,1.31.04.44-.13.54-.55.53-2.92-.02-5.83,0-8.75,0-.76,0-1.53.03-2.29-.01-.42-.02-.64.12-.85.48-1.81,3.17-3.65,6.33-5.47,9.5-.21.36-.37.51-.75.22-.48-.36-1.35-.49-1.45-.98-.09-.43.5-1.01.79-1.52C2.56,7.02,4.33,3.98,6.07.92,6.44.26,6.92-.01,7.68,0c1.94.04,3.89.01,5.83.01Z"/>
  <path class="cls-1" d="M14.79,4.39c1.6,0,3.2.01,4.8,0,.39,0,.55.1.52.51-.03.46-.03.92,0,1.37.03.41-.12.51-.51.5-2.84-.02-5.68,0-8.52-.02-.42,0-.63.14-.84.5-1.4,2.47-2.84,4.91-4.24,7.38-.2.34-.34.42-.68.19-.41-.28-.85-.51-1.28-.74-.26-.13-.32-.25-.16-.52,1.65-2.83,3.28-5.67,4.92-8.5.28-.48.71-.65,1.24-.65,1.58,0,3.17,0,4.75,0Z"/>
  <path class="cls-2" d="M104.57,29.75c1.16.71,2.38.91,3.67.82,1.29-.09,2.17-.73,2.61-1.96.31-.87.43-1.78.44-2.69.03-3.35.05-6.71.04-10.06,0-.52.14-.67.64-.61.49.06,1.12-.2,1.43.09.32.3.1.94.1,1.43,0,2.97,0,5.95-.03,8.92-.01,1.12-.12,2.25-.45,3.33-.58,1.93-1.83,3.13-3.86,3.42-1.61.23-3.19.14-4.67-.64-.35-.19-.52-.37-.33-.78.18-.39.27-.82.41-1.26Z"/>
  <path class="cls-2" d="M62.35,15.31c-.7,1.62-1.4,3.24-2.11,4.86-1.68,3.87-3.37,7.74-5.06,11.61-.1.22-.11.52-.5.51-.36-.01-.36-.3-.45-.5-1.19-2.72-2.37-5.44-3.55-8.16-.08-.19-.17-.38-.29-.65-.61,1.4-1.19,2.73-1.77,4.07-.7,1.6-1.39,3.21-2.09,4.81-.09.2-.12.43-.45.43-.32,0-.36-.22-.45-.42-2.33-5.35-4.66-10.71-6.98-16.06-.07-.16-.33-.4-.11-.53.3-.17.45.1.57.37,1.45,3.35,2.91,6.7,4.36,10.05.85,1.95,1.7,3.9,2.55,5.86.22-.08.22-.3.29-.45,1.2-2.75,2.39-5.51,3.6-8.26.15-.34.17-.61.01-.96-.89-1.98-1.75-3.97-2.61-5.95-.07-.15-.12-.31-.19-.46.39-.17.53.02.66.32.81,1.89,1.62,3.77,2.44,5.66.03.07.07.13.15.29.31-.69.59-1.32.86-1.94.58-1.32,1.16-2.65,1.73-3.98.12-.29.25-.52.67-.36-.08.2-.14.4-.23.6-.85,1.95-1.71,3.9-2.57,5.85-.12.27-.17.5-.04.8,1.27,2.87,2.52,5.75,3.78,8.62.04.09.06.18.2.23,1.04-2.4,2.09-4.8,3.13-7.2,1.26-2.89,2.52-5.79,3.77-8.69.13-.3.26-.56.69-.37Z"/>
  <path class="cls-2" d="M85.7,19.89c-.59,1.35-1.17,2.71-1.76,4.06-1.14,2.61-2.27,5.23-3.42,7.84-.09.2-.09.51-.45.49-.33-.01-.32-.3-.4-.48-1.69-3.86-3.38-7.73-5.06-11.6-.04-.1-.08-.21-.12-.32.4-.18.54.04.68.35,1.55,3.57,3.1,7.14,4.66,10.71.07.17.15.34.27.6.59-1.36,1.15-2.64,1.7-3.91,1.07-2.46,2.14-4.91,3.2-7.37.13-.29.24-.58.7-.38Z"/>
  <path class="cls-2" d="M97.7,22.25c-1.63-2.41-4.7-3.32-7.2-2.07-2.29,1.14-3.43,3.09-3.48,5.61-.06,2.65,1.05,4.74,3.38,6.05,2.51,1.42,6.03.48,7.32-1.88.07-.13.32-.29.05-.45-.26-.16-.35.05-.47.23-1.04,1.64-3.13,2.57-5.03,2.23-2.5-.44-4.51-2.67-4.76-5.25-.04-.36.1-.4.4-.4,1.75.01,3.51,0,5.26,0,1.75,0,3.51-.01,5.26,0,.36,0,.44-.09.44-.44-.03-1.33-.43-2.55-1.17-3.64ZM97.1,25.85h-4.17c-1.68,0-3.35,0-5.03,0-.26,0-.43,0-.39-.35.33-3.35,2.85-5.55,5.75-5.37,2.25.14,4.25,1.89,4.89,4.31q.37,1.41-1.05,1.41Z"/>
  <path class="cls-2" d="M72.7,31.82c-.4-.19-.3-.54-.3-.85,0-2.23.02-4.46-.01-6.69-.04-3.07-2.15-4.94-5.18-4.6-1.24.14-2.32.7-3.36,1.37-.13.09-.4.13-.2.41.18.26.32.08.47-.02.75-.49,1.55-.9,2.42-1.14,2.51-.69,4.73.57,5.26,3,.16.73.11,1.48.12,2.22,0,.34-.17.26-.36.2-.8-.27-1.62-.42-2.46-.5-1.59-.16-3.17-.11-4.63.66-.89.47-1.57,1.14-1.79,2.17-.47,2.17,1.31,4.35,3.64,4.44,2.14.09,4.02-.54,5.6-2.29,0,.48,0,.82,0,1.16,0,.34.13.63.43.82.12.07.27.15.36.05.11-.11.12-.35-.01-.41ZM71.92,26.94c-.04.28,0,.57,0,.86,0,2.28-1.29,3.67-3.86,4.11-1,.17-2.01.25-2.97-.2-1.12-.52-1.8-1.38-1.96-2.62-.15-1.19.37-2.14,1.51-2.77,1.24-.68,2.58-.75,3.95-.66.95.06,1.88.25,2.8.52.43.13.6.32.54.76Z"/>
</svg>