<?xml version="1.0" encoding="UTF-8"?>
<svg id="Layer_1" data-name="Layer 1" xmlns="http://www.w3.org/2000/svg" viewBox="0 0 2506.89 2488.44">
  <defs>
    <style>
      .cls-1 {
        stroke: #b3dfee;
        stroke-width: 3.76px;
      }

      .cls-1, .cls-2, .cls-3, .cls-4, .cls-5, .cls-6, .cls-7, .cls-8, .cls-9, .cls-10, .cls-11, .cls-12, .cls-13, .cls-14, .cls-15, .cls-16, .cls-17, .cls-18, .cls-19, .cls-20, .cls-21, .cls-22, .cls-23, .cls-24, .cls-25, .cls-26, .cls-27, .cls-28, .cls-29, .cls-30, .cls-31, .cls-32, .cls-33, .cls-34, .cls-35, .cls-36, .cls-37, .cls-38, .cls-39, .cls-40, .cls-41, .cls-42, .cls-43, .cls-44, .cls-45, .cls-46, .cls-47 {
        fill: none;
      }

      .cls-1, .cls-2, .cls-3, .cls-4, .cls-5, .cls-6, .cls-7, .cls-8, .cls-10, .cls-12, .cls-13, .cls-14, .cls-15, .cls-16, .cls-17, .cls-18, .cls-19, .cls-20, .cls-21, .cls-22, .cls-23, .cls-24, .cls-25, .cls-26, .cls-27, .cls-28, .cls-29, .cls-30, .cls-31, .cls-32, .cls-33, .cls-34, .cls-35, .cls-36, .cls-37, .cls-38, .cls-39, .cls-40, .cls-41, .cls-42, .cls-43, .cls-44, .cls-45, .cls-46, .cls-47 {
        stroke-miterlimit: 10;
      }

      .cls-2 {
        stroke: #46c6f1;
      }

      .cls-2, .cls-5, .cls-7, .cls-10, .cls-14, .cls-15, .cls-20, .cls-25, .cls-27, .cls-33, .cls-41, .cls-42, .cls-44, .cls-45, .cls-46 {
        stroke-width: 2.88px;
      }

      .cls-3 {
        stroke: #e5eaed;
        stroke-width: 3.01px;
      }

      .cls-4 {
        stroke: #b5dfee;
      }

      .cls-4, .cls-21, .cls-23, .cls-30, .cls-38 {
        stroke-width: 2.88px;
      }

      .cls-5 {
        stroke: #a3dbef;
      }

      .cls-6 {
        stroke: #b6e0ee;
        stroke-width: 3.72px;
      }

      .cls-7 {
        stroke: #90d7ef;
      }

      .cls-8 {
        stroke: #d4e7ed;
        stroke-width: 3.26px;
      }

      .cls-9 {
        stroke: #eaebed;
        stroke-width: 2.93px;
      }

      .cls-9, .cls-11 {
        stroke-miterlimit: 10;
      }

      .cls-10 {
        stroke: #87d5ef;
      }

      .cls-11 {
        stroke: #21bef2;
      }

      .cls-11, .cls-12, .cls-29, .cls-36 {
        stroke-width: 2.88px;
      }

      .cls-12 {
        stroke: #bfe2ee;
      }

      .cls-13 {
        stroke: #bce1ee;
        stroke-width: 3.64px;
      }

      .cls-14 {
        stroke: #d1e6ee;
      }

      .cls-15, .cls-17 {
        stroke: #dae8ed;
      }

      .cls-16 {
        stroke: #d2e6ed;
        stroke-width: 3.3px;
      }

      .cls-17 {
        stroke-width: 3.18px;
      }

      .cls-18 {
        stroke: #d7e7ed;
        stroke-width: 3.22px;
      }

      .cls-19 {
        stroke: #c7e3ee;
        stroke-width: 3.47px;
      }

      .cls-48 {
        fill: #dc5956;
        stroke-width: 0px;
      }

      .cls-20 {
        stroke: #18bcf2;
      }

      .cls-21 {
        stroke: #acddef;
      }

      .cls-22 {
        stroke: #cce5ee;
        stroke-width: 3.39px;
      }

      .cls-23 {
        stroke: #7ed3f0;
      }

      .cls-24 {
        stroke: #e8ebed;
        stroke-width: 2.97px;
      }

      .cls-25 {
        stroke: #edeced;
      }

      .cls-26 {
        stroke: #c1e2ee;
        stroke-width: 3.55px;
      }

      .cls-27 {
        stroke: #2bc0f2;
      }

      .cls-28 {
        stroke: #dde8ed;
        stroke-width: 3.13px;
      }

      .cls-29 {
        stroke: #6bcff0;
      }

      .cls-30 {
        stroke: #34c2f1;
      }

      .cls-31 {
        stroke: #b9e0ee;
        stroke-width: 3.68px;
      }

      .cls-32 {
        stroke: #aedeee;
        stroke-width: 3.85px;
      }

      .cls-33 {
        stroke: #3dc4f1;
      }

      .cls-34 {
        stroke: #b1dfee;
        stroke-width: 3.8px;
      }

      .cls-35 {
        stroke: #e2eaed;
        stroke-width: 3.05px;
      }

      .cls-36 {
        stroke: #c8e4ee;
      }

      .cls-37 {
        stroke: #dfe9ed;
        stroke-width: 3.09px;
      }

      .cls-38 {
        stroke: #50c9f1;
      }

      .cls-39 {
        stroke: #c4e3ee;
        stroke-width: 3.51px;
      }

      .cls-40 {
        stroke: #bee2ee;
        stroke-width: 3.59px;
      }

      .cls-41 {
        stroke: #9ad9ef;
      }

      .cls-42 {
        stroke: #75d1f0;
      }

      .cls-43 {
        stroke: #c9e4ee;
        stroke-width: 3.43px;
      }

      .cls-44 {
        stroke: #62cdf0;
      }

      .cls-45 {
        stroke: #e4eaed;
      }

      .cls-46 {
        stroke: #59cbf0;
      }

      .cls-47 {
        stroke: #cfe5ed;
        stroke-width: 3.34px;
      }
    </style>
  </defs>
  <g>
    <path class="cls-48" d="M630.02,85.43c36.71-74.39,127.6-105.21,201.99-68.51l1205,594.64c74.39,36.71,157.04,131.01,183.69,209.57l276.8,816.15c26.64,78.55-15.83,164.62-94.39,191.27l-1917.96,650.49c-78.55,26.64-164.62-15.83-191.27-94.39L17.08,1568.5c-26.64-78.55-18.41-203.69,18.3-278.07L630.02,85.43Z"/>
    <path class="cls-20" d="M630.02,85.43c36.71-74.39,127.6-105.21,201.99-68.51l1205,594.64c74.39,36.71,157.04,131.01,183.69,209.57l276.8,816.15c26.64,78.55-15.83,164.62-94.39,191.27l-1917.96,650.49c-78.55,26.64-164.62-15.83-191.27-94.39L17.08,1568.5c-26.64-78.55-18.41-203.69,18.3-278.07L630.02,85.43Z"/>
  </g>
  <g>
    <path class="cls-48" d="M605.34,100.29c35.49-74.83,126.18-107.93,201.53-73.55l1234.63,563.32c75.35,34.38,158.11,126.9,183.92,205.6l267.67,816.36c25.8,78.7-16.91,165.85-94.92,193.68l-1868.71,666.42c-78.01,27.82-165.54-12.9-194.51-90.49L30.14,1565.29c-28.97-77.59-23.64-202.3,11.85-277.14L605.34,100.29Z"/>
    <path class="cls-11" d="M605.34,100.29c35.49-74.83,126.18-107.93,201.53-73.55l1234.63,563.32c75.35,34.38,158.11,126.9,183.92,205.6l267.67,816.36c25.8,78.7-16.91,165.85-94.92,193.68l-1868.71,666.42c-78.01,27.82-165.54-12.9-194.51-90.49L30.14,1565.29c-28.97-77.59-23.64-202.3,11.85-277.14L605.34,100.29Z"/>
  </g>
  <g>
    <path class="cls-48" d="M580.75,115.14c34.22-75.28,124.59-110.64,200.82-78.58l1264.59,531.96c76.23,32.07,159.02,122.81,183.98,201.65l258.54,816.6c24.96,78.84-17.97,167.1-95.4,196.13l-1819.59,682.23c-77.43,29.03-166.34-9.87-197.57-86.44L43.07,1561.98c-31.23-76.57-28.77-200.82,5.45-276.11L580.75,115.14Z"/>
    <path class="cls-27" d="M580.75,115.14c34.22-75.28,124.59-110.64,200.82-78.58l1264.59,531.96c76.23,32.07,159.02,122.81,183.98,201.65l258.54,816.6c24.96,78.84-17.97,167.1-95.4,196.13l-1819.59,682.23c-77.43,29.03-166.34-9.87-197.57-86.44L43.07,1561.98c-31.23-76.57-28.77-200.82,5.45-276.11L580.75,115.14Z"/>
  </g>
  <g>
    <path class="cls-48" d="M556.25,130c32.91-75.73,122.85-113.33,199.87-83.56l1294.86,500.52c77.02,29.77,159.76,118.74,183.88,197.71l249.44,816.87c24.11,78.97-19.01,168.36-95.83,198.64l-1770.6,697.91c-76.82,30.28-167.01-6.73-200.41-82.24L55.86,1558.58c-33.41-75.51-33.82-199.25-.91-274.98L556.25,130Z"/>
    <path class="cls-30" d="M556.25,130c32.91-75.73,122.85-113.33,199.87-83.56l1294.86,500.52c77.02,29.77,159.76,118.74,183.88,197.71l249.44,816.87c24.11,78.97-19.01,168.36-95.83,198.64l-1770.6,697.91c-76.82,30.28-167.01-6.73-200.41-82.24L55.86,1558.58c-33.41-75.51-33.82-199.25-.91-274.98L556.25,130Z"/>
  </g>
  <g>
    <path class="cls-48" d="M531.85,144.84c31.54-76.17,120.94-116,198.66-88.5l1325.44,468.99c77.72,27.5,160.35,114.72,183.61,193.81l240.35,817.16c23.26,79.1-20.02,169.63-96.18,201.19l-1721.76,713.46c-76.17,31.56-167.54-3.49-203.05-77.9L68.52,1555.11c-35.51-74.41-38.76-197.61-7.22-273.78L531.85,144.84Z"/>
    <path class="cls-33" d="M531.85,144.84c31.54-76.17,120.94-116,198.66-88.5l1325.44,468.99c77.72,27.5,160.35,114.72,183.61,193.81l240.35,817.16c23.26,79.1-20.02,169.63-96.18,201.19l-1721.76,713.46c-76.17,31.56-167.54-3.49-203.05-77.9L68.52,1555.11c-35.51-74.41-38.76-197.61-7.22-273.78L531.85,144.84Z"/>
  </g>
  <g>
    <path class="cls-48" d="M507.54,159.68c30.12-76.61,118.86-118.63,197.2-93.36l1356.32,437.35c78.35,25.26,160.78,110.74,183.19,189.95l231.27,817.49c22.41,79.21-21,170.92-96.47,203.8l-1673.07,728.89c-75.47,32.88-167.93-.16-205.46-73.43L81.02,1551.57c-37.54-73.26-43.61-195.89-13.49-272.5L507.54,159.68Z"/>
    <path class="cls-2" d="M507.54,159.68c30.12-76.61,118.86-118.63,197.2-93.36l1356.32,437.35c78.35,25.26,160.78,110.74,183.19,189.95l231.27,817.49c22.41,79.21-21,170.92-96.47,203.8l-1673.07,728.89c-75.47,32.88-167.93-.16-205.46-73.43L81.02,1551.57c-37.54-73.26-43.61-195.89-13.49-272.5L507.54,159.68Z"/>
  </g>
  <g>
    <path class="cls-48" d="M483.34,174.51c28.63-77.04,116.61-121.21,195.5-98.15l1387.48,405.58c78.89,23.06,161.07,106.83,182.62,186.14l222.2,817.84c21.55,79.32-21.96,172.22-96.68,206.45l-1624.55,744.19c-74.73,34.23-168.17,3.25-207.64-68.84L93.38,1547.97c-39.48-72.09-48.35-194.11-19.72-271.16L483.34,174.51Z"/>
    <path class="cls-38" d="M483.34,174.51c28.63-77.04,116.61-121.21,195.5-98.15l1387.48,405.58c78.89,23.06,161.07,106.83,182.62,186.14l222.2,817.84c21.55,79.32-21.96,172.22-96.68,206.45l-1624.55,744.19c-74.73,34.23-168.17,3.25-207.64-68.84L93.38,1547.97c-39.48-72.09-48.35-194.11-19.72-271.16L483.34,174.51Z"/>
  </g>
  <g>
    <path class="cls-48" d="M459.25,189.32c27.09-77.47,114.19-123.75,193.55-102.85l1418.92,373.66c79.36,20.9,161.22,102.98,181.91,182.39l213.15,818.22c20.69,79.42-22.88,173.54-96.81,209.16l-1576.2,759.36c-73.93,35.62-168.25,6.76-209.59-64.14L105.59,1544.34c-41.34-70.9-52.99-192.28-25.9-269.75L459.25,189.32Z"/>
    <path class="cls-46" d="M459.25,189.32c27.09-77.47,114.19-123.75,193.55-102.85l1418.92,373.66c79.36,20.9,161.22,102.98,181.91,182.39l213.15,818.22c20.69,79.42-22.88,173.54-96.81,209.16l-1576.2,759.36c-73.93,35.62-168.25,6.76-209.59-64.14L105.59,1544.34c-41.34-70.9-52.99-192.28-25.9-269.75L459.25,189.32Z"/>
  </g>
  <g>
    <path class="cls-48" d="M435.28,204.1c25.49-77.88,111.6-126.23,191.37-107.44l1450.62,341.58c79.76,18.78,161.24,99.2,181.06,178.71l204.11,818.64c19.82,79.51-23.76,174.87-96.85,211.91l-1528.05,774.4c-73.09,37.04-168.17,10.34-211.29-59.34L117.65,1540.66c-43.12-69.68-57.54-190.41-32.05-268.28L435.28,204.1Z"/>
    <path class="cls-44" d="M435.28,204.1c25.49-77.88,111.6-126.23,191.37-107.44l1450.62,341.58c79.76,18.78,161.24,99.2,181.06,178.71l204.11,818.64c19.82,79.51-23.76,174.87-96.85,211.91l-1528.05,774.4c-73.09,37.04-168.17,10.34-211.29-59.34L117.65,1540.66c-43.12-69.68-57.54-190.41-32.05-268.28L435.28,204.1Z"/>
  </g>
  <g>
    <path class="cls-48" d="M411.41,218.86c23.82-78.27,108.85-128.64,188.94-111.93l1482.56,309.33c80.09,16.71,161.13,95.5,180.08,175.09l195.08,819.08c18.96,79.59-24.6,176.21-96.79,214.71l-1480.1,789.32c-72.19,38.5-167.93,13.99-212.74-54.45L129.56,1536.96c-44.82-68.45-61.99-188.49-38.17-266.76L411.41,218.86Z"/>
    <path class="cls-29" d="M411.41,218.86c23.82-78.27,108.85-128.64,188.94-111.93l1482.56,309.33c80.09,16.71,161.13,95.5,180.08,175.09l195.08,819.08c18.96,79.59-24.6,176.21-96.79,214.71l-1480.1,789.32c-72.19,38.5-167.93,13.99-212.74-54.45L129.56,1536.96c-44.82-68.45-61.99-188.49-38.17-266.76L411.41,218.86Z"/>
  </g>
  <g>
    <path class="cls-48" d="M387.67,233.58c22.09-78.65,105.92-130.97,186.27-116.28l1514.73,276.9c80.36,14.69,160.9,91.89,178.99,171.55l186.06,819.56c18.09,79.66-25.4,177.56-96.63,217.55l-1432.36,804.11c-71.23,39.99-167.51,17.72-213.94-49.49L141.33,1533.24c-46.43-67.21-66.35-186.54-44.26-265.19L387.67,233.58Z"/>
    <path class="cls-42" d="M387.67,233.58c22.09-78.65,105.92-130.97,186.27-116.28l1514.73,276.9c80.36,14.69,160.9,91.89,178.99,171.55l186.06,819.56c18.09,79.66-25.4,177.56-96.63,217.55l-1432.36,804.11c-71.23,39.99-167.51,17.72-213.94-49.49L141.33,1533.24c-46.43-67.21-66.35-186.54-44.26-265.19L387.67,233.58Z"/>
  </g>
  <g>
    <path class="cls-48" d="M364.05,248.26c20.29-79,102.81-133.23,183.38-120.51l1547.12,244.28c80.57,12.72,160.57,88.36,177.78,168.09l177.05,820.07c17.21,79.73-26.15,178.92-96.36,220.43l-1384.86,818.79c-70.21,41.51-166.91,21.5-214.88-44.46L152.96,1529.52c-47.97-65.96-70.62-184.57-50.33-263.57L364.05,248.26Z"/>
    <path class="cls-23" d="M364.05,248.26c20.29-79,102.81-133.23,183.38-120.51l1547.12,244.28c80.57,12.72,160.57,88.36,177.78,168.09l177.05,820.07c17.21,79.73-26.15,178.92-96.36,220.43l-1384.86,818.79c-70.21,41.51-166.91,21.5-214.88-44.46L152.96,1529.52c-47.97-65.96-70.62-184.57-50.33-263.57L364.05,248.26Z"/>
  </g>
  <g>
    <path class="cls-48" d="M340.55,262.9c18.42-79.33,99.54-135.39,180.26-124.58l1579.72,211.47c80.72,10.81,160.13,84.92,176.46,164.7l168.04,820.62c16.34,79.78-26.85,180.29-95.97,223.36l-1337.6,833.36c-69.12,43.06-166.12,25.35-215.56-39.37L164.44,1525.79c-49.44-64.72-74.81-182.57-56.38-261.9l232.5-1000.99Z"/>
    <path class="cls-10" d="M340.55,262.9c18.42-79.33,99.54-135.39,180.26-124.58l1579.72,211.47c80.72,10.81,160.13,84.92,176.46,164.7l168.04,820.62c16.34,79.78-26.85,180.29-95.97,223.36l-1337.6,833.36c-69.12,43.06-166.12,25.35-215.56-39.37L164.44,1525.79c-49.44-64.72-74.81-182.57-56.38-261.9l232.5-1000.99Z"/>
  </g>
  <g>
    <path class="cls-48" d="M317.19,277.48c16.49-79.62,96.1-137.45,176.92-128.51l1612.5,178.46c80.82,8.94,159.59,81.58,175.05,161.4l159.05,821.19c15.46,79.83-27.49,181.67-95.45,226.31l-1290.6,847.83c-67.96,44.64-165.14,29.24-215.97-34.23L175.79,1522.06c-50.82-63.47-78.92-180.55-62.43-260.17l203.83-984.41Z"/>
    <path class="cls-7" d="M317.19,277.48c16.49-79.62,96.1-137.45,176.92-128.51l1612.5,178.46c80.82,8.94,159.59,81.58,175.05,161.4l159.05,821.19c15.46,79.83-27.49,181.67-95.45,226.31l-1290.6,847.83c-67.96,44.64-165.14,29.24-215.97-34.23L175.79,1522.06c-50.82-63.47-78.92-180.55-62.43-260.17l203.83-984.41Z"/>
  </g>
  <g>
    <path class="cls-48" d="M293.95,291.99c14.48-79.88,92.49-139.4,173.36-132.27l1645.45,145.24c80.87,7.14,158.97,78.32,173.55,158.19l150.05,821.8c14.58,79.87-28.08,183.05-94.8,229.3l-1243.87,862.21c-66.72,46.25-163.97,33.17-216.11-29.06L187.01,1518.35c-52.14-62.23-82.95-178.51-68.47-258.39l175.41-967.96Z"/>
    <path class="cls-41" d="M293.95,291.99c14.48-79.88,92.49-139.4,173.36-132.27l1645.45,145.24c80.87,7.14,158.97,78.32,173.55,158.19l150.05,821.8c14.58,79.87-28.08,183.05-94.8,229.3l-1243.87,862.21c-66.72,46.25-163.97,33.17-216.11-29.06L187.01,1518.35c-52.14-62.23-82.95-178.51-68.47-258.39l175.41-967.96Z"/>
  </g>
  <g>
    <path class="cls-48" d="M270.84,306.44c12.4-80.11,88.71-141.24,169.59-135.85l1678.56,111.83c80.88,5.39,158.27,75.16,171.97,155.06l141.07,822.44c13.7,79.89-28.6,184.43-94.01,232.31l-1197.43,876.5c-65.41,47.88-162.6,37.14-215.98-23.86L198.09,1514.64c-53.38-61-86.91-176.45-74.52-256.56l147.26-951.65Z"/>
    <path class="cls-5" d="M270.84,306.44c12.4-80.11,88.71-141.24,169.59-135.85l1678.56,111.83c80.88,5.39,158.27,75.16,171.97,155.06l141.07,822.44c13.7,79.89-28.6,184.43-94.01,232.31l-1197.43,876.5c-65.41,47.88-162.6,37.14-215.98-23.86L198.09,1514.64c-53.38-61-86.91-176.45-74.52-256.56l147.26-951.65Z"/>
  </g>
  <g>
    <path class="cls-48" d="M247.86,320.8c10.24-80.28,84.77-142.95,165.62-139.25l1711.82,78.21c80.85,3.69,157.49,72.1,170.31,152.01l132.08,823.12c12.82,79.91-29.06,185.81-93.07,235.34l-1151.29,890.73c-64.01,49.52-161.02,41.13-215.58-18.65L209.06,1510.96c-54.56-59.78-90.81-174.38-80.57-254.66l119.37-935.5Z"/>
    <path class="cls-21" d="M247.86,320.8c10.24-80.28,84.77-142.95,165.62-139.25l1711.82,78.21c80.85,3.69,157.49,72.1,170.31,152.01l132.08,823.12c12.82,79.91-29.06,185.81-93.07,235.34l-1151.29,890.73c-64.01,49.52-161.02,41.13-215.58-18.65L209.06,1510.96c-54.56-59.78-90.81-174.38-80.57-254.66l119.37-935.5Z"/>
  </g>
  <g>
    <path class="cls-48" d="M225.01,335.07c8.02-80.41,80.68-144.52,161.46-142.46l1745.21,44.39c80.78,2.05,156.65,69.13,168.59,149.05l123.1,823.83c11.94,79.92-29.45,187.19-91.98,238.37l-1105.46,904.91c-62.53,51.19-159.24,45.14-214.91-13.43L219.91,1507.31c-55.67-58.57-94.65-172.29-86.63-252.7l91.73-919.54Z"/>
    <path class="cls-4" d="M225.01,335.07c8.02-80.41,80.68-144.52,161.46-142.46l1745.21,44.39c80.78,2.05,156.65,69.13,168.59,149.05l123.1,823.83c11.94,79.92-29.45,187.19-91.98,238.37l-1105.46,904.91c-62.53,51.19-159.24,45.14-214.91-13.43L219.91,1507.31c-55.67-58.57-94.65-172.29-86.63-252.7l91.73-919.54Z"/>
  </g>
  <g>
    <path class="cls-48" d="M202.28,349.24c5.73-80.48,76.43-145.94,157.11-145.47l1778.72,10.37c80.68.47,155.74,66.24,166.8,146.16l114.12,824.58c11.06,79.92-29.76,188.55-90.72,241.41l-1059.95,919.05c-60.96,52.85-157.24,49.15-213.95-8.23L230.64,1503.68c-56.72-57.38-98.43-170.18-92.7-250.66l64.35-903.79Z"/>
    <path class="cls-12" d="M202.28,349.24c5.73-80.48,76.43-145.94,157.11-145.47l1778.72,10.37c80.68.47,155.74,66.24,166.8,146.16l114.12,824.58c11.06,79.92-29.76,188.55-90.72,241.41l-1059.95,919.05c-60.96,52.85-157.24,49.15-213.95-8.23L230.64,1503.68c-56.72-57.38-98.43-170.18-92.7-250.66l64.35-903.79Z"/>
  </g>
  <g>
    <path class="cls-48" d="M179.68,363.29c3.37-80.49,72.03-147.2,152.58-148.26l1812.35-23.85c80.55-1.06,154.78,63.45,164.96,143.36l105.14,825.36c10.18,79.91-30.01,189.9-89.3,244.43l-1014.77,933.18c-59.3,54.53-155.02,53.15-212.73-3.05L241.26,1500.08c-57.71-56.21-102.16-168.05-98.79-248.53l37.21-888.26Z"/>
    <path class="cls-36" d="M179.68,363.29c3.37-80.49,72.03-147.2,152.58-148.26l1812.35-23.85c80.55-1.06,154.78,63.45,164.96,143.36l105.14,825.36c10.18,79.91-30.01,189.9-89.3,244.43l-1014.77,933.18c-59.3,54.53-155.02,53.15-212.73-3.05L241.26,1500.08c-57.71-56.21-102.16-168.05-98.79-248.53l37.21-888.26Z"/>
  </g>
  <g>
    <path class="cls-48" d="M157.19,377.22c.95-80.42,67.5-148.3,147.89-150.84l1846.07-58.25c80.39-2.54,153.77,60.75,163.07,140.64l96.16,826.17c9.3,79.89-30.17,191.24-87.71,247.43l-969.94,947.32c-57.54,56.2-152.59,57.14-211.23,2.09L251.78,1496.51c-58.64-55.05-105.84-165.89-104.89-246.32l10.3-872.97Z"/>
    <path class="cls-14" d="M157.19,377.22c.95-80.42,67.5-148.3,147.89-150.84l1846.07-58.25c80.39-2.54,153.77,60.75,163.07,140.64l96.16,826.17c9.3,79.89-30.17,191.24-87.71,247.43l-969.94,947.32c-57.54,56.2-152.59,57.14-211.23,2.09L251.78,1496.51c-58.64-55.05-105.84-165.89-104.89-246.32l10.3-872.97Z"/>
  </g>
  <g>
    <path class="cls-48" d="M134.81,391.01c-1.53-80.29,62.83-149.22,143.04-153.18l1879.88-92.85c80.21-3.96,152.72,58.14,161.13,138l87.17,827.02c8.42,79.86-30.26,192.54-85.95,250.4l-925.45,961.5c-55.69,57.86-149.95,61.09-209.46,7.17l-922.98-836.1c-59.52-53.91-109.47-163.71-111-244l-16.39-857.96Z"/>
    <path class="cls-15" d="M134.81,391.01c-1.53-80.29,62.83-149.22,143.04-153.18l1879.88-92.85c80.21-3.96,152.72,58.14,161.13,138l87.17,827.02c8.42,79.86-30.26,192.54-85.95,250.4l-925.45,961.5c-55.69,57.86-149.95,61.09-209.46,7.17l-922.98-836.1c-59.52-53.91-109.47-163.71-111-244l-16.39-857.96Z"/>
  </g>
  <g>
    <path class="cls-48" d="M112.54,404.66c-4.07-80.07,58.05-149.96,138.05-155.29l1913.78-127.64c80-5.34,151.62,55.61,159.16,135.43l78.18,827.91c7.54,79.82-30.26,193.81-84.01,253.32l-881.31,975.75c-53.74,59.5-147.08,64.99-207.42,12.19l-956.44-836.84c-60.34-52.8-113.04-161.51-117.12-241.58l-42.88-843.24Z"/>
    <path class="cls-45" d="M112.54,404.66c-4.07-80.07,58.05-149.96,138.05-155.29l1913.78-127.64c80-5.34,151.62,55.61,159.16,135.43l78.18,827.91c7.54,79.82-30.26,193.81-84.01,253.32l-881.31,975.75c-53.74,59.5-147.08,64.99-207.42,12.19l-956.44-836.84c-60.34-52.8-113.04-161.51-117.12-241.58l-42.88-843.24Z"/>
  </g>
  <path class="cls-25" d="M1477.98,2306.41c-51.7,61.12-144.01,68.82-205.12,17.12l-990.08-837.51c-61.12-51.7-116.57-159.27-123.23-239.04L90.35,418.16c-6.66-79.77,53.16-150.49,132.94-157.15l1947.75-162.6c79.77-6.66,150.49,53.16,157.15,132.94l69.19,828.83c6.66,79.77-30.19,195.05-81.89,256.17l-837.51,990.08Z"/>
  <path class="cls-9" d="M1472.55,2304.97c-52.14,60.52-145.3,68.54-207.02,17.83l-978.96-804.41c-61.72-50.71-116.25-157.44-121.19-237.17l-54.18-875.78c-4.93-79.73,56.19-150.06,135.83-156.29l1894.72-148.15c79.64-6.23,151.98,53.64,160.76,133.04l92.58,837.17c8.78,79.4-26.69,193.88-78.83,254.4l-843.72,979.36Z"/>
  <path class="cls-24" d="M1467.11,2303.54c-52.57,59.92-146.59,68.29-208.92,18.6l-967.8-771.46c-62.33-49.69-116.06-155.5-119.4-235.15l-38.68-922.89c-3.34-79.64,58.98-149.53,138.48-155.31l1841.69-133.77c79.5-5.77,153.43,54.11,164.28,133.09l116.17,845.7c10.85,78.97-23.29,192.61-75.87,252.53l-849.94,968.66Z"/>
  <path class="cls-3" d="M1461.67,2302.11c-53.01,59.31-147.89,68.06-210.85,19.44l-956.59-738.67c-62.96-48.62-116-153.46-117.86-232.98l-22.75-970.13c-1.86-79.52,61.55-148.92,140.91-154.23l1788.67-119.46c79.37-5.3,154.83,54.59,167.68,133.09l139.96,854.4c12.86,78.5-19.99,191.25-73,250.56l-856.18,957.98Z"/>
  <path class="cls-35" d="M1456.22,2300.7c-53.44,58.7-149.19,67.86-212.78,20.36l-945.35-706.05c-63.6-47.5-116.04-151.3-116.54-230.68l-6.42-1017.46c-.5-79.37,63.91-148.25,143.14-153.05l1735.65-105.24c79.23-4.8,156.17,55.07,170.98,133.05l163.96,863.25c14.81,77.98-16.79,189.81-70.23,248.5l-862.43,947.32Z"/>
  <path class="cls-37" d="M1450.77,2299.3c-53.86,58.08-150.49,67.69-214.73,21.36l-934.06-673.62c-64.24-46.33-116.18-149.04-115.42-228.24l10.27-1064.88c.76-79.2,66.1-147.51,145.19-151.79l1682.64-91.11c79.09-4.28,157.47,55.56,174.17,132.99l188.18,872.25c16.7,77.43-13.7,188.29-67.56,246.37l-868.69,936.68Z"/>
  <path class="cls-28" d="M1445.3,2297.91c-54.28,57.45-151.79,67.55-216.69,22.44l-922.74-641.37c-64.9-45.11-116.41-146.67-114.48-225.68l27.3-1112.36c1.94-79.01,68.12-146.72,147.07-150.45l1629.64-77.08c78.95-3.73,158.71,56.07,177.24,132.91l212.62,881.38c18.54,76.83-10.71,186.7-64.99,244.15l-874.97,926.06Z"/>
  <path class="cls-17" d="M1439.83,2296.52c-54.7,56.82-153.09,67.44-218.66,23.61l-911.39-609.33c-65.57-43.83-116.73-144.18-113.7-222.99l44.61-1159.89c3.03-78.81,69.99-145.87,148.79-149.03l1576.65-63.15c78.81-3.16,159.9,56.61,180.2,132.82l237.29,890.63c20.3,76.21-7.83,185.05-62.53,241.87l-881.26,915.46Z"/>
  <path class="cls-18" d="M1434.35,2295.15c-55.11,56.18-154.39,67.38-220.63,24.88l-900.02-577.49c-66.24-42.5-117.12-141.58-113.07-220.17l62.21-1207.47c4.05-78.6,71.72-144.98,150.38-147.53l1523.66-49.34c78.66-2.55,161.03,57.19,183.04,132.75l262.19,899.97c22.01,75.56-5.07,183.35-60.18,239.53l-887.57,904.88Z"/>
  <path class="cls-8" d="M1428.87,2293.79c-55.52,55.54-155.69,67.36-222.6,26.25l-888.63-545.88c-66.91-41.1-117.57-138.86-112.57-217.23l80.05-1255.08c5-78.37,73.32-144.05,151.83-145.95l1470.69-35.66c78.51-1.9,162.1,57.81,185.75,132.69l287.31,909.41c23.66,74.88-2.41,181.59-57.93,237.14l-893.9,894.32Z"/>
  <path class="cls-16" d="M1423.37,2292.43c-55.92,54.9-156.97,67.37-224.57,27.73l-877.23-514.51c-67.59-39.64-118.08-136.01-112.2-214.15l98.11-1302.71c5.89-78.14,74.81-143.07,153.16-144.29l1417.74-22.11c78.35-1.22,163.11,58.48,188.35,132.66l312.65,918.92c25.24,74.19.14,179.8-55.78,234.69l-900.24,883.78Z"/>
  <path class="cls-47" d="M1417.87,2291.09c-56.32,54.24-158.25,67.44-226.53,29.32l-865.83-483.39c-68.27-38.12-118.64-133.04-111.92-210.95l116.39-1350.37c6.71-77.9,76.18-142.05,154.37-142.55l1364.81-8.71c78.19-.5,164.06,59.2,190.82,132.67l338.22,928.5c26.76,73.47,2.58,177.96-53.73,232.21l-906.61,873.26Z"/>
  <path class="cls-22" d="M1412.35,2289.75c-56.71,53.59-159.52,67.56-228.47,31.04l-854.43-452.52c-68.95-36.52-119.23-129.94-111.74-207.6L352.56,262.63c7.49-77.66,77.46-140.99,155.48-140.72l1311.9,4.52c78.02.27,164.95,60,193.18,132.74l364.01,938.13c28.22,72.74,4.92,176.1-51.79,229.69l-912.99,862.75Z"/>
  <path class="cls-43" d="M1406.83,2288.42c-57.1,52.93-160.77,67.72-230.4,32.88l-843.06-421.92c-69.62-34.84-119.86-126.69-111.64-204.11L375.23,249.55c8.22-77.42,78.64-139.87,156.49-138.79l1259.02,17.57c77.85,1.09,165.78,60.88,195.41,132.88l390.01,947.81c29.63,72,7.15,174.21-49.95,227.14l-919.39,852.26Z"/>
  <path class="cls-19" d="M1401.29,2287.1c-57.48,52.26-162.01,67.95-232.3,34.85l-831.72-391.6c-70.28-33.09-120.5-123.31-111.6-200.48L397.98,236.46c8.9-77.17,79.73-138.71,157.39-136.75l1206.18,30.43c77.66,1.96,166.54,61.85,197.51,133.1l416.23,957.52c30.97,71.25,9.28,172.3-48.2,224.56l-925.81,841.79Z"/>
  <path class="cls-39" d="M1395.75,2285.79c-57.85,51.59-163.23,68.23-234.16,36.96l-820.43-361.58c-70.93-31.26-121.16-119.78-111.61-196.7L420.81,223.37c9.55-76.93,80.74-137.5,158.2-134.61l1153.39,43.06c77.46,2.89,167.23,62.93,199.49,133.41l442.65,967.26c32.26,70.49,11.31,170.37-46.54,221.96l-932.25,831.33Z"/>
  <path class="cls-26" d="M1390.2,2284.49c-58.22,50.92-164.41,68.56-235.98,39.22l-809.21-331.85c-71.56-29.35-121.81-116.1-111.66-192.77L443.71,210.28c10.15-76.68,81.66-136.23,158.91-132.34l1100.64,55.45c77.25,3.89,167.85,64.12,201.34,133.84l469.27,977.01c33.49,69.72,13.25,168.43-44.97,219.34l-938.71,820.9Z"/>
  <path class="cls-40" d="M1384.63,2283.19c-58.59,50.24-165.57,68.96-237.74,41.62l-798.07-302.44c-72.17-27.35-122.45-112.26-111.72-188.69L466.67,197.19c10.72-76.43,82.51-134.9,159.53-129.93l1047.97,67.57c77.02,4.97,168.4,65.45,203.06,134.4l496.09,986.78c34.67,68.95,15.09,166.48-43.5,216.71l-945.19,810.47Z"/>
  <path class="cls-13" d="M1379.05,2281.91c-58.95,49.55-166.7,69.43-239.44,44.16l-787.04-273.34c-72.75-25.26-123.06-108.27-111.8-184.45L489.68,184.1c11.26-76.18,83.28-133.5,160.04-127.38l995.37,79.39c76.77,6.12,168.86,66.92,204.65,135.11l523.1,996.55c35.79,68.19,16.85,164.52-42.1,214.07l-951.7,800.06Z"/>
  <path class="cls-31" d="M1373.47,2280.62c-59.3,48.87-167.78,69.96-241.07,46.87l-776.15-244.55c-73.29-23.09-123.62-104.11-111.86-180.05L512.76,171.01c11.77-75.93,83.97-132.03,160.46-124.66l942.87,90.88c76.49,7.37,169.23,68.56,206.1,135.98l550.3,1006.32c36.87,67.42,18.51,162.56-40.78,211.43l-958.22,789.67Z"/>
  <path class="cls-6" d="M1367.87,2279.35c-59.64,48.18-168.82,70.55-242.6,49.72l-765.4-216.09c-73.79-20.83-124.14-99.8-111.89-175.49L535.88,157.92c12.25-75.69,84.59-130.47,160.76-121.75l890.49,101.99c76.17,8.72,169.5,70.4,207.39,137.05l577.67,1016.08c37.89,66.65,20.1,160.6-39.55,208.78l-964.78,779.29Z"/>
  <path class="cls-1" d="M1362.26,2278.08c-59.98,47.48-169.8,71.21-244.03,52.73l-754.84-187.94c-74.24-18.48-124.58-95.33-111.89-170.77L559.05,144.83c12.7-75.44,85.12-128.83,160.94-118.64l838.25,112.68c75.82,10.19,169.66,72.44,208.53,138.33l605.21,1025.83c38.87,65.89,21.6,158.65-38.38,206.13l-971.35,768.92Z"/>
  <path class="cls-34" d="M1356.63,2276.82c-60.32,46.78-170.72,71.93-245.35,55.88l-744.49-160.11c-74.63-16.05-124.95-90.7-111.82-165.9L582.27,131.74c13.13-75.2,85.57-127.07,160.99-115.29l786.2,122.9c75.42,11.79,169.69,74.72,209.5,139.86l632.91,1035.56c39.81,65.13,23.03,156.7-37.29,203.48l-977.95,758.57Z"/>
  <path class="cls-32" d="M2371.83,1326.5c40.7,64.38,24.38,154.76-36.26,200.84l-984.58,748.22c-60.64,46.08-171.58,72.72-246.53,59.18l-734.37-132.58c-74.95-13.53-125.21-85.93-111.67-160.88L605.53,118.66c13.53-74.95,85.93-125.21,160.88-111.67l734.37,132.58c74.95,13.53,169.57,77.28,210.27,141.66l660.78,1045.28Z"/>
</svg>