<?xml version="1.0" encoding="UTF-8"?>
<svg id="Layer_1" data-name="Layer 1" xmlns="http://www.w3.org/2000/svg" viewBox="0 0 1967.36 1956.96">
  <defs>
    <style>
      .cls-1 {
        fill: #62cdf0;
      }

      .cls-1, .cls-2, .cls-3, .cls-4, .cls-5, .cls-6, .cls-7, .cls-8, .cls-9, .cls-10, .cls-11, .cls-12, .cls-13, .cls-14, .cls-15, .cls-16, .cls-17, .cls-18, .cls-19, .cls-20, .cls-21, .cls-22, .cls-23, .cls-24, .cls-25, .cls-26, .cls-27, .cls-28, .cls-29, .cls-30, .cls-31, .cls-32, .cls-33, .cls-34, .cls-35, .cls-36, .cls-37, .cls-38, .cls-39, .cls-40, .cls-41, .cls-42, .cls-43, .cls-44, .cls-45, .cls-46 {
        stroke-width: 0px;
      }

      .cls-2 {
        fill: #dfe9ed;
      }

      .cls-3 {
        fill: #d4e7ed;
      }

      .cls-4 {
        fill: #9ad9ef;
      }

      .cls-5 {
        fill: #b5dfee;
      }

      .cls-6 {
        fill: #b1dfee;
      }

      .cls-7 {
        fill: #bfe2ee;
      }

      .cls-8 {
        fill: #d2e6ed;
      }

      .cls-9 {
        fill: #59cbf0;
      }

      .cls-10 {
        fill: #c4e3ee;
      }

      .cls-11 {
        fill: #a3dbef;
      }

      .cls-12 {
        fill: #d7e7ed;
      }

      .cls-13 {
        fill: #acddef;
      }

      .cls-14 {
        fill: #50c9f1;
      }

      .cls-15 {
        fill: #cce5ee;
      }

      .cls-16 {
        fill: #6bcff0;
      }

      .cls-17 {
        fill: #cfe5ed;
      }

      .cls-18 {
        fill: #7ed3f0;
      }

      .cls-19 {
        fill: #90d7ef;
      }

      .cls-20 {
        fill: #b6e0ee;
      }

      .cls-21 {
        fill: #bee2ee;
      }

      .cls-22 {
        fill: #2bc0f2;
      }

      .cls-23 {
        fill: #46c6f1;
      }

      .cls-24 {
        fill: #e4eaed;
      }

      .cls-25 {
        fill: #87d5ef;
      }

      .cls-26 {
        fill: #c7e3ee;
      }

      .cls-27 {
        fill: #3dc4f1;
      }

      .cls-28 {
        fill: #c8e4ee;
      }

      .cls-29 {
        fill: #aedeee;
      }

      .cls-30 {
        fill: #edeced;
      }

      .cls-31 {
        fill: #b3dfee;
      }

      .cls-32 {
        fill: #b9e0ee;
      }

      .cls-33 {
        fill: #e2eaed;
      }

      .cls-34 {
        fill: #d1e6ee;
      }

      .cls-35 {
        fill: #75d1f0;
      }

      .cls-36 {
        fill: #dde8ed;
      }

      .cls-37 {
        fill: #c9e4ee;
      }

      .cls-38 {
        fill: #18bcf2;
      }

      .cls-39 {
        fill: #34c2f1;
      }

      .cls-40 {
        fill: #eaebed;
      }

      .cls-41 {
        fill: #21bef2;
      }

      .cls-42 {
        fill: #dae8ed;
      }

      .cls-43 {
        fill: #e5eaed;
      }

      .cls-44 {
        fill: #e8ebed;
      }

      .cls-45 {
        fill: #c1e2ee;
      }

      .cls-46 {
        fill: #bce1ee;
      }
    </style>
  </defs>
  <path class="cls-38" d="M1588.6,1956.96c-14.67,0-29.56-2.74-43.99-8.53L74.35,1358.25c-60.63-24.34-90.15-93.46-65.82-154.09l251.14-625.64c24.28-60.48,92.78-130.51,152.71-156.1L1379.05,9.52c60.08-25.66,129.83,2.34,155.49,62.42l412.9,966.66c25.6,59.93,26.67,157.89,2.4,218.37l-251.14,625.64c-18.55,46.2-63.11,74.35-110.1,74.35ZM1425.42,1c-15.37,0-30.98,3.03-45.99,9.44L412.77,423.34c-59.72,25.51-127.99,95.29-152.18,155.56L9.46,1204.54c-24.13,60.12,5.14,128.66,65.26,152.79l1470.26,590.18c60.12,24.13,128.65-5.15,152.79-65.26l251.14-625.64c24.19-60.27,23.12-157.88-2.39-217.6L1533.62,72.33c-19.04-44.57-62.55-71.33-108.2-71.33Z"/>
  <path class="cls-41" d="M1557.1,1950.16c-15.61,0-31.17-3.15-45.9-9.44L78.26,1341.03c-59.65-25.47-88.93-95.57-65.27-156.27l244.11-626.46c23.6-60.56,91.65-129.45,151.69-153.57L1399.28,18.93c60.18-24.17,128.81,5.14,152.99,65.32l391.05,952.65c24.11,60.04,23.06,157.29-2.34,216.79l-275.4,625.05c-12.28,28.77-35.15,51.09-64.4,62.83-14.27,5.73-29.19,8.59-44.07,8.6ZM1442.96,11.48c-14.44,0-29.11,2.7-43.31,8.4L409.17,405.68c-59.81,24.02-127.6,92.65-151.11,152.99L13.94,1185.12c-23.46,60.2,5.58,129.71,64.72,154.96l1432.93,599.7c28.53,12.18,60.2,12.48,89.19.83s51.66-33.76,63.84-62.29l275.4-625.05c25.31-59.28,26.36-156.18,2.33-216L1551.32,84.63c-18.26-45.47-62.11-73.15-108.35-73.15Z"/>
  <path class="cls-22" d="M1525.71,1943.43c-16.36,0-32.63-3.48-47.92-10.41L82.18,1323.8c-58.67-26.6-87.7-97.68-64.73-158.46l237.09-627.28c22.92-60.65,90.51-128.4,150.66-151.03L1419.51,28.33c60.29-22.68,127.8,7.93,150.48,68.23l369.21,938.64c22.62,60.15,19.45,156.69-7.08,215.21l-299.67,624.45c-12.83,28.3-36.03,49.95-65.32,60.97-13.48,5.07-27.47,7.6-41.41,7.6ZM1460.51,21.89c-13.52,0-27.26,2.39-40.64,7.42L405.56,388.02c-59.9,22.53-127.21,90.01-150.04,150.42L18.43,1165.71c-22.78,60.28,6.01,130.77,64.18,157.14l1395.61,609.22c28.06,12.72,59.5,13.71,88.53,2.79,29.03-10.92,52.03-32.39,64.75-60.44l299.67-624.45c26.43-58.3,29.59-154.48,7.06-214.4L1569.01,96.93c-17.45-46.38-61.65-75.03-108.5-75.03Z"/>
  <path class="cls-39" d="M1494.32,1936.75c-17.12,0-34.12-3.83-49.94-11.43L86.1,1306.58c-57.69-27.73-86.47-99.79-64.18-160.65l230.06-628.09c22.25-60.74,89.37-127.35,149.64-148.49L1439.74,37.74c60.39-21.18,126.77,10.72,147.97,71.12l347.36,924.63c21.14,60.26,15.83,156.09-11.83,213.63l-323.94,623.85c-13.37,27.82-36.9,48.82-66.25,59.12-12.67,4.44-25.74,6.65-38.74,6.65ZM1478.05,32.26c-12.61,0-25.42,2.09-37.97,6.49L401.95,370.36c-59.99,21.04-126.82,87.37-148.98,147.85L22.92,1146.3c-22.11,60.36,6.44,131.83,63.63,159.32l1358.28,618.74c27.59,13.26,58.79,14.94,87.87,4.74,29.08-10.2,52.4-31.01,65.65-58.59l323.94-623.85c27.54-57.31,32.83-152.78,11.78-212.79L1586.7,109.22c-16.59-47.3-61.16-76.97-108.66-76.97Z"/>
  <path class="cls-27" d="M1463.13,1930.15c-17.59,0-35.44-4.03-52.16-12.54L90.01,1289.35c-56.7-28.85-85.25-101.9-63.64-162.83L249.41,497.61c21.57-60.83,88.24-126.3,148.61-145.95L1459.97,47.15c60.5-19.69,125.76,13.51,145.46,74.03l325.52,910.62c19.65,60.37,12.22,155.49-16.57,212.06l-348.2,623.26c-20.35,39.98-60.97,63.04-103.05,63.05ZM1495.59,42.56c-11.7,0-23.59,1.81-35.31,5.62L398.34,352.69c-60.08,19.56-126.44,84.73-147.91,145.28L27.4,1126.88c-21.43,60.44,6.87,132.88,63.09,161.49l1320.95,628.26c16.57,8.43,34.25,12.42,51.68,12.43,41.69,0,81.93-22.84,102.09-62.47l348.2-623.26c28.66-56.33,36.07-151.08,16.5-211.19L1604.4,121.52c-15.7-48.23-60.62-78.96-108.8-78.96Z"/>
  <path class="cls-23" d="M1431.56,1923.57c-18.69,0-37.16-4.6-54-13.67L93.93,1272.13c-55.72-29.98-84.02-104.01-63.09-165.02L246.84,477.38c20.89-60.91,87.1-125.25,147.59-143.42L1480.2,56.55c60.6-18.2,124.74,16.3,142.95,76.93l303.67,896.61c18.16,60.48,8.6,154.89-21.31,210.48l-372.47,622.66c-14.46,26.87-38.65,46.56-68.11,55.4-11,3.3-22.23,4.94-33.38,4.94ZM1513.14,52.81c-10.8,0-21.78,1.55-32.65,4.82L394.73,335.03c-60.17,18.07-126.05,82.09-146.84,142.71L31.89,1107.47c-20.76,60.52,7.3,133.94,62.55,163.67l1283.62,637.78c26.65,14.34,57.38,17.41,86.56,8.65,29.17-8.76,53.13-28.25,67.46-54.89l372.47-622.66c29.78-55.35,39.3-149.38,21.22-209.6l-303.68-896.61c-14.77-49.18-60.06-81.01-108.95-81.01Z"/>
  <path class="cls-14" d="M1400.18,1917.07c-19.5,0-38.71-5.02-56.04-14.87L97.85,1254.9c-54.74-31.11-82.79-106.11-62.54-167.2L244.28,457.15c20.22-61,85.97-124.2,146.57-140.88L1500.43,65.96c29.28-8.06,60.07-4.17,86.68,10.95,26.61,15.12,45.7,39.58,53.77,68.88l281.83,882.59c16.67,60.59,4.98,154.29-26.06,208.9l-396.73,622.06c-15,26.4-39.53,45.42-69.04,53.54-10.15,2.79-20.47,4.18-30.7,4.18ZM1530.66,62.99c-10.01,0-20.07,1.35-29.96,4.07L391.12,317.37c-60.25,16.58-125.66,79.45-145.77,140.14L36.37,1088.05c-20.08,60.6,7.73,135,62.01,165.85l1246.3,647.3c26.18,14.88,56.68,18.64,85.9,10.6,29.22-8.04,53.5-26.88,68.37-53.04l396.73-622.06c30.9-54.36,42.54-147.68,25.94-208l-281.83-882.6c-7.98-29.01-26.89-53.24-53.24-68.21-17.37-9.87-36.53-14.91-55.89-14.91Z"/>
  <path class="cls-9" d="M1369.06,1910.67c-19.91,0-40.05-5.21-58.33-16.18L101.76,1237.67c-53.76-32.24-81.56-108.22-62-169.38L241.71,436.93c19.54-61.09,84.83-123.15,145.55-138.34L1520.66,75.37c60.81-15.22,122.71,21.9,137.94,82.74l259.98,868.58c15.19,60.7,1.37,153.69-30.8,207.32l-421,621.46c-21.29,35.5-59.05,55.19-97.72,55.2ZM1548.23,73.11c-9.02,0-18.18,1.09-27.32,3.38L387.51,299.71c-60.34,15.1-125.27,76.81-144.7,137.57L40.86,1068.64c-19.41,60.68,8.16,136.06,61.47,168.03l1208.97,656.82c18.1,10.85,38.05,16.02,57.76,16.02,38.3,0,75.67-19.5,96.75-54.66l421-621.46c32.02-53.38,45.78-145.98,30.66-206.4l-259.99-868.59c-12.78-51.1-58.81-85.29-109.25-85.29Z"/>
  <path class="cls-1" d="M1337.71,1904.3c-20.7,0-41.64-5.65-60.39-17.51L105.67,1220.44c-52.78-33.37-80.33-110.33-61.45-171.57L239.15,416.7c18.86-61.18,83.7-122.1,144.53-135.8L1540.89,84.78c29.38-6.62,59.71-1.33,85.37,14.89,25.66,16.22,43.43,41.35,50.06,70.76l238.14,854.57c13.7,60.81-2.25,153.09-35.55,205.74l-445.26,620.86c-21.52,34.04-58.35,52.7-95.94,52.7ZM1565.77,83.17c-8.21,0-16.47.91-24.65,2.76L383.9,282.04c-60.43,13.61-124.88,74.18-143.63,135L45.35,1049.22c-18.74,60.77,8.6,137.12,60.93,170.21l1171.64,666.34c18.57,11.74,39.3,17.34,59.79,17.34,37.22,0,73.65-18.47,94.97-52.18l445.26-620.86c33.13-52.4,49.01-144.29,35.38-204.8l-238.14-854.58c-6.56-29.1-24.15-53.97-49.55-70.03-18.25-11.54-38.89-17.49-59.86-17.49Z"/>
  <path class="cls-16" d="M1306.1,1897.94c-22.04,0-43.53-6.44-62.19-18.87L109.59,1203.21c-51.79-34.5-79.1-112.43-60.9-173.75L236.58,396.47c18.19-61.27,82.56-121.06,143.51-133.27L1561.12,94.19c61.03-12.23,120.67,27.49,132.92,88.55l216.3,840.56c12.21,60.91-5.87,152.49-40.29,204.16l-469.53,620.26c-16.64,24.98-42.15,42.03-71.82,47.97-7.53,1.51-15.1,2.26-22.6,2.26ZM1583.32,93.17c-7.26,0-14.61.71-22,2.19L380.29,264.38c-60.52,12.13-124.49,71.54-142.56,132.43L49.83,1029.81c-18.06,60.85,9.03,138.18,60.39,172.4l1134.32,675.86c24.77,16.5,54.56,22.33,83.92,16.45,29.36-5.88,54.6-22.75,71.08-47.49l469.53-620.26c34.25-51.42,52.25-142.59,40.1-203.21l-216.3-840.57c-10.63-53.04-57.41-89.81-109.55-89.81Z"/>
  <path class="cls-35" d="M1274.75,1891.69c-22.93,0-45.2-6.96-64.26-20.33L113.5,1185.98c-50.81-35.63-77.87-114.54-60.35-175.93L234.02,376.24c17.51-61.36,81.43-120.01,142.49-130.73L1581.35,103.6c29.48-5.18,59.34,1.51,84.05,18.83,24.7,17.32,41.17,43.12,46.35,72.62l194.45,826.54c10.72,61.02-9.49,151.89-45.04,202.58l-493.79,619.65c-17.18,24.51-43.03,40.89-72.75,46.11-6.64,1.17-13.29,1.74-19.88,1.74ZM1600.87,103.11c-6.42,0-12.89.56-19.34,1.69L376.68,246.72c-60.61,10.65-124.1,68.9-141.49,129.86L54.32,1010.39c-17.39,60.93,9.46,139.25,59.85,174.58l1096.99,685.38c24.3,17.04,53.86,23.57,83.26,18.4,29.4-5.16,54.97-21.37,71.99-45.64l493.79-619.65c35.37-50.44,55.49-140.9,44.82-201.61l-194.46-826.56c-5.13-29.2-21.41-54.71-45.86-71.85-19.04-13.35-41.18-20.32-63.84-20.32Z"/>
  <path class="cls-18" d="M1243.41,1885.51c-23.84,0-46.91-7.52-66.34-21.85L117.41,1168.75c-49.82-36.75-76.64-116.64-59.8-178.11L231.45,356.02c16.83-61.45,80.3-118.96,141.47-128.2l1228.67-114.82c61.24-9.25,118.63,33.08,127.9,94.36l172.61,812.53c9.23,61.13-13.11,151.28-49.79,201l-518.05,619.05c-17.73,24.03-43.9,39.76-73.68,44.26-5.74.87-11.47,1.29-17.16,1.29ZM1618.4,112.98c-5.5,0-11.06.41-16.66,1.26L373.07,229.05c-60.7,9.16-123.71,66.27-140.43,127.29L58.81,990.97c-16.71,61.01,9.9,140.31,59.31,176.76l1059.67,694.9c23.83,17.57,53.15,24.8,82.6,20.35,29.45-4.45,55.34-20,72.89-43.8l518.05-619.05c36.49-49.46,58.72-139.2,49.54-200.02l-172.61-812.55c-8.3-55.01-55.83-94.59-109.86-94.59Z"/>
  <path class="cls-25" d="M1212.34,1879.45c-24.04,0-48.25-7.67-68.67-23.51L121.32,1151.52c-48.84-37.88-75.4-118.75-59.25-180.29L228.89,335.79c16.16-61.54,79.16-117.91,140.45-125.66l1252.48-87.72c29.59-3.74,58.98,4.35,82.74,22.78,23.75,18.42,38.9,44.88,42.64,74.49l150.76,798.52c7.74,61.24-16.73,150.68-54.54,199.42l-542.32,618.45c-22.07,28.46-55.26,43.37-88.78,43.38ZM1635.94,122.78c-4.65,0-9.32.29-14,.88L369.46,211.39c-60.79,7.68-123.32,63.63-139.35,124.72L63.29,971.56c-16.04,61.09,10.33,141.37,58.77,178.95l1022.34,704.42c20.2,15.67,44.16,23.26,67.93,23.26,33.15,0,65.96-14.75,87.81-42.91l542.32-618.45c37.61-48.48,61.96-137.51,54.26-198.42l-150.77-798.54c-3.7-29.29-18.68-55.45-42.17-73.67-19.74-15.31-43.41-23.4-67.85-23.4Z"/>
  <path class="cls-19" d="M1180.77,1873.34c-25.74,0-50.42-8.72-70.52-25.1L125.23,1134.29c-47.85-39.01-74.17-120.85-58.7-182.46L226.32,315.57c15.48-61.64,78.03-116.87,139.43-123.12l1276.3-60.62c29.64-3.02,58.8,5.77,82.09,24.75,23.28,18.98,37.76,45.76,40.79,75.43l128.92,784.51c6.25,61.34-20.35,150.08-59.28,197.84l-566.58,617.85c-18.82,23.09-45.66,37.5-75.54,40.54-3.91.4-7.8.59-11.67.59ZM1653.47,132.53c-3.76,0-7.53.19-11.32.58l-1276.3,60.62c-60.88,6.2-122.93,61-138.29,122.16L67.78,952.14c-15.36,61.18,10.76,142.43,58.24,181.13l985.02,713.94c22.88,18.65,51.74,27.26,81.28,24.25,29.54-3.01,56.07-17.25,74.7-40.11l566.58-617.85c38.72-47.51,65.19-135.82,58.98-196.83l-128.92-784.53c-2.99-29.33-17.31-55.82-40.32-74.58-20.05-16.34-44.5-25.04-69.86-25.04Z"/>
  <path class="cls-4" d="M1149.47,1867.35c-26.73,0-52.24-9.36-72.64-26.83L129.14,1117.06c-46.87-40.13-72.94-122.95-58.15-184.64L223.76,295.34c14.8-61.73,76.9-115.82,138.42-120.58l1300.11-33.52c61.59-4.76,115.58,41.48,120.37,103.08l107.08,770.5c4.76,61.45-23.97,149.47-64.03,196.25l-590.84,617.24c-19.37,22.62-46.54,36.37-76.47,38.69-2.98.23-5.95.35-8.91.35ZM1670.98,142.2c-2.86,0-5.73.11-8.63.33l-1300.11,33.52c-60.97,4.72-122.54,58.37-137.22,119.59L72.26,932.73c-14.69,61.26,11.19,143.5,57.7,183.32l947.69,723.46c22.41,19.19,51.03,28.48,80.62,26.19,29.59-2.29,56.44-15.88,75.61-38.26l590.84-617.24c39.84-46.53,68.43-134.13,63.7-195.24l-107.08-770.52c-4.49-58.01-53.13-102.24-110.37-102.24Z"/>
  <path class="cls-11" d="M1118.18,1861.43c-27.76,0-54.1-10.04-74.76-28.62L133.05,1099.83c-45.88-41.26-71.7-125.05-57.59-186.81L221.19,275.12c14.12-61.82,75.76-114.78,137.4-118.05l1323.92-6.42c29.76-1.58,58.45,8.61,80.78,28.69,22.33,20.08,35.49,47.53,37.08,77.3l85.23,756.49c3.27,61.55-27.59,148.87-68.78,194.67l-615.11,616.64c-19.92,22.15-47.41,35.24-77.4,36.83-2.05.11-4.09.16-6.13.16ZM1688.49,151.81c-1.97,0-3.95.05-5.94.16l-1323.92,6.42c-61.06,3.24-122.15,55.73-136.15,117.02L76.75,913.31c-14.01,61.34,11.63,144.56,57.16,185.51l910.37,732.99c21.94,19.73,50.32,29.71,79.96,28.14,29.64-1.57,56.81-14.5,76.51-36.42l615.11-616.64c40.96-45.55,71.67-132.44,68.42-193.65l-85.24-756.51c-1.56-29.43-14.57-56.56-36.64-76.4-20.58-18.5-46.63-28.51-73.91-28.51Z"/>
  <path class="cls-13" d="M1087,1855.66c-27.65,0-55.35-10.13-77-30.56L136.96,1082.59c-44.89-42.38-70.47-127.15-57.04-188.99L218.63,254.89c13.45-61.92,74.63-113.73,136.39-115.51l1347.74,20.68c61.8-1.78,113.55,47.08,115.34,108.9l63.39,742.48c1.77,61.66-31.21,148.26-73.53,193.08l-639.37,616.04c-22.02,23.33-51.77,35.1-81.58,35.1ZM355.02,140.73c-61.15,1.76-121.75,53.1-135.08,114.45L81.24,893.89c-13.34,61.43,12.06,145.63,56.62,187.7l873.04,742.51c21.4,20.2,48.78,30.21,76.1,30.21,29.46,0,58.85-11.64,80.62-34.7l639.37-616.04c42.08-44.58,74.91-130.75,73.14-192.06l-63.39-742.5c-1.76-61.09-52.9-109.36-113.99-107.61l-1347.74-20.68Z"/>
  <path class="cls-5" d="M1055.64,1849.79c-29.9,0-57.95-11.5-79.06-32.41L140.87,1065.35c-43.9-43.5-69.23-129.25-56.48-191.16L216.06,234.67c12.77-62.01,73.49-112.69,135.37-112.97l1371.55,47.78c29.82-.15,58.09,11.45,79.47,32.64,21.37,21.18,33.22,49.3,33.36,79.17l41.55,728.47c.28,61.76-34.83,147.65-78.28,191.49l-663.63,615.43c-21.01,21.21-49.17,32.98-79.27,33.11-.18,0-.36,0-.53,0ZM351.41,123.06c-61.24.28-121.36,50.47-134.01,111.88L85.72,874.47c-12.67,61.51,12.49,146.69,56.08,189.89l835.72,752.03c20.99,20.8,48.9,32.15,78.64,32.03,29.73-.14,57.54-11.76,78.32-32.73l663.63-615.43c43.21-43.6,78.14-129.06,77.86-190.47l-41.55-728.49c-.14-29.52-11.84-57.3-32.96-78.23-20.99-20.8-48.68-32.24-78.01-32.24-.17,0-.34,0-.52,0L351.41,123.06Z"/>
  <path class="cls-7" d="M1024.39,1844.08c-.76,0-1.52,0-2.28-.02-30.15-.59-58.18-12.8-78.94-34.38L144.77,1048.12c-42.92-44.63-68-131.34-55.93-193.33L213.5,214.44c12.09-62.11,72.37-111.64,134.35-110.44l1395.36,74.87c29.91.58,57.91,12.88,78.81,34.61,20.9,21.73,32.09,50.18,31.51,80.11l19.7,714.46c-1.21,61.86-38.46,147.04-83.03,189.91l-687.89,614.83c-21.02,20.21-48.62,31.28-77.92,31.28ZM345.6,105.37c-60.55,0-118.91,48.6-130.74,109.33l-124.65,640.35c-11.99,61.59,12.93,147.76,55.55,192.08l798.4,761.55c20.52,21.34,48.21,33.39,77.98,33.98,29.76.57,57.91-10.39,79.23-30.88l687.89-614.83c44.33-42.63,81.38-127.37,82.58-188.88l-19.7-714.47v-.02c.58-29.57-10.47-57.67-31.12-79.14-20.64-21.47-48.3-33.61-77.86-34.18L347.8,105.4c-.73-.01-1.47-.02-2.2-.02Z"/>
  <path class="cls-28" d="M993.12,1838.43c-1.69,0-3.38-.04-5.08-.11-30.2-1.32-58-14.23-78.28-36.36L148.68,1030.88c-41.93-45.75-66.76-133.44-55.37-195.5L210.93,194.22c11.41-62.2,71.24-110.6,133.34-107.9l1419.17,101.97c62.14,2.71,110.51,55.48,107.81,117.63l-2.14,700.46c-2.7,61.96-42.08,146.43-87.78,188.32l-712.15,614.22c-20.87,19.13-47.72,29.51-76.06,29.51ZM339.27,87.62c-59.63,0-115.96,46.96-126.95,106.85l-117.62,641.16c-11.32,61.68,13.36,148.83,55.01,194.27l761.08,771.08c20.04,21.87,47.5,34.62,77.32,35.92,29.82,1.29,58.28-9.01,80.13-29.04l712.15-614.22c45.45-41.65,84.62-125.68,87.31-187.29l2.14-700.47c2.67-61.38-45.09-113.5-106.47-116.18L344.19,87.73c-1.64-.07-3.28-.11-4.92-.11Z"/>
  <path class="cls-34" d="M961.67,1832.92c-31.56,0-62.97-13.09-85.32-38.68L152.58,1013.64c-40.94-46.87-65.52-135.53-54.82-197.66L208.37,173.99c10.73-62.3,70.09-109.56,132.33-105.36l1442.98,129.07c62.25,4.2,109.49,58.28,105.29,120.55l-23.98,686.45c-4.19,62.06-45.7,145.82-92.53,186.72l-736.41,613.62c-21.41,18.71-47.95,27.88-74.38,27.88ZM332.96,69.81c-58.66,0-113,45.39-123.18,104.43l-110.6,641.98c-10.64,61.76,13.8,149.89,54.47,196.46l723.76,780.6c22.07,25.27,53.09,38.2,84.26,38.2,26.1,0,52.29-9.06,73.44-27.54l736.41-613.62c46.57-40.68,87.86-123.99,92.03-185.71l23.98-686.46c4.15-61.48-42.49-114.88-103.97-119.03L340.58,70.06c-2.54-.17-5.09-.26-7.62-.26Z"/>
  <path class="cls-42" d="M930.54,1827.32c-3.53,0-7.07-.16-10.63-.49-30.31-2.77-57.64-17.09-76.98-40.31L156.49,996.4c-39.95-47.98-64.28-137.62-54.26-199.83L205.8,153.77c10.05-62.4,68.96-108.52,131.31-102.83l1466.79,156.17c30.08,2.75,57.38,17.14,76.85,40.53,19.47,23.39,28.68,52.83,25.93,82.92l-45.83,672.44c-5.68,62.16-49.32,145.2-97.28,185.13l-760.67,613.01c-20.49,17.06-45.86,26.17-72.37,26.17ZM326.65,51.92c-57.65,0-110.04,43.88-119.42,102.08l-103.57,642.8c-9.97,61.85,14.23,150.96,53.93,198.65l686.44,790.13c19.1,22.94,46.08,37.07,76,39.8,29.92,2.74,59.02-6.27,81.94-25.36l760.67-613.01c47.69-39.71,91.1-122.3,96.75-184.12l45.83-672.45c2.71-29.71-6.38-58.78-25.6-81.87-19.22-23.09-46.17-37.3-75.87-40.01L336.97,52.39c-3.45-.32-6.89-.47-10.32-.47Z"/>
  <path class="cls-24" d="M899.23,1821.87c-4.44,0-8.91-.26-13.39-.77-30.36-3.5-57.46-18.51-76.32-42.29L160.39,979.15c-38.96-49.1-63.05-139.71-53.7-201.99L203.23,133.55c9.37-62.49,67.82-107.49,130.3-100.29l1490.6,183.27c30.14,3.47,57.2,18.57,76.19,42.51,18.99,23.94,27.54,53.72,24.07,83.87l-67.67,658.43c-7.17,62.26-52.94,144.59-102.03,183.53l-784.93,612.41c-20.26,16.07-44.91,24.59-70.54,24.59ZM320.37,33.98c-56.61,0-107.07,42.42-115.67,99.79l-96.54,643.61c-9.29,61.93,14.66,152.03,53.39,200.85l649.12,799.66c38.59,48.64,109.56,56.82,158.19,18.23l784.93-612.41c48.82-38.73,94.34-120.62,101.47-182.53l67.67-658.44c3.43-29.75-5.01-59.15-23.76-82.78-18.75-23.63-45.46-38.53-75.21-41.96L333.36,34.73c-4.35-.5-8.69-.75-12.99-.75Z"/>
  <path class="cls-30" d="M867.65,1816.54c-34.72,0-69.05-15.67-91.56-45.44L164.3,961.91c-37.97-50.22-61.81-141.8-53.15-204.15L200.67,113.32c4.19-30.2,19.99-57.02,44.48-75.54s54.61-26.4,84.8-22.21l1514.41,210.36c30.2,4.19,57.02,19.99,75.54,44.48s26.4,54.61,22.21,84.8l-89.52,644.43c-8.66,62.35-56.56,143.97-106.78,181.94l-809.19,611.8c-20.64,15.6-44.91,23.14-68.98,23.14ZM314.1,15.98c-24.41,0-48.12,7.94-68.05,23-24.17,18.27-39.76,44.75-43.9,74.55l-89.52,644.43c-8.61,62.01,15.1,153.1,52.86,203.04l611.8,809.19c37.61,49.75,108.69,59.62,158.44,22.01l809.19-611.8c49.94-37.76,97.58-118.93,106.2-180.95l89.52-644.43c4.14-29.8-3.65-59.52-21.92-83.69-18.27-24.17-44.75-39.76-74.55-43.9L329.75,17.06c-5.23-.73-10.45-1.09-15.65-1.09Z"/>
  <path class="cls-40" d="M874.22,1815.98c-35.49,0-70.74-15.82-93.75-45.69L163.22,969.05c-38.31-49.73-61.5-140.44-51.7-202.22L221.53,116.14c9.83-61.99,68.65-105.93,131.11-97.93l1473.76,198.08c30.13,3.86,57.04,19.31,75.75,43.52,18.72,24.21,26.9,54.14,23.04,84.28l-77.41,682.34c-7.97,62.25-55.63,142.7-106.26,179.34l-799.19,588.33c-20.4,14.76-44.31,21.88-68.12,21.88ZM337.92,18.79c-56,0-105.95,41.24-114.89,97.6l-110.01,650.69c-9.74,61.41,13.32,151.6,51.41,201.04l617.24,801.25c37.95,49.26,109.62,59.81,159.77,23.51l799.19-588.33c50.34-36.43,97.73-116.41,105.65-178.29l77.41-682.34c3.81-29.75-4.27-59.28-22.73-83.16-18.47-23.89-45.01-39.14-74.75-42.94L352.44,19.72c-4.87-.62-9.72-.93-14.52-.93Z"/>
  <path class="cls-44" d="M880.86,1815.45c-36.28,0-72.49-15.97-96.03-45.95L162.14,976.19c-38.65-49.24-61.19-139.08-50.26-200.28L242.39,118.96c10.97-61.39,70.6-105.41,132.93-98.12l1433.11,185.8c30.07,3.52,57.06,18.63,75.97,42.56,18.91,23.93,27.39,53.67,23.87,83.75l-65.31,720.25c-7.27,62.14-54.7,141.42-105.74,176.74l-789.19,564.86c-20.13,13.93-43.67,20.63-67.17,20.64ZM361.75,21.59c-56.47,0-107.81,41.45-117.85,97.65L113.4,776.19c-10.86,60.81,11.55,150.1,49.96,199.04l622.69,793.31c38.28,48.77,110.55,59.99,161.1,25.01l789.19-564.86c50.73-35.11,97.87-113.9,105.09-175.64l65.31-720.25c3.47-29.69-4.89-59.03-23.55-82.63-18.66-23.6-45.28-38.51-74.95-41.98L375.12,22.37c-4.48-.52-8.95-.78-13.38-.78Z"/>
  <path class="cls-43" d="M887.58,1814.93c-37.1,0-74.31-16.13-98.39-46.23L161.06,983.33c-38.99-48.75-60.89-137.73-48.82-198.35L263.25,121.78c12.1-60.79,72.55-104.9,134.75-98.31l1392.45,173.52c62.22,6.59,107.49,62.59,100.89,124.82l-53.21,758.17c-6.57,62.04-53.77,140.14-105.22,174.14l-779.19,541.4c-19.84,13.11-42.98,19.41-66.14,19.41ZM385.61,24.39c-56.92,0-109.67,41.67-120.83,97.72L113.77,785.31c-11.98,60.2,9.77,148.61,48.51,197.04l628.13,785.37c23.77,29.72,60.53,45.66,97.16,45.66,22.87,0,45.69-6.21,65.27-19.15l779.18-541.4c51.12-33.78,98.01-111.38,104.54-172.98l53.21-758.17c6.51-61.4-38.14-116.63-99.51-123.13L397.81,25.03c-4.08-.43-8.16-.64-12.21-.64Z"/>
  <path class="cls-33" d="M894.39,1814.43c-37.94,0-76.2-16.31-100.83-46.53L159.98,990.47c-39.33-48.26-60.58-136.37-47.37-196.41L284.11,124.6c13.24-60.19,74.5-104.38,136.56-98.49l1351.8,161.24c62.09,5.89,107.83,61.22,101.94,123.33l-41.1,796.08c-5.88,61.93-52.84,138.86-104.7,171.54l-769.18,517.93c-19.53,12.31-42.22,18.2-65.03,18.2ZM409.49,27.17c-57.35,0-111.55,41.91-123.84,97.8L114.15,794.42c-13.11,59.6,8,147.11,47.06,195.04l633.58,777.43c24.33,29.86,62.13,45.96,99.59,45.97,22.51,0,44.9-5.82,64.17-17.96l769.18-517.93c51.52-32.46,98.16-108.86,103.99-170.33l41.1-796.08c5.81-61.28-39.28-115.83-100.53-121.64L420.5,27.69c-3.68-.35-7.35-.52-11.01-.52Z"/>
  <path class="cls-2" d="M901.29,1813.96c-38.8,0-78.16-16.5-103.37-46.86L158.9,997.61c-39.67-47.77-60.27-135.02-45.93-194.48L304.97,127.42c14.37-59.58,76.45-103.86,138.38-98.68l1311.15,148.95c61.97,5.19,108.18,59.85,102.99,121.84l-29,834c-5.18,61.82-51.91,137.59-104.19,168.94l-759.18,494.46c-19.19,11.51-41.41,17.02-63.82,17.02ZM433.4,29.94c-57.78,0-113.44,42.16-126.88,97.89L114.53,803.54c-14.23,59,6.23,145.61,45.61,193.04l639.02,769.49c39.28,47.31,113.34,60.55,165.1,29.5l759.18-494.46c51.91-31.14,98.3-106.34,103.43-167.67l29-834c5.12-61.15-40.43-115.03-101.54-120.15L443.19,30.34c-3.26-.27-6.53-.41-9.79-.41Z"/>
  <path class="cls-36" d="M908.29,1813.5c-39.68,0-80.18-16.7-105.99-47.2h0L157.83,1004.75c-40.01-47.29-59.97-133.66-44.49-192.55L325.83,130.24c15.5-58.98,78.4-103.35,140.2-98.86l1270.49,136.67c29.82,2.16,57.12,15.91,76.83,38.71,19.71,22.8,29.38,51.79,27.21,81.64l-16.9,871.91c-4.48,61.71-50.98,136.31-103.67,166.34l-749.18,471c-18.83,10.73-40.55,15.85-62.52,15.85ZM457.33,32.69c-58.18,0-115.33,42.42-129.94,98L114.91,812.66c-15.35,58.4,4.46,144.11,44.17,191.04l644.47,761.55c25.5,30.14,65.54,46.64,104.73,46.65,21.69,0,43.12-5.05,61.7-15.64l749.18-471c52.3-29.81,98.44-103.83,102.88-165.01l16.9-871.91c2.14-29.46-7.39-58.03-26.81-80.5-19.43-22.47-46.33-36.02-75.74-38.16L465.88,33c-2.85-.21-5.7-.31-8.54-.31Z"/>
  <path class="cls-42" d="M915.38,1813.07c-40.58,0-82.29-16.92-108.72-47.57L156.75,1011.89c-40.35-46.8-59.66-132.31-43.04-190.61L346.69,133.06c16.64-58.38,80.35-102.84,142.02-99.05l1229.84,124.39c29.76,1.83,57.13,15.23,77.04,37.75,19.91,22.52,29.87,51.32,28.04,81.12l-4.8,909.83c-3.78,61.6-50.05,135.03-103.15,163.73l-739.18,447.53c-18.43,9.97-39.62,14.71-61.11,14.71ZM481.29,35.43c-58.56,0-117.23,42.69-133.03,98.12L115.28,821.77c-16.47,57.8,2.69,142.62,42.72,189.04l649.91,753.61c26.12,30.3,67.35,47.02,107.45,47.02,21.23,0,42.13-4.68,60.32-14.52l739.18-447.53c52.69-28.49,98.58-101.31,102.32-162.35l4.8-909.83c1.8-29.4-8.01-57.78-27.63-79.97s-46.59-35.4-75.94-37.2L488.57,35.66c-2.42-.15-4.85-.22-7.27-.22Z"/>
  <path class="cls-12" d="M922.58,1812.67c-41.52,0-84.48-17.16-111.55-47.97h0S155.67,1019.04,155.67,1019.04c-40.69-46.31-59.35-130.95-41.6-188.68L367.55,135.88c17.77-57.79,82.32-102.32,143.83-99.24l1189.19,112.11c29.7,1.49,57.15,14.55,77.26,36.79,20.11,22.23,30.37,50.85,28.88,80.59l7.31,947.75c-3.08,61.49-49.12,133.75-102.64,161.13l-729.18,424.07c-18.01,9.21-38.63,13.6-59.61,13.6ZM505.28,38.16c-58.93,0-119.15,42.98-136.14,98.25L115.66,830.88c-17.59,57.2.92,141.12,41.27,187.05l655.36,745.67c26.77,30.46,69.25,47.42,110.27,47.42,20.72,0,41.06-4.32,58.83-13.42l729.18-424.07c53.08-27.16,98.71-98.79,101.77-159.7l-7.31-947.75c1.47-29.34-8.63-57.53-28.44-79.43-19.81-21.9-46.85-34.77-76.14-36.24L511.26,38.31c-1.99-.1-3.99-.15-5.98-.15Z"/>
  <path class="cls-3" d="M929.89,1812.29c-42.47,0-86.75-17.4-114.49-48.39L154.59,1026.18c-41.04-45.82-59.05-129.6-40.15-186.75L388.41,138.7c18.9-57.19,84.28-101.81,145.64-99.42l1148.53,99.83c29.64,1.15,57.16,13.87,77.48,35.82,20.31,21.95,30.86,50.38,29.71,80.06l19.41,985.67c-2.38,61.38-48.19,132.47-102.12,158.52l-719.18,400.6c-17.55,8.48-37.56,12.51-57.99,12.51ZM529.29,40.88c-59.27,0-121.06,43.28-139.28,98.4L116.03,840c-18.71,56.6-.85,139.63,39.82,185.05l660.8,737.73c40.62,45.36,117.08,61.29,170.44,35.5l719.18-400.6c53.47-25.84,98.85-96.27,101.21-157.04l-19.41-985.67c1.13-29.27-9.26-57.27-29.26-78.89-20-21.62-47.11-34.15-76.34-35.28L533.95,40.97c-1.55-.06-3.11-.09-4.66-.09Z"/>
  <path class="cls-8" d="M937.3,1811.94c-43.45,0-89.1-17.67-117.54-48.84h0S153.51,1033.32,153.51,1033.32c-41.38-45.34-58.74-128.25-38.71-184.82L409.27,141.52c20.04-56.59,86.19-101.29,147.46-99.61l1107.88,87.54c61.35,1.68,109.92,53,108.24,114.39l31.51,1023.59c-1.68,61.26-47.26,131.19-101.61,155.92l-709.18,377.14c-17.06,7.76-36.43,11.45-56.26,11.45ZM553.32,43.58c-59.59,0-122.98,43.59-142.45,98.56L116.41,849.11c-19.83,56-2.62,138.13,38.38,183.05l666.24,729.79c40.95,44.87,118.01,61.47,171.78,37.01l709.18-377.14c53.86-24.51,98.99-93.75,100.65-154.38l-31.51-1023.59c1.66-60.5-46.17-111.02-106.61-112.68L556.64,43.63c-1.1-.03-2.21-.05-3.32-.05Z"/>
  <path class="cls-17" d="M944.84,1811.62c-44.44,0-91.55-17.97-120.71-49.32h0L152.44,1040.46c-41.72-44.85-58.44-126.9-37.26-182.89L430.13,144.34c21.17-55.99,88.1-100.78,149.27-99.8l1067.23,75.26c29.51.47,57.2,12.51,77.91,33.9,20.71,21.39,31.85,49.44,31.38,79l43.61,1061.51c-.98,61.15-46.33,129.91-101.1,153.31l-699.18,353.67c-16.53,7.07-35.23,10.42-54.41,10.42ZM577.38,46.27c-59.88,0-124.91,43.93-145.64,98.74L116.78,858.23c-20.95,55.4-4.39,136.64,36.93,181.05l671.69,721.85c28.85,31.01,75.46,48.79,119.39,48.79,18.95,0,37.4-3.31,53.72-10.28l699.18-353.67c54.24-23.19,99.12-91.24,100.09-151.72l-43.61-1061.51c.47-29.14-10.5-56.76-30.89-77.82-20.39-21.05-47.64-32.91-76.73-33.37L579.33,46.28c-.65-.01-1.3-.02-1.95-.02Z"/>
  <path class="cls-15" d="M952.49,1811.34c-45.46,0-94.09-18.28-124-49.83L151.36,1047.6c-42.07-44.36-58.14-125.54-35.82-180.96L451,147.17c22.23-55.22,89.67-99.99,150.51-99.99.19,0,.38,0,.57,0l1026.57,62.98c29.45.13,57.21,11.83,78.12,32.94,20.91,21.1,32.35,48.97,32.21,78.48l55.71,1099.43c-.28,61.04-45.4,128.63-100.58,150.71l-689.19,330.21c-15.97,6.39-33.95,9.42-52.44,9.42ZM601.46,48.94c-60.14,0-126.84,44.27-148.85,98.93L117.16,867.34c-22.07,54.8-6.16,135.14,35.48,179.05l677.13,713.91c29.6,31.21,77.72,49.3,122.67,49.31,18.27,0,36.01-2.99,51.78-9.3l689.19-330.21c54.63-21.86,99.25-88.72,99.53-149.06l-55.71-1099.43c.13-29.08-11.13-56.51-31.71-77.28-20.58-20.77-47.9-32.28-76.93-32.42L602.02,48.94c-.18,0-.38,0-.56,0Z"/>
  <path class="cls-37" d="M960.27,1811.09c-46.5,0-96.72-18.63-127.41-50.37L150.28,1054.74c-42.41-43.88-57.83-124.19-34.37-179.04L471.86,149.99c23.44-54.8,92.04-99.76,152.9-100.17l985.92,50.69c29.42-.2,57.23,11.15,78.34,31.97,21.11,20.82,32.85,48.5,33.05,77.95l67.82,1137.35c.42,60.93-44.47,127.35-100.07,148.1l-679.19,306.75c-15.37,5.74-32.59,8.46-50.35,8.46ZM624.72,51.6c-60.17.42-128.03,44.89-151.24,99.13L117.53,876.45c-23.18,54.2-7.92,133.65,34.03,177.05l682.58,705.97c41.96,43.41,120.82,62.03,175.8,41.51l679.19-306.75c55.01-20.54,99.38-86.2,98.97-146.4l-67.81-1137.35c-.2-29.01-11.75-56.25-32.52-76.74-20.77-20.49-48.15-31.68-77.13-31.46l-985.92-50.69Z"/>
  <path class="cls-26" d="M968.19,1810.87c-47.56,0-99.46-18.99-130.96-50.96L149.21,1061.89c-42.76-43.39-57.53-122.84-32.93-177.11L492.72,152.81c24.57-54.2,93.98-99.24,154.71-100.36l945.26,38.41c60.83-1.13,111.32,47.52,112.45,108.43l79.92,1175.28c1.12,60.82-43.54,126.07-99.56,145.49l-669.19,283.28c-14.73,5.11-31.15,7.53-48.12,7.53ZM647.41,54.25c-60.05,1.11-128.73,45.67-153.06,99.34L117.9,885.56c-24.3,53.61-9.69,132.15,32.59,175.06l688.02,698.03c31.18,31.64,82.57,50.44,129.61,50.45,16.77,0,32.98-2.39,47.53-7.44l669.19-283.28c55.39-19.21,99.51-83.68,98.4-143.73l-79.92-1175.28c-1.11-59.96-50.77-107.83-110.66-106.7l-945.26-38.41Z"/>
  <path class="cls-10" d="M976.23,1810.7c-48.62,0-102.29-19.39-134.63-51.58L148.13,1069.03c-43.1-42.9-57.22-121.49-31.48-175.18L513.59,155.63c25.7-53.61,95.93-98.73,156.52-100.55l904.6,26.13c60.73-1.83,111.68,46.15,113.5,106.94l92.02,1213.2c1.82,60.71-42.61,124.79-99.05,142.89l-659.2,259.82c-14.05,4.51-29.63,6.64-45.76,6.64ZM670.11,56.91c-59.93,1.8-129.44,46.46-154.89,99.55L118.28,894.68c-25.42,53.01-11.46,130.66,31.14,173.06l693.47,690.09c32.02,31.87,85.17,51.07,133.28,51.07,15.94,0,31.32-2.11,45.21-6.56l659.2-259.82c55.77-17.89,99.64-81.16,97.84-141.07l-92.02-1213.2c-1.8-59.83-51.9-107.01-111.68-105.21l-904.6-26.13Z"/>
  <path class="cls-45" d="M984.41,1810.56c-49.71,0-105.23-19.82-138.44-52.24L147.05,1076.17c-43.45-42.42-56.92-120.14-30.03-173.25L534.45,158.46c26.84-53.01,97.87-98.22,158.33-100.74l863.94,13.84c60.64-2.53,112.03,44.78,114.56,105.45l104.12,1251.12c2.52,60.6-41.68,123.51-98.54,140.28l-649.2,236.36c-13.33,3.93-28.02,5.79-43.25,5.79ZM692.8,59.57c-59.81,2.49-130.14,47.24-156.72,99.76L118.65,903.79c-26.53,52.41-13.22,129.17,29.69,171.06l698.91,682.15c32.9,32.11,87.89,51.74,137.08,51.74,15.06,0,29.58-1.84,42.75-5.73l649.2-236.36c56.15-16.56,99.76-78.65,97.27-138.41l-104.12-1251.12c-2.49-59.69-53.03-106.2-112.69-103.71l-863.94-13.84Z"/>
  <path class="cls-21" d="M992.73,1810.47c-50.79,0-108.27-20.28-142.39-52.95L145.98,1083.32c-43.8-41.93-56.62-118.79-28.59-171.33L555.31,161.28c27.97-52.42,99.82-97.71,160.14-100.93l823.29,1.56c29.16-1.56,57.31,8.43,79.22,28.12,21.91,19.69,34.83,46.62,36.39,75.83l116.23,1289.05c3.23,60.48-40.75,122.23-98.03,137.67l-639.21,212.9c-12.56,3.39-26.32,4.99-40.61,4.99ZM715.5,62.22c-59.69,3.19-130.84,48.03-158.56,99.97L119.03,912.9c-27.65,51.82-14.99,127.67,28.25,169.06l704.36,674.21c33.8,32.36,90.75,52.45,141.02,52.45,14.13,0,27.73-1.59,40.15-4.93l639.21-212.9c56.53-15.24,99.88-76.13,96.7-135.74l-116.23-1289.05c-1.53-28.75-14.24-55.22-35.78-74.58-21.54-19.36-49.21-29.17-77.92-27.64l-823.29-1.56Z"/>
  <path class="cls-46" d="M1001.19,1810.43c-51.88,0-111.42-20.78-146.49-53.71L144.9,1090.46c-44.15-41.44-56.32-117.44-27.14-169.4L576.18,164.1c29.1-51.83,101.76-97.2,161.95-101.11l782.62-10.72c29.11-1.9,57.33,7.75,79.44,27.16,22.11,19.41,35.33,46.15,37.23,75.3l128.33,1326.97c3.93,60.37-39.82,120.95-97.52,135.06l-629.22,189.44c-11.75,2.87-24.54,4.24-37.83,4.24ZM1527.91,53.93c-2.36,0-4.72.08-7.09.23l-782.62,10.72c-59.58,3.88-131.55,48.82-160.39,100.18L119.4,922.01c-28.77,51.22-16.75,126.18,26.8,167.07l709.8,666.27c43.64,40.97,125.52,62.96,182.52,49.02l629.22-189.44c56.9-13.92,100-73.61,96.13-133.08l-128.33-1326.97c-1.87-28.68-14.86-54.96-36.59-74.03-19.93-17.5-44.93-26.92-71.04-26.92Z"/>
  <path class="cls-32" d="M1009.79,1810.44c-52.97,0-114.67-21.32-150.72-54.51L143.83,1097.6c-44.49-40.96-56.02-116.09-25.69-167.47L597.04,166.93c30.24-51.23,103.71-96.69,163.76-101.3l741.96-23c29.05-2.23,57.36,7.07,79.67,26.19,22.31,19.12,35.83,45.68,38.06,74.77l140.43,1364.9c4.63,60.26-38.89,119.67-97.01,132.45l-619.23,165.98c-10.88,2.39-22.66,3.53-34.9,3.53ZM1511.21,44.21c-2.77,0-5.55.11-8.34.32l-741.96,23c-59.46,4.57-132.26,49.61-162.23,100.39L119.77,931.12c-29.88,50.63-18.51,124.69,25.35,165.07l715.25,658.33c43.98,40.48,126.46,63.15,183.87,50.53l619.23-165.98c57.27-12.59,100.12-71.09,95.56-130.42l-140.43-1364.9c-2.2-28.61-15.48-54.7-37.4-73.49-19.78-16.96-44.36-26.06-69.98-26.06Z"/>
  <path class="cls-20" d="M1018.54,1810.5c-54.05,0-118.02-21.91-155.1-55.37L142.75,1104.74c-44.84-40.47-55.72-114.74-24.24-165.55L617.91,169.75c31.37-50.64,105.65-96.18,165.57-101.49l701.3-35.29c29-2.57,57.39,6.39,79.9,25.23,22.51,18.84,36.32,45.21,38.9,74.24l152.53,1402.83c5.34,60.15-37.96,118.39-96.5,129.84l-609.24,142.52c-9.97,1.95-20.69,2.88-31.82,2.88ZM1494.5,34.48c-3.18,0-6.37.14-9.59.43l-701.3,35.29c-59.35,5.27-132.97,50.4-164.07,100.6L120.14,940.23c-31,50.04-20.28,123.2,23.9,163.07l720.69,650.39c36.75,33.17,100.16,54.88,153.71,54.88,11.03,0,21.63-.92,31.5-2.85l609.24-142.52c57.64-11.27,100.23-68.58,94.98-127.75l-152.53-1402.83c-4.96-55.92-52.05-98.16-107.15-98.16Z"/>
  <path class="cls-31" d="M1027.43,1810.62c-55.12,0-121.48-22.54-159.62-56.28L141.68,1111.89c-45.19-39.99-55.42-113.39-22.79-163.62L638.77,172.58c32.5-50.05,107.59-95.67,167.38-101.68l660.63-47.57c60.04-6.04,113.82,37.91,119.86,97.98l164.64,1440.75c6.04,60.04-37.02,117.11-96,127.22l-599.25,119.05c-9,1.54-18.62,2.28-28.6,2.28ZM1477.79,24.73c-3.59,0-7.2.18-10.84.55l-660.63,47.57c-59.24,5.96-133.68,51.18-165.91,100.81L120.52,949.34c-32.11,49.44-22.04,121.71,22.46,161.08l726.13,642.45c44.65,39.51,128.34,63.52,186.56,53.54l599.25-119.05c58-9.95,100.34-66.06,94.41-125.09L1584.69,121.51c-5.57-55.36-52.42-96.78-106.9-96.78Z"/>
  <path class="cls-6" d="M1036.45,1810.79c-56.16,0-125.04-23.22-164.27-57.25L140.6,1119.03c-45.54-39.5-55.12-112.04-21.34-161.69L659.63,175.4c33.64-49.46,109.54-95.16,169.19-101.87L1448.78,13.68c28.9-3.25,57.45,5.02,80.35,23.29,22.91,18.28,37.32,44.27,40.57,73.18l176.74,1478.68c6.74,59.93-36.09,115.83-95.49,124.61l-589.27,95.59c-7.99,1.18-16.46,1.75-25.24,1.75ZM1461.09,14.97c-4.02,0-8.05.23-12.1.68l-619.96,59.85c-59.14,6.65-134.4,51.97-167.76,101.02L120.89,958.45c-33.23,48.85-23.8,120.21,21.01,159.08l731.58,634.51c38.91,33.74,107.22,56.77,162.9,56.78,8.7,0,17.09-.56,25.01-1.73l589.27-95.59c58.37-8.63,100.45-63.55,93.83-122.43L1567.74,110.39c-3.2-28.4-17.34-53.92-39.84-71.87-19.29-15.39-42.65-23.55-66.82-23.55Z"/>
  <path class="cls-29" d="M1045.62,1811.03c-57.16,0-128.69-23.96-169.07-58.29L139.53,1126.17c-45.89-39.02-54.82-110.69-19.89-159.77l.81.58-.81-.58L680.5,178.23c34.77-48.87,111.48-94.65,171-102.06L1430.78,4.03c59.82-7.44,114.55,35.16,122,94.98l188.84,1516.61c7.45,59.82-35.16,114.55-94.98,122l-579.29,72.13c-6.92.86-14.21,1.28-21.73,1.28ZM1444.37,5.19c-4.41,0-8.86.27-13.34.83l-579.29,72.13c-59.03,7.35-135.12,52.76-169.61,101.24L121.26,967.56c-34.34,48.26-25.56,118.72,19.56,157.09l737.02,626.57c45.32,38.53,130.23,63.9,189.26,56.55l579.29-72.13c58.73-7.31,100.56-61.04,93.24-119.77L1550.8,99.26c-6.75-54.24-53.11-94.07-106.43-94.07Z"/>
</svg>