<?xml version="1.0" encoding="UTF-8"?>
<svg id="Layer_1" data-name="Layer 1" xmlns="http://www.w3.org/2000/svg" viewBox="0 0 1968.53 1958.12">
  <defs>
    <style>
      .cls-1 {
        stroke: #b9e0ee;
        stroke-width: 2.88px;
      }

      .cls-1, .cls-2, .cls-3, .cls-4, .cls-5, .cls-6, .cls-7, .cls-8, .cls-9, .cls-10, .cls-11, .cls-12, .cls-13, .cls-14, .cls-15, .cls-16, .cls-17, .cls-18, .cls-19, .cls-20, .cls-21, .cls-22, .cls-23, .cls-24, .cls-25, .cls-26, .cls-27, .cls-28, .cls-29, .cls-30, .cls-31, .cls-32, .cls-33, .cls-34, .cls-35, .cls-36, .cls-37, .cls-38, .cls-39, .cls-40, .cls-41, .cls-42, .cls-43, .cls-44, .cls-45, .cls-46, .cls-47 {
        fill: none;
      }

      .cls-1, .cls-2, .cls-3, .cls-4, .cls-5, .cls-6, .cls-7, .cls-8, .cls-9, .cls-10, .cls-11, .cls-12, .cls-13, .cls-15, .cls-16, .cls-17, .cls-18, .cls-19, .cls-20, .cls-21, .cls-22, .cls-23, .cls-24, .cls-25, .cls-26, .cls-27, .cls-28, .cls-29, .cls-30, .cls-31, .cls-32, .cls-33, .cls-34, .cls-35, .cls-36, .cls-37, .cls-39, .cls-40, .cls-41, .cls-42, .cls-43, .cls-44, .cls-45, .cls-46, .cls-47 {
        stroke-miterlimit: 10;
      }

      .cls-2 {
        stroke: #d1e6ee;
      }

      .cls-2, .cls-3, .cls-5, .cls-7, .cls-8, .cls-9, .cls-12, .cls-13, .cls-15, .cls-20, .cls-21, .cls-22, .cls-24, .cls-31, .cls-32, .cls-35, .cls-38, .cls-39, .cls-40, .cls-41, .cls-43, .cls-45, .cls-46 {
        stroke-width: 2.26px;
      }

      .cls-3 {
        stroke: #50c9f1;
      }

      .cls-4 {
        stroke: #cce5ee;
        stroke-width: 2.65px;
      }

      .cls-5 {
        stroke: #6bcff0;
      }

      .cls-6 {
        stroke: #bce1ee;
        stroke-width: 2.84px;
      }

      .cls-7 {
        stroke: #edeced;
      }

      .cls-8 {
        stroke: #c8e4ee;
      }

      .cls-9 {
        stroke: #a3dbef;
      }

      .cls-10 {
        stroke: #dde8ed;
        stroke-width: 2.45px;
      }

      .cls-11 {
        stroke: #d7e7ed;
        stroke-width: 2.52px;
      }

      .cls-12 {
        stroke: #46c6f1;
      }

      .cls-13 {
        stroke: #acddef;
      }

      .cls-14 {
        stroke: #eaebed;
        stroke-width: 2.29px;
      }

      .cls-14, .cls-38 {
        stroke-miterlimit: 10;
      }

      .cls-15 {
        stroke: #bfe2ee;
      }

      .cls-16 {
        stroke: #e2eaed;
        stroke-width: 2.39px;
      }

      .cls-17 {
        stroke: #bee2ee;
        stroke-width: 2.81px;
      }

      .cls-18 {
        stroke: #aedeee;
        stroke-width: 3.01px;
      }

      .cls-19 {
        stroke: #dfe9ed;
        stroke-width: 2.42px;
      }

      .cls-20 {
        stroke: #9ad9ef;
      }

      .cls-21 {
        stroke: #34c2f1;
      }

      .cls-22 {
        stroke: #90d7ef;
      }

      .cls-23 {
        stroke-width: 2.26px;
      }

      .cls-23, .cls-33 {
        stroke: #dae8ed;
      }

      .cls-24 {
        stroke: #87d5ef;
      }

      .cls-25 {
        stroke: #e8ebed;
        stroke-width: 2.32px;
      }

      .cls-26 {
        stroke: #c7e3ee;
        stroke-width: 2.71px;
      }

      .cls-27 {
        stroke: #d2e6ed;
        stroke-width: 2.58px;
      }

      .cls-28 {
        stroke: #b3dfee;
        stroke-width: 2.94px;
      }

      .cls-29 {
        stroke: #c1e2ee;
        stroke-width: 2.78px;
      }

      .cls-30 {
        stroke: #e5eaed;
        stroke-width: 2.35px;
      }

      .cls-31 {
        stroke: #75d1f0;
      }

      .cls-32 {
        stroke: #e4eaed;
      }

      .cls-33 {
        stroke-width: 2.48px;
      }

      .cls-34 {
        stroke: #d4e7ed;
        stroke-width: 2.55px;
      }

      .cls-35 {
        stroke: #3dc4f1;
      }

      .cls-36 {
        stroke: #c9e4ee;
        stroke-width: 2.68px;
      }

      .cls-37 {
        stroke: #cfe5ed;
        stroke-width: 2.62px;
      }

      .cls-38 {
        stroke: #21bef2;
      }

      .cls-39 {
        stroke: #b5dfee;
      }

      .cls-40 {
        stroke: #62cdf0;
      }

      .cls-41 {
        stroke: #7ed3f0;
      }

      .cls-42 {
        stroke: #b6e0ee;
        stroke-width: 2.91px;
      }

      .cls-43 {
        stroke: #2bc0f2;
      }

      .cls-44 {
        stroke: #b1dfee;
        stroke-width: 2.98px;
      }

      .cls-45 {
        stroke: #59cbf0;
      }

      .cls-46 {
        stroke: #18bcf2;
      }

      .cls-47 {
        stroke: #c4e3ee;
        stroke-width: 2.75px;
      }
    </style>
  </defs>
  <path class="cls-46" d="M1534.66,72.71c-25.49-59.67-95.17-87.64-154.84-62.15L413.16,423.46c-59.67,25.49-128.27,95.61-152.45,155.83L9.58,1204.93c-24.17,60.22,5.32,129.26,65.54,153.44l1470.26,590.18c60.22,24.17,129.26-5.32,153.44-65.54l251.14-625.64c24.17-60.22,23.1-158.31-2.39-217.98L1534.66,72.71Z"/>
  <path class="cls-38" d="M1553.3,85.38c-24.52-59.97-93.94-89.71-154.26-66.08L410.57,406.47c-60.33,23.63-128.93,92.35-152.46,152.72L14.1,1185.39c-23.52,60.37,6.11,130.27,65.85,155.34l1431.11,600.51c59.74,25.07,129.86-2.99,155.8-62.36l273.01-624.59c25.95-59.37,27.12-157.01,2.6-216.98L1553.3,85.38Z"/>
  <path class="cls-43" d="M1571.88,98.03c-23.51-60.27-92.58-91.75-153.5-69.97L407.85,389.45c-60.91,21.78-129.46,89.12-152.34,149.63L18.62,1165.85c-22.87,60.51,6.88,131.29,66.13,157.28l1392.07,610.76c59.24,25.99,130.35-.59,158.02-59.06l295.1-623.68c27.67-58.48,31.07-155.63,7.56-215.9L1571.88,98.03Z"/>
  <path class="cls-21" d="M1590.38,110.68c-22.46-60.56-91.11-93.78-152.54-73.82L405.01,372.4c-61.43,19.96-129.87,85.91-152.09,146.56L23.13,1146.33c-22.22,60.65,7.64,132.32,66.35,159.26l1353.13,620.91c58.71,26.94,130.73,1.89,160.06-55.66l317.41-622.89c29.33-57.55,34.94-154.19,12.48-214.75L1590.38,110.68Z"/>
  <path class="cls-35" d="M1608.8,123.32c-21.38-60.85-89.5-95.78-151.38-77.63L402.05,355.3c-61.89,18.15-130.16,82.74-151.71,143.53L27.64,1126.82c-21.56,60.79,8.38,133.36,66.52,161.27l1314.32,630.97c58.14,27.91,131.01,4.44,161.93-52.16l339.95-622.2c30.92-56.6,38.73-152.69,17.36-213.54L1608.8,123.32Z"/>
  <path class="cls-12" d="M1627.15,135.95c-20.24-61.13-87.76-97.74-150.04-81.36L398.98,338.16c-62.28,16.38-130.33,79.62-151.22,140.53L32.13,1107.32c-20.89,60.91,9.09,134.4,66.63,163.31l1275.63,640.93c57.54,28.91,131.17,7.06,163.63-48.56l362.72-621.61c32.45-55.62,42.44-151.14,22.2-212.27l-295.79-893.17Z"/>
  <path class="cls-3" d="M1645.42,148.57c-19.07-61.4-85.9-99.67-148.5-85.03L395.8,320.95c-62.61,14.64-130.38,76.55-150.61,137.58L36.63,1087.83c-20.23,61.03,9.78,135.46,66.68,165.4l1237.07,650.81c56.9,29.94,131.21,9.74,165.14-44.88l385.72-621.09c33.92-54.62,46.07-149.55,27.01-210.95l-272.82-878.54Z"/>
  <path class="cls-45" d="M1663.6,161.17c-17.85-61.67-83.9-101.55-146.78-88.62L392.52,303.69c-62.88,12.93-130.34,73.53-149.89,134.68L41.11,1068.35c-19.56,61.15,10.44,136.53,66.67,167.51l1198.66,660.58c56.23,30.99,131.13,12.48,166.45-41.13l408.96-620.62c35.32-53.61,49.62-147.92,31.78-209.59l-250.03-863.94Z"/>
  <path class="cls-40" d="M1681.7,173.74c-16.58-61.92-81.77-103.37-144.88-92.11L389.14,286.35c-63.1,11.26-130.19,70.58-149.07,131.84L45.6,1048.89c-18.89,61.25,11.07,137.6,66.58,169.66l1160.41,670.27c55.51,32.06,130.92,15.27,167.58-37.31l432.43-620.2c36.66-52.58,53.09-146.26,36.52-208.18l-227.41-849.39Z"/>
  <path class="cls-5" d="M1699.7,186.29c-15.26-62.16-79.51-105.14-142.79-95.51L385.66,268.95c-63.27,9.63-129.94,67.7-148.16,129.06L50.07,1029.43c-18.21,61.36,11.67,138.69,66.41,171.85l1122.31,679.87c54.74,33.16,130.57,18.12,168.5-33.43l456.14-619.81c37.94-51.55,56.49-144.58,41.23-206.73l-204.97-834.89Z"/>
  <path class="cls-31" d="M1717.62,198.8c-13.89-62.37-77.12-106.83-140.52-98.8L382.1,251.47c-63.4,8.04-129.61,64.89-147.15,126.34L54.55,1009.99c-17.54,61.45,12.24,139.78,66.17,174.06l1084.4,689.39c53.93,34.28,130.08,21.01,169.22-29.5l480.08-619.43c39.15-50.51,59.81-142.87,45.92-205.24l-182.71-820.46Z"/>
  <path class="cls-41" d="M1735.44,211.28c-12.47-62.57-74.61-108.46-138.08-101.97L378.46,233.91c-63.47,6.49-129.2,62.15-146.05,123.68L59.02,990.56c-16.86,61.54,12.77,140.87,65.83,176.3l1046.66,698.82c53.06,35.43,129.45,23.94,169.74-25.53l504.24-619.06c40.29-49.47,63.06-141.14,50.59-203.72l-160.64-806.1Z"/>
  <path class="cls-24" d="M1753.17,223.72c-11-62.75-71.96-110.01-135.47-105.03L374.75,216.26c-63.51,4.99-128.71,59.48-144.88,121.1L63.48,971.15c-16.18,61.62,13.25,141.97,65.4,178.57l1009.13,708.18c52.15,36.59,128.67,26.91,170.05-21.53l528.62-618.68c41.38-48.43,66.25-139.4,55.25-202.15l-138.76-791.82Z"/>
  <path class="cls-22" d="M1770.8,236.11c-9.47-62.9-69.18-111.47-132.69-107.95L370.96,198.54c-63.51,3.53-128.15,56.89-143.64,118.58L67.94,951.74c-15.49,61.69,13.7,143.08,64.87,180.86l971.79,717.47c51.17,37.78,127.74,29.91,170.16-17.5l553.21-618.28c42.41-47.4,69.37-137.65,59.9-200.55l-117.08-777.64Z"/>
  <path class="cls-20" d="M1788.33,248.44c-7.89-63.02-66.28-112.85-129.75-110.73l-1291.46,43.03c-63.47,2.11-127.52,54.37-142.33,116.13L72.4,932.35c-14.81,61.76,14.1,144.18,64.24,183.16l934.68,726.7c50.14,38.98,126.66,32.93,170.05-13.45l578.01-617.85c43.39-46.38,72.43-135.88,64.54-198.9l-95.59-763.57Z"/>
  <path class="cls-9" d="M1805.76,260.71c-6.25-63.1-63.25-114.12-126.65-113.37l-1315.9,15.51c-63.41.75-126.84,51.94-140.96,113.75L76.86,912.98c-14.12,61.82,14.45,145.28,63.49,185.48l897.79,735.87c49.04,40.2,125.42,35.97,169.72-9.39l603.01-617.39c44.31-45.36,75.44-134.11,69.19-197.21l-74.3-749.63Z"/>
  <path class="cls-13" d="M1823.09,272.91c-4.57-63.15-60.1-115.28-123.41-115.86l-1340.44-12.17c-63.31-.57-126.1,49.58-139.54,111.44L81.32,893.61c-13.44,61.87,14.75,146.38,62.63,187.8l861.14,745.01c47.88,41.42,124.01,39.02,169.19-5.34l628.19-616.89c45.17-44.36,78.4-132.32,73.83-195.47l-53.2-735.82Z"/>
  <path class="cls-39" d="M1840.33,285.04c-2.82-63.15-56.83-116.33-120.02-118.19L355.24,126.83c-63.19-1.85-125.31,47.29-138.06,109.2L85.77,874.26c-12.75,61.91,14.99,147.47,61.64,190.13l824.74,754.13c46.65,42.66,122.45,42.07,168.44-1.3l653.56-616.34c45.99-43.37,81.31-130.52,78.48-193.67l-32.3-722.17Z"/>
  <path class="cls-15" d="M1857.48,297.08c-1.03-63.11-53.45-117.26-116.49-120.35L351.19,108.7c-63.04-3.09-124.48,45.08-136.54,107.03l-124.43,639.19c-12.06,61.95,15.18,148.55,60.53,192.45l788.59,763.23c45.35,43.89,120.71,45.12,167.47,2.73l679.11-615.73c46.76-42.39,84.17-128.71,83.14-191.82l-11.58-708.69Z"/>
  <path class="cls-8" d="M1874.53,309.02c.81-63.01-49.96-118.06-112.84-122.34L347.1,90.49c-62.87-4.28-123.61,42.94-134.98,104.92l-117.45,640.18c-11.37,61.98,15.31,149.62,59.29,194.75l752.7,772.33c43.98,45.13,118.81,48.15,166.29,6.72l704.82-615.07c47.48-41.43,86.99-126.89,87.8-189.9l8.95-695.4Z"/>
  <path class="cls-2" d="M1891.5,320.86c2.7-62.86-46.38-118.73-109.06-124.15L342.98,72.21c-62.68-5.42-122.71,40.87-133.39,102.88l-110.46,641.2c-10.68,62,15.38,150.66,57.92,197.02l717.07,781.46c42.54,46.36,116.74,51.16,164.9,10.67l730.69-614.35c48.16-40.49,89.77-125.05,92.47-187.91l29.32-682.32Z"/>
  <path class="cls-23" d="M1908.39,332.6c4.63-62.65-42.69-119.25-105.17-125.77L338.82,53.84c-62.48-6.53-121.77,38.88-131.77,100.89l-103.48,642.25c-9.99,62.02,15.39,151.69,56.42,199.26l681.71,790.63c41.02,47.58,114.51,54.13,163.3,14.57l756.72-613.57c48.79-39.56,92.51-123.19,97.14-185.84l49.52-669.45Z"/>
  <path class="cls-32" d="M1925.2,344.21c6.61-62.37-38.93-119.61-101.18-127.2L334.64,35.41c-62.26-7.59-120.81,36.95-130.12,98.97l-96.5,643.33c-9.3,62.03,15.34,152.68,54.78,201.46l646.62,799.87c39.43,48.78,112.1,57.06,161.5,18.4l782.88-612.72c49.39-38.66,95.21-121.31,101.82-183.69l69.58-656.81Z"/>
  <path class="cls-7" d="M777.28,1771.22c37.77,49.95,109.54,59.92,159.49,22.15l809.19-611.8c49.95-37.77,97.87-119.42,106.49-181.44l89.52-644.43c8.62-62.03-35.08-119.82-97.11-128.44L330.44,16.9c-62.03-8.62-119.82,35.08-128.44,97.11l-89.52,644.43c-8.62,62.03,15.23,153.64,53,203.6l611.8,809.19Z"/>
  <path class="cls-14" d="M781.58,1770.32c38.14,49.5,110.56,59.76,160.94,22.79l799.09-586.42c50.38-36.97,97.54-118,104.81-180.07l79.8-681.75c7.26-62.07-37.47-119.62-99.41-127.89L353.19,20.18c-61.94-8.27-121.01,35.39-131.27,97.04l-108.14,649.95c-10.26,61.64,12.55,152.58,50.69,202.08l617.11,801.08Z"/>
  <path class="cls-25" d="M785.89,1769.44c38.5,49.05,111.58,59.61,162.39,23.47l788.96-561.16c50.81-36.14,97.31-116.5,103.33-178.56l69.71-719.21c6.02-62.07-39.67-119.32-101.52-127.24L375.95,23.44c-61.85-7.91-122.16,35.7-134.01,96.92l-126.93,655.6c-11.85,61.22,9.95,151.44,48.45,200.49l622.43,792.99Z"/>
  <path class="cls-30" d="M790.2,1768.56c38.87,48.59,112.6,59.49,163.86,24.21l778.8-536.03c51.26-35.28,97.17-114.9,102.03-176.94l59.29-756.78c4.86-62.03-41.7-118.96-103.47-126.49L398.71,26.66c-61.77-7.54-123.27,36.01-136.67,96.78L116.15,784.81c-13.4,60.76,7.43,150.24,46.29,198.83l627.76,784.91Z"/>
  <path class="cls-16" d="M794.52,1767.69c39.23,48.13,113.63,59.39,165.33,25.01l768.62-511.04c51.71-34.38,97.11-113.22,100.9-175.19l48.56-794.46c3.79-61.98-43.58-118.53-105.26-125.67L421.47,29.85c-61.68-7.14-124.34,36.33-139.25,96.61L117.2,793.72c-14.91,60.28,4.99,148.98,44.22,197.11l633.09,776.85Z"/>
  <path class="cls-19" d="M798.84,1766.83c39.58,47.67,114.65,59.31,166.81,25.87l758.42-486.18c52.16-33.44,97.13-111.44,99.92-173.34l37.55-832.21c2.79-61.9-45.32-118.05-106.91-124.78L444.22,33.01c-61.59-6.73-125.38,36.66-141.74,96.42L118.17,802.69c-16.36,59.76,2.64,147.66,42.22,195.33l638.44,768.81Z"/>
  <path class="cls-10" d="M803.16,1765.97c39.94,47.2,115.67,59.26,168.3,26.8l748.2-461.48c52.62-32.46,97.21-109.58,99.07-171.38l26.29-870.02c1.87-61.8-46.93-117.51-108.44-123.81L466.98,36.13c-61.51-6.3-126.37,37.01-144.13,96.23L119.05,811.7c-17.77,59.22.38,146.29,40.32,193.49l643.8,760.79Z"/>
  <path class="cls-33" d="M807.5,1765.13c40.29,46.72,116.69,59.23,169.78,27.8l737.96-436.94c53.09-31.43,97.35-107.62,98.35-169.31l14.79-907.89c1.01-61.69-48.42-116.94-109.84-122.77L489.74,39.2c-61.42-5.84-127.32,37.38-146.44,96.04L119.84,820.75c-19.12,58.66-1.8,144.88,38.49,191.6l649.17,752.78Z"/>
  <path class="cls-11" d="M811.83,1764.29c40.64,46.24,117.71,59.24,171.27,28.87l727.72-412.56c53.56-30.36,97.54-105.57,97.74-167.14l3.09-945.81c.2-61.56-49.81-116.32-111.14-121.67L512.49,42.24c-61.33-5.36-128.22,37.78-148.65,95.85L120.53,829.83c-20.43,58.08-3.89,143.43,36.75,189.67l654.55,744.78Z"/>
  <path class="cls-34" d="M816.18,1763.46c40.99,45.76,118.72,59.27,172.75,30.03l717.47-388.36c54.02-29.24,97.78-103.43,97.23-164.86l-8.81-983.76c-.55-61.43-51.11-115.65-112.35-120.5L535.24,45.22c-61.24-4.85-129.09,38.22-150.77,95.69L121.14,838.95c-21.68,57.48-5.89,141.94,35.1,187.7l659.94,736.8Z"/>
  <path class="cls-27" d="M820.53,1762.63c41.33,45.27,119.73,59.34,174.22,31.27l707.22-364.34c54.49-28.07,98.05-101.19,96.8-162.47l-20.88-1021.74c-1.25-61.29-52.31-114.95-113.46-119.26L557.99,48.15c-61.15-4.31-129.91,38.69-152.8,95.56L121.65,848.09c-22.89,56.87-7.8,140.43,33.52,185.7l665.35,728.84Z"/>
  <path class="cls-37" d="M824.89,1761.82c41.67,44.78,120.72,59.45,175.68,32.6l696.98-340.51c54.96-26.85,98.36-98.84,96.45-159.98l-33.12-1059.74c-1.91-61.14-53.43-114.22-114.48-117.95L580.73,51.02c-61.05-3.74-130.68,39.22-154.73,95.46L122.08,857.25c-24.05,56.24-9.63,138.9,32.03,183.68l670.77,720.89Z"/>
  <path class="cls-4" d="M829.25,1761.01c42,44.28,121.71,59.59,177.13,34.02l686.76-316.89c55.42-25.57,98.69-96.39,96.17-157.37l-45.51-1097.77c-2.53-60.98-54.47-113.44-115.42-116.57L603.47,53.82c-60.95-3.13-131.41,39.81-156.57,95.42L122.42,866.43c-25.16,55.61-11.38,137.34,30.62,181.62l676.2,712.96Z"/>
  <path class="cls-36" d="M833.62,1760.21c42.33,43.78,122.68,59.78,178.55,35.54l676.57-293.48c55.87-24.24,99.04-93.83,95.94-154.65l-58.03-1135.81c-3.11-60.82-55.44-112.62-116.29-115.1l-984.17-40.16c-60.85-2.48-132.09,40.46-158.32,95.43L122.68,875.62c-26.22,54.97-13.04,135.77,29.29,179.55l681.65,705.04Z"/>
  <path class="cls-26" d="M838,1759.42c42.66,43.28,123.64,60.01,179.95,37.17l666.41-270.28c56.31-22.84,99.4-91.16,95.75-151.82l-70.67-1173.86c-3.65-60.66-56.34-111.76-117.08-113.55l-943.44-27.85c-60.74-1.79-132.73,41.19-159.97,95.51L122.85,884.82c-27.24,54.32-14.62,134.18,28.04,177.46l687.11,697.14Z"/>
  <path class="cls-47" d="M842.39,1758.63c42.98,42.77,124.57,60.28,181.32,38.89l656.31-247.31c56.74-21.38,99.76-88.37,95.6-148.87l-83.44-1211.93c-4.16-60.5-57.18-110.86-117.81-111.91l-902.75-15.73c-60.63-1.06-133.32,42-161.53,95.67L122.94,894.02c-28.21,53.68-16.13,132.59,26.85,175.36l692.59,689.25Z"/>
  <path class="cls-29" d="M846.78,1757.85c43.3,42.26,125.49,60.59,182.64,40.73l646.27-224.58c57.15-19.86,100.11-85.47,95.46-145.8l-96.31-1250c-4.65-60.33-57.96-109.9-118.46-110.17l-862.08-3.79c-60.51-.27-133.85,42.9-162.99,95.93L122.95,903.23c-29.14,53.03-17.56,130.99,25.74,173.25l698.09,681.37Z"/>
  <path class="cls-17" d="M851.18,1757.08c43.61,41.75,126.38,60.95,183.92,42.68l636.31-202.08c57.54-18.27,100.45-82.45,95.34-142.6l-109.28-1288.08c-5.1-60.16-58.67-108.9-119.05-108.32l-821.45,7.93c-60.37.58-134.33,43.91-164.36,96.29L122.89,912.44c-30.03,52.38-18.91,129.39,24.7,171.13l703.6,673.51Z"/>
  <path class="cls-6" d="M855.59,1756.31c43.92,41.23,127.23,61.36,185.14,44.74l626.45-179.82c57.9-16.62,100.75-79.3,95.22-139.29l-122.35-1326.16c-5.53-59.99-59.34-107.84-119.56-106.34l-780.87,19.41c-60.22,1.5-134.76,45.05-165.63,96.77L122.75,921.64c-30.87,51.73-20.2,127.78,23.72,169.01l709.12,665.65Z"/>
  <path class="cls-1" d="M860.01,1755.55c44.23,40.71,128.06,61.82,186.29,46.92l616.71-157.8c58.23-14.9,101.02-76.03,95.08-135.85l-135.5-1364.25c-5.94-59.82-59.94-106.72-120-104.24l-740.36,30.63c-60.06,2.48-135.12,46.31-166.8,97.39L122.54,930.84c-31.68,51.08-21.42,126.18,22.81,166.89l714.67,657.81Z"/>
  <path class="cls-42" d="M864.44,1754.79c44.53,40.18,128.84,62.33,187.37,49.22l607.1-136.03c58.53-13.11,101.24-72.64,94.91-132.28l-148.73-1402.34c-6.33-59.64-60.49-105.53-120.36-101.98l-699.92,41.55c-59.87,3.55-135.41,47.73-167.86,98.17L122.26,940.04c-32.45,50.44-22.57,124.59,21.95,164.77l720.23,649.99Z"/>
  <path class="cls-28" d="M868.88,1754.04c44.82,39.66,129.58,62.89,188.36,51.63l597.64-114.5c58.78-11.26,101.39-69.13,94.7-128.6L1587.55,122.15c-6.69-59.47-60.97-104.27-120.63-99.55l-659.58,52.14c-59.66,4.72-135.62,49.32-168.8,99.12L121.91,949.22c-33.18,49.8-23.66,123,21.16,162.65l725.81,642.17Z"/>
  <path class="cls-44" d="M873.33,1753.3c45.11,39.12,130.27,63.49,189.25,54.15l588.37-93.2c58.98-9.34,101.48-65.5,94.44-124.8L1569.98,110.93c-7.03-59.3-61.4-102.92-120.81-96.94l-619.36,62.35c-59.41,5.98-135.74,51.1-169.62,100.27L121.5,958.4c-33.88,49.17-24.69,121.41,20.42,160.54l731.41,634.36Z"/>
  <path class="cls-18" d="M121.03,967.56c-34.54,48.54-25.67,119.84,19.73,158.43l737.02,626.57c45.39,38.59,130.91,64.14,190.03,56.78l579.29-72.13c59.12-7.36,101.47-61.76,94.11-120.88L1552.37,99.72c-7.36-59.12-61.76-101.47-120.88-94.11l-579.29,72.13c-59.12,7.36-135.76,53.1-170.3,101.65L121.03,967.56Z"/>
</svg>