<?xml version="1.0" encoding="UTF-8"?>
<svg id="Layer_1" data-name="Layer 1" xmlns="http://www.w3.org/2000/svg" viewBox="0 0 2337.68 2256.37">
  <defs>
    <style>
      .cls-1 {
        stroke-width: 2.67px;
      }

      .cls-1, .cls-2, .cls-3, .cls-4, .cls-5, .cls-6, .cls-7, .cls-8, .cls-9, .cls-10, .cls-11, .cls-12, .cls-13, .cls-14, .cls-15, .cls-16, .cls-17, .cls-18, .cls-19, .cls-20, .cls-21, .cls-22, .cls-23, .cls-24, .cls-25, .cls-26, .cls-27, .cls-28, .cls-29, .cls-30, .cls-31, .cls-32, .cls-33, .cls-34, .cls-35, .cls-36, .cls-37, .cls-38, .cls-39, .cls-40, .cls-41, .cls-42, .cls-43, .cls-44, .cls-45, .cls-46, .cls-47 {
        fill: none;
      }

      .cls-1, .cls-2, .cls-3, .cls-4, .cls-6, .cls-7, .cls-8, .cls-9, .cls-10, .cls-11, .cls-12, .cls-13, .cls-14, .cls-15, .cls-16, .cls-17, .cls-18, .cls-19, .cls-20, .cls-21, .cls-22, .cls-23, .cls-24, .cls-25, .cls-26, .cls-27, .cls-28, .cls-29, .cls-30, .cls-31, .cls-32, .cls-33, .cls-34, .cls-35, .cls-36, .cls-37, .cls-38, .cls-39, .cls-40, .cls-41, .cls-42, .cls-43, .cls-44, .cls-46, .cls-47 {
        stroke-miterlimit: 10;
      }

      .cls-1, .cls-6 {
        stroke: #dae8ed;
      }

      .cls-2 {
        stroke: #c4e3ee;
        stroke-width: 2.96px;
      }

      .cls-3 {
        stroke: #e4eaed;
      }

      .cls-3, .cls-5, .cls-6, .cls-8, .cls-13, .cls-14, .cls-20, .cls-22, .cls-24, .cls-25, .cls-27, .cls-29, .cls-31, .cls-32, .cls-33, .cls-34, .cls-35, .cls-39, .cls-40, .cls-44, .cls-46, .cls-47 {
        stroke-width: 2.43px;
      }

      .cls-4 {
        stroke: #b1dfee;
        stroke-width: 3.2px;
      }

      .cls-5 {
        stroke: #21bef2;
      }

      .cls-5, .cls-45 {
        stroke-miterlimit: 10;
      }

      .cls-7 {
        stroke: #bce1ee;
        stroke-width: 3.06px;
      }

      .cls-8 {
        stroke: #b5dfee;
      }

      .cls-9 {
        stroke: #7ed3f0;
        stroke-width: 2.43px;
      }

      .cls-10 {
        stroke: #aedeee;
        stroke-width: 3.24px;
      }

      .cls-11 {
        stroke: #cfe5ed;
        stroke-width: 2.82px;
      }

      .cls-12 {
        stroke: #46c6f1;
        stroke-width: 2.43px;
      }

      .cls-13 {
        stroke: #a3dbef;
      }

      .cls-14 {
        stroke: #75d1f0;
      }

      .cls-15 {
        stroke: #e5eaed;
        stroke-width: 2.53px;
      }

      .cls-16 {
        stroke: #b9e0ee;
        stroke-width: 3.1px;
      }

      .cls-17 {
        stroke: #d4e7ed;
        stroke-width: 2.75px;
      }

      .cls-18 {
        stroke: #dfe9ed;
        stroke-width: 2.6px;
      }

      .cls-19 {
        stroke: #e8ebed;
        stroke-width: 2.5px;
      }

      .cls-20 {
        stroke: #c8e4ee;
      }

      .cls-21 {
        stroke: #b6e0ee;
        stroke-width: 3.13px;
      }

      .cls-22 {
        stroke: #59cbf0;
      }

      .cls-23 {
        stroke: #cce5ee;
        stroke-width: 2.85px;
      }

      .cls-24 {
        stroke: #6bcff0;
      }

      .cls-25 {
        stroke: #acddef;
      }

      .cls-26 {
        stroke: #e2eaed;
        stroke-width: 2.57px;
      }

      .cls-27 {
        stroke: #d1e6ee;
      }

      .cls-28 {
        stroke: #bee2ee;
        stroke-width: 3.03px;
      }

      .cls-29 {
        stroke: #edeced;
      }

      .cls-30 {
        stroke: #d7e7ed;
        stroke-width: 2.71px;
      }

      .cls-31 {
        stroke: #9ad9ef;
      }

      .cls-32 {
        stroke: #18bcf2;
      }

      .cls-33 {
        stroke: #62cdf0;
      }

      .cls-34 {
        stroke: #3dc4f1;
      }

      .cls-35 {
        stroke: #90d7ef;
      }

      .cls-36 {
        stroke: #c7e3ee;
        stroke-width: 2.92px;
      }

      .cls-37 {
        stroke: #c9e4ee;
        stroke-width: 2.89px;
      }

      .cls-38 {
        stroke: #dde8ed;
        stroke-width: 2.64px;
      }

      .cls-39 {
        stroke: #2bc0f2;
      }

      .cls-40 {
        stroke: #87d5ef;
      }

      .cls-41 {
        stroke: #b3dfee;
        stroke-width: 3.17px;
      }

      .cls-42 {
        stroke: #d2e6ed;
        stroke-width: 2.78px;
      }

      .cls-43 {
        stroke: #c1e2ee;
        stroke-width: 2.99px;
      }

      .cls-44 {
        stroke: #50c9f1;
      }

      .cls-45 {
        stroke: #eaebed;
        stroke-width: 2.46px;
      }

      .cls-46 {
        stroke: #34c2f1;
      }

      .cls-47 {
        stroke: #bfe2ee;
      }
    </style>
  </defs>
  <path class="cls-32" d="M337.56,1882.52c-68.55-13.44-113.63-80.53-100.19-149.08l217.78-1110.45c13.44-68.55,71.88-156.51,129.86-195.48L1187.38,22.69c57.98-38.96,137.29-23.41,176.26,34.57l951.35,1415.56c38.96,57.98,23.41,137.29-34.57,176.26l-602.36,404.83c-57.98,38.96-161.5,59.85-230.05,46.4l-1110.45-217.78Z"/>
  <path class="cls-5" d="M355.08,1899.31c-68.65-12.36-115.53-78.77-104.19-147.59l185.8-1127.63c11.34-68.82,68.3-156.48,126.58-194.79L1167.81,31.84c58.28-38.32,138.53-22.8,178.33,34.47l953.45,1372.02c39.8,57.28,25.99,137.39-30.69,178.04l-596.35,427.63c-56.68,40.65-159.22,63.79-227.87,51.44l-1089.62-196.12Z"/>
  <path class="cls-39" d="M372.57,1916.02c-68.73-11.23-117.39-76.89-108.12-145.91l153.7-1145.07c9.27-69.02,64.77-156.31,123.35-193.97L1148.26,40.98c58.58-37.66,139.78-22.22,180.44,34.32l955.47,1328.61c40.66,56.54,28.64,137.37-26.72,179.63l-590.43,450.68c-55.36,42.26-156.89,67.64-225.62,56.41l-1068.84-174.61Z"/>
  <path class="cls-46" d="M390.04,1932.66c-68.8-10.06-119.19-74.88-111.96-144.04l121.48-1162.75c7.23-69.16,61.31-156.02,120.18-193.02L1128.72,50.11c58.87-37,141.03-21.65,182.57,34.11l957.43,1285.34c41.54,55.77,31.33,137.22-22.68,181.02l-584.59,473.99c-54.01,43.79-154.5,71.39-223.3,61.33l-1048.1-153.24Z"/>
  <path class="cls-34" d="M407.49,1949.22c-68.86-8.85-120.93-72.73-115.71-141.97l89.12-1180.65c5.23-69.23,57.91-155.61,117.07-191.95L1109.19,59.23c59.16-36.34,142.29-21.11,184.72,33.84l959.3,1242.21c42.44,54.95,34.08,136.94-18.57,182.2l-578.81,497.56c-52.65,45.26-152.07,75.05-220.93,66.2l-1027.41-132.03Z"/>
  <path class="cls-12" d="M424.9,1965.71c-68.91-7.6-122.61-70.47-119.34-139.71l56.6-1198.78c3.27-69.25,54.58-155.09,114.02-190.76L1089.67,68.34c59.44-35.67,143.55-20.59,186.9,33.5l961.11,1199.24c43.35,54.09,36.87,136.53-14.41,183.18l-573.08,521.4c-51.28,46.65-149.61,78.61-218.51,71.01l-1006.79-110.97Z"/>
  <path class="cls-44" d="M442.28,1982.11c-68.93-6.3-124.22-68.07-122.86-137.27l23.91-1217.11c1.36-69.2,51.33-154.46,111.05-189.45L1070.15,77.45c59.72-34.99,144.82-20.1,189.11,33.09l962.85,1156.43c44.29,53.19,39.7,135.97-10.19,183.94l-567.36,545.51c-49.9,47.97-147.12,82.07-216.05,75.78l-986.23-90.08Z"/>
  <path class="cls-22" d="M459.63,1998.43c-68.93-4.95-125.75-65.55-126.25-134.66l-8.96-1235.63c-.5-69.11,48.17-153.73,108.16-188.05L1050.65,86.55c59.99-34.32,146.09-19.65,191.33,32.6l964.53,1113.79c45.24,52.24,42.57,135.26-5.95,184.49l-561.66,569.87c-48.51,49.22-144.61,85.45-213.54,80.49l-965.74-69.36Z"/>
  <path class="cls-33" d="M476.93,2014.66c-68.91-3.56-127.19-62.9-129.5-131.86l-42.02-1254.32c-2.31-68.97,45.1-152.91,105.35-186.55L1031.17,95.63c60.25-33.63,147.36-19.22,193.58,32.02l966.14,1071.34c46.21,51.25,45.46,134.41-1.67,184.81l-555.95,594.49c-47.13,50.4-142.08,88.73-210.99,85.17l-945.34-48.81Z"/>
  <path class="cls-24" d="M494.18,2030.8c-68.87-2.12-128.54-60.12-132.61-128.9l-75.27-1273.18c-4.07-68.78,42.12-152.01,102.63-184.95L1011.69,104.71c60.51-32.95,148.64-18.83,195.84,31.36l967.7,1029.08c47.2,50.19,48.38,133.4,2.62,184.91l-550.21,619.36c-45.76,51.51-139.54,91.92-208.41,89.81l-925.04-28.43Z"/>
  <path class="cls-14" d="M511.38,2046.86c-68.79-.63-129.79-57.23-135.56-125.78l-108.72-1292.18c-5.77-68.55,39.23-151.03,99.99-183.28L992.22,113.79c60.76-32.25,149.92-18.48,198.11,30.6l969.21,987.02c48.2,49.09,51.31,132.24,6.92,184.79l-544.45,644.48c-44.39,52.55-137,95.04-205.79,94.41l-904.85-8.24Z"/>
  <path class="cls-9" d="M528.52,2062.82c-68.68.91-130.94-54.21-138.36-122.49L247.79,629c-7.41-68.29,36.44-149.98,97.44-181.54L972.77,122.85c61.01-31.56,151.19-18.17,200.4,29.75l970.67,945.17c49.21,47.92,54.26,130.92,11.22,184.45l-538.63,669.84c-43.04,53.53-134.45,98.07-203.14,98.99l-884.77,11.78Z"/>
  <path class="cls-40" d="M545.59,2078.69c-68.54,2.5-131.98-51.07-140.98-119.06L228.38,629.05c-9-67.99,33.74-148.86,94.98-179.72L953.33,131.91c61.25-30.86,152.46-17.91,202.69,28.78l972.1,903.55c50.23,46.69,57.21,129.44,15.5,183.88l-532.76,695.42c-41.71,54.44-131.91,101.03-200.44,103.54l-864.83,31.61Z"/>
  <path class="cls-35" d="M562.59,2094.47c-68.35,4.15-132.9-47.82-143.43-115.48L208.88,629.04c-10.54-67.66,31.14-147.69,92.61-177.85L933.9,140.96c61.48-30.16,153.72-17.69,204.98,27.71l973.51,862.16c51.26,45.4,60.16,127.78,19.77,183.08l-526.81,721.22c-40.39,55.29-129.36,103.93-197.71,108.07l-845.04,51.26Z"/>
  <path class="cls-31" d="M579.51,2110.16c-68.12,5.84-133.69-44.46-145.71-111.76L189.27,628.99c-12.02-67.3,28.63-146.47,90.33-175.92L914.48,150.01c61.7-29.45,154.97-17.52,207.26,26.53l974.89,821.01c52.29,44.04,63.1,125.97,24,182.06l-520.8,747.24c-39.09,56.09-126.81,106.76-194.93,112.59l-825.4,70.72Z"/>
  <path class="cls-13" d="M596.34,2125.76c-67.84,7.58-134.35-40.98-147.79-107.91L169.56,628.89c-13.44-66.93,26.22-145.2,88.13-173.94L895.08,159.05c61.92-28.74,156.21-17.39,209.54,25.22l976.28,780.12c53.33,42.61,66.02,123.98,28.2,180.81l-514.7,773.45c-37.82,56.83-124.27,109.53-192.11,117.1l-805.94,90.01Z"/>
  <path class="cls-25" d="M613.08,2141.27c-67.51,9.36-134.87-37.4-149.68-103.93L149.75,628.75c-14.81-66.53,23.9-143.89,86.02-171.93L875.69,168.09c62.13-28.03,157.43-17.33,211.79,23.79l977.67,739.48c54.36,41.12,68.92,121.81,32.35,179.33l-508.52,799.86c-36.57,57.52-121.72,112.24-189.23,121.6l-786.67,109.12Z"/>
  <path class="cls-8" d="M629.71,2156.7c-67.12,11.2-135.24-33.73-151.37-99.84L129.85,628.59c-16.13-66.11,21.67-142.55,83.99-169.87L856.32,177.12c62.33-27.32,158.63-17.31,214.02,22.23l979.1,699.1c55.38,39.54,71.78,119.48,36.44,177.63l-502.25,826.45c-35.34,58.15-119.18,114.9-186.3,126.1l-767.61,128.07Z"/>
  <path class="cls-47" d="M646.24,2172.05c-66.67,13.08-135.46-29.96-152.86-95.64L109.85,628.39c-17.4-65.68,19.52-141.18,82.04-167.78L836.96,186.15c62.52-26.6,159.81-17.36,216.21,20.54l980.57,659c56.39,37.9,74.6,116.97,40.46,175.71l-495.88,853.21c-34.14,58.74-116.63,117.51-183.3,130.58l-748.77,146.86Z"/>
  <path class="cls-20" d="M662.64,2187.33c-66.16,15-135.52-26.11-154.13-91.35L89.76,628.17c-18.61-65.24,17.47-139.79,80.17-165.67L817.61,195.17c62.71-25.88,160.97-17.46,218.35,18.72l982.1,619.16c57.39,36.18,77.36,114.29,44.4,173.58l-489.41,880.13c-32.97,59.29-114.07,120.07-180.23,135.06l-730.17,165.5Z"/>
  <path class="cls-27" d="M678.92,2202.53c-65.58,16.95-135.41-22.18-155.19-86.96L69.58,627.94c-19.78-64.78,15.49-138.37,78.38-163.53L798.28,204.19c62.89-25.16,162.08-17.62,220.44,16.77l983.71,579.61c58.36,34.38,80.07,111.44,48.24,171.23l-482.85,907.21c-31.82,59.79-111.51,122.58-177.09,139.53l-711.82,184Z"/>
  <path class="cls-6" d="M695.06,2217.68c-64.92,18.94-135.13-18.19-156.03-82.51L49.31,627.68c-20.89-64.32,13.6-136.94,76.66-161.38l652.99-253.1c63.06-24.44,163.16-17.83,222.46,14.68l985.43,540.32c59.3,32.51,82.69,108.41,51.99,168.67l-476.18,934.43c-30.71,60.25-108.94,125.05-173.86,143.99l-693.73,202.39Z"/>
  <path class="cls-3" d="M711.06,2232.78c-64.19,20.96-134.67-14.14-156.64-77.99L28.96,627.42c-21.97-63.85,11.79-135.49,75-159.21l655.69-245.99c63.22-23.72,164.2-18.11,224.4,12.46l987.28,501.3c60.2,30.57,85.23,105.23,55.62,165.91l-469.42,961.79c-29.62,60.68-106.36,127.47-170.55,148.43l-675.93,220.67Z"/>
  <path class="cls-29" d="M1955.9,703.89c61.07,28.55,87.67,101.88,59.12,162.95l-462.55,989.28c-28.55,61.07-103.77,129.85-167.14,152.84l-658.42,238.88c-63.37,22.99-134.03-10.05-157.03-73.42L8.53,627.14c-22.99-63.37,10.05-134.03,73.42-157.03l658.42-238.88c63.37-22.99,165.19-18.44,226.26,10.11l989.28,462.55Z"/>
  <path class="cls-45" d="M1955.93,708.63c60.68,29.04,87.73,102.99,60.11,164.33l-438.09,972.95c-27.62,61.34-102.35,129.18-166.07,150.76l-699.89,237.02c-63.72,21.58-134.35-12.6-156.96-75.96L17.09,650.37c-22.61-63.36,10.11-135.35,72.71-159.98L749.85,230.65c62.6-24.63,163.47-21.03,224.15,8.02l981.94,469.96Z"/>
  <path class="cls-19" d="M1955.96,713.36c60.29,29.53,87.81,104.1,61.16,165.71l-413.77,956.62c-26.65,61.61-100.82,128.6-164.81,148.87l-741.59,234.81c-64,20.26-134.53-14.99-156.75-78.33L25.63,673.6c-22.21-63.35,10.17-136.63,71.97-162.85L759.38,229.97c61.8-26.22,161.68-23.51,221.97,6.02l974.61,477.37Z"/>
  <path class="cls-15" d="M1956,718.1c59.89,30.01,87.91,105.2,62.26,167.09l-389.59,940.28c-25.64,61.89-99.17,128.1-163.39,147.14l-783.5,232.27c-64.22,19.04-134.61-17.21-156.4-80.55L34.13,696.83c-21.8-63.34,10.25-137.87,71.22-165.62L768.96,229.18c60.97-27.75,159.85-25.9,219.74,4.12l967.3,484.79Z"/>
  <path class="cls-26" d="M1956.05,722.84c59.48,30.5,88.03,106.31,63.44,168.46l-365.56,923.96c-24.59,62.16-97.41,127.66-161.81,145.55l-825.57,229.42c-64.4,17.9-134.58-19.28-155.94-82.62L42.6,720.08c-21.36-63.34,10.34-139.07,70.46-168.29L778.58,228.29c60.12-29.22,157.97-28.18,217.46,2.32l960.02,492.22Z"/>
  <path class="cls-18" d="M1956.12,727.58c59.07,30.98,88.18,107.4,64.68,169.83l-341.68,907.64c-23.5,62.43-95.54,127.27-160.08,144.11l-867.79,226.31c-64.54,16.83-134.46-21.22-155.37-84.56L51.03,743.33c-20.91-63.34,10.46-140.23,69.71-170.87L788.23,227.3c59.25-30.64,156.06-30.36,215.13.62l952.75,499.66Z"/>
  <path class="cls-38" d="M1956.19,732.33c58.66,31.46,88.35,108.49,65.99,171.18l-317.97,891.33c-22.36,62.69-93.56,126.94-158.21,142.78l-910.13,222.93c-64.65,15.84-134.26-23.04-154.69-86.38L59.42,766.59c-20.43-63.35,10.6-141.35,68.97-173.35L797.92,226.2c58.37-32,154.11-32.44,212.77-.98l945.5,507.1Z"/>
  <path class="cls-1" d="M1956.27,737.08c58.24,31.94,88.55,109.57,67.37,172.52l-294.42,875.05c-21.18,62.95-91.47,126.65-156.19,141.55l-952.58,219.33c-64.72,14.9-133.99-24.74-153.92-88.1L67.77,789.86c-19.93-63.36,10.78-142.44,68.25-175.73L807.62,225c57.47-33.3,152.14-34.41,210.37-2.47l938.28,514.55Z"/>
  <path class="cls-30" d="M1956.36,741.83c57.81,32.41,88.79,110.64,68.84,173.84l-271.05,858.79c-19.95,63.2-89.27,126.39-154.04,140.42l-995.13,215.52c-64.77,14.03-133.65-26.34-153.05-89.72L76.07,813.14c-19.4-63.37,11-143.48,67.56-178.02L817.34,223.69c56.56-34.54,150.14-36.28,207.95-3.87l931.07,522.01Z"/>
  <path class="cls-17" d="M1956.46,746.59c57.38,32.88,89.05,111.7,70.39,175.14l-247.87,842.56c-18.66,63.44-86.95,126.16-151.76,139.37l-1037.76,211.51c-64.8,13.21-133.24-27.85-152.09-91.24L84.31,836.42c-18.85-63.39,11.27-144.49,66.92-180.22L827.08,222.28c55.65-35.73,148.13-38.06,205.51-5.17l923.88,529.48Z"/>
  <path class="cls-42" d="M1956.57,751.36c56.94,33.35,89.35,112.74,72.02,176.42l-224.88,826.38c-17.33,63.68-84.53,125.95-149.34,138.38l-1080.45,207.32c-64.81,12.44-132.77-29.27-151.03-92.69L92.5,859.71c-18.26-63.41,11.59-145.46,66.32-182.32L836.82,220.78c54.74-36.86,146.11-39.73,203.05-6.38l916.71,536.96Z"/>
  <path class="cls-11" d="M1956.69,756.13c56.5,33.82,89.69,113.77,73.75,177.66l-202.1,810.26c-15.94,63.89-81.99,125.75-146.79,137.45l-1123.21,202.97c-64.8,11.71-132.25-30.62-149.88-94.06L100.63,883.01c-17.64-63.44,11.97-146.39,65.79-184.34L846.56,219.17c53.82-37.94,144.08-41.31,200.58-7.49l909.55,544.45Z"/>
  <path class="cls-23" d="M1956.82,760.9c56.05,34.28,90.06,114.77,75.57,178.86l-179.52,794.19c-14.49,64.09-79.34,125.55-144.11,136.57l-1166.03,198.46c-64.77,11.02-131.66-31.89-148.63-95.37L108.68,906.32c-16.97-63.48,12.42-147.29,65.32-186.26L856.3,217.47c52.9-38.97,142.05-42.8,198.1-8.52l902.42,551.95Z"/>
  <path class="cls-37" d="M1956.96,765.69c55.6,34.74,90.47,115.75,77.5,180.02l-157.16,778.21c-12.98,64.27-76.56,125.34-141.3,135.72l-1208.89,193.81c-64.74,10.38-131.02-33.09-147.29-96.61L116.66,929.64c-16.27-63.51,12.95-148.16,64.94-188.11L866.03,215.68c51.99-39.95,140.02-44.2,195.62-9.46l895.31,559.47Z"/>
  <path class="cls-36" d="M1957.1,770.48c55.14,35.2,90.93,116.71,79.52,181.13l-135.01,762.31c-11.41,64.42-73.67,125.12-138.36,134.89l-1251.8,189.04c-64.69,9.77-130.31-34.24-145.83-97.79L124.55,952.96c-15.52-63.55,13.58-148.99,64.66-189.86L875.75,213.79c51.08-40.87,138-45.51,193.14-10.31l888.21,566.99Z"/>
  <path class="cls-2" d="M1957.26,775.27c54.68,35.65,91.42,117.63,81.64,182.18l-113.1,746.52c-9.78,64.54-70.66,124.87-135.29,134.06l-1294.74,184.14c-64.63,9.19-129.55-35.32-144.27-98.92l-219.16-946.95c-14.72-63.6,14.3-149.79,64.48-191.54L885.47,211.82c50.18-41.75,135.98-46.74,190.66-11.08l881.13,574.53Z"/>
  <path class="cls-43" d="M1957.43,780.07c54.22,36.1,91.96,118.53,83.87,183.16l-91.41,730.85c-8.08,64.63-67.52,124.59-132.08,133.23l-1337.71,179.13c-64.56,8.65-128.72-36.35-142.58-100l-197.47-906.81c-13.86-63.65,15.13-150.56,64.42-193.14L895.16,209.77c49.29-42.58,133.98-47.88,188.19-11.78l874.07,582.08Z"/>
  <path class="cls-28" d="M1957.6,784.88c53.74,36.55,92.54,119.38,86.21,184.06l-69.96,715.31c-6.33,64.69-64.26,124.26-128.75,132.39l-1380.72,174.02c-64.48,8.13-127.83-37.34-140.76-101.03l-176.01-866.67c-12.94-63.69,16.09-151.29,64.49-194.66L904.84,207.64c48.41-43.37,131.98-48.95,185.73-12.4l867.03,589.65Z"/>
  <path class="cls-7" d="M1957.78,789.7c53.27,36.99,93.16,120.19,88.66,184.89l-48.73,699.94c-4.5,64.7-60.88,123.88-125.28,131.51l-1423.74,168.81c-64.4,7.64-126.86-38.27-138.8-102.01l-154.81-826.52c-11.94-63.74,17.18-151.99,64.72-196.11L914.51,205.42c47.53-44.12,130.01-49.95,183.28-12.96l860,597.23Z"/>
  <path class="cls-16" d="M1957.97,794.52c52.79,37.43,93.83,120.95,91.21,185.61l-27.74,684.73c-2.62,64.66-57.38,123.42-121.69,130.59l-1466.8,163.52c-64.31,7.17-125.82-39.16-136.68-102.95l-133.91-786.38c-10.86-63.79,18.44-152.66,65.11-197.48L924.15,203.14c46.67-44.82,128.05-50.87,180.84-13.44l852.99,604.82Z"/>
  <path class="cls-21" d="M1958.17,799.35c52.3,37.86,94.54,121.66,93.87,186.23l-6.97,669.73c-.67,64.56-53.76,122.89-117.98,129.62l-1509.87,158.13c-64.22,6.73-124.69-40-134.38-103.84l-113.33-746.25c-9.69-63.84,19.87-153.28,65.69-198.77L933.76,200.78c45.82-45.49,126.11-51.73,178.41-13.86l846,612.44Z"/>
  <path class="cls-41" d="M1958.38,804.19c51.81,38.29,95.29,122.32,96.63,186.73l13.58,654.94c1.34,64.41-50.03,122.27-114.15,128.57l-1552.96,152.67c-64.12,6.3-123.47-40.8-131.89-104.67l-93.13-706.15c-8.42-63.87,21.49-153.86,66.48-199.98L943.36,198.35c44.99-46.12,124.19-52.52,176-14.23l839.02,620.07Z"/>
  <path class="cls-4" d="M1958.59,809.04c51.32,38.71,96.09,122.91,99.49,187.1l33.92,640.4c3.4,64.19-46.19,121.54-110.2,127.44l-1596.06,147.14c-64.01,5.9-122.14-41.55-129.18-105.45l-73.36-666.1c-7.04-63.9,23.34-154.39,67.51-201.1L952.93,195.86c44.17-46.71,122.29-53.25,173.61-14.53l832.06,627.71Z"/>
  <path class="cls-10" d="M962.47,193.31c43.36-47.27,120.41-53.92,171.23-14.79l825.11,635.38c50.82,39.13,96.91,123.43,102.43,187.34l54.06,626.11c5.52,63.9-42.25,120.7-106.15,126.22l-1639.19,141.54c-63.9,5.52-120.7-42.25-126.22-106.15l-54.06-626.11c-5.52-63.9,25.44-154.86,68.8-202.12L962.47,193.31Z"/>
</svg>