<?xml version="1.0" encoding="UTF-8"?>
<svg id="Layer_1" data-name="Layer 1" xmlns="http://www.w3.org/2000/svg" viewBox="0 0 1441.38 1422.54">
  <defs>
    <style>
      .cls-1 {
        stroke: #e2eaed;
        stroke-width: 1.78px;
      }

      .cls-1, .cls-2, .cls-3, .cls-4, .cls-5, .cls-6, .cls-7, .cls-8, .cls-9, .cls-10, .cls-11, .cls-12, .cls-13, .cls-14, .cls-15, .cls-16, .cls-17, .cls-18, .cls-19, .cls-20, .cls-21, .cls-22, .cls-23, .cls-24, .cls-25, .cls-26, .cls-27, .cls-28, .cls-29, .cls-30, .cls-31, .cls-32, .cls-33, .cls-34, .cls-35, .cls-36, .cls-37, .cls-38, .cls-39, .cls-40, .cls-41, .cls-42, .cls-43, .cls-44, .cls-45, .cls-46, .cls-47 {
        fill: none;
      }

      .cls-1, .cls-2, .cls-3, .cls-4, .cls-5, .cls-6, .cls-7, .cls-8, .cls-9, .cls-10, .cls-11, .cls-12, .cls-13, .cls-14, .cls-15, .cls-16, .cls-17, .cls-18, .cls-19, .cls-20, .cls-21, .cls-22, .cls-23, .cls-24, .cls-25, .cls-26, .cls-27, .cls-28, .cls-29, .cls-30, .cls-31, .cls-32, .cls-33, .cls-34, .cls-35, .cls-36, .cls-37, .cls-38, .cls-39, .cls-40, .cls-41, .cls-43, .cls-44, .cls-46, .cls-47 {
        stroke-miterlimit: 10;
      }

      .cls-2 {
        stroke: #aedeee;
        stroke-width: 2.25px;
      }

      .cls-3 {
        stroke: #18bcf2;
      }

      .cls-3, .cls-4, .cls-5, .cls-8, .cls-10, .cls-11, .cls-12, .cls-13, .cls-16, .cls-20, .cls-21, .cls-24, .cls-27, .cls-28, .cls-33, .cls-35, .cls-36, .cls-37, .cls-39, .cls-40, .cls-41, .cls-42, .cls-44, .cls-47 {
        stroke-width: 1.68px;
      }

      .cls-4 {
        stroke: #bfe2ee;
      }

      .cls-5 {
        stroke: #59cbf0;
      }

      .cls-6 {
        stroke: #b9e0ee;
        stroke-width: 2.15px;
      }

      .cls-7 {
        stroke: #d7e7ed;
        stroke-width: 1.88px;
      }

      .cls-8 {
        stroke: #75d1f0;
      }

      .cls-9 {
        stroke-width: 1.86px;
      }

      .cls-9, .cls-16 {
        stroke: #dae8ed;
      }

      .cls-10 {
        stroke: #d1e6ee;
      }

      .cls-11 {
        stroke: #34c2f1;
      }

      .cls-12 {
        stroke: #b5dfee;
      }

      .cls-13 {
        stroke: #90d7ef;
      }

      .cls-14 {
        stroke: #b3dfee;
        stroke-width: 2.2px;
      }

      .cls-15 {
        stroke: #cfe5ed;
        stroke-width: 1.95px;
      }

      .cls-17 {
        stroke: #dfe9ed;
        stroke-width: 1.81px;
      }

      .cls-18 {
        stroke: #e5eaed;
        stroke-width: 1.76px;
      }

      .cls-19 {
        stroke: #dde8ed;
        stroke-width: 1.83px;
      }

      .cls-20 {
        stroke: #46c6f1;
      }

      .cls-21 {
        stroke: #acddef;
      }

      .cls-22 {
        stroke: #c7e3ee;
        stroke-width: 2.03px;
      }

      .cls-23 {
        stroke: #b1dfee;
        stroke-width: 2.22px;
      }

      .cls-24 {
        stroke: #e4eaed;
      }

      .cls-25 {
        stroke: #c4e3ee;
        stroke-width: 2.05px;
      }

      .cls-26 {
        stroke: #b6e0ee;
        stroke-width: 2.17px;
      }

      .cls-27 {
        stroke: #2bc0f2;
      }

      .cls-28 {
        stroke: #50c9f1;
      }

      .cls-29 {
        stroke: #cce5ee;
        stroke-width: 1.98px;
      }

      .cls-30 {
        stroke: #bee2ee;
        stroke-width: 2.1px;
      }

      .cls-31 {
        stroke: #e8ebed;
        stroke-width: 1.73px;
      }

      .cls-32 {
        stroke: #bce1ee;
        stroke-width: 2.12px;
      }

      .cls-33 {
        stroke: #7ed3f0;
      }

      .cls-34 {
        stroke: #d2e6ed;
        stroke-width: 1.93px;
      }

      .cls-35 {
        stroke: #3dc4f1;
      }

      .cls-36 {
        stroke: #edeced;
      }

      .cls-37 {
        stroke: #a3dbef;
      }

      .cls-38 {
        stroke: #c9e4ee;
        stroke-width: 2px;
      }

      .cls-39 {
        stroke: #62cdf0;
      }

      .cls-40 {
        stroke: #c8e4ee;
      }

      .cls-41 {
        stroke: #6bcff0;
      }

      .cls-42 {
        stroke: #21bef2;
      }

      .cls-42, .cls-45 {
        stroke-miterlimit: 10;
      }

      .cls-43 {
        stroke: #c1e2ee;
        stroke-width: 2.08px;
      }

      .cls-44 {
        stroke: #9ad9ef;
      }

      .cls-45 {
        stroke: #eaebed;
        stroke-width: 1.71px;
      }

      .cls-46 {
        stroke: #d4e7ed;
        stroke-width: 1.9px;
      }

      .cls-47 {
        stroke: #87d5ef;
      }
    </style>
  </defs>
  <path class="cls-3" d="M980.57,1381.61c-26.36,40.66-81.19,52.35-121.85,25.99L200.1,980.57c-40.66-26.36-82.19-86.7-92.3-134.09L2.78,354.13c-10.11-47.39,20.39-94.43,67.78-104.54L1227.58,2.78c47.39-10.11,94.43,20.39,104.54,67.78l105.03,492.35c10.11,47.39-3.19,119.43-29.55,160.08l-427.03,658.61Z"/>
  <path class="cls-42" d="M995.9,1374.67c-25.69,41-80.55,54.03-121.93,28.95L196.03,992.74c-41.38-25.08-83.09-84.39-92.7-131.81L3.62,369.09c-9.61-47.42,21.1-95.07,68.26-105.9L1201.41,3.78c47.15-10.83,95.16,18.76,106.69,65.74l121.26,494.36c11.53,46.99-.06,118.98-25.75,159.98l-407.71,650.8Z"/>
  <path class="cls-27" d="M1011.18,1367.72c-24.98,41.35-79.82,55.71-121.86,31.92L191.86,1004.92c-42.04-23.79-83.9-82.07-93.01-129.51L4.45,384.03c-9.11-47.44,21.8-95.72,68.7-107.29L1175.27,4.82c46.9-11.57,95.83,17.05,108.74,63.6l137.62,496.51c12.9,46.55,3.02,118.47-21.96,159.82l-388.49,642.98Z"/>
  <path class="cls-11" d="M1026.4,1360.77c-24.25,41.7-78.99,57.39-121.64,34.87L187.6,1017.1c-42.66-22.52-84.6-79.77-93.22-127.23L5.28,398.97c-8.61-47.46,22.49-96.38,69.12-108.72L1149.16,5.9c46.63-12.34,96.43,15.27,110.67,61.36l154.14,498.77c14.24,46.08,6.05,117.9-18.19,159.6l-369.38,635.15Z"/>
  <path class="cls-35" d="M1041.57,1353.82c-23.48,42.05-78.06,59.06-121.28,37.82l-737.05-362.34c-43.22-21.25-85.22-77.47-93.33-124.94L6.11,413.9c-8.11-47.47,23.16-97.05,69.5-110.18L1123.09,7.02c46.34-13.13,96.96,13.43,112.5,59.02l170.81,501.14c15.54,45.59,9.03,117.28-14.45,159.33l-350.38,627.31Z"/>
  <path class="cls-20" d="M1056.68,1346.87c-22.69,42.4-77.03,60.73-120.77,40.74l-757.11-346.08c-43.73-19.99-85.74-75.2-93.35-122.68L6.93,428.82c-7.61-47.48,23.82-97.73,69.85-111.67L1097.06,8.19c46.02-13.94,97.41,11.53,114.2,56.59l187.64,503.6c16.79,45.06,11.96,116.62-10.73,159.02l-331.49,619.47Z"/>
  <path class="cls-28" d="M1071.73,1339.91c-21.86,42.75-75.91,62.38-120.11,43.63l-777.36-329.77c-44.2-18.75-86.18-72.94-93.28-120.43L7.75,443.74c-7.1-47.48,24.46-98.42,70.15-113.19L1071.08,9.4c45.68-14.77,97.79,9.56,115.78,54.07l204.63,506.15c18,44.51,14.84,115.91-7.02,158.66l-312.73,611.63Z"/>
  <path class="cls-5" d="M1086.71,1332.96c-20.99,43.1-74.68,64.02-119.3,46.49l-797.77-313.39c-44.62-17.53-86.52-70.72-93.12-118.2L8.57,458.64c-6.6-47.48,25.09-99.12,70.41-114.75L1045.14,10.65c45.32-15.63,98.07,7.54,117.23,51.48l221.79,508.78c19.16,43.95,17.65,115.16-3.34,158.26l-294.1,603.8Z"/>
  <path class="cls-39" d="M1101.63,1326.02c-20.09,43.45-73.34,65.63-118.34,49.31l-818.34-296.94c-45-16.33-86.79-68.53-92.88-116.01L9.39,473.53c-6.09-47.48,25.69-99.83,70.62-116.35L1019.25,11.94c44.93-16.51,98.27,5.45,118.54,48.81l239.11,511.46c20.27,43.36,20.42,114.38.33,157.83l-275.6,595.97Z"/>
  <path class="cls-41" d="M1116.48,1319.08c-19.15,43.79-71.91,67.22-117.24,52.07l-839.07-280.4c-45.33-15.15-86.98-66.38-92.56-113.84L10.2,488.42c-5.58-47.47,26.27-100.55,70.77-117.97L993.42,13.28c44.5-17.42,98.38,3.31,119.72,46.08l256.6,514.19c21.34,42.76,23.13,113.58,3.98,157.36l-257.24,588.17Z"/>
  <path class="cls-8" d="M1131.26,1312.15c-18.17,44.12-70.37,68.77-115.99,54.78l-859.95-263.78c-45.62-13.99-87.09-64.26-92.16-111.71L11.02,503.29c-5.07-47.45,26.82-101.28,70.87-119.64L967.65,14.66c44.05-18.35,98.39,1.12,120.75,43.28l274.26,516.97c22.36,42.15,25.79,112.74,7.62,156.87l-239.03,580.38Z"/>
  <path class="cls-33" d="M1145.96,1305.24c-17.15,44.45-68.72,70.29-114.59,57.43l-880.96-247.06c-45.88-12.87-87.14-62.2-91.7-109.62L11.83,518.16c-4.56-47.43,27.35-102.02,70.91-121.33L941.94,16.08c43.56-19.3,98.3-1.11,121.64,40.42l292.09,519.77c23.34,41.54,28.41,111.89,11.25,156.34l-220.96,572.63Z"/>
  <path class="cls-47" d="M1160.59,1298.35c-16.09,44.77-66.97,71.77-113.06,60.01l-902.1-230.24c-46.09-11.76-87.12-60.17-91.16-107.57L12.64,533.01c-4.05-47.4,27.85-102.77,70.88-123.05L916.29,17.54c43.03-20.28,98.1-3.4,122.38,37.52l310.08,522.6c24.27,40.91,30.97,111.01,14.88,155.78l-203.04,564.91Z"/>
  <path class="cls-13" d="M1175.14,1291.48c-14.99,45.07-65.11,73.2-111.39,62.51l-923.37-213.32c-46.28-10.69-87.04-58.19-90.57-105.56L13.45,547.86c-3.53-47.37,28.32-103.53,70.79-124.8L890.72,19.05c42.47-21.27,97.8-5.72,122.97,34.56l328.22,525.44c25.16,40.28,33.49,110.12,18.51,155.19l-185.28,557.25Z"/>
  <path class="cls-44" d="M1189.61,1284.65c-13.84,45.36-63.15,74.58-109.58,64.93l-944.75-196.29c-46.43-9.65-86.9-56.26-89.92-103.59l-31.1-487c-3.02-47.33,28.75-104.29,70.61-126.58L865.22,20.58c41.86-22.29,97.39-8.08,123.4,31.57l346.52,528.28c26.01,39.65,35.97,109.21,22.13,154.57l-167.67,549.63Z"/>
  <path class="cls-37" d="M1204,1277.84c-12.65,45.63-61.08,75.9-107.64,67.27l-966.23-179.16c-46.56-8.63-86.7-54.38-89.21-101.67l-25.85-486.76c-2.51-47.28,29.15-105.05,70.36-128.38L839.81,22.15c41.21-23.32,96.86-10.48,123.68,28.55l364.97,531.13c26.82,39.03,38.41,108.29,25.77,153.92l-150.23,542.09Z"/>
  <path class="cls-21" d="M1218.31,1271.07c-11.41,45.88-58.92,77.16-105.57,69.51l-987.82-161.92c-46.65-7.65-86.46-52.55-88.46-99.79l-20.59-486.54c-2-47.23,29.51-105.82,70.02-130.2L814.48,23.75c40.51-24.37,96.22-12.9,123.8,25.5l383.57,533.97c27.58,38.4,40.81,107.35,29.41,153.23l-132.95,534.62Z"/>
  <path class="cls-12" d="M1232.54,1264.35c-10.13,46.1-56.65,78.35-103.37,71.66l-1009.49-144.57c-46.73-6.69-86.17-50.77-87.66-97.95l-15.33-486.34c-1.49-47.18,29.83-106.6,69.59-132.03L789.24,25.38c39.76-25.44,95.46-15.35,123.77,22.43l402.31,536.8c28.31,37.77,43.18,106.4,33.06,152.5l-115.83,527.24Z"/>
  <path class="cls-4" d="M1246.69,1257.68c-8.8,46.3-54.28,79.47-101.05,73.7l-1031.25-127.12c-46.78-5.77-85.85-49.04-86.82-96.16l-10.07-486.16c-.98-47.12,30.11-107.37,69.07-133.88L764.09,27.02c38.96-26.51,94.57-17.81,123.57,19.34l421.18,539.61c29,37.15,45.52,105.43,36.72,151.73l-98.87,519.97Z"/>
  <path class="cls-40" d="M1260.76,1251.06c-7.44,46.47-51.81,80.5-98.62,75.63l-1053.09-109.56c-46.8-4.87-85.48-47.35-85.94-94.41l-4.8-486c-.47-47.05,30.34-108.13,68.45-135.73L739.03,28.68c38.11-27.6,93.56-20.28,123.21,16.26l440.18,542.41c29.65,36.54,47.83,104.45,40.39,150.92l-82.06,512.8Z"/>
  <path class="cls-10" d="M1274.75,1244.51c-6.03,46.59-49.26,81.44-96.07,77.44l-1075-91.89c-46.81-4-85.08-45.72-85.03-92.7l.46-485.87c.04-46.98,30.52-108.89,67.73-137.58L714.08,30.35c37.21-28.69,92.42-22.76,122.69,13.17l459.31,545.17c30.27,35.93,50.11,103.45,44.08,150.05l-65.41,505.77Z"/>
  <path class="cls-16" d="M1288.68,1238.03c-4.58,46.69-46.61,82.3-93.42,79.13l-1096.97-74.12c-46.8-3.16-84.64-44.13-84.09-91.03l5.73-485.75c.55-46.91,30.66-109.65,66.91-139.42L689.22,32.02c36.25-29.78,91.15-25.23,122.01,10.1l478.56,547.91c30.86,35.33,52.36,102.43,47.79,149.12l-48.9,498.88Z"/>
  <path class="cls-24" d="M1302.53,1231.63c-3.09,46.73-43.89,83.05-90.67,80.7l-1119-56.25c-46.78-2.35-84.18-42.59-83.12-89.41l11.01-485.65c1.06-46.82,30.75-110.38,65.98-141.25L664.47,33.68c35.23-30.86,89.76-27.69,121.17,7.05l497.92,550.63c31.41,34.74,54.59,101.4,51.5,148.13l-32.53,492.14Z"/>
  <path class="cls-36" d="M639.83,35.33c34.16-31.94,88.23-30.12,120.17,4.03l517.39,553.3c31.94,34.16,56.79,100.34,55.22,147.08l-16.29,485.57c-1.57,46.74-41.09,83.69-87.82,82.12l-1141.09-38.27c-46.74-1.57-83.69-41.09-82.12-87.82l16.29-485.57c1.57-46.74,30.8-111.11,64.95-143.04L639.83,35.33Z"/>
  <path class="cls-45" d="M642.88,36.54c34.37-31.56,88.96-29.87,121.32,3.75l513.19,533.34c32.35,33.63,56.73,99.26,54.16,145.85l-28.19,511.79c-2.57,46.59-42.82,83.23-89.45,81.42l-1109.34-43.05c-46.63-1.81-84.52-41.47-84.21-88.13l3.29-492c.31-46.66,28.69-110.66,63.06-142.23L642.88,36.54Z"/>
  <path class="cls-31" d="M645.93,37.74c34.58-31.18,89.7-29.64,122.48,3.43l508.96,513.47c32.78,33.07,56.75,98.12,53.26,144.55l-40.39,538.06c-3.49,46.43-44.4,82.74-90.92,80.67l-1077.6-47.78c-46.52-2.06-85.33-41.84-86.25-88.4l-9.82-498.56c-.92-46.56,26.63-110.16,61.21-141.34L645.93,37.74Z"/>
  <path class="cls-18" d="M648.99,38.94c34.79-30.8,90.43-29.42,123.65,3.08l504.69,493.68c33.22,32.49,56.85,96.93,52.52,143.19l-52.85,564.38c-4.33,46.26-45.85,82.21-92.25,79.88l-1045.86-52.47c-46.41-2.33-86.11-42.21-88.22-88.63l-23.03-505.22c-2.12-46.42,24.62-109.6,59.41-140.4L648.99,38.94Z"/>
  <path class="cls-1" d="M652.06,40.13c35-30.41,91.17-29.21,124.84,2.68l500.39,473.99c33.66,31.89,57.02,95.68,51.91,141.77l-65.55,590.73c-5.11,46.08-47.17,81.66-93.47,79.05l-1014.13-57.11c-46.29-2.61-86.86-42.58-90.14-88.83l-36.35-511.99c-3.28-46.25,22.66-108.98,57.66-139.39L652.06,40.13Z"/>
  <path class="cls-17" d="M655.13,41.31c35.2-30.03,91.92-29.02,126.04,2.23l496.05,454.41c34.12,31.25,57.26,94.38,51.42,140.28l-78.46,617.11c-5.84,45.9-48.39,81.08-94.57,78.18l-982.42-61.7c-46.18-2.9-87.57-42.96-91.99-89.01L31.4,663.93c-4.42-46.06,20.77-108.31,55.97-138.33L655.13,41.31Z"/>
  <path class="cls-19" d="M658.2,42.49c35.4-29.64,92.66-28.85,127.25,1.74l491.68,434.93c34.58,30.59,57.55,93.02,51.05,138.73l-91.57,643.5c-6.5,45.71-49.51,80.48-95.57,77.27l-950.71-66.23c-46.06-3.21-88.26-43.34-93.78-89.18l-63.35-525.83c-5.52-45.84,18.93-107.59,54.33-137.22L658.2,42.49Z"/>
  <path class="cls-9" d="M661.28,43.67c35.6-29.24,93.41-28.71,128.47,1.19l487.28,415.56c35.05,29.9,57.91,91.6,50.78,137.11l-104.85,669.89c-7.12,45.52-50.54,79.87-96.47,76.33l-919.02-70.7c-45.94-3.53-88.91-43.73-95.5-89.33L34.93,650.86c-6.59-45.6,17.14-106.83,52.75-136.07L661.28,43.67Z"/>
  <path class="cls-7" d="M664.37,44.84c35.8-28.84,94.16-28.58,129.7.59l482.84,396.32c35.53,29.17,58.31,90.11,50.61,135.44l-118.3,696.3c-7.7,45.32-51.48,79.23-97.29,75.35l-887.34-75.11c-45.81-3.88-89.53-44.14-97.15-89.48L36.6,644.26c-7.63-45.34,15.42-106.03,51.22-134.87L664.37,44.84Z"/>
  <path class="cls-46" d="M667.46,46c35.99-28.44,94.91-28.48,130.93-.07l478.39,377.21c36.02,28.4,58.76,88.57,50.52,133.69l-131.89,722.7c-8.24,45.13-52.35,78.58-98.02,74.34l-855.67-79.44c-45.68-4.24-90.11-44.57-98.73-89.63L38.21,637.63c-8.63-45.05,13.76-105.19,49.75-133.63L667.46,46Z"/>
  <path class="cls-34" d="M670.55,47.16c36.18-28.04,95.66-28.4,132.17-.8l473.91,358.23c36.52,27.6,59.25,86.95,50.51,131.88l-145.62,749.11c-8.73,44.93-53.14,77.91-98.68,73.29l-824.03-83.7c-45.54-4.63-90.65-45.03-100.24-89.79L39.75,630.97c-9.59-44.76,12.16-104.32,48.34-132.36L670.55,47.16Z"/>
  <path class="cls-15" d="M673.66,48.32c36.37-27.64,96.41-28.35,133.42-1.59l469.41,339.39c37.01,26.76,59.77,85.26,50.57,130l-159.46,775.51c-9.2,44.74-53.87,77.23-99.27,72.19l-792.41-87.87c-45.4-5.03-91.15-45.52-101.68-89.97L41.23,624.29c-10.52-44.45,10.62-103.42,46.98-131.06L673.66,48.32Z"/>
  <path class="cls-29" d="M676.76,49.47c36.55-27.23,97.15-28.33,134.66-2.45l464.9,320.71c37.52,25.88,60.33,83.5,50.7,128.05l-173.42,801.91c-9.63,44.55-54.54,76.52-99.79,71.05l-760.81-91.94c-45.25-5.47-91.61-46.04-103.04-90.17L42.66,617.58c-11.42-44.12,9.14-102.5,45.69-129.73L676.76,49.47Z"/>
  <path class="cls-38" d="M679.88,50.62c36.73-26.82,97.89-28.34,135.91-3.39l460.39,302.18c38.02,24.96,60.91,81.66,50.87,126.02l-187.49,828.31c-10.04,44.36-55.15,75.8-100.24,69.87l-729.25-95.92c-45.09-5.93-92.03-46.61-104.32-90.4L44.01,610.85c-12.29-43.79,7.71-101.56,44.44-128.38L679.88,50.62Z"/>
  <path class="cls-22" d="M683,51.76c36.9-26.41,98.62-28.39,137.14-4.41l455.87,283.82c38.52,23.98,61.52,79.74,51.1,123.91l-201.64,854.69c-10.42,44.17-55.7,75.05-100.62,68.62l-697.72-99.78c-44.92-6.42-92.41-47.22-105.53-90.67L45.31,604.1c-13.12-43.44,6.35-100.59,43.25-127L683,51.76Z"/>
  <path class="cls-25" d="M686.13,52.9c37.08-25.99,99.34-28.47,138.37-5.5l451.37,265.63c39.02,22.97,62.14,77.74,51.36,121.72l-215.89,881.07c-10.78,43.98-56.2,74.28-100.95,67.32l-666.23-103.51c-44.74-6.95-92.74-47.9-106.65-90.98L46.55,597.34c-13.92-43.09,5.04-99.61,42.11-125.6L686.13,52.9Z"/>
  <path class="cls-43" d="M689.26,54.03c37.25-25.58,100.06-28.58,139.58-6.69l446.88,247.63c39.52,21.9,62.77,75.65,51.65,119.44l-230.21,907.44c-11.11,43.79-56.65,73.48-101.21,65.96l-634.78-107.11c-44.55-7.52-93.02-48.63-107.7-91.36L47.74,590.57c-14.68-42.73,3.78-98.62,41.03-124.19L689.26,54.03Z"/>
  <path class="cls-30" d="M692.4,55.16c37.41-25.16,100.76-28.74,140.76-7.96l442.42,229.8c40.01,20.78,63.4,73.47,51.97,117.08l-244.61,933.81c-11.42,43.61-57.05,72.65-101.4,64.52l-603.39-110.55c-44.35-8.12-93.24-49.44-108.66-91.8L48.86,583.79c-15.42-42.37,2.58-97.61,39.99-122.77L692.4,55.16Z"/>
  <path class="cls-32" d="M695.55,56.29c37.57-24.74,101.44-28.93,141.92-9.32l438.01,212.17c40.49,19.61,64.02,71.19,52.3,114.62l-259.08,960.16c-11.72,43.43-57.41,71.78-101.53,63l-572.07-113.83c-44.12-8.78-93.41-50.32-109.53-92.32L49.93,576.99c-16.12-42,1.43-96.6,39-121.33L695.55,56.29Z"/>
  <path class="cls-6" d="M698.7,57.41c37.73-24.31,102.1-29.16,143.05-10.78l433.64,194.72c40.95,18.39,64.63,68.82,52.64,112.07l-273.61,986.51c-12,43.25-57.71,70.88-101.58,61.4l-540.83-116.92c-43.87-9.48-93.51-51.3-110.31-92.92L50.95,570.2c-16.8-41.62.33-95.57,38.06-119.89L698.7,57.41Z"/>
  <path class="cls-26" d="M701.86,58.53c37.88-23.89,102.74-29.44,144.13-12.33l429.35,177.48c41.39,17.11,65.23,66.35,52.97,109.43l-288.2,1012.85c-12.26,43.08-57.96,69.94-101.56,59.69l-509.69-119.8c-43.6-10.25-93.55-52.38-110.99-93.63L51.92,563.4c-17.45-41.25-.73-94.55,37.16-118.44L701.86,58.53Z"/>
  <path class="cls-14" d="M705.03,59.65c38.03-23.46,103.36-29.75,145.17-13.97l425.14,160.43c41.81,15.78,65.79,63.79,53.29,106.69l-302.84,1039.18c-12.5,42.9-58.16,68.95-101.45,57.87l-478.65-122.44c-43.29-11.08-93.5-53.58-111.57-94.45L52.83,556.59c-18.07-40.87-1.73-93.51,36.3-116.98L705.03,59.65Z"/>
  <path class="cls-23" d="M708.21,60.76c38.18-23.04,103.94-30.11,146.15-15.72l421.03,143.58c42.2,14.39,66.31,61.13,53.58,103.86l-317.54,1065.5c-12.74,42.73-58.3,67.9-101.25,55.92l-447.76-124.83c-42.95-11.97-93.36-54.91-112.02-95.4L53.7,549.79c-18.66-40.5-2.69-92.48,35.49-115.52L708.21,60.76Z"/>
  <path class="cls-2" d="M54.52,542.99c-19.23-40.12-3.61-91.45,34.71-114.05L711.4,61.87c38.32-22.61,104.5-30.51,147.06-17.55l417.03,126.92c42.56,12.95,66.79,58.38,53.84,100.94l-332.28,1091.81c-12.95,42.56-58.38,66.79-100.94,53.84l-417.03-126.92c-42.56-12.95-93.12-56.38-112.35-96.5L54.52,542.99Z"/>
</svg>