<svg width="81" height="100" viewBox="0 0 81 100" fill="none" xmlns="http://www.w3.org/2000/svg">
<g clip-path="url(#clip0_1703_1234)">
<path d="M80.5721 67.9001L80.5678 67.8926L80.526 67.806L80.4017 67.5665L74.8095 56.7681L74.3196 55.8348L51.4222 11.572C50.9173 10.6024 49.9258 10.0005 48.8346 10.0005H40.7716C39.6761 10.0005 38.6845 10.6024 38.1829 11.572L15.0657 56.2421L2.42024 80.6624L0.326771 84.7247C-0.142732 85.6324 -0.104143 86.695 0.428604 87.5673C0.960279 88.4386 1.88964 88.9582 2.91225 88.9582H9.37274C10.4586 88.9582 11.4458 88.3616 11.9497 87.4016L18.6835 74.618C18.8303 74.3357 18.9997 74.0097 19.1787 73.6911C19.2044 73.6494 19.2323 73.6002 19.2602 73.55L19.2688 73.534C19.3202 73.4559 19.3663 73.3757 19.4049 73.2945C19.9687 72.3302 20.6183 71.3916 21.3365 70.5032C22.0032 69.6715 22.789 68.8473 23.6722 68.054C25.3605 66.5167 27.3371 65.1922 29.5474 64.1178C32.6528 62.5912 36.2384 61.535 40.2056 60.978C42.5906 60.6295 45.1268 60.452 47.7466 60.452C50.0158 60.452 52.2497 60.6273 54.3882 60.9737C58.5301 61.6194 62.3483 62.8948 65.7367 64.7635L65.7571 64.7753L65.7903 64.7924C65.9929 64.8939 69.1658 66.5798 70.2077 67.1346L70.2945 67.1806L70.2977 67.1828L70.3203 67.1945C70.5282 67.2993 70.7265 67.4094 70.927 67.5291L70.9645 67.5516L70.9763 67.559L70.9891 67.5655L71.0277 67.5847L71.0481 67.5954C71.0802 67.6125 71.1274 67.6371 71.1853 67.6638C72.7106 68.5116 74.2103 69.4032 75.6423 70.314L75.6466 70.3172L75.6638 70.3279C75.7206 70.3632 76.0422 70.5727 76.501 70.8731L76.6457 70.9682L76.8054 71.073L76.8804 71.1222L76.9051 71.1382L76.9319 71.15L77.0133 71.1863C77.3489 71.336 77.7069 71.4119 78.0799 71.4119C79.527 71.4119 80.7029 70.2381 80.7029 68.7959C80.7029 68.5137 80.6579 68.2358 80.5689 67.9696V67.9033L80.5721 67.9001ZM57.5804 49.4515C54.5737 48.9395 51.4222 48.6797 48.2032 48.6797C42.9787 48.6797 37.9728 49.3307 33.3249 50.6136C32.4073 50.8627 31.4973 51.1396 30.6076 51.44L44.6101 24.4754L57.5804 49.4515Z" fill="#09293B"/>
<path d="M79.0307 78.7156C77.8891 77.6198 76.5191 77.0083 74.907 76.865H74.892C74.6497 76.8512 74.4214 76.8362 74.1781 76.8362H74.0934C72.7235 76.8501 71.51 77.2061 70.4542 77.9031C70.0694 78.1597 69.6985 78.4729 69.3555 78.8139C68.0574 80.1085 67.4003 81.6319 67.4153 83.382C67.4153 85.2036 68.0713 86.7548 69.3844 88.0644C70.6975 89.359 72.3097 89.9994 74.222 89.9994C75.7774 89.9994 77.1334 89.5578 78.2889 88.6898C78.5601 88.5048 78.8163 88.2771 79.0596 88.0355C79.4584 87.6368 79.8014 87.1963 80.0576 86.7409C80.6857 85.7018 80.9998 84.5205 80.9998 83.197C80.9998 81.4609 80.3438 79.9664 79.0307 78.7145V78.7156Z" fill="#09293B"/>
</g>
<defs>
<clipPath id="clip0_1703_1234">
<rect width="81" height="79.9989" fill="white" transform="translate(0 10.0005)"/>
</clipPath>
</defs>
</svg>
