<svg width="90" height="90" viewBox="0 0 90 90" fill="none" xmlns="http://www.w3.org/2000/svg">
<g clip-path="url(#clip0_1375_839)">
<g clip-path="url(#clip1_1375_839)">
<path fill-rule="evenodd" clip-rule="evenodd" d="M90 45C90 69.8555 69.8555 90 45 90C20.1445 90 0 69.8555 0 45C0 20.1445 20.1445 0 45 0C69.8555 0 90 20.1445 90 45ZM86.3086 45C86.3086 67.8164 67.8164 86.3086 45 86.3086C22.1836 86.3086 3.69141 67.8164 3.69141 45C3.69141 22.1836 22.1836 3.69141 45 3.69141C67.8164 3.69141 86.3086 22.1836 86.3086 45ZM32.794 80.6203C32.8152 80.6947 32.8543 80.7619 32.9058 80.8184C17.9673 75.77 7.20703 61.6446 7.20703 45C7.20703 24.1242 24.1242 7.20703 45 7.20703C65.8758 7.20703 82.793 24.1242 82.793 45C82.793 62.9227 70.3125 77.9344 53.5711 81.8156C52.5497 79.5719 51.4419 77.0549 50.4107 74.5156C51.6612 74.3389 52.8346 74.023 53.1001 73.5539C53.522 72.8086 52.9665 69.7851 52.629 68.8359C52.5587 68.6461 52.4743 68.4562 52.3759 68.2734L52.3829 68.2664C53.304 68.3718 54.2462 69.3633 54.2462 72.9844C54.2462 73.8562 61.4744 75.4664 61.629 74.6578C62.1001 72.1828 61.8259 66.0304 59.6392 63.45C59.1962 62.9297 54.7103 65.7633 52.0173 67.7742C51.4408 67.1625 50.4423 66.8039 48.5439 67.1133C48.2597 67.1593 48.0001 67.2069 47.7635 67.2571C46.2037 62.229 45.7259 58.2226 47.9362 57.712C50.0966 58.3266 52.7387 58.7574 55.8493 58.732C63.6118 58.6687 68.14 55.6383 67.3525 54.1476C66.9808 53.4441 65.3669 53.6224 62.9514 53.8893C60.2494 54.1879 56.5444 54.5973 52.4532 54.007C46.7157 53.1773 46.1532 50.5476 46.8845 49.4297C47.9904 47.7363 50.0488 47.828 52.9931 47.9592H52.9932C54.5601 48.029 56.378 48.11 58.4368 47.939C64.3642 47.4469 67.7181 45.7945 69.5884 43.664C70.5657 42.5461 71.0157 41.3367 70.636 40.6336C70.2845 39.9937 69.2931 39.7547 66.4946 40.8234C64.5379 41.5659 61.6226 42.5137 57.7013 42.9778C58.371 38.6359 56.3432 22.8659 45.225 20.475C45.1688 20.468 45.1266 20.4398 45.0914 20.3977C41.6461 16.0523 34.7766 14.0766 28.1953 14.9625C28.1689 14.9661 28.1454 14.9738 28.1248 14.9849C27.9135 15.0556 27.9123 15.459 28.1393 15.5391C28.8851 15.7896 29.7601 16.1922 30.4132 16.7694C29.4709 17.2648 28.0877 18.1197 27.3234 19.1742C27.2814 19.2311 27.275 19.2915 27.2927 19.3431C27.3065 19.4583 27.415 19.5601 27.5557 19.5328C30.7479 18.9 34.0033 19.2094 35.9229 20.9602C36.0494 21.0727 35.9791 21.2766 35.8174 21.3187C19.1604 25.8469 22.458 40.3383 26.8877 58.1203C30.8393 73.9617 32.3229 79.0664 32.794 80.6203Z" fill="#09293B"/>
<path fill-rule="evenodd" clip-rule="evenodd" d="M52.3759 68.2734C52.4744 68.4562 52.5587 68.6461 52.629 68.8359C52.9665 69.7851 53.522 72.8086 53.1001 73.5539C52.6783 74.2992 49.9642 74.6578 48.2908 74.6859C46.6173 74.714 46.2376 74.1023 45.9001 73.1531C45.6259 72.3937 45.4923 70.6078 45.4994 69.5812C45.4556 68.6353 45.6545 68.0712 46.4292 67.6801C45.7645 67.9501 45.3244 68.2871 45.0634 68.7234C44.8825 68.6549 44.6941 68.5842 44.4996 68.5121C44.5213 68.5216 44.5429 68.5311 44.5643 68.5407C44.5643 68.5407 44.0229 70.9946 44.8877 73.8844C45.1409 74.7282 38.8198 78.4969 37.9971 77.8501C37.0409 77.0977 35.2901 69.1102 36.5346 67.1415C36.6184 67.0087 36.7871 66.9182 37.0223 66.864C36.4636 66.9502 36.0237 67.1558 35.7611 67.5211C34.4251 69.3843 36.0986 78.1804 37.8704 79.3265C38.7986 79.9242 43.2353 77.0695 45.5556 75.1007C45.9283 75.6281 46.5329 75.9304 47.7704 75.9023C49.6408 75.8601 52.6783 75.4242 53.1493 74.5523C53.1775 74.4961 53.2056 74.4398 53.2267 74.3625C55.6103 75.2554 59.8009 76.1976 60.7361 76.057C61.2555 75.9792 61.5384 75.4017 61.6512 74.5357C61.644 74.5773 61.6366 74.618 61.629 74.6578C61.4744 75.4664 54.2462 73.8562 54.2462 72.9844C54.2462 69.3633 53.304 68.3719 52.3829 68.2664L52.3759 68.2734Z" fill="#09293B"/>
<path d="M48.7477 29.6226C49.1836 28.9125 50.1399 28.364 51.7149 28.364C53.2899 28.364 54.0281 28.9898 54.5344 29.6859C54.6399 29.8265 54.4781 29.9953 54.3164 29.925C54.2742 29.9109 54.2391 29.8898 54.1969 29.8757C53.6203 29.6226 52.9172 29.3132 51.7078 29.2992C50.4141 29.2781 49.5985 29.6015 49.0852 29.8828C48.9094 29.9742 48.6422 29.7914 48.7406 29.6226H48.7477Z" fill="#09293B"/>
<path d="M31.0569 30.5296C32.5827 29.8898 33.778 29.9742 34.6288 30.1781C34.8046 30.2203 34.9312 30.0304 34.7905 29.9109C34.1296 29.3835 32.6601 28.7226 30.7405 29.4398C29.0249 30.0796 28.2233 31.4085 28.2163 32.2804C28.2163 32.4843 28.6382 32.5054 28.7507 32.3296C29.046 31.8585 29.5382 31.1695 31.064 30.5367L31.0569 30.5296Z" fill="#09293B"/>
<path fill-rule="evenodd" clip-rule="evenodd" d="M53.0436 39.3187C51.6936 39.3187 50.6038 38.2289 50.6038 36.8859C50.6038 35.5429 51.7006 34.4531 53.0436 34.4531C54.3866 34.4531 55.4834 35.5429 55.4834 36.8859C55.4834 38.2289 54.3866 39.3187 53.0436 39.3187ZM54.7663 36.0773C54.7663 35.7328 54.485 35.4445 54.1334 35.4445C53.7819 35.4445 53.5006 35.7257 53.5006 36.0773C53.5006 36.4218 53.7819 36.7101 54.1334 36.7101C54.485 36.7101 54.7663 36.4289 54.7663 36.0773Z" fill="#09293B"/>
<path fill-rule="evenodd" clip-rule="evenodd" d="M36.8577 38.5664C36.8577 40.1343 35.585 41.407 34.01 41.407C32.435 41.407 31.1624 40.1343 31.1624 38.5664C31.1624 36.9984 32.442 35.7257 34.01 35.7257C35.578 35.7257 36.8577 36.9984 36.8577 38.5664ZM36.0209 37.6312C36.0209 37.2234 35.6905 36.9 35.2827 36.9C34.8749 36.9 34.5514 37.2234 34.5444 37.6312C34.5444 38.039 34.8749 38.3625 35.2827 38.3625C35.6905 38.3625 36.0209 38.032 36.0209 37.6312Z" fill="#09293B"/>
</g>
</g>
<defs>
<clipPath id="clip0_1375_839">
<rect width="90" height="90" fill="white"/>
</clipPath>
<clipPath id="clip1_1375_839">
<rect width="90" height="90" fill="white"/>
</clipPath>
</defs>
</svg>
