<svg width="80" height="80" viewBox="0 0 80 80" fill="none" xmlns="http://www.w3.org/2000/svg">
<g clip-path="url(#clip0_1375_897)">
<path d="M26.4491 59.4585C26.4491 62.5632 23.9094 65.0903 20.7893 65.0903C17.6691 65.0903 15.1294 62.5632 15.1294 59.4585C15.1294 56.3538 17.6691 53.8267 20.7893 53.8267C23.9094 53.8267 26.4491 56.3538 26.4491 59.4585Z" fill="#09293B"/>
<path d="M75.755 53.6101C72.1269 28.0866 51.8095 7.83394 26.1224 4.22383C23.0748 5.77617 20.3537 7.79783 17.9229 10.1083V15.5596C43.5374 15.5596 64.3628 36.3177 64.3628 61.769H69.8412C72.1632 59.3502 74.1587 56.6065 75.755 53.6101Z" fill="#09293B"/>
<path d="M80 36.5343C80 16.3538 63.5647 0 43.2835 0C42.0137 0 40.7438 0.0722022 39.5102 0.216606L38.6758 2.59928C56.7438 8.88087 71.0749 23.1408 77.3878 41.083L79.8549 40.2527C79.8912 39.0614 80 37.8339 80 36.5343Z" fill="#09293B"/>
<path d="M43.6828 80C32.0002 80 21.0796 75.4874 12.8075 67.2563C4.53536 59.0253 0.000214317 48.1227 0.000214317 36.5343C-0.0360669 24.9097 4.53536 14.0072 12.7712 5.77617L15.0932 8.08664C7.47414 15.6679 3.26552 25.7401 3.26552 36.4982C3.26552 47.2563 7.47414 57.3285 15.0932 64.9098C22.7122 72.491 32.8347 76.6787 43.6465 76.6787C54.4583 76.6787 64.5807 72.491 72.1998 64.9098L74.5218 67.2202C66.3222 75.4513 55.329 80 43.6828 80Z" fill="#09293B"/>
<path d="M43.2108 64.2599C44.1178 55.1986 40.0543 46.7509 33.2335 41.5884C29.6416 38.8809 25.2516 37.1119 20.4625 36.6065C19.1926 36.4621 18.3219 35.3791 18.4307 34.1516C18.5759 32.7798 19.7006 31.9856 20.9341 32.13C26.1586 32.6715 30.9115 34.4765 34.9387 37.2563C43.6099 43.213 48.8706 53.5379 47.7459 64.7292C47.5645 66.4982 47.2017 68.1949 46.7663 69.8556L53.4058 71.7328C55.365 71.1552 57.3242 70.4693 59.1745 69.6029C59.6462 67.0758 59.9001 64.4765 59.9001 61.805C59.9001 40.8664 44.3718 23.5379 24.1632 20.5415C21.7323 20.1805 19.3015 20.1444 17.4874 20.6137C14.6212 21.2996 12.1541 22.8881 10.2675 25.0181C8.05432 27.509 6.71191 30.7942 6.71191 34.4404C6.71191 40.7942 10.9205 46.1733 16.653 47.9783C17.7414 48.3393 19.4103 48.4837 20.2448 48.6282H20.2811C26.594 49.7112 31.4194 55.1986 31.4194 61.805C31.4194 64.4404 30.6575 66.9314 29.2788 68.9892L33.8502 71.9134C36.0634 72.5271 38.3491 72.8881 40.7074 73.0686C42.0135 70.3249 42.8842 67.3646 43.2108 64.2599Z" fill="#09293B"/>
</g>
<defs>
<clipPath id="clip0_1375_897">
<rect width="80" height="80" fill="white"/>
</clipPath>
</defs>
</svg>
