<svg width="130" height="80" viewBox="0 0 130 80" fill="none" xmlns="http://www.w3.org/2000/svg">
<path id="Union" fill-rule="evenodd" clip-rule="evenodd" d="M112.121 38.6566C117.331 39.3697 122.071 42.0191 125.38 46.0643L125.376 46.071C128.689 50.1162 130.321 55.2596 129.945 60.4537C129.569 65.6478 127.214 70.5074 123.354 74.0456C119.494 77.5805 114.422 79.5337 109.165 79.5033H106.689V51.1131H108.93C109.195 51.1131 109.454 51.0624 109.699 50.961C109.944 50.8596 110.163 50.7143 110.351 50.5284C110.539 50.3426 110.687 50.1229 110.787 49.883C110.892 49.643 110.942 49.3828 110.942 49.1226C110.942 48.8624 110.888 48.6022 110.787 48.3623C110.687 48.1223 110.539 47.9027 110.351 47.7168C110.163 47.5309 109.944 47.3856 109.699 47.2842C109.454 47.1828 109.195 47.1322 108.93 47.1322H100.109V30.9212H102.349C102.863 30.8976 103.347 30.6745 103.703 30.3062C104.059 29.9344 104.257 29.4444 104.257 28.9341C104.257 28.4239 104.059 27.9305 103.703 27.5621C103.347 27.1938 102.863 26.9741 102.349 26.9471H35.4379C34.9239 26.9707 34.4402 27.1938 34.0841 27.5621C33.7281 27.9338 33.5299 28.4239 33.5299 28.9341C33.5299 29.4444 33.7281 29.9378 34.0841 30.3062C34.4402 30.6745 34.9239 30.8942 35.4379 30.9212H37.6784V47.1322H28.8438C28.3097 47.1322 27.7991 47.3417 27.4229 47.7134C27.0467 48.0851 26.835 48.592 26.835 49.1192C26.835 49.6464 27.0467 50.1533 27.4229 50.5251C27.7991 50.8968 28.3097 51.1063 28.8438 51.1063H31.0777V79.4797C26.7275 79.3513 22.4446 78.3442 18.4942 76.5159C14.2516 74.5559 10.496 71.6969 7.48955 68.1452C4.48309 64.5901 2.29963 60.4267 1.09033 55.949C-0.118974 51.4713 -0.323884 46.7841 0.492395 42.2185C1.30867 37.653 3.12263 33.3172 5.80997 29.5222C8.4973 25.7237 11.9908 22.5572 16.0454 20.2423C20.0999 17.9275 24.618 16.5216 29.2805 16.1195C33.943 15.7173 38.6392 16.3358 43.0363 17.9241C47.3361 11.1011 53.7588 5.84953 61.3371 2.96353C68.9154 0.0775286 77.2361 -0.287446 85.0428 1.92605C92.8495 4.13956 99.7157 8.80649 104.607 15.2273C109.498 21.6448 112.145 29.4681 112.151 37.511C112.151 37.7062 112.144 37.898 112.136 38.0889V38.089V38.0892C112.129 38.2784 112.121 38.4667 112.121 38.6566ZM37.6818 58.862H59.3552V67.4017H37.6818V58.862ZM80.0578 34.7636H71.4381V43.3134H80.0578V34.7636ZM37.6818 34.7636H67.8573V43.3134H37.6818V34.7636ZM92.3053 34.7636H83.6857V43.3134H92.3053V34.7636ZM83.6857 58.862H92.3053V79.4966H83.6857V58.862Z" fill="#09293B"/>
</svg>
