<svg width="130" height="80" viewBox="0 0 130 80" fill="none" xmlns="http://www.w3.org/2000/svg">
<path fill-rule="evenodd" clip-rule="evenodd" d="M112.119 38.6566C117.329 39.3697 122.069 42.0191 125.378 46.0643L125.374 46.071C128.687 50.1161 130.319 55.2596 129.943 60.4537C129.567 65.6478 127.212 70.5074 123.352 74.0456C119.493 77.5804 114.42 79.5337 109.163 79.5033H106.687V51.1131H108.928C109.193 51.1131 109.452 51.0624 109.697 50.961C109.942 50.8596 110.161 50.7143 110.349 50.5284C110.537 50.3426 110.685 50.1229 110.786 49.883C110.89 49.643 110.94 49.3828 110.94 49.1226C110.94 48.8624 110.886 48.6022 110.786 48.3622C110.685 48.1223 110.537 47.9026 110.349 47.7168C110.161 47.5309 109.942 47.3856 109.697 47.2842C109.452 47.1828 109.193 47.1321 108.928 47.1321H100.107V30.9212H102.347C102.861 30.8976 103.345 30.6745 103.701 30.3062C104.057 29.9344 104.255 29.4444 104.255 28.9341C104.255 28.4238 104.057 27.9305 103.701 27.5621C103.345 27.1937 102.861 26.9741 102.347 26.9471H35.4359C34.922 26.9707 34.4382 27.1937 34.0822 27.5621C33.7261 27.9338 33.5279 28.4238 33.5279 28.9341C33.5279 29.4444 33.7261 29.9378 34.0822 30.3062C34.4382 30.6745 34.922 30.8942 35.4359 30.9212H37.6765V47.1321H28.8419C28.3078 47.1321 27.7972 47.3417 27.4209 47.7134C27.0447 48.0851 26.8331 48.592 26.8331 49.1192C26.8331 49.6464 27.0447 50.1533 27.4209 50.5251C27.7972 50.8968 28.3078 51.1063 28.8419 51.1063H31.0757V79.4797C26.7256 79.3512 22.4426 78.3442 18.4923 76.5159C14.2496 74.5559 10.4941 71.6969 7.4876 68.1452C4.48114 64.5901 2.29768 60.4267 1.08837 55.949C-0.120927 51.4713 -0.325837 46.7841 0.490442 42.2185C1.30672 37.653 3.12067 33.3172 5.80801 29.5221C8.49535 25.7237 11.9889 22.5572 16.0434 20.2423C20.0979 17.9275 24.616 16.5216 29.2786 16.1195C33.9411 15.7173 38.6372 16.3358 43.0344 17.9241C47.3341 11.1011 53.7568 5.84952 61.3351 2.96352C68.9134 0.0775203 77.2341 -0.287454 85.0408 1.92605C92.8475 4.13955 99.7137 8.80648 104.605 15.2273C109.496 21.6448 112.143 29.4681 112.149 37.511C112.149 37.7062 112.142 37.8979 112.134 38.0889V38.089V38.0892C112.127 38.2783 112.119 38.4667 112.119 38.6566ZM37.6798 58.862H59.3532V67.4017H37.6798V58.862ZM80.0558 34.7636H71.4362V43.3134H80.0558V34.7636ZM37.6798 34.7636H67.8553V43.3134H37.6798V34.7636ZM92.3034 34.7636H83.6837V43.3134H92.3034V34.7636ZM83.6837 58.862H92.3034V79.4966H83.6837V58.862Z" fill="#09293B"/>
</svg>
