<svg width="14" height="14" viewBox="0 0 14 14" fill="none" xmlns="http://www.w3.org/2000/svg">
<path id="Vector" d="M13.1687 6.33775C13.1171 6.20488 13.0398 6.08349 12.9411 5.98054L7.52219 0.568337C7.42114 0.467412 7.30117 0.387354 7.16915 0.332733C7.03712 0.278113 6.89561 0.25 6.7527 0.25C6.46409 0.25 6.1873 0.364509 5.98322 0.568337C5.88216 0.669262 5.80201 0.789078 5.74732 0.920943C5.69263 1.05281 5.66448 1.19414 5.66448 1.33687C5.66448 1.62513 5.77913 1.90158 5.98322 2.1054L9.5597 5.66664C9.5597 5.66664 1.62122 5.66664 1.33378 5.66664C1.04635 5.66664 0.770682 5.78068 0.567433 5.98368C0.364184 6.18667 0.25 6.462 0.25 6.74908C0.25 7.03616 0.364184 7.31148 0.567433 7.51448C0.770682 7.71748 1.04635 7.83152 1.33378 7.83152H9.5597L5.98322 11.3928C5.88163 11.4934 5.80101 11.6131 5.74598 11.745C5.69096 11.8769 5.66263 12.0184 5.66263 12.1613C5.66263 12.3042 5.69096 12.4457 5.74598 12.5776C5.80101 12.7095 5.88163 12.8292 5.98322 12.9298C6.08397 13.0313 6.20383 13.1118 6.3359 13.1668C6.46797 13.2217 6.60963 13.25 6.7527 13.25C6.89577 13.25 7.03743 13.2217 7.1695 13.1668C7.30157 13.1118 7.42144 13.0313 7.52219 12.9298L12.9411 7.51761C13.0398 7.41467 13.1171 7.29328 13.1687 7.16041C13.2771 6.89687 13.2771 6.60128 13.1687 6.33775Z" fill="#EDECED"/>
</svg>
