<svg width="20" height="19" viewBox="0 0 20 19" fill="none" xmlns="http://www.w3.org/2000/svg">
<path id="Vector" d="M6.6598 15.2988C6.6598 15.3773 6.57218 15.4402 6.46169 15.4402C6.33597 15.452 6.24834 15.3891 6.24834 15.2988C6.24834 15.2202 6.33597 15.1573 6.44645 15.1573C6.56075 15.1455 6.6598 15.2084 6.6598 15.2988ZM5.47496 15.122C5.44829 15.2006 5.52448 15.2909 5.63878 15.3145C5.73783 15.3538 5.85213 15.3145 5.87499 15.2359C5.89784 15.1573 5.82546 15.067 5.71116 15.0316C5.61211 15.0041 5.50163 15.0434 5.47496 15.122ZM7.15889 15.0552C7.0484 15.0827 6.97221 15.1573 6.98363 15.2477C6.99506 15.3263 7.09412 15.3773 7.20841 15.3498C7.3189 15.3223 7.39509 15.2477 7.38366 15.1691C7.37223 15.0945 7.26937 15.0434 7.15889 15.0552ZM9.66573 0C4.38155 0 0.339355 4.13703 0.339355 9.58629C0.339355 13.9433 2.99859 17.6718 6.79696 18.984C7.28461 19.0744 7.45605 18.764 7.45605 18.5086C7.45605 18.265 7.44462 16.9214 7.44462 16.0963C7.44462 16.0963 4.77776 16.6856 4.21773 14.9255C4.21773 14.9255 3.78341 13.7823 3.1586 13.4876C3.1586 13.4876 2.28616 12.8708 3.21956 12.8826C3.21956 12.8826 4.1682 12.9611 4.69014 13.8962C5.52448 15.4127 6.92268 14.9766 7.46748 14.7173C7.5551 14.0887 7.80274 13.6526 8.07705 13.3933C5.94737 13.1497 3.79865 12.8315 3.79865 9.05197C3.79865 7.97155 4.08819 7.42937 4.69776 6.7379C4.5987 6.48253 4.27487 5.42961 4.79681 4.07024C5.59306 3.81487 7.42557 5.13102 7.42557 5.13102C8.18753 4.91101 9.00664 4.79707 9.81812 4.79707C10.6296 4.79707 11.4487 4.91101 12.2107 5.13102C12.2107 5.13102 14.0432 3.81094 14.8394 4.07024C15.3614 5.43354 15.0375 6.48253 14.9385 6.7379C15.5481 7.4333 15.9214 7.97548 15.9214 9.05197C15.9214 12.8433 13.6774 13.1458 11.5478 13.3933C11.8983 13.7037 12.1954 14.293 12.1954 15.2163C12.1954 16.5403 12.184 18.1786 12.184 18.5007C12.184 18.7561 12.3593 19.0665 12.8431 18.9761C16.6529 17.6718 19.2359 13.9433 19.2359 9.58629C19.2359 4.13703 14.9499 0 9.66573 0ZM4.04247 13.5505C3.99295 13.5897 4.00438 13.6801 4.06914 13.7548C4.1301 13.8176 4.21773 13.8451 4.26725 13.794C4.31678 13.7548 4.30535 13.6644 4.24058 13.5897C4.17963 13.5269 4.092 13.4994 4.04247 13.5505ZM3.63102 13.2322C3.60435 13.2833 3.64245 13.3462 3.71864 13.3854C3.7796 13.4247 3.85579 13.4129 3.88246 13.3579C3.90913 13.3069 3.87103 13.244 3.79484 13.2047C3.71864 13.1811 3.65769 13.1929 3.63102 13.2322ZM4.86539 14.6309C4.80443 14.6819 4.82729 14.7998 4.91492 14.8745C5.00254 14.9648 5.11303 14.9766 5.16255 14.9137C5.21208 14.8627 5.18922 14.7448 5.11303 14.6702C5.02921 14.5798 4.91492 14.568 4.86539 14.6309ZM4.43107 14.0533C4.37012 14.0926 4.37012 14.1948 4.43107 14.2851C4.49203 14.3755 4.59489 14.4148 4.64442 14.3755C4.70538 14.3244 4.70538 14.2223 4.64442 14.1319C4.59108 14.0416 4.49203 14.0023 4.43107 14.0533Z" fill="#09293B"/>
</svg>
