<svg width="18" height="18" viewBox="0 0 18 18" fill="none" xmlns="http://www.w3.org/2000/svg">
<g id="inbox">
<mask id="mask0_625_724" style="mask-type:alpha" maskUnits="userSpaceOnUse" x="0" y="0" width="18" height="18">
<rect id="Bounding box" width="18" height="18" fill="#D9D9D9"/>
</mask>
<g mask="url(#mask0_625_724)">
<path id="inbox_2" d="M2 18C1.45 18 0.979167 17.8042 0.5875 17.4125C0.195833 17.0208 0 16.55 0 16V2C0 1.45 0.195833 0.979167 0.5875 0.5875C0.979167 0.195833 1.45 0 2 0H16C16.55 0 17.0208 0.195833 17.4125 0.5875C17.8042 0.979167 18 1.45 18 2V16C18 16.55 17.8042 17.0208 17.4125 17.4125C17.0208 17.8042 16.55 18 16 18H2ZM2 16H16V13H13C12.5 13.6333 11.9042 14.125 11.2125 14.475C10.5208 14.825 9.78333 15 9 15C8.21667 15 7.47917 14.825 6.7875 14.475C6.09583 14.125 5.5 13.6333 5 13H2V16ZM9 13C9.63333 13 10.2083 12.8167 10.725 12.45C11.2417 12.0833 11.6 11.6 11.8 11H16V2H2V11H6.2C6.4 11.6 6.75833 12.0833 7.275 12.45C7.79167 12.8167 8.36667 13 9 13Z" fill="#09293B"/>
</g>
</g>
</svg>
