<svg width="19" height="19" viewBox="0 0 19 19" fill="none" xmlns="http://www.w3.org/2000/svg">
<g id="&#240;&#159;&#166;&#134; icon &#34;LinkedIn In&#34;">
<path id="Vector" d="M4.36005 19H0.540179V6.31467H4.36005V19ZM2.44806 4.58428C1.22659 4.58428 0.23584 3.54095 0.23584 2.28132C0.23584 1.67628 0.468912 1.09602 0.883783 0.668184C1.29865 0.240353 1.86134 0 2.44806 0C3.03477 0 3.59746 0.240353 4.01233 0.668184C4.4272 1.09602 4.66027 1.67628 4.66027 2.28132C4.66027 3.54095 3.66911 4.58428 2.44806 4.58428ZM18.6566 19H14.8449V12.8249C14.8449 11.3532 14.8161 9.46586 12.8589 9.46586C10.8729 9.46586 10.5686 11.0648 10.5686 12.7188V19H6.75281V6.31467H10.4164V8.04507H10.4699C10.9798 7.04839 12.2256 5.99658 14.0841 5.99658C17.95 5.99658 18.6607 8.62187 18.6607 12.0318V19H18.6566Z" fill="#09293B"/>
</g>
</svg>
