<svg width="24" height="24" viewBox="0 0 24 24" fill="none" xmlns="http://www.w3.org/2000/svg">
<g id="mark_email_unread">
<mask id="mask0_316_3745" style="mask-type:alpha" maskUnits="userSpaceOnUse" x="0" y="0" width="24" height="24">
<rect id="Bounding box" x="0.25" width="23.5" height="23.5" fill="#D9D9D9"/>
</mask>
<g mask="url(#mask0_316_3745)">
<path id="mark_email_unread_2" d="M4.16671 19.5833C3.62817 19.5833 3.16714 19.3916 2.78363 19.0081C2.40013 18.6245 2.20837 18.1635 2.20837 17.625V5.87498C2.20837 5.33644 2.40013 4.87541 2.78363 4.49191C3.16714 4.1084 3.62817 3.91665 4.16671 3.91665H14.0563C13.991 4.24304 13.9584 4.56942 13.9584 4.89581C13.9584 5.2222 13.991 5.54859 14.0563 5.87498H4.16671L12 10.7708L15.574 8.54321C15.8025 8.75536 16.0513 8.93896 16.3206 9.09399C16.5899 9.24902 16.8714 9.38366 17.1651 9.4979L12 12.7291L4.16671 7.83331V17.625H19.8334V9.69373C20.2087 9.61213 20.5596 9.4979 20.886 9.35102C21.2124 9.20415 21.5143 9.02463 21.7917 8.81248V17.625C21.7917 18.1635 21.6 18.6245 21.2164 19.0081C20.8329 19.3916 20.3719 19.5833 19.8334 19.5833H4.16671ZM18.8542 7.83331C18.0382 7.83331 17.3447 7.54772 16.7735 6.97654C16.2023 6.40536 15.9167 5.71179 15.9167 4.89581C15.9167 4.07984 16.2023 3.38626 16.7735 2.81508C17.3447 2.2439 18.0382 1.95831 18.8542 1.95831C19.6702 1.95831 20.3638 2.2439 20.9349 2.81508C21.5061 3.38626 21.7917 4.07984 21.7917 4.89581C21.7917 5.71179 21.5061 6.40536 20.9349 6.97654C20.3638 7.54772 19.6702 7.83331 18.8542 7.83331Z" fill="#EDECED"/>
</g>
</g>
</svg>
