<svg width="40" height="40" viewBox="0 0 40 40" fill="none" xmlns="http://www.w3.org/2000/svg">
<g id="Layer_1" clip-path="url(#clip0_372_1006)">
<g id="Group">
<path id="Vector" d="M24.5115 10.2176L10.2176 24.5115C9.83168 24.8974 9.20771 24.8974 8.82183 24.5115L1.96222 17.6519C1.77749 17.4672 1.67487 17.2168 1.67487 16.954V2.6601C1.67487 2.11413 2.11822 1.67078 2.66419 1.67078H16.9581C17.2208 1.67078 17.4713 1.7734 17.656 1.95813L24.5156 8.81774C24.9015 9.20362 24.9015 9.82759 24.5156 10.2135L24.5115 10.2176Z" fill="#C8DD69"/>
<path id="Vector_2" d="M39.0106 21.7816H18.7931C18.2471 21.7816 17.8037 21.3382 17.8037 20.7923V11.0919C17.8037 10.8292 17.9064 10.5788 18.0911 10.3941L28.206 0.287334C28.5919 -0.0985448 29.2159 -0.0985448 29.6018 0.287334L39.7085 10.3941C39.8932 10.5788 39.9959 10.8292 39.9959 11.0919V20.7923C39.9959 21.3382 39.5525 21.7816 39.0065 21.7816H39.0106Z" fill="#C8DD69"/>
<path id="Vector_3" d="M21.7816 18.7972V39.0148C21.7816 39.5608 21.3382 40.0041 20.7923 40.0041H11.0919C10.8292 40.0041 10.5788 39.9015 10.3941 39.7168L0.287334 29.6018C-0.0985448 29.216 -0.0985448 28.592 0.287334 28.2061L10.3941 18.0994C10.5788 17.9146 10.8292 17.812 11.0919 17.812H20.7923C21.3382 17.812 21.7816 18.2554 21.7816 18.8013V18.7972Z" fill="#C8DD69"/>
</g>
<path id="Vector_4" d="M18.3638 14.2471C17.2272 13.1105 15.3844 13.1105 14.2477 14.2471C13.1111 15.3838 13.1111 17.2266 14.2477 18.3632L32.4421 36.5576C33.5787 37.6942 35.4216 37.6942 36.5582 36.5576C37.6948 35.4209 37.6948 33.5781 36.5582 32.4415L18.3638 14.2471Z" fill="#C8DD69"/>
</g>
<defs>
<clipPath id="clip0_372_1006">
<rect width="40" height="40" fill="white"/>
</clipPath>
</defs>
</svg>
