<svg width="174" height="28" viewBox="0 0 174 28" fill="none" xmlns="http://www.w3.org/2000/svg">
<g id="Layer_1" clip-path="url(#clip0_248_608)">
<g id="Group">
<path id="Vector" d="M35.401 5.78149H37.8756V12.0508L44.2936 12.07V5.78149H46.7868V20.7765H44.2936V14.3274L37.8756 14.3082V20.7765H35.401V5.78149Z" fill="#F2F4F9"/>
<path id="Vector_2" d="M54.0256 10.3647C55.5319 10.3647 56.7598 10.8632 57.7073 11.8582C58.6547 12.8553 59.1284 14.1348 59.1284 15.6989C59.1284 17.2631 58.6547 18.534 57.7073 19.5311C56.7598 20.5282 55.5319 21.0246 54.0256 21.0246C52.5192 21.0246 51.2726 20.5261 50.3252 19.5311C49.3777 18.534 48.904 17.2588 48.904 15.6989C48.904 14.1391 49.3777 12.8446 50.3252 11.8518C51.2726 10.859 52.5068 10.3625 54.0256 10.3625V10.3647ZM54.0256 18.84C54.8296 18.84 55.4841 18.5469 55.989 17.9627C56.4918 17.3786 56.7432 16.6169 56.7432 15.6818C56.7432 14.7468 56.4918 13.9893 55.989 13.4095C55.4862 12.8318 54.8317 12.5429 54.0256 12.5429C53.2194 12.5429 52.5359 12.8318 52.0289 13.4095C51.5219 13.9872 51.2685 14.7446 51.2685 15.6818C51.2685 16.619 51.5219 17.3786 52.0289 17.9627C52.5359 18.5469 53.2007 18.84 54.0256 18.84Z" fill="#F2F4F9"/>
<path id="Vector_3" d="M75.9537 14.3253V20.7744H73.664V14.6955C73.664 13.9937 73.4895 13.4459 73.1384 13.0501C72.7872 12.6542 72.3114 12.4574 71.7068 12.4574C71.0648 12.4574 70.5516 12.6735 70.1672 13.1036C69.7849 13.5358 69.5917 14.1392 69.5917 14.9137V20.7722H67.273V14.6934C67.273 13.9915 67.1026 13.4438 66.7619 13.0479C66.4211 12.6521 65.9495 12.4552 65.3449 12.4552C64.7029 12.4552 64.1855 12.6713 63.797 13.1014C63.4085 13.5315 63.2132 14.137 63.2132 14.9116V20.7701H60.8571V10.6408H63.049L63.128 11.6143C63.6994 10.752 64.6302 10.3198 65.9225 10.3198C66.6746 10.3198 67.3291 10.4803 67.8797 10.8013C68.4324 11.1222 68.85 11.5908 69.1367 12.2049C69.3777 11.6165 69.7746 11.1543 70.3293 10.8205C70.8841 10.4867 71.5448 10.3198 72.3114 10.3198C73.4272 10.3198 74.3143 10.675 74.9709 11.3833C75.6274 12.0915 75.9537 13.0715 75.9537 14.321V14.3253Z" fill="#F2F4F9"/>
<path id="Vector_4" d="M87.3831 16.6019H79.8452C79.9241 17.3636 80.2025 17.9456 80.6825 18.3479C81.1624 18.7502 81.7733 18.9492 82.513 18.9492C83.7139 18.9492 84.5553 18.4335 85.0353 17.4043L87.0029 18.2067C86.633 19.0968 86.0492 19.7922 85.2555 20.2929C84.4598 20.7936 83.5456 21.0461 82.513 21.0461C81.0586 21.0461 79.8784 20.5561 78.9725 19.5761C78.0667 18.5961 77.6137 17.3102 77.6137 15.7204C77.6137 14.1306 78.0708 12.8361 78.9829 11.839C79.895 10.8419 81.0876 10.3455 82.5628 10.3455C84.038 10.3455 85.1766 10.8376 86.0596 11.8197C86.9426 12.8018 87.3852 14.0963 87.3852 15.7011V16.6041L87.3831 16.6019ZM79.8847 14.8966H84.9875C84.9418 14.0749 84.7008 13.448 84.2624 13.0158C83.824 12.5836 83.2339 12.3696 82.4943 12.3696C81.7546 12.3696 81.1624 12.5879 80.7033 13.0265C80.242 13.4651 79.9698 14.0878 79.8847 14.8966Z" fill="#F2F4F9"/>
<path id="Vector_5" d="M102.567 17.2844H97.0257L95.8269 20.7743H93.2755L98.5341 5.7793H101.086L106.355 20.7743H103.745L102.567 17.2844ZM101.846 15.1276L99.8098 9.13005L97.755 15.1276H101.846Z" fill="#F2F4F9"/>
<path id="Vector_6" d="M110.978 19.0903C111.464 19.0903 111.85 18.9919 112.131 18.795C112.411 18.5982 112.554 18.305 112.554 17.9178C112.554 17.3764 112.201 17.0148 111.493 16.8351L110.138 16.4649C108.274 15.9428 107.344 14.9564 107.344 13.5057C107.344 12.5771 107.672 11.8175 108.326 11.2291C108.983 10.6407 109.866 10.3475 110.975 10.3475C111.969 10.3475 112.802 10.5808 113.473 11.0494C114.144 11.5179 114.555 12.1599 114.705 12.9751L112.592 13.4865C112.546 13.1184 112.382 12.8274 112.099 12.6135C111.817 12.3995 111.468 12.2925 111.052 12.2925C110.637 12.2925 110.29 12.4016 110.03 12.6177C109.77 12.836 109.639 13.1184 109.639 13.4651C109.639 13.7454 109.737 13.9807 109.932 14.1669C110.128 14.353 110.429 14.505 110.838 14.6184L112.172 14.9586C113.061 15.2068 113.741 15.5812 114.208 16.0819C114.676 16.5826 114.911 17.201 114.911 17.937C114.911 18.887 114.564 19.6424 113.868 20.203C113.174 20.7636 112.216 21.046 110.994 21.046C109.864 21.046 108.958 20.7892 108.276 20.2778C107.595 19.7665 107.192 19.0753 107.069 18.2066L109.222 17.8151C109.261 18.2173 109.434 18.5297 109.743 18.7522C110.051 18.9769 110.462 19.0882 110.975 19.0882L110.978 19.0903Z" fill="#F2F4F9"/>
<path id="Vector_7" d="M119.914 19.0903C120.4 19.0903 120.786 18.9919 121.067 18.795C121.347 18.5982 121.491 18.305 121.491 17.9178C121.491 17.3764 121.137 17.0148 120.429 16.8351L119.074 16.4649C117.211 15.9428 116.28 14.9564 116.28 13.5057C116.28 12.5771 116.608 11.8175 117.263 11.2291C117.917 10.6407 118.802 10.3475 119.912 10.3475C120.905 10.3475 121.738 10.5808 122.409 11.0494C123.08 11.5179 123.492 12.1599 123.641 12.9751L121.528 13.4865C121.482 13.1184 121.318 12.8274 121.036 12.6135C120.753 12.3995 120.404 12.2925 119.989 12.2925C119.573 12.2925 119.226 12.4016 118.966 12.6177C118.707 12.8339 118.576 13.1184 118.576 13.4651C118.576 13.7454 118.673 13.9807 118.869 14.1669C119.064 14.353 119.365 14.505 119.774 14.6184L121.108 14.9586C121.998 15.2068 122.677 15.5812 123.145 16.0819C123.612 16.5826 123.847 17.201 123.847 17.937C123.847 18.887 123.5 19.6424 122.804 20.203C122.108 20.7636 121.152 21.046 119.93 21.046C118.8 21.046 117.894 20.7892 117.213 20.2778C116.531 19.7665 116.128 19.0753 116.006 18.2066L118.158 17.8151C118.198 18.2173 118.37 18.5297 118.68 18.7522C118.989 18.9748 119.398 19.0882 119.912 19.0882L119.914 19.0903Z" fill="#F2F4F9"/>
<path id="Vector_8" d="M125.343 7.13377C125.343 6.69941 125.488 6.33566 125.777 6.04039C126.066 5.74511 126.419 5.59961 126.835 5.59961C127.25 5.59961 127.593 5.74939 127.882 6.05108C128.17 6.35278 128.316 6.71225 128.316 7.13377C128.316 7.55529 128.17 7.91689 127.882 8.22287C127.593 8.52885 127.244 8.67863 126.835 8.67863C126.425 8.67863 126.074 8.52671 125.783 8.22287C125.492 7.91903 125.345 7.55529 125.345 7.13377H125.343ZM128.013 10.645V20.7743H125.656V10.645H128.013Z" fill="#F2F4F9"/>
<path id="Vector_9" d="M133.714 19.0903C134.2 19.0903 134.586 18.9919 134.867 18.795C135.147 18.5982 135.291 18.305 135.291 17.9178C135.291 17.3764 134.938 17.0148 134.229 16.8351L132.874 16.4649C131.011 15.9428 130.08 14.9564 130.08 13.5057C130.08 12.5771 130.408 11.8175 131.063 11.2291C131.717 10.6407 132.602 10.3475 133.712 10.3475C134.705 10.3475 135.538 10.5808 136.209 11.0494C136.88 11.5179 137.292 12.1599 137.441 12.9751L135.328 13.4865C135.282 13.1184 135.118 12.8274 134.836 12.6135C134.553 12.3995 134.204 12.2925 133.789 12.2925C133.373 12.2925 133.026 12.4016 132.766 12.6177C132.507 12.8339 132.376 13.1184 132.376 13.4651C132.376 13.7454 132.473 13.9807 132.669 14.1669C132.864 14.353 133.165 14.505 133.575 14.6184L134.908 14.9586C135.798 15.2068 136.477 15.5812 136.945 16.0819C137.412 16.5826 137.647 17.201 137.647 17.937C137.647 18.887 137.3 19.6424 136.604 20.203C135.908 20.7636 134.952 21.046 133.73 21.046C132.6 21.046 131.694 20.7892 131.013 20.2778C130.331 19.7665 129.928 19.0753 129.806 18.2066L131.958 17.8151C131.998 18.2173 132.17 18.5297 132.48 18.7522C132.789 18.9748 133.199 19.0882 133.712 19.0882L133.714 19.0903Z" fill="#F2F4F9"/>
<path id="Vector_10" d="M144.686 20.7743C144.011 20.9284 143.44 21.0054 142.972 21.0054C141.979 21.0054 141.204 20.7251 140.649 20.1624C140.094 19.5996 139.816 18.7651 139.816 17.6546V12.6991H138.306V10.6429H139.816V7.48254H142.153V10.6429H144.422V12.6991H142.153V17.2224C142.153 18.3179 142.565 18.8678 143.39 18.8678C143.656 18.8678 143.988 18.7972 144.383 18.6582L144.684 20.7743H144.686Z" fill="#F2F4F9"/>
<path id="Vector_11" d="M152.579 20.7743C152.5 20.4469 152.446 20.0618 152.413 19.621C152.126 20.0554 151.723 20.402 151.2 20.6588C150.676 20.9155 150.072 21.0439 149.384 21.0439C148.306 21.0439 147.443 20.7486 146.793 20.1559C146.143 19.5633 145.819 18.763 145.819 17.7531C145.819 16.7431 146.138 15.99 146.778 15.4315C147.418 14.8731 148.293 14.5949 149.403 14.5949H152.353V14.2033C152.353 13.5678 152.172 13.0928 151.813 12.7783C151.453 12.4638 150.948 12.3076 150.298 12.3076C149.149 12.3076 148.324 12.8018 147.823 13.7925L146.109 12.759C146.94 11.1478 148.378 10.3412 150.425 10.3412C151.665 10.3412 152.681 10.6686 153.473 11.3233C154.271 11.9845 154.672 13.0522 154.672 14.5221V18.5533C154.672 19.6959 154.73 20.4362 154.846 20.77H152.577L152.579 20.7743ZM152.376 16.2724H149.951C149.398 16.2724 148.97 16.4029 148.665 16.664C148.36 16.925 148.208 17.2823 148.208 17.7381C148.208 18.1939 148.364 18.5747 148.675 18.8208C148.987 19.0668 149.432 19.1909 150.009 19.1909C150.703 19.1909 151.272 18.9663 151.713 18.5148C152.153 18.0633 152.376 17.3936 152.376 16.5035V16.2724Z" fill="#F2F4F9"/>
<path id="Vector_12" d="M165.995 14.5264V20.7743H163.647V15.0463C163.647 14.0834 163.427 13.4244 162.984 13.0714C162.563 12.7162 162.068 12.5407 161.505 12.5407C160.824 12.5407 160.254 12.7654 159.801 13.2126C159.349 13.6598 159.12 14.2996 159.12 15.1276V20.7743H156.764V10.645H158.975L159.053 11.7383C159.332 11.3104 159.739 10.9702 160.271 10.7198C160.803 10.4695 161.385 10.3433 162.014 10.3433C163.286 10.3433 164.269 10.707 164.96 11.4324C165.652 12.1577 165.997 13.1891 165.997 14.5264H165.995Z" fill="#F2F4F9"/>
<path id="Vector_13" d="M173.521 20.7743C172.845 20.9284 172.274 21.0054 171.806 21.0054C170.813 21.0054 170.038 20.7251 169.484 20.1624C168.929 19.5996 168.65 18.7651 168.65 17.6546V12.6991H167.14V10.6429H168.65V7.48254H170.988V10.6429H173.257V12.6991H170.988V17.2224C170.988 18.3179 171.399 18.8678 172.224 18.8678C172.49 18.8678 172.822 18.7972 173.217 18.6582L173.518 20.7743H173.521Z" fill="#F2F4F9"/>
</g>
<g id="Clip path group">
<mask id="mask0_248_608" style="mask-type:luminance" maskUnits="userSpaceOnUse" x="0" y="0" width="26" height="26">
<g id="clippath">
<path id="Vector_14" d="M25.453 25.6763H0.520538V12.8381L12.9868 0L25.453 12.8381V25.6763Z" fill="white"/>
</g>
</mask>
<g mask="url(#mask0_248_608)">
<g id="Group_2">
<g id="Group_3">
<path id="Vector_15" d="M25.453 24.0715C25.453 24.953 24.7507 25.6763 23.8947 25.6763H2.07882C1.2228 25.6763 0.520538 24.953 0.520538 24.0715V14.4429C0.520538 13.5613 1.01711 12.3267 1.62172 11.7041L11.8856 1.134C12.4923 0.509208 13.4833 0.509208 14.09 1.134L24.3518 11.7019C24.9585 12.3267 25.453 13.5592 25.453 14.4407V24.0693V24.0715Z" fill="#18BCF2"/>
<g id="Group_4">
<path id="Vector_16" d="M12.9868 10.6984C13.9048 10.6984 14.6489 9.93203 14.6489 8.98666C14.6489 8.04128 13.9048 7.2749 12.9868 7.2749C12.0688 7.2749 11.3246 8.04128 11.3246 8.98666C11.3246 9.93203 12.0688 10.6984 12.9868 10.6984Z" fill="#F2F4F9"/>
<path id="Vector_17" d="M12.9868 11.1798C11.8129 11.1798 10.8571 10.1956 10.8571 8.98664C10.8571 7.77771 11.8129 6.79346 12.9868 6.79346C14.1607 6.79346 15.1164 7.77771 15.1164 8.98664C15.1164 10.1956 14.1607 11.1798 12.9868 11.1798ZM12.9868 7.75632C12.3281 7.75632 11.7921 8.30836 11.7921 8.98664C11.7921 9.66492 12.3281 10.217 12.9868 10.217C13.6454 10.217 14.1814 9.66492 14.1814 8.98664C14.1814 8.30836 13.6454 7.75632 12.9868 7.75632Z" fill="#F2F4F9"/>
</g>
<g id="Group_5">
<path id="Vector_18" d="M19.2199 17.3315C20.1379 17.3315 20.882 16.5651 20.882 15.6197C20.882 14.6743 20.1379 13.908 19.2199 13.908C18.3019 13.908 17.5577 14.6743 17.5577 15.6197C17.5577 16.5651 18.3019 17.3315 19.2199 17.3315Z" fill="#F2F4F9"/>
<path id="Vector_19" d="M19.2199 17.8129C18.046 17.8129 17.0902 16.8286 17.0902 15.6197C17.0902 14.4108 18.046 13.4265 19.2199 13.4265C20.3938 13.4265 21.3495 14.4108 21.3495 15.6197C21.3495 16.8286 20.3938 17.8129 19.2199 17.8129ZM19.2199 14.3894C18.5612 14.3894 18.0252 14.9414 18.0252 15.6197C18.0252 16.298 18.5612 16.85 19.2199 16.85C19.8785 16.85 20.4146 16.298 20.4146 15.6197C20.4146 14.9414 19.8785 14.3894 19.2199 14.3894Z" fill="#F2F4F9"/>
</g>
<g id="Group_6">
<path id="Vector_20" d="M6.75365 20.9689C7.67164 20.9689 8.41582 20.2025 8.41582 19.2572C8.41582 18.3118 7.67164 17.5454 6.75365 17.5454C5.83567 17.5454 5.09149 18.3118 5.09149 19.2572C5.09149 20.2025 5.83567 20.9689 6.75365 20.9689Z" fill="#F2F4F9"/>
<path id="Vector_21" d="M6.75365 21.4503C5.57975 21.4503 4.62401 20.4661 4.62401 19.2571C4.62401 18.0482 5.57975 17.064 6.75365 17.064C7.92756 17.064 8.8833 18.0482 8.8833 19.2571C8.8833 20.4661 7.92756 21.4503 6.75365 21.4503ZM6.75365 18.0268C6.09502 18.0268 5.55897 18.5789 5.55897 19.2571C5.55897 19.9354 6.09502 20.4875 6.75365 20.4875C7.41229 20.4875 7.94833 19.9354 7.94833 19.2571C7.94833 18.5789 7.41229 18.0268 6.75365 18.0268Z" fill="#F2F4F9"/>
</g>
<path id="Vector_22" d="M13.9217 28L6.09294 19.9377L7.41436 18.5768L12.0518 23.3526V8.97388H13.9217V28Z" fill="#F2F4F9"/>
<path id="Vector_23" d="M18.5588 14.8741L12.4015 21.2151L13.7238 22.5768L19.881 16.2358L18.5588 14.8741Z" fill="#F2F4F9"/>
</g>
</g>
</g>
</g>
</g>
<defs>
<clipPath id="clip0_248_608">
<rect width="173" height="28" fill="white" transform="translate(0.520538)"/>
</clipPath>
</defs>
</svg>
