<svg width="75" height="24" viewBox="0 0 75 24" fill="none" xmlns="http://www.w3.org/2000/svg">
<g id="Layer_1" clip-path="url(#clip0_287_3091)">
<g id="layer1">
<path id="path2223" d="M15.5149 8.30518C16.9819 8.43003 18.1418 8.84896 18.9944 9.56196C20.036 10.4195 20.5552 11.6435 20.5552 13.2354C20.5552 14.8273 20.0344 16.066 18.9944 16.9302C17.9611 17.7877 16.4743 18.2165 14.5357 18.2165H11.9433V23.5032H8.01523V12.8099C10.4631 11.0849 12.9487 9.52089 15.5165 8.30682L15.5149 8.30518ZM11.9417 11.1112V15.3662H14.1152C14.8774 15.3662 15.4656 15.1822 15.8812 14.8158C16.2969 14.4412 16.5039 13.9139 16.5039 13.2337C16.5039 12.5536 16.2969 12.0295 15.8812 11.6615C15.4656 11.2935 14.8774 11.1112 14.1152 11.1112H11.9417Z" fill="#F2F4F9"/>
<path id="path2225" d="M31.1072 8.26416H37.6277C39.5663 8.26416 41.0531 8.69623 42.0865 9.56037C43.128 10.4179 43.6472 11.6419 43.6472 13.2338C43.6472 14.8257 43.1264 16.0644 42.0865 16.9286C41.0531 17.7862 39.5663 18.2149 37.6277 18.2149H35.0353V23.5017H31.1072V8.26416ZM35.0353 11.1112V15.3662H37.2088C37.9711 15.3662 38.5592 15.1822 38.9749 14.8159C39.3905 14.4413 39.5975 13.9139 39.5975 13.2338C39.5975 12.5537 39.3905 12.0296 38.9749 11.6616C38.5592 11.2936 37.9711 11.1112 37.2088 11.1112H35.0353Z" fill="#F2F4F9"/>
<path id="path2227" d="M46.4236 8.26416H57.0266V11.2344H50.3533V14.0717H56.629V17.0419H50.3533V20.5314H57.2517V23.5017H46.4252V8.26416H46.4236Z" fill="#F2F4F9"/>
<path id="path2229" d="M66.2824 15.0196C67.1055 15.0196 67.6937 14.8668 68.0485 14.5596C68.4083 14.254 68.589 13.7497 68.589 13.0498C68.589 12.3499 68.4083 11.8587 68.0485 11.5597C67.6953 11.2607 67.1055 11.1112 66.2824 11.1112H64.6297V15.0196H66.2824ZM64.6297 17.7336V23.5H60.7017V8.26416H66.7014C68.7089 8.26416 70.1777 8.60095 71.1092 9.27452C72.0472 9.94809 72.5171 11.0127 72.5171 12.4682C72.5171 13.4753 72.2723 14.3017 71.7827 14.9473C71.2997 15.5929 70.5687 16.0694 69.5895 16.3766C70.1267 16.4998 70.6064 16.7774 71.0287 17.2128C71.4574 17.6416 71.8895 18.2938 72.3249 19.1727L74.4573 23.5H70.2729L68.4165 19.7149C68.0419 18.9526 67.6608 18.4318 67.2731 18.1542C66.8919 17.8749 66.3827 17.7352 65.7419 17.7352H64.6297V17.7336Z" fill="#F2F4F9"/>
<g id="g2239">
<path id="path2231" d="M14.4667 7.89779C12.3704 5.31029 12.7549 3.51957 13.9969 2.03772C12.6202 2.0295 11.0052 1.9605 9.89138 5.05072C7.22666 5.10329 7.03116 3.03986 6.99831 1.052C5.80066 2.96429 5.14352 4.29336 6.03395 7.07636C2.86159 6.18429 2.44595 8.63214 1.13495 9.86264C3.68631 8.53686 6.84388 8.02757 7.92816 11.8554C9.73366 10.5477 11.6854 9.24 14.4815 7.929C14.493 7.92407 14.4749 7.906 14.4667 7.89614V7.89779Z" fill="#F2F4F9"/>
<path id="circle2233" d="M1.31972 10.3797C1.63183 10.377 1.88263 10.1218 1.87991 9.80965C1.87719 9.49754 1.62196 9.24674 1.30986 9.24946C0.997749 9.25219 0.746944 9.50741 0.749667 9.81952C0.752391 10.1316 1.00761 10.3824 1.31972 10.3797Z" fill="#F2F4F9"/>
<path id="circle2235" d="M6.94408 1.63029C7.2562 1.63029 7.50922 1.37726 7.50922 1.06514C7.50922 0.753023 7.2562 0.5 6.94408 0.5C6.63196 0.5 6.37894 0.753023 6.37894 1.06514C6.37894 1.37726 6.63196 1.63029 6.94408 1.63029Z" fill="#F2F4F9"/>
<path id="circle2237" d="M13.6962 2.66031C14.0084 2.66031 14.2614 2.40729 14.2614 2.09517C14.2614 1.78305 14.0084 1.53003 13.6962 1.53003C13.3841 1.53003 13.1311 1.78305 13.1311 2.09517C13.1311 2.40729 13.3841 2.66031 13.6962 2.66031Z" fill="#F2F4F9"/>
</g>
<g id="g235">
<path id="rect185" d="M23.2839 12.0181C23.5172 11.936 23.6569 11.8883 24.0922 11.7799V17.7238H23.2839V12.0181Z" fill="#F2F4F9"/>
<path id="path188" d="M27.212 12.0148C26.9787 11.9326 26.8276 11.8834 26.3725 11.7815V23.5H27.212V12.0148Z" fill="#F2F4F9"/>
<path id="rect190" d="M24.7346 11.6863C25.0648 11.6534 25.3901 11.6534 25.7302 11.6863V19.5293H24.7346V11.6863Z" fill="#F2F4F9"/>
<path id="path193" d="M23.2856 11.1063C23.5501 11.0176 23.8179 10.9338 24.0922 10.873V7.67273C23.8442 7.74173 23.3759 7.86823 23.2856 8.20666V11.1079V11.1063Z" fill="#F2F4F9"/>
<path id="path195" d="M27.2136 11.0619C26.9344 10.9634 26.6633 10.8845 26.3725 10.8254V7.64807C26.568 7.69407 27.1644 7.83207 27.2136 8.2395V11.0619Z" fill="#F2F4F9"/>
<path id="rect197" d="M24.7362 7.56431C25.0681 7.53145 25.4903 7.5298 25.7302 7.55445V10.7399C25.3737 10.7104 25.0517 10.7317 24.7346 10.7629V7.56431H24.7362Z" fill="#F2F4F9"/>
</g>
</g>
</g>
<defs>
<clipPath id="clip0_287_3091">
<rect width="73.7051" height="23" fill="white" transform="translate(0.750519 0.5)"/>
</clipPath>
</defs>
</svg>
