<svg width="42" height="16" viewBox="0 0 42 16" fill="none" xmlns="http://www.w3.org/2000/svg">
<g id="Isolation_Mode" clip-path="url(#clip0_287_3121)">
<path id="Vector" d="M8.58006 2.0884L2.77563 10.1156H8.49162V12.0612H0.559648L0.544342 10.1156L6.32325 2.0884L0.559648 2.10541V0.142822H8.58006V2.0884Z" fill="#F2F4F9"/>
<path id="Vector_2" d="M9.94742 1.21939C9.94742 0.87415 10.0665 0.585034 10.3029 0.35034C10.5393 0.115646 10.8284 0 11.1685 0C11.5086 0 11.7893 0.119048 12.0256 0.358844C12.262 0.598639 12.3811 0.884354 12.3811 1.21939C12.3811 1.55442 12.262 1.84184 12.0256 2.08503C11.7893 2.32653 11.5035 2.44728 11.1685 2.44728C10.8335 2.44728 10.5461 2.32653 10.308 2.08503C10.0699 1.84354 9.94912 1.55442 9.94912 1.21939H9.94742ZM12.1311 4.0102V12.0612H10.2025V4.0102H12.1311Z" fill="#F2F4F9"/>
<path id="Vector_3" d="M22.109 4.01024V11.767C22.109 13.0953 21.7331 14.1327 20.9814 14.8793C20.2297 15.6259 19.211 16 17.9236 16C16.9032 16 16.0392 15.7585 15.3335 15.2738C14.626 14.7908 14.1192 14.1174 13.8114 13.2568L15.5256 12.6191C15.6634 13.1293 15.9525 13.5272 16.3913 13.8147C16.8301 14.1021 17.3607 14.2449 17.9814 14.2449C18.6991 14.2449 19.2501 14.0374 19.6362 13.6225C20.0222 13.2075 20.2144 12.6344 20.2144 11.9014V10.7381C19.9593 11.0987 19.592 11.3844 19.1141 11.5919C18.6362 11.7994 18.0988 11.9031 17.5035 11.9031C16.3403 11.9031 15.4015 11.5272 14.6889 10.7755C13.9763 10.0238 13.6209 9.04935 13.6209 7.85377C13.6209 6.6582 13.9814 5.6565 14.7008 4.89629C15.4202 4.13609 16.3709 3.75684 17.5512 3.75684C18.1566 3.75684 18.7008 3.86398 19.1821 4.07997C19.6634 4.29595 20.029 4.59867 20.279 4.99323L20.3828 4.01194H22.1124L22.109 4.01024ZM20.1481 7.81976C20.1481 7.12928 19.9338 6.56126 19.5069 6.11738C19.0801 5.6735 18.5205 5.45241 17.8284 5.45241C17.1362 5.45241 16.6022 5.6718 16.1906 6.11058C15.779 6.54935 15.5733 7.11908 15.5733 7.81976C15.5733 8.52044 15.7824 9.09697 16.1991 9.54595C16.6158 9.99493 17.16 10.2194 17.8301 10.2194C18.5001 10.2194 19.0546 9.99153 19.4967 9.53405C19.9321 9.08167 20.1498 8.51024 20.1498 7.81976H20.1481Z" fill="#F2F4F9"/>
<path id="Vector_4" d="M28.6498 12.2772C28.0596 12.2772 27.5171 12.1649 27.0239 11.9388C26.5307 11.7126 26.1515 11.4064 25.8913 11.0187V15.7857H24.0256V4.01018H25.7552L25.8352 5.02209C26.075 4.64454 26.4372 4.34181 26.9236 4.11392C27.41 3.88603 27.961 3.77039 28.5784 3.77039C29.7892 3.77039 30.7552 4.14964 31.4729 4.90984C32.1906 5.67005 32.5494 6.72447 32.5494 8.07481C32.5494 9.42515 32.1821 10.3826 31.4457 11.1394C30.7093 11.8962 29.779 12.2755 28.6515 12.2755L28.6498 12.2772ZM29.9967 9.82141C30.427 9.36392 30.643 8.76188 30.643 8.01188C30.643 7.26188 30.427 6.65984 29.9967 6.20236C29.5664 5.74488 29.0035 5.51698 28.3062 5.51698C27.609 5.51698 27.046 5.74488 26.6158 6.20236C26.1855 6.65984 25.9695 7.26188 25.9695 8.01188C25.9695 8.76188 26.1855 9.36392 26.6158 9.82141C27.046 10.2789 27.609 10.5068 28.3062 10.5068C29.0035 10.5068 29.5664 10.2789 29.9967 9.82141Z" fill="#F2F4F9"/>
<path id="Vector_5" d="M41.5205 4.01025L37.7025 13.9439C37.177 15.3045 36.2893 15.9847 35.0393 15.9847C34.4593 15.9847 33.8488 15.8521 33.2059 15.5868L33.7484 13.8402C34.1413 14.0902 34.5222 14.2143 34.8879 14.2143C35.4457 14.2143 35.8437 13.9065 36.0835 13.2892L36.3624 12.5324L32.9338 4.01025H34.9593L37.2705 10.0528L39.495 4.01025H41.5205Z" fill="#F2F4F9"/>
</g>
<defs>
<clipPath id="clip0_287_3121">
<rect width="40.9762" height="16" fill="white" transform="translate(0.544342)"/>
</clipPath>
</defs>
</svg>
