<svg width="122" height="18" viewBox="0 0 122 18" fill="none" xmlns="http://www.w3.org/2000/svg">
<g id="Layer_1" clip-path="url(#clip0_287_3009)">
<path id="Vector" d="M65.5515 15.9V14.307H66.8775V3.32998H65.556V1.71448H70.134V3.32398H68.742V7.60798H76.9335V3.33298H75.528V1.72048H80.1165V3.32398H78.7935V14.2995H80.1195V15.9H75.528V14.3055H76.935V9.20998H68.739V14.2935H70.1325V15.8985H65.55L65.5515 15.9Z" fill="#EDECED"/>
<path id="Vector_2" d="M103.476 14.301H104.785V15.9045H100.291V14.307H101.629C101.635 14.2365 101.644 14.187 101.644 14.136C101.644 12.7065 101.644 11.277 101.644 9.84895C101.644 9.37045 101.574 8.90545 101.317 8.49145C100.929 7.86745 100.323 7.64695 99.6255 7.60495C98.889 7.55995 98.247 7.83295 97.638 8.20945C97.44 8.33095 97.254 8.47045 97.062 8.60245V14.292H98.403V15.906H93.9045V14.313H95.217V7.82095H93.8985V6.21745H96.9705V7.35295C97.0605 7.28395 97.116 7.24495 97.1685 7.20145C97.878 6.62995 98.655 6.18595 99.57 6.07195C100.642 5.93995 101.658 6.10045 102.484 6.86995C102.709 7.07845 102.876 7.34995 103.066 7.58995C103.419 7.32595 103.773 7.03645 104.152 6.78295C105.147 6.11695 106.236 5.87245 107.416 6.11545C108.733 6.38695 109.549 7.22245 109.768 8.54845C109.836 8.95945 109.863 9.38095 109.866 9.79795C109.878 11.214 109.87 12.63 109.87 14.046V14.301H111.207V15.903H106.699V14.31H108.046C108.051 14.2275 108.055 14.163 108.055 14.1C108.055 12.711 108.058 11.322 108.055 9.93295C108.055 9.40945 107.994 8.89645 107.697 8.44495C107.305 7.85095 106.71 7.63645 106.039 7.61245C105.033 7.57645 104.2 7.99345 103.474 8.64745V14.307L103.476 14.301Z" fill="#EDECED"/>
<path id="Vector_3" d="M31.5225 3.33003H30.204V1.71753H40.353V5.71353H38.448V3.34053H33.387V7.86303H37.6215V9.47103H33.3915V14.2905H38.439V11.9145H40.3575V15.897H30.207V14.31H31.521V3.33003H31.5225Z" fill="#EDECED"/>
<path id="Vector_4" d="M42.381 13.2675H41.685V11.6625H44.022C44.0415 11.9295 44.058 12.186 44.079 12.4425C44.145 13.2405 44.5845 13.7835 45.294 14.0805C46.374 14.532 47.4795 14.556 48.5685 14.0985C49.2765 13.8 49.6665 13.2375 49.7535 12.477C49.8465 11.649 49.527 10.998 48.852 10.521C48.324 10.1475 47.7195 9.945 47.109 9.759C46.3035 9.5145 45.4845 9.3075 44.691 9.03C43.8525 8.736 43.131 8.25 42.6765 7.4565C41.7705 5.877 41.922 3.267 44.214 2.127C45.717 1.3785 47.295 1.2585 48.8865 1.857C49.83 2.2125 50.5215 2.8785 51.024 3.7455C51.054 3.7965 51.0825 3.849 51.1125 3.9015C51.1185 3.912 51.129 3.921 51.1545 3.951H51.8235V5.5515H49.554C49.5405 5.3925 49.53 5.229 49.509 5.067C49.4205 4.3785 49.0125 3.906 48.4185 3.6165C47.262 3.0525 46.095 3.1095 44.9835 3.735C44.292 4.125 44.037 4.7835 44.1015 5.565C44.1675 6.36 44.6175 6.8895 45.336 7.1535C46.3995 7.545 47.4855 7.878 48.558 8.244C49.233 8.4735 49.8825 8.757 50.451 9.198C51.4575 9.9765 51.8385 11.0385 51.7725 12.2685C51.684 13.929 50.7885 15.063 49.3125 15.723C47.739 16.4265 46.1235 16.4025 44.5275 15.777C43.467 15.3615 42.846 14.52 42.459 13.482C42.4335 13.4145 42.4095 13.347 42.3825 13.269L42.381 13.2675Z" fill="#EDECED"/>
<path id="Vector_5" d="M23.8769 2.89221C23.8769 2.48571 23.6624 2.23671 23.2604 2.15721C23.2154 2.14821 23.1704 2.14071 23.1089 2.13021C23.1089 1.82421 23.1119 1.51821 23.1089 1.21371C23.1029 0.759207 22.9019 0.409707 22.5164 0.172707C21.7634 -0.292293 20.7494 0.246207 20.7179 1.13121C20.7059 1.46121 20.7164 1.79271 20.7164 2.13471H20.2424C20.2424 1.84071 20.2544 1.55571 20.2379 1.27371C20.2259 1.08471 20.2049 0.883707 20.1329 0.712707C19.9139 0.193707 19.3364 -0.0867929 18.7859 0.0302071C18.2594 0.142707 17.8604 0.627207 17.8484 1.17471C17.8424 1.49121 17.8484 1.80921 17.8484 2.13621H17.3744C17.3744 1.80771 17.3804 1.49121 17.3744 1.17471C17.3624 0.672207 17.0534 0.243207 16.5914 0.0767071C16.1279 -0.0897929 15.6179 0.0422071 15.2834 0.412707C15.0674 0.652707 14.9789 0.936207 14.9804 1.25271C14.9804 1.54821 14.9804 1.84371 14.9804 2.13471H14.5064C14.5064 1.79271 14.5169 1.46121 14.5034 1.13121C14.4854 0.643707 14.1629 0.225207 13.7039 0.0692071C12.9239 -0.196293 12.1364 0.369207 12.1139 1.21671C12.1049 1.51971 12.1139 1.82421 12.1139 2.13321H11.6354C11.6354 1.76721 11.6549 1.41471 11.6309 1.06521C11.5994 0.606207 11.3324 0.286707 10.9214 0.108207C10.5254 -0.0642929 10.1324 -0.0267929 9.76793 0.225207C9.39593 0.483207 9.24593 0.846207 9.24743 1.28571C9.24743 1.56921 9.24743 1.85121 9.24743 2.13621H8.78993C8.78993 1.83321 8.79143 1.54221 8.78993 1.25121C8.78693 0.774207 8.58743 0.405207 8.17343 0.162207C7.42193 -0.277293 6.44393 0.247707 6.40043 1.11921C6.38393 1.45521 6.39743 1.79271 6.39743 2.12271C5.75393 2.26671 5.60993 2.44971 5.60993 3.09321V14.1932H1.23443V13.6757H1.46243C2.46593 13.6757 3.46943 13.6757 4.47293 13.6757C4.89143 13.6757 5.01143 13.5557 5.01143 13.1462C5.01143 12.8402 5.01143 12.5342 5.01143 12.2282C5.00993 11.8307 4.90043 11.7242 4.49843 11.7242C3.48143 11.7242 2.46443 11.7242 1.44743 11.7242C1.37693 11.7242 1.30793 11.7167 1.23593 11.7137V11.1872H1.46693C2.47043 11.1872 3.47393 11.1872 4.47743 11.1872C4.91393 11.1872 5.01143 11.0882 5.01293 10.6442C5.01293 10.3577 5.01293 10.0727 5.01293 9.78621C5.01293 9.33771 4.91093 9.23571 4.45943 9.23421C3.45593 9.23421 2.45243 9.23421 1.44893 9.23421C1.37843 9.23421 1.30943 9.22671 1.23443 9.22221V8.71221C1.33043 8.70471 1.41443 8.69421 1.49843 8.69421C2.52143 8.69421 3.54593 8.69421 4.56893 8.69271C4.87343 8.69271 5.00843 8.55921 5.01143 8.25621C5.01443 7.90371 5.01593 7.55121 5.01143 7.19871C5.00843 6.89421 4.87493 6.76371 4.57193 6.76371C3.53543 6.76371 2.49743 6.76371 1.46093 6.76371C1.38443 6.76371 1.30793 6.75471 1.21943 6.74871V6.50721C1.21943 5.50971 1.21943 4.51371 1.21943 3.51621C1.21943 3.40371 1.21343 3.28971 1.18793 3.18021C1.14293 2.98521 0.938927 2.88621 0.751427 2.95671C0.551927 3.02421 0.521927 3.19221 0.521927 3.37221C0.521927 4.58121 0.520427 5.79171 0.521927 7.00071C0.521927 7.31871 0.641927 7.43271 0.956927 7.43271C1.97993 7.43271 3.00443 7.43271 4.02743 7.43271C4.11293 7.43271 4.19693 7.44021 4.29293 7.44471V7.99821H4.01393C2.99693 7.99821 1.97993 7.99821 0.962927 7.99821C0.659927 7.99821 0.524927 8.12721 0.521927 8.42871C0.517427 8.75421 0.520427 9.07971 0.521927 9.40521C0.521927 9.81771 0.640427 9.93471 1.05743 9.93471C2.06093 9.93471 3.06443 9.93471 4.06793 9.93471C4.14593 9.93471 4.22393 9.94371 4.30193 9.94821V10.4702C4.21193 10.4747 4.13393 10.4822 4.05593 10.4822C3.03293 10.4822 2.00843 10.4822 0.985427 10.4852C0.626927 10.4852 0.523427 10.5962 0.521927 10.9547C0.520427 11.3132 0.517427 11.6732 0.524927 12.0317C0.530927 12.2747 0.637427 12.3812 0.875927 12.4067C0.961427 12.4157 1.04843 12.4157 1.13543 12.4157C2.11193 12.4157 3.08993 12.4157 4.06643 12.4157H4.30193V12.9542C4.21193 12.9587 4.13393 12.9662 4.05593 12.9662C3.04493 12.9662 2.03543 12.9662 1.02443 12.9662C0.626927 12.9662 0.521927 13.0742 0.520427 13.4777C0.520427 13.7837 0.520427 14.0897 0.520427 14.3957C0.520427 14.7797 0.638927 14.8982 1.01693 14.8982C2.46593 14.8982 3.91493 14.8982 5.36393 14.8982H5.58893C5.65943 15.4322 5.80643 15.5807 6.39293 15.7127C6.39293 16.0907 6.37793 16.4762 6.39593 16.8587C6.42443 17.4902 6.92843 17.9687 7.56293 17.9942C8.14793 18.0182 8.70143 17.5427 8.76143 16.9367C8.79443 16.5947 8.77943 16.2467 8.78543 15.9017C8.78543 15.8327 8.78543 15.7622 8.78543 15.7007H9.26243C9.26243 16.1192 9.23993 16.5257 9.26843 16.9277C9.31193 17.5367 9.84143 17.9897 10.4579 17.9822C11.0789 17.9747 11.5859 17.5172 11.6279 16.9052C11.6504 16.5737 11.6399 16.2407 11.6459 15.9092C11.6459 15.8387 11.6534 15.7697 11.6564 15.6977H12.1094C12.1094 15.7937 12.1079 15.8777 12.1094 15.9617C12.1169 16.3067 12.0989 16.6547 12.1394 16.9967C12.2399 17.8397 13.3289 18.2807 14.0039 17.7662C14.3519 17.5007 14.5184 17.1542 14.5094 16.7162C14.5019 16.3787 14.5094 16.0412 14.5094 15.6977H14.9789C14.9789 15.9137 14.9759 16.1192 14.9789 16.3232C14.9834 16.5557 14.9714 16.7912 15.0089 17.0192C15.1499 17.8832 16.2449 18.2822 16.9199 17.7257C17.2274 17.4722 17.3804 17.1527 17.3759 16.7537C17.3714 16.4042 17.3759 16.0532 17.3759 15.6992H17.8499C17.8499 16.0877 17.8379 16.4657 17.8529 16.8437C17.8844 17.6327 18.6524 18.1667 19.4024 17.9297C19.8929 17.7752 20.2244 17.3522 20.2379 16.8347C20.2484 16.4582 20.2394 16.0817 20.2394 15.7022H20.7179C20.7179 16.1057 20.7044 16.4972 20.7209 16.8872C20.7524 17.6162 21.5054 18.1457 22.2104 17.9477C22.7639 17.7917 23.0984 17.3507 23.1074 16.7522C23.1134 16.4012 23.1074 16.0502 23.1074 15.7052C23.6504 15.6092 23.8754 15.3857 23.8754 14.9357C23.8769 10.9217 23.8754 6.90621 23.8754 2.89221H23.8769ZM21.4259 1.08471C21.4454 0.844707 21.6899 0.688707 21.9344 0.702207C22.1924 0.717207 22.3904 0.900207 22.3994 1.15821C22.4099 1.47621 22.4024 1.79421 22.4024 2.13621H21.4184C21.4184 1.78221 21.3974 1.43121 21.4259 1.08471ZM18.5729 1.05021C18.5894 0.840207 18.8399 0.693207 19.0664 0.703707C19.3154 0.714207 19.5209 0.879207 19.5359 1.12971C19.5554 1.45821 19.5404 1.78821 19.5404 2.13921H18.5654C18.5654 1.77021 18.5444 1.40871 18.5729 1.05021ZM15.7094 1.03221C15.7259 0.832707 15.9824 0.691707 16.1984 0.702207C16.4384 0.712707 16.6514 0.874707 16.6664 1.11171C16.6889 1.44771 16.6724 1.78521 16.6724 2.13471H15.7004C15.7004 1.76721 15.6794 1.39821 15.7094 1.03371V1.03221ZM12.8189 1.16421C12.8264 0.903207 13.0334 0.712707 13.2959 0.702207C13.5539 0.693207 13.7924 0.876207 13.8074 1.13121C13.8254 1.45971 13.8119 1.78971 13.8119 2.13321H12.8174C12.8174 1.79871 12.8114 1.48071 12.8189 1.16421ZM9.96893 1.05921C9.98693 0.841707 10.2479 0.687207 10.4774 0.702207C10.7129 0.717207 10.9289 0.894207 10.9394 1.11771C10.9439 1.20171 10.9454 1.28571 10.9469 1.36971C10.9499 1.62171 10.9439 1.87521 10.9439 2.13471H9.96143C9.96143 1.84671 9.94793 1.55571 9.95843 1.26621C9.96143 1.19721 9.96443 1.12671 9.97043 1.05771L9.96893 1.05921ZM7.09793 1.09071C7.11593 0.849207 7.37543 0.684207 7.62143 0.703707C7.87643 0.724707 8.07143 0.913707 8.07743 1.16571C8.08643 1.48221 8.07893 1.79871 8.07893 2.13771H7.09043C7.09043 1.78521 7.07093 1.43571 7.09793 1.08921V1.09071ZM8.06093 16.9232C8.04443 17.1527 7.78493 17.3102 7.54493 17.2952C7.30493 17.2802 7.09343 17.0822 7.08443 16.8302C7.07093 16.4612 7.08143 16.0907 7.08143 15.6977H8.06843C8.06843 16.1102 8.08793 16.5182 8.06093 16.9232ZM10.9409 16.8482C10.9304 17.1062 10.7039 17.2922 10.4459 17.2922C10.1879 17.2922 9.96143 17.1017 9.95243 16.8467C9.93893 16.4702 9.94943 16.0937 9.94943 15.7037H10.9454C10.9454 16.0952 10.9559 16.4717 10.9409 16.8482ZM13.7984 16.8917C13.7804 17.1512 13.5314 17.3087 13.2644 17.2922C13.0244 17.2772 12.8234 17.0732 12.8174 16.8152C12.8099 16.4507 12.8159 16.0862 12.8159 15.6977H13.8044C13.8044 16.0997 13.8254 16.4972 13.7969 16.8917H13.7984ZM16.6559 16.9097C16.6349 17.1647 16.3934 17.3087 16.1309 17.2922C15.8969 17.2772 15.6944 17.0867 15.6869 16.8362C15.6749 16.4657 15.6839 16.0937 15.6839 15.6992H16.6634C16.6634 16.1072 16.6874 16.5107 16.6544 16.9097H16.6559ZM19.5284 16.8842C19.5119 17.1347 19.2914 17.2937 19.0439 17.2922C18.7979 17.2922 18.5759 17.1287 18.5609 16.8827C18.5384 16.4942 18.5549 16.1027 18.5549 15.7022H19.5359C19.5359 16.1042 19.5539 16.4957 19.5299 16.8842H19.5284ZM22.3859 16.9127C22.3709 17.1467 22.1279 17.3012 21.8774 17.2922C21.6344 17.2832 21.4214 17.0957 21.4109 16.8347C21.3944 16.4642 21.4064 16.0922 21.4064 15.6992H22.3934C22.3934 16.1102 22.4114 16.5137 22.3859 16.9142V16.9127ZM23.0954 14.8982H6.39293V2.94021H23.0954V14.8982Z" fill="#EDECED"/>
<path id="Vector_6" d="M63.7185 5.12401C63.6045 3.93751 63.0795 3.00301 62.052 2.37451C61.1955 1.85101 60.2415 1.70851 59.2605 1.70551C57.453 1.69951 55.6455 1.70401 53.838 1.70401H53.6355V3.33301H54.957V14.307H53.6295V15.903H58.215V14.2965H56.823V9.33601C56.916 9.33601 56.994 9.33601 57.0735 9.33601C57.7785 9.33601 58.482 9.35401 59.187 9.33001C59.6565 9.31501 60.1335 9.28801 60.588 9.18451C62.448 8.76151 63.924 7.27501 63.7185 5.12401ZM60.774 7.46701C60.411 7.67551 60.012 7.78501 59.5965 7.79101C58.6935 7.80451 57.7905 7.79851 56.8875 7.79851C56.8695 7.79851 56.85 7.79101 56.8185 7.78351V3.33901C56.8635 3.33451 56.901 3.32701 56.9385 3.32701C57.735 3.33001 58.533 3.32401 59.3295 3.34051C59.619 3.34651 59.9145 3.38251 60.195 3.45151C61.161 3.68701 61.632 4.22101 61.7805 5.20651C61.92 6.14101 61.5255 7.03501 60.774 7.46551V7.46701Z" fill="#EDECED"/>
<path id="Vector_7" d="M91.674 9.00896C91.3005 7.98296 90.681 7.15346 89.7315 6.59096C88.821 6.05246 87.825 5.86046 86.7825 5.93996C84.918 6.08246 83.5395 6.98096 82.7715 8.70146C82.122 10.155 82.1205 11.658 82.659 13.1475C83.0985 14.361 83.898 15.2745 85.1025 15.7905C86.076 16.2075 87.09 16.293 88.128 16.1085C89.3865 15.8835 90.3885 15.252 91.107 14.1915C91.7505 13.2435 92.004 12.177 92.0055 11.073C92.007 10.347 91.911 9.66596 91.6725 9.01046L91.674 9.00896ZM89.4825 13.5285C88.29 15.1575 85.8675 15.078 84.771 13.3815C84.207 12.51 84.0705 11.5485 84.1575 10.539C84.213 9.90296 84.369 9.29396 84.723 8.75546C85.386 7.74896 86.3385 7.32146 87.5205 7.44596C88.647 7.56446 89.43 8.18546 89.8695 9.22646C89.9715 9.46946 90.054 9.72596 90.102 9.98546C90.1665 10.3365 90.1905 10.695 90.231 11.0505C90.21 11.9505 90.021 12.7935 89.481 13.53L89.4825 13.5285Z" fill="#EDECED"/>
<path id="Vector_8" d="M121.341 8.41503C120.963 7.34853 120.278 6.57003 119.192 6.19053C118.442 5.92953 117.666 5.90553 116.888 6.00903C115.395 6.21003 114.273 6.97503 113.636 8.33853C112.809 10.1055 112.821 11.9235 113.57 13.71C114.105 14.9895 115.109 15.771 116.469 16.056C117.954 16.368 119.358 16.095 120.687 15.387C120.971 15.2355 121.244 15.0615 121.527 14.8935C121.28 14.4765 121.05 14.091 120.831 13.7205C120.443 13.896 120.081 14.0835 119.703 14.226C118.694 14.6085 117.671 14.706 116.628 14.346C115.185 13.848 114.716 12.291 114.788 11.274H121.73C121.74 11.2335 121.749 11.2155 121.749 11.196C121.764 10.2465 121.661 9.31203 121.341 8.41203V8.41503ZM114.888 9.90903C114.873 8.65053 115.857 7.55253 117.09 7.43253C117.579 7.38453 118.058 7.41153 118.521 7.58103C119.081 7.78653 119.456 8.19003 119.645 8.74203C119.769 9.10803 119.826 9.49803 119.922 9.90753H114.888V9.90903Z" fill="#EDECED"/>
<path id="Vector_9" d="M17.8545 9.92401C17.8545 10.551 17.8545 11.148 17.8545 11.745C17.8545 12.3855 17.8335 12.4065 17.193 12.4065C15.546 12.4065 13.8975 12.4065 12.2505 12.4065C12.1845 12.4065 12.117 12.4095 12.051 12.4035C11.8035 12.3825 11.709 12.2835 11.7075 12.0345C11.706 11.4165 11.7075 10.7985 11.7075 10.1805C11.7075 10.1085 11.7075 10.035 11.7075 9.92251C11.526 9.92251 11.3565 9.92251 11.187 9.92251C11.034 9.92251 10.8945 9.90301 10.8225 9.74101C10.7445 9.56851 10.83 9.45151 10.944 9.33601C12.1275 8.15251 13.3095 6.96751 14.493 5.78401C14.7105 5.56651 14.844 5.56951 15.066 5.79151C15.573 6.29701 16.0785 6.80551 16.623 7.35301C16.629 7.24651 16.635 7.18651 16.6365 7.12801C16.644 6.88801 16.755 6.77101 16.989 6.76501C17.1555 6.76051 17.3205 6.76051 17.487 6.76501C17.7285 6.77101 17.8365 6.88201 17.838 7.12351C17.8395 7.59451 17.838 8.06701 17.838 8.62651C18.066 8.83501 18.3375 9.07951 18.603 9.33001C18.717 9.43651 18.8145 9.55201 18.7365 9.73051C18.6615 9.90001 18.525 9.93001 18.36 9.92401C18.2025 9.91801 18.0435 9.92401 17.8545 9.92401Z" fill="#EDECED"/>
</g>
<defs>
<clipPath id="clip0_287_3009">
<rect width="121.23" height="18" fill="white" transform="translate(0.520508)"/>
</clipPath>
</defs>
</svg>
